%TF.GenerationSoftware,KiCad,Pcbnew,(6.0.7-1)-1*%
%TF.CreationDate,2022-12-12T20:47:58-08:00*%
%TF.ProjectId,ChristmasCountdown2022,43687269-7374-46d6-9173-436f756e7464,rev?*%
%TF.SameCoordinates,Original*%
%TF.FileFunction,Legend,Bot*%
%TF.FilePolarity,Positive*%
%FSLAX46Y46*%
G04 Gerber Fmt 4.6, Leading zero omitted, Abs format (unit mm)*
G04 Created by KiCad (PCBNEW (6.0.7-1)-1) date 2022-12-12 20:47:58*
%MOMM*%
%LPD*%
G01*
G04 APERTURE LIST*
%ADD10C,0.300000*%
%ADD11C,0.150000*%
%ADD12C,0.120000*%
%ADD13C,0.127000*%
%ADD14C,0.200000*%
G04 APERTURE END LIST*
D10*
X166409142Y-96378571D02*
X166409142Y-94878571D01*
X165837714Y-94878571D01*
X165694857Y-94950000D01*
X165623428Y-95021428D01*
X165552000Y-95164285D01*
X165552000Y-95378571D01*
X165623428Y-95521428D01*
X165694857Y-95592857D01*
X165837714Y-95664285D01*
X166409142Y-95664285D01*
X164909142Y-96378571D02*
X164909142Y-95378571D01*
X164909142Y-95664285D02*
X164837714Y-95521428D01*
X164766285Y-95450000D01*
X164623428Y-95378571D01*
X164480571Y-95378571D01*
X163766285Y-96378571D02*
X163909142Y-96307142D01*
X163980571Y-96235714D01*
X164052000Y-96092857D01*
X164052000Y-95664285D01*
X163980571Y-95521428D01*
X163909142Y-95450000D01*
X163766285Y-95378571D01*
X163552000Y-95378571D01*
X163409142Y-95450000D01*
X163337714Y-95521428D01*
X163266285Y-95664285D01*
X163266285Y-96092857D01*
X163337714Y-96235714D01*
X163409142Y-96307142D01*
X163552000Y-96378571D01*
X163766285Y-96378571D01*
X161980571Y-95378571D02*
X161980571Y-96592857D01*
X162052000Y-96735714D01*
X162123428Y-96807142D01*
X162266285Y-96878571D01*
X162480571Y-96878571D01*
X162623428Y-96807142D01*
X161980571Y-96307142D02*
X162123428Y-96378571D01*
X162409142Y-96378571D01*
X162552000Y-96307142D01*
X162623428Y-96235714D01*
X162694857Y-96092857D01*
X162694857Y-95664285D01*
X162623428Y-95521428D01*
X162552000Y-95450000D01*
X162409142Y-95378571D01*
X162123428Y-95378571D01*
X161980571Y-95450000D01*
X161266285Y-96378571D02*
X161266285Y-95378571D01*
X161266285Y-95664285D02*
X161194857Y-95521428D01*
X161123428Y-95450000D01*
X160980571Y-95378571D01*
X160837714Y-95378571D01*
X159694857Y-96378571D02*
X159694857Y-95592857D01*
X159766285Y-95450000D01*
X159909142Y-95378571D01*
X160194857Y-95378571D01*
X160337714Y-95450000D01*
X159694857Y-96307142D02*
X159837714Y-96378571D01*
X160194857Y-96378571D01*
X160337714Y-96307142D01*
X160409142Y-96164285D01*
X160409142Y-96021428D01*
X160337714Y-95878571D01*
X160194857Y-95807142D01*
X159837714Y-95807142D01*
X159694857Y-95735714D01*
X158980571Y-96378571D02*
X158980571Y-95378571D01*
X158980571Y-95521428D02*
X158909142Y-95450000D01*
X158766285Y-95378571D01*
X158552000Y-95378571D01*
X158409142Y-95450000D01*
X158337714Y-95592857D01*
X158337714Y-96378571D01*
X158337714Y-95592857D02*
X158266285Y-95450000D01*
X158123428Y-95378571D01*
X157909142Y-95378571D01*
X157766285Y-95450000D01*
X157694857Y-95592857D01*
X157694857Y-96378571D01*
X163142857Y-128678571D02*
X162785714Y-129678571D01*
X162428571Y-128678571D01*
X161071428Y-129678571D02*
X161928571Y-129678571D01*
X161500000Y-129678571D02*
X161500000Y-128178571D01*
X161642857Y-128392857D01*
X161785714Y-128535714D01*
X161928571Y-128607142D01*
X160428571Y-129535714D02*
X160357142Y-129607142D01*
X160428571Y-129678571D01*
X160500000Y-129607142D01*
X160428571Y-129535714D01*
X160428571Y-129678571D01*
X159857142Y-128178571D02*
X158928571Y-128178571D01*
X159428571Y-128750000D01*
X159214285Y-128750000D01*
X159071428Y-128821428D01*
X159000000Y-128892857D01*
X158928571Y-129035714D01*
X158928571Y-129392857D01*
X159000000Y-129535714D01*
X159071428Y-129607142D01*
X159214285Y-129678571D01*
X159642857Y-129678571D01*
X159785714Y-129607142D01*
X159857142Y-129535714D01*
X140571428Y-128321428D02*
X140500000Y-128250000D01*
X140357142Y-128178571D01*
X140000000Y-128178571D01*
X139857142Y-128250000D01*
X139785714Y-128321428D01*
X139714285Y-128464285D01*
X139714285Y-128607142D01*
X139785714Y-128821428D01*
X140642857Y-129678571D01*
X139714285Y-129678571D01*
X138785714Y-128178571D02*
X138642857Y-128178571D01*
X138500000Y-128250000D01*
X138428571Y-128321428D01*
X138357142Y-128464285D01*
X138285714Y-128750000D01*
X138285714Y-129107142D01*
X138357142Y-129392857D01*
X138428571Y-129535714D01*
X138500000Y-129607142D01*
X138642857Y-129678571D01*
X138785714Y-129678571D01*
X138928571Y-129607142D01*
X139000000Y-129535714D01*
X139071428Y-129392857D01*
X139142857Y-129107142D01*
X139142857Y-128750000D01*
X139071428Y-128464285D01*
X139000000Y-128321428D01*
X138928571Y-128250000D01*
X138785714Y-128178571D01*
X137714285Y-128321428D02*
X137642857Y-128250000D01*
X137500000Y-128178571D01*
X137142857Y-128178571D01*
X137000000Y-128250000D01*
X136928571Y-128321428D01*
X136857142Y-128464285D01*
X136857142Y-128607142D01*
X136928571Y-128821428D01*
X137785714Y-129678571D01*
X136857142Y-129678571D01*
X136285714Y-128321428D02*
X136214285Y-128250000D01*
X136071428Y-128178571D01*
X135714285Y-128178571D01*
X135571428Y-128250000D01*
X135500000Y-128321428D01*
X135428571Y-128464285D01*
X135428571Y-128607142D01*
X135500000Y-128821428D01*
X136357142Y-129678571D01*
X135428571Y-129678571D01*
X139779142Y-96182571D02*
X140279142Y-95468285D01*
X140636285Y-96182571D02*
X140636285Y-94682571D01*
X140064857Y-94682571D01*
X139922000Y-94754000D01*
X139850571Y-94825428D01*
X139779142Y-94968285D01*
X139779142Y-95182571D01*
X139850571Y-95325428D01*
X139922000Y-95396857D01*
X140064857Y-95468285D01*
X140636285Y-95468285D01*
X138564857Y-96111142D02*
X138707714Y-96182571D01*
X138993428Y-96182571D01*
X139136285Y-96111142D01*
X139207714Y-95968285D01*
X139207714Y-95396857D01*
X139136285Y-95254000D01*
X138993428Y-95182571D01*
X138707714Y-95182571D01*
X138564857Y-95254000D01*
X138493428Y-95396857D01*
X138493428Y-95539714D01*
X139207714Y-95682571D01*
X137922000Y-96111142D02*
X137779142Y-96182571D01*
X137493428Y-96182571D01*
X137350571Y-96111142D01*
X137279142Y-95968285D01*
X137279142Y-95896857D01*
X137350571Y-95754000D01*
X137493428Y-95682571D01*
X137707714Y-95682571D01*
X137850571Y-95611142D01*
X137922000Y-95468285D01*
X137922000Y-95396857D01*
X137850571Y-95254000D01*
X137707714Y-95182571D01*
X137493428Y-95182571D01*
X137350571Y-95254000D01*
X136064857Y-96111142D02*
X136207714Y-96182571D01*
X136493428Y-96182571D01*
X136636285Y-96111142D01*
X136707714Y-95968285D01*
X136707714Y-95396857D01*
X136636285Y-95254000D01*
X136493428Y-95182571D01*
X136207714Y-95182571D01*
X136064857Y-95254000D01*
X135993428Y-95396857D01*
X135993428Y-95539714D01*
X136707714Y-95682571D01*
X135564857Y-95182571D02*
X134993428Y-95182571D01*
X135350571Y-94682571D02*
X135350571Y-95968285D01*
X135279142Y-96111142D01*
X135136285Y-96182571D01*
X134993428Y-96182571D01*
X155339285Y-69850000D02*
X155482142Y-69778571D01*
X155696428Y-69778571D01*
X155910714Y-69850000D01*
X156053571Y-69992857D01*
X156125000Y-70135714D01*
X156196428Y-70421428D01*
X156196428Y-70635714D01*
X156125000Y-70921428D01*
X156053571Y-71064285D01*
X155910714Y-71207142D01*
X155696428Y-71278571D01*
X155553571Y-71278571D01*
X155339285Y-71207142D01*
X155267857Y-71135714D01*
X155267857Y-70635714D01*
X155553571Y-70635714D01*
X154625000Y-70278571D02*
X154625000Y-71278571D01*
X154625000Y-70421428D02*
X154553571Y-70350000D01*
X154410714Y-70278571D01*
X154196428Y-70278571D01*
X154053571Y-70350000D01*
X153982142Y-70492857D01*
X153982142Y-71278571D01*
X152625000Y-71278571D02*
X152625000Y-69778571D01*
X152625000Y-71207142D02*
X152767857Y-71278571D01*
X153053571Y-71278571D01*
X153196428Y-71207142D01*
X153267857Y-71135714D01*
X153339285Y-70992857D01*
X153339285Y-70564285D01*
X153267857Y-70421428D01*
X153196428Y-70350000D01*
X153053571Y-70278571D01*
X152767857Y-70278571D01*
X152625000Y-70350000D01*
X146660714Y-69778571D02*
X147375000Y-69778571D01*
X147446428Y-70492857D01*
X147375000Y-70421428D01*
X147232142Y-70350000D01*
X146875000Y-70350000D01*
X146732142Y-70421428D01*
X146660714Y-70492857D01*
X146589285Y-70635714D01*
X146589285Y-70992857D01*
X146660714Y-71135714D01*
X146732142Y-71207142D01*
X146875000Y-71278571D01*
X147232142Y-71278571D01*
X147375000Y-71207142D01*
X147446428Y-71135714D01*
X146160714Y-69778571D02*
X145660714Y-71278571D01*
X145160714Y-69778571D01*
X157142857Y-83685357D02*
X157642857Y-83685357D01*
X157642857Y-84471071D02*
X157642857Y-82971071D01*
X156928571Y-82971071D01*
X156142857Y-84471071D02*
X156285714Y-84399642D01*
X156357142Y-84328214D01*
X156428571Y-84185357D01*
X156428571Y-83756785D01*
X156357142Y-83613928D01*
X156285714Y-83542500D01*
X156142857Y-83471071D01*
X155928571Y-83471071D01*
X155785714Y-83542500D01*
X155714285Y-83613928D01*
X155642857Y-83756785D01*
X155642857Y-84185357D01*
X155714285Y-84328214D01*
X155785714Y-84399642D01*
X155928571Y-84471071D01*
X156142857Y-84471071D01*
X155000000Y-84471071D02*
X155000000Y-83471071D01*
X155000000Y-83756785D02*
X154928571Y-83613928D01*
X154857142Y-83542500D01*
X154714285Y-83471071D01*
X154571428Y-83471071D01*
X152928571Y-84471071D02*
X152928571Y-82971071D01*
X152285714Y-84471071D02*
X152285714Y-83685357D01*
X152357142Y-83542500D01*
X152500000Y-83471071D01*
X152714285Y-83471071D01*
X152857142Y-83542500D01*
X152928571Y-83613928D01*
X151000000Y-84399642D02*
X151142857Y-84471071D01*
X151428571Y-84471071D01*
X151571428Y-84399642D01*
X151642857Y-84256785D01*
X151642857Y-83685357D01*
X151571428Y-83542500D01*
X151428571Y-83471071D01*
X151142857Y-83471071D01*
X151000000Y-83542500D01*
X150928571Y-83685357D01*
X150928571Y-83828214D01*
X151642857Y-83971071D01*
X150071428Y-84471071D02*
X150214285Y-84399642D01*
X150285714Y-84256785D01*
X150285714Y-82971071D01*
X149500000Y-83471071D02*
X149500000Y-84971071D01*
X149500000Y-83542500D02*
X149357142Y-83471071D01*
X149071428Y-83471071D01*
X148928571Y-83542500D01*
X148857142Y-83613928D01*
X148785714Y-83756785D01*
X148785714Y-84185357D01*
X148857142Y-84328214D01*
X148928571Y-84399642D01*
X149071428Y-84471071D01*
X149357142Y-84471071D01*
X149500000Y-84399642D01*
X147142857Y-83471071D02*
X146785714Y-84471071D01*
X146428571Y-83471071D01*
X145857142Y-84471071D02*
X145857142Y-83471071D01*
X145857142Y-82971071D02*
X145928571Y-83042500D01*
X145857142Y-83113928D01*
X145785714Y-83042500D01*
X145857142Y-82971071D01*
X145857142Y-83113928D01*
X145214285Y-84399642D02*
X145071428Y-84471071D01*
X144785714Y-84471071D01*
X144642857Y-84399642D01*
X144571428Y-84256785D01*
X144571428Y-84185357D01*
X144642857Y-84042500D01*
X144785714Y-83971071D01*
X145000000Y-83971071D01*
X145142857Y-83899642D01*
X145214285Y-83756785D01*
X145214285Y-83685357D01*
X145142857Y-83542500D01*
X145000000Y-83471071D01*
X144785714Y-83471071D01*
X144642857Y-83542500D01*
X143928571Y-84471071D02*
X143928571Y-83471071D01*
X143928571Y-82971071D02*
X144000000Y-83042500D01*
X143928571Y-83113928D01*
X143857142Y-83042500D01*
X143928571Y-82971071D01*
X143928571Y-83113928D01*
X143428571Y-83471071D02*
X142857142Y-83471071D01*
X143214285Y-82971071D02*
X143214285Y-84256785D01*
X143142857Y-84399642D01*
X143000000Y-84471071D01*
X142857142Y-84471071D01*
X142357142Y-84328214D02*
X142285714Y-84399642D01*
X142357142Y-84471071D01*
X142428571Y-84399642D01*
X142357142Y-84328214D01*
X142357142Y-84471071D01*
X142357142Y-83542500D02*
X142285714Y-83613928D01*
X142357142Y-83685357D01*
X142428571Y-83613928D01*
X142357142Y-83542500D01*
X142357142Y-83685357D01*
X166964285Y-86886071D02*
X166964285Y-85386071D01*
X166321428Y-86886071D02*
X166321428Y-86100357D01*
X166392857Y-85957500D01*
X166535714Y-85886071D01*
X166750000Y-85886071D01*
X166892857Y-85957500D01*
X166964285Y-86028928D01*
X165821428Y-85886071D02*
X165250000Y-85886071D01*
X165607142Y-85386071D02*
X165607142Y-86671785D01*
X165535714Y-86814642D01*
X165392857Y-86886071D01*
X165250000Y-86886071D01*
X164964285Y-85886071D02*
X164392857Y-85886071D01*
X164750000Y-85386071D02*
X164750000Y-86671785D01*
X164678571Y-86814642D01*
X164535714Y-86886071D01*
X164392857Y-86886071D01*
X163892857Y-85886071D02*
X163892857Y-87386071D01*
X163892857Y-85957500D02*
X163750000Y-85886071D01*
X163464285Y-85886071D01*
X163321428Y-85957500D01*
X163250000Y-86028928D01*
X163178571Y-86171785D01*
X163178571Y-86600357D01*
X163250000Y-86743214D01*
X163321428Y-86814642D01*
X163464285Y-86886071D01*
X163750000Y-86886071D01*
X163892857Y-86814642D01*
X162607142Y-86814642D02*
X162464285Y-86886071D01*
X162178571Y-86886071D01*
X162035714Y-86814642D01*
X161964285Y-86671785D01*
X161964285Y-86600357D01*
X162035714Y-86457500D01*
X162178571Y-86386071D01*
X162392857Y-86386071D01*
X162535714Y-86314642D01*
X162607142Y-86171785D01*
X162607142Y-86100357D01*
X162535714Y-85957500D01*
X162392857Y-85886071D01*
X162178571Y-85886071D01*
X162035714Y-85957500D01*
X161321428Y-86743214D02*
X161250000Y-86814642D01*
X161321428Y-86886071D01*
X161392857Y-86814642D01*
X161321428Y-86743214D01*
X161321428Y-86886071D01*
X161321428Y-85957500D02*
X161250000Y-86028928D01*
X161321428Y-86100357D01*
X161392857Y-86028928D01*
X161321428Y-85957500D01*
X161321428Y-86100357D01*
X159535714Y-85314642D02*
X160821428Y-87243214D01*
X157964285Y-85314642D02*
X159250000Y-87243214D01*
X156821428Y-86886071D02*
X156821428Y-86100357D01*
X156892857Y-85957500D01*
X157035714Y-85886071D01*
X157321428Y-85886071D01*
X157464285Y-85957500D01*
X156821428Y-86814642D02*
X156964285Y-86886071D01*
X157321428Y-86886071D01*
X157464285Y-86814642D01*
X157535714Y-86671785D01*
X157535714Y-86528928D01*
X157464285Y-86386071D01*
X157321428Y-86314642D01*
X156964285Y-86314642D01*
X156821428Y-86243214D01*
X155535714Y-86814642D02*
X155678571Y-86886071D01*
X155964285Y-86886071D01*
X156107142Y-86814642D01*
X156178571Y-86671785D01*
X156178571Y-86100357D01*
X156107142Y-85957500D01*
X155964285Y-85886071D01*
X155678571Y-85886071D01*
X155535714Y-85957500D01*
X155464285Y-86100357D01*
X155464285Y-86243214D01*
X156178571Y-86386071D01*
X154821428Y-86886071D02*
X154821428Y-85886071D01*
X154821428Y-85386071D02*
X154892857Y-85457500D01*
X154821428Y-85528928D01*
X154750000Y-85457500D01*
X154821428Y-85386071D01*
X154821428Y-85528928D01*
X153464285Y-86814642D02*
X153607142Y-86886071D01*
X153892857Y-86886071D01*
X154035714Y-86814642D01*
X154107142Y-86743214D01*
X154178571Y-86600357D01*
X154178571Y-86171785D01*
X154107142Y-86028928D01*
X154035714Y-85957500D01*
X153892857Y-85886071D01*
X153607142Y-85886071D01*
X153464285Y-85957500D01*
X152821428Y-86886071D02*
X152821428Y-85386071D01*
X152178571Y-86886071D02*
X152178571Y-86100357D01*
X152250000Y-85957500D01*
X152392857Y-85886071D01*
X152607142Y-85886071D01*
X152750000Y-85957500D01*
X152821428Y-86028928D01*
X150892857Y-86814642D02*
X151035714Y-86886071D01*
X151321428Y-86886071D01*
X151464285Y-86814642D01*
X151535714Y-86671785D01*
X151535714Y-86100357D01*
X151464285Y-85957500D01*
X151321428Y-85886071D01*
X151035714Y-85886071D01*
X150892857Y-85957500D01*
X150821428Y-86100357D01*
X150821428Y-86243214D01*
X151535714Y-86386071D01*
X150178571Y-86743214D02*
X150107142Y-86814642D01*
X150178571Y-86886071D01*
X150250000Y-86814642D01*
X150178571Y-86743214D01*
X150178571Y-86886071D01*
X148821428Y-86814642D02*
X148964285Y-86886071D01*
X149250000Y-86886071D01*
X149392857Y-86814642D01*
X149464285Y-86743214D01*
X149535714Y-86600357D01*
X149535714Y-86171785D01*
X149464285Y-86028928D01*
X149392857Y-85957500D01*
X149250000Y-85886071D01*
X148964285Y-85886071D01*
X148821428Y-85957500D01*
X147964285Y-86886071D02*
X148107142Y-86814642D01*
X148178571Y-86743214D01*
X148250000Y-86600357D01*
X148250000Y-86171785D01*
X148178571Y-86028928D01*
X148107142Y-85957500D01*
X147964285Y-85886071D01*
X147750000Y-85886071D01*
X147607142Y-85957500D01*
X147535714Y-86028928D01*
X147464285Y-86171785D01*
X147464285Y-86600357D01*
X147535714Y-86743214D01*
X147607142Y-86814642D01*
X147750000Y-86886071D01*
X147964285Y-86886071D01*
X146821428Y-86886071D02*
X146821428Y-85886071D01*
X146821428Y-86028928D02*
X146750000Y-85957500D01*
X146607142Y-85886071D01*
X146392857Y-85886071D01*
X146250000Y-85957500D01*
X146178571Y-86100357D01*
X146178571Y-86886071D01*
X146178571Y-86100357D02*
X146107142Y-85957500D01*
X145964285Y-85886071D01*
X145750000Y-85886071D01*
X145607142Y-85957500D01*
X145535714Y-86100357D01*
X145535714Y-86886071D01*
X143750000Y-85314642D02*
X145035714Y-87243214D01*
X142607142Y-86814642D02*
X142750000Y-86886071D01*
X143035714Y-86886071D01*
X143178571Y-86814642D01*
X143250000Y-86743214D01*
X143321428Y-86600357D01*
X143321428Y-86171785D01*
X143250000Y-86028928D01*
X143178571Y-85957500D01*
X143035714Y-85886071D01*
X142750000Y-85886071D01*
X142607142Y-85957500D01*
X141964285Y-86886071D02*
X141964285Y-85386071D01*
X141321428Y-86886071D02*
X141321428Y-86100357D01*
X141392857Y-85957500D01*
X141535714Y-85886071D01*
X141750000Y-85886071D01*
X141892857Y-85957500D01*
X141964285Y-86028928D01*
X140607142Y-86886071D02*
X140607142Y-85886071D01*
X140607142Y-86171785D02*
X140535714Y-86028928D01*
X140464285Y-85957500D01*
X140321428Y-85886071D01*
X140178571Y-85886071D01*
X139678571Y-86886071D02*
X139678571Y-85886071D01*
X139678571Y-85386071D02*
X139750000Y-85457500D01*
X139678571Y-85528928D01*
X139607142Y-85457500D01*
X139678571Y-85386071D01*
X139678571Y-85528928D01*
X139035714Y-86814642D02*
X138892857Y-86886071D01*
X138607142Y-86886071D01*
X138464285Y-86814642D01*
X138392857Y-86671785D01*
X138392857Y-86600357D01*
X138464285Y-86457500D01*
X138607142Y-86386071D01*
X138821428Y-86386071D01*
X138964285Y-86314642D01*
X139035714Y-86171785D01*
X139035714Y-86100357D01*
X138964285Y-85957500D01*
X138821428Y-85886071D01*
X138607142Y-85886071D01*
X138464285Y-85957500D01*
X137964285Y-85886071D02*
X137392857Y-85886071D01*
X137750000Y-85386071D02*
X137750000Y-86671785D01*
X137678571Y-86814642D01*
X137535714Y-86886071D01*
X137392857Y-86886071D01*
X136892857Y-86886071D02*
X136892857Y-85886071D01*
X136892857Y-86028928D02*
X136821428Y-85957500D01*
X136678571Y-85886071D01*
X136464285Y-85886071D01*
X136321428Y-85957500D01*
X136250000Y-86100357D01*
X136250000Y-86886071D01*
X136250000Y-86100357D02*
X136178571Y-85957500D01*
X136035714Y-85886071D01*
X135821428Y-85886071D01*
X135678571Y-85957500D01*
X135607142Y-86100357D01*
X135607142Y-86886071D01*
X134250000Y-86886071D02*
X134250000Y-86100357D01*
X134321428Y-85957500D01*
X134464285Y-85886071D01*
X134750000Y-85886071D01*
X134892857Y-85957500D01*
X134250000Y-86814642D02*
X134392857Y-86886071D01*
X134750000Y-86886071D01*
X134892857Y-86814642D01*
X134964285Y-86671785D01*
X134964285Y-86528928D01*
X134892857Y-86386071D01*
X134750000Y-86314642D01*
X134392857Y-86314642D01*
X134250000Y-86243214D01*
X133607142Y-86814642D02*
X133464285Y-86886071D01*
X133178571Y-86886071D01*
X133035714Y-86814642D01*
X132964285Y-86671785D01*
X132964285Y-86600357D01*
X133035714Y-86457500D01*
X133178571Y-86386071D01*
X133392857Y-86386071D01*
X133535714Y-86314642D01*
X133607142Y-86171785D01*
X133607142Y-86100357D01*
X133535714Y-85957500D01*
X133392857Y-85886071D01*
X133178571Y-85886071D01*
X133035714Y-85957500D01*
D11*
%TO.C,R8*%
X164453866Y-112110780D02*
X164787200Y-111634590D01*
X165025295Y-112110780D02*
X165025295Y-111110780D01*
X164644342Y-111110780D01*
X164549104Y-111158400D01*
X164501485Y-111206019D01*
X164453866Y-111301257D01*
X164453866Y-111444114D01*
X164501485Y-111539352D01*
X164549104Y-111586971D01*
X164644342Y-111634590D01*
X165025295Y-111634590D01*
X163882438Y-111539352D02*
X163977676Y-111491733D01*
X164025295Y-111444114D01*
X164072914Y-111348876D01*
X164072914Y-111301257D01*
X164025295Y-111206019D01*
X163977676Y-111158400D01*
X163882438Y-111110780D01*
X163691961Y-111110780D01*
X163596723Y-111158400D01*
X163549104Y-111206019D01*
X163501485Y-111301257D01*
X163501485Y-111348876D01*
X163549104Y-111444114D01*
X163596723Y-111491733D01*
X163691961Y-111539352D01*
X163882438Y-111539352D01*
X163977676Y-111586971D01*
X164025295Y-111634590D01*
X164072914Y-111729828D01*
X164072914Y-111920304D01*
X164025295Y-112015542D01*
X163977676Y-112063161D01*
X163882438Y-112110780D01*
X163691961Y-112110780D01*
X163596723Y-112063161D01*
X163549104Y-112015542D01*
X163501485Y-111920304D01*
X163501485Y-111729828D01*
X163549104Y-111634590D01*
X163596723Y-111586971D01*
X163691961Y-111539352D01*
%TO.C,C9*%
X163791666Y-93857142D02*
X163839285Y-93904761D01*
X163982142Y-93952380D01*
X164077380Y-93952380D01*
X164220238Y-93904761D01*
X164315476Y-93809523D01*
X164363095Y-93714285D01*
X164410714Y-93523809D01*
X164410714Y-93380952D01*
X164363095Y-93190476D01*
X164315476Y-93095238D01*
X164220238Y-93000000D01*
X164077380Y-92952380D01*
X163982142Y-92952380D01*
X163839285Y-93000000D01*
X163791666Y-93047619D01*
X163315476Y-93952380D02*
X163125000Y-93952380D01*
X163029761Y-93904761D01*
X162982142Y-93857142D01*
X162886904Y-93714285D01*
X162839285Y-93523809D01*
X162839285Y-93142857D01*
X162886904Y-93047619D01*
X162934523Y-93000000D01*
X163029761Y-92952380D01*
X163220238Y-92952380D01*
X163315476Y-93000000D01*
X163363095Y-93047619D01*
X163410714Y-93142857D01*
X163410714Y-93380952D01*
X163363095Y-93476190D01*
X163315476Y-93523809D01*
X163220238Y-93571428D01*
X163029761Y-93571428D01*
X162934523Y-93523809D01*
X162886904Y-93476190D01*
X162839285Y-93380952D01*
%TO.C,C10*%
X177680857Y-112371142D02*
X177728476Y-112418761D01*
X177871333Y-112466380D01*
X177966571Y-112466380D01*
X178109428Y-112418761D01*
X178204666Y-112323523D01*
X178252285Y-112228285D01*
X178299904Y-112037809D01*
X178299904Y-111894952D01*
X178252285Y-111704476D01*
X178204666Y-111609238D01*
X178109428Y-111514000D01*
X177966571Y-111466380D01*
X177871333Y-111466380D01*
X177728476Y-111514000D01*
X177680857Y-111561619D01*
X176728476Y-112466380D02*
X177299904Y-112466380D01*
X177014190Y-112466380D02*
X177014190Y-111466380D01*
X177109428Y-111609238D01*
X177204666Y-111704476D01*
X177299904Y-111752095D01*
X176109428Y-111466380D02*
X176014190Y-111466380D01*
X175918952Y-111514000D01*
X175871333Y-111561619D01*
X175823714Y-111656857D01*
X175776095Y-111847333D01*
X175776095Y-112085428D01*
X175823714Y-112275904D01*
X175871333Y-112371142D01*
X175918952Y-112418761D01*
X176014190Y-112466380D01*
X176109428Y-112466380D01*
X176204666Y-112418761D01*
X176252285Y-112371142D01*
X176299904Y-112275904D01*
X176347523Y-112085428D01*
X176347523Y-111847333D01*
X176299904Y-111656857D01*
X176252285Y-111561619D01*
X176204666Y-111514000D01*
X176109428Y-111466380D01*
%TO.C,J5*%
X172291651Y-112606700D02*
X171796779Y-112320986D01*
X171544215Y-113329868D02*
X172044215Y-112463843D01*
X171590582Y-112201938D02*
X170513232Y-112734630D01*
X171013232Y-111868605D02*
X171090582Y-113067963D01*
X170183318Y-112544154D02*
X170683318Y-111678128D01*
X170477121Y-111559081D01*
X170329594Y-111528892D01*
X170199496Y-111563751D01*
X170110638Y-111622420D01*
X169974160Y-111763568D01*
X169902732Y-111887286D01*
X169848733Y-112076053D01*
X169842353Y-112182341D01*
X169877213Y-112312438D01*
X169977121Y-112425106D01*
X170183318Y-112544154D01*
%TO.C,C11*%
X171842857Y-93857142D02*
X171890476Y-93904761D01*
X172033333Y-93952380D01*
X172128571Y-93952380D01*
X172271428Y-93904761D01*
X172366666Y-93809523D01*
X172414285Y-93714285D01*
X172461904Y-93523809D01*
X172461904Y-93380952D01*
X172414285Y-93190476D01*
X172366666Y-93095238D01*
X172271428Y-93000000D01*
X172128571Y-92952380D01*
X172033333Y-92952380D01*
X171890476Y-93000000D01*
X171842857Y-93047619D01*
X170890476Y-93952380D02*
X171461904Y-93952380D01*
X171176190Y-93952380D02*
X171176190Y-92952380D01*
X171271428Y-93095238D01*
X171366666Y-93190476D01*
X171461904Y-93238095D01*
X169938095Y-93952380D02*
X170509523Y-93952380D01*
X170223809Y-93952380D02*
X170223809Y-92952380D01*
X170319047Y-93095238D01*
X170414285Y-93190476D01*
X170509523Y-93238095D01*
%TO.C,R7*%
X146816666Y-115502380D02*
X147150000Y-115026190D01*
X147388095Y-115502380D02*
X147388095Y-114502380D01*
X147007142Y-114502380D01*
X146911904Y-114550000D01*
X146864285Y-114597619D01*
X146816666Y-114692857D01*
X146816666Y-114835714D01*
X146864285Y-114930952D01*
X146911904Y-114978571D01*
X147007142Y-115026190D01*
X147388095Y-115026190D01*
X146483333Y-114502380D02*
X145816666Y-114502380D01*
X146245238Y-115502380D01*
%TO.C,Q2*%
X155370238Y-99397619D02*
X155465476Y-99350000D01*
X155560714Y-99254761D01*
X155703571Y-99111904D01*
X155798809Y-99064285D01*
X155894047Y-99064285D01*
X155846428Y-99302380D02*
X155941666Y-99254761D01*
X156036904Y-99159523D01*
X156084523Y-98969047D01*
X156084523Y-98635714D01*
X156036904Y-98445238D01*
X155941666Y-98350000D01*
X155846428Y-98302380D01*
X155655952Y-98302380D01*
X155560714Y-98350000D01*
X155465476Y-98445238D01*
X155417857Y-98635714D01*
X155417857Y-98969047D01*
X155465476Y-99159523D01*
X155560714Y-99254761D01*
X155655952Y-99302380D01*
X155846428Y-99302380D01*
X155036904Y-98397619D02*
X154989285Y-98350000D01*
X154894047Y-98302380D01*
X154655952Y-98302380D01*
X154560714Y-98350000D01*
X154513095Y-98397619D01*
X154465476Y-98492857D01*
X154465476Y-98588095D01*
X154513095Y-98730952D01*
X155084523Y-99302380D01*
X154465476Y-99302380D01*
%TO.C,J6*%
X131372579Y-82861816D02*
X130974663Y-83336034D01*
X131480752Y-83325557D01*
X131388925Y-83434992D01*
X131364186Y-83538558D01*
X131370055Y-83605645D01*
X131412403Y-83703341D01*
X131594794Y-83856386D01*
X131698360Y-83881126D01*
X131765447Y-83875256D01*
X131863143Y-83832908D01*
X132046797Y-83614039D01*
X132071537Y-83510473D01*
X132065667Y-83443386D01*
X131015749Y-83805645D02*
X131373400Y-84416561D01*
X130709659Y-84170428D01*
X130270658Y-84175035D02*
X129872742Y-84649253D01*
X130378831Y-84638776D01*
X130287004Y-84748211D01*
X130262264Y-84851777D01*
X130268134Y-84918864D01*
X130310481Y-85016560D01*
X130492873Y-85169605D01*
X130596438Y-85194345D01*
X130663526Y-85188475D01*
X130761222Y-85146128D01*
X130944875Y-84927258D01*
X130969615Y-84823692D01*
X130963746Y-84756605D01*
%TO.C,C17*%
X161932857Y-106529142D02*
X161980476Y-106576761D01*
X162123333Y-106624380D01*
X162218571Y-106624380D01*
X162361428Y-106576761D01*
X162456666Y-106481523D01*
X162504285Y-106386285D01*
X162551904Y-106195809D01*
X162551904Y-106052952D01*
X162504285Y-105862476D01*
X162456666Y-105767238D01*
X162361428Y-105672000D01*
X162218571Y-105624380D01*
X162123333Y-105624380D01*
X161980476Y-105672000D01*
X161932857Y-105719619D01*
X160980476Y-106624380D02*
X161551904Y-106624380D01*
X161266190Y-106624380D02*
X161266190Y-105624380D01*
X161361428Y-105767238D01*
X161456666Y-105862476D01*
X161551904Y-105910095D01*
X160647142Y-105624380D02*
X159980476Y-105624380D01*
X160409047Y-106624380D01*
%TO.C,J8*%
X129150687Y-87310518D02*
X128904961Y-86783748D01*
X129436401Y-86815647D02*
X128570376Y-86315647D01*
X128379900Y-86645561D01*
X128373520Y-86751849D01*
X128390950Y-86816898D01*
X128449619Y-86905756D01*
X128573337Y-86977185D01*
X128679625Y-86983565D01*
X128744674Y-86966135D01*
X128833532Y-86907466D01*
X129024008Y-86577551D01*
X128141805Y-87057954D02*
X127856090Y-87552826D01*
X128864973Y-87805390D02*
X127998947Y-87305390D01*
X128187256Y-88788754D02*
X128252305Y-88771324D01*
X128364973Y-88671415D01*
X128412592Y-88588937D01*
X128442781Y-88441409D01*
X128407922Y-88311312D01*
X128349253Y-88222453D01*
X128208105Y-88085976D01*
X128084387Y-88014547D01*
X127895620Y-87960549D01*
X127789332Y-87954169D01*
X127659234Y-87989028D01*
X127546567Y-88088937D01*
X127498947Y-88171415D01*
X127468758Y-88318943D01*
X127486188Y-88383992D01*
%TO.C,C25*%
X148750257Y-103912942D02*
X148797876Y-103960561D01*
X148940733Y-104008180D01*
X149035971Y-104008180D01*
X149178828Y-103960561D01*
X149274066Y-103865323D01*
X149321685Y-103770085D01*
X149369304Y-103579609D01*
X149369304Y-103436752D01*
X149321685Y-103246276D01*
X149274066Y-103151038D01*
X149178828Y-103055800D01*
X149035971Y-103008180D01*
X148940733Y-103008180D01*
X148797876Y-103055800D01*
X148750257Y-103103419D01*
X148369304Y-103103419D02*
X148321685Y-103055800D01*
X148226447Y-103008180D01*
X147988352Y-103008180D01*
X147893114Y-103055800D01*
X147845495Y-103103419D01*
X147797876Y-103198657D01*
X147797876Y-103293895D01*
X147845495Y-103436752D01*
X148416923Y-104008180D01*
X147797876Y-104008180D01*
X146893114Y-103008180D02*
X147369304Y-103008180D01*
X147416923Y-103484371D01*
X147369304Y-103436752D01*
X147274066Y-103389133D01*
X147035971Y-103389133D01*
X146940733Y-103436752D01*
X146893114Y-103484371D01*
X146845495Y-103579609D01*
X146845495Y-103817704D01*
X146893114Y-103912942D01*
X146940733Y-103960561D01*
X147035971Y-104008180D01*
X147274066Y-104008180D01*
X147369304Y-103960561D01*
X147416923Y-103912942D01*
%TO.C,J2*%
X171746479Y-88600456D02*
X172612504Y-88100456D01*
X172493456Y-87894260D01*
X172380789Y-87794351D01*
X172250691Y-87759492D01*
X172144403Y-87765872D01*
X171955636Y-87819870D01*
X171831918Y-87891299D01*
X171690770Y-88027776D01*
X171632101Y-88116635D01*
X171597242Y-88246732D01*
X171627431Y-88394260D01*
X171746479Y-88600456D01*
X172183933Y-87358149D02*
X171898218Y-86863277D01*
X171175050Y-87610713D02*
X172041076Y-87110713D01*
X170579812Y-86579730D02*
X171158872Y-86630310D01*
X170865526Y-87074602D02*
X171731552Y-86574602D01*
X171541076Y-86244688D01*
X171452217Y-86186018D01*
X171387168Y-86168589D01*
X171280880Y-86174968D01*
X171157162Y-86246397D01*
X171098493Y-86335255D01*
X171081063Y-86400304D01*
X171087443Y-86506592D01*
X171277919Y-86836507D01*
%TO.C,C2*%
X142591666Y-106107142D02*
X142639285Y-106154761D01*
X142782142Y-106202380D01*
X142877380Y-106202380D01*
X143020238Y-106154761D01*
X143115476Y-106059523D01*
X143163095Y-105964285D01*
X143210714Y-105773809D01*
X143210714Y-105630952D01*
X143163095Y-105440476D01*
X143115476Y-105345238D01*
X143020238Y-105250000D01*
X142877380Y-105202380D01*
X142782142Y-105202380D01*
X142639285Y-105250000D01*
X142591666Y-105297619D01*
X142210714Y-105297619D02*
X142163095Y-105250000D01*
X142067857Y-105202380D01*
X141829761Y-105202380D01*
X141734523Y-105250000D01*
X141686904Y-105297619D01*
X141639285Y-105392857D01*
X141639285Y-105488095D01*
X141686904Y-105630952D01*
X142258333Y-106202380D01*
X141639285Y-106202380D01*
%TO.C,J13*%
X132101242Y-115503323D02*
X132466025Y-115197233D01*
X131823237Y-114431189D01*
X131509195Y-115316324D02*
X131253847Y-115530587D01*
X131481110Y-116023675D02*
X131845893Y-115717585D01*
X131203106Y-114951541D01*
X130838323Y-115257630D01*
X131152806Y-116299155D02*
X130510018Y-115533111D01*
X130327626Y-115686155D01*
X130248800Y-115814460D01*
X130237062Y-115948635D01*
X130261801Y-116052200D01*
X130347759Y-116228723D01*
X130439585Y-116338158D01*
X130598499Y-116453462D01*
X130696196Y-116495810D01*
X130830370Y-116507548D01*
X130970414Y-116452200D01*
X131152806Y-116299155D01*
%TO.C,R1*%
X158941666Y-80794180D02*
X159275000Y-80317990D01*
X159513095Y-80794180D02*
X159513095Y-79794180D01*
X159132142Y-79794180D01*
X159036904Y-79841800D01*
X158989285Y-79889419D01*
X158941666Y-79984657D01*
X158941666Y-80127514D01*
X158989285Y-80222752D01*
X159036904Y-80270371D01*
X159132142Y-80317990D01*
X159513095Y-80317990D01*
X157989285Y-80794180D02*
X158560714Y-80794180D01*
X158275000Y-80794180D02*
X158275000Y-79794180D01*
X158370238Y-79937038D01*
X158465476Y-80032276D01*
X158560714Y-80079895D01*
%TO.C,C12*%
X127217857Y-93857142D02*
X127265476Y-93904761D01*
X127408333Y-93952380D01*
X127503571Y-93952380D01*
X127646428Y-93904761D01*
X127741666Y-93809523D01*
X127789285Y-93714285D01*
X127836904Y-93523809D01*
X127836904Y-93380952D01*
X127789285Y-93190476D01*
X127741666Y-93095238D01*
X127646428Y-93000000D01*
X127503571Y-92952380D01*
X127408333Y-92952380D01*
X127265476Y-93000000D01*
X127217857Y-93047619D01*
X126265476Y-93952380D02*
X126836904Y-93952380D01*
X126551190Y-93952380D02*
X126551190Y-92952380D01*
X126646428Y-93095238D01*
X126741666Y-93190476D01*
X126836904Y-93238095D01*
X125884523Y-93047619D02*
X125836904Y-93000000D01*
X125741666Y-92952380D01*
X125503571Y-92952380D01*
X125408333Y-93000000D01*
X125360714Y-93047619D01*
X125313095Y-93142857D01*
X125313095Y-93238095D01*
X125360714Y-93380952D01*
X125932142Y-93952380D01*
X125313095Y-93952380D01*
%TO.C,U2*%
X150886904Y-124827380D02*
X150886904Y-125636904D01*
X150839285Y-125732142D01*
X150791666Y-125779761D01*
X150696428Y-125827380D01*
X150505952Y-125827380D01*
X150410714Y-125779761D01*
X150363095Y-125732142D01*
X150315476Y-125636904D01*
X150315476Y-124827380D01*
X149886904Y-124922619D02*
X149839285Y-124875000D01*
X149744047Y-124827380D01*
X149505952Y-124827380D01*
X149410714Y-124875000D01*
X149363095Y-124922619D01*
X149315476Y-125017857D01*
X149315476Y-125113095D01*
X149363095Y-125255952D01*
X149934523Y-125827380D01*
X149315476Y-125827380D01*
%TO.C,J10*%
X130647664Y-110732890D02*
X130152792Y-111018605D01*
X130900228Y-111741773D02*
X130400228Y-110875747D01*
X129699160Y-111280509D02*
X129534203Y-111375747D01*
X129475534Y-111464606D01*
X129440674Y-111594704D01*
X129494673Y-111783470D01*
X129661339Y-112072145D01*
X129797817Y-112213293D01*
X129927915Y-112248153D01*
X130034203Y-112241773D01*
X130199160Y-112146535D01*
X130257829Y-112057676D01*
X130292689Y-111927579D01*
X130238690Y-111738812D01*
X130072023Y-111450137D01*
X129935546Y-111308989D01*
X129805448Y-111274130D01*
X129699160Y-111280509D01*
X129456852Y-112575106D02*
X128956852Y-111709081D01*
X128961981Y-112860821D01*
X128461981Y-111994795D01*
X128287683Y-112645283D02*
X127999008Y-112811950D01*
X128137195Y-113337011D02*
X128549588Y-113098916D01*
X128049588Y-112232890D01*
X127637195Y-112470986D01*
%TO.C,X1*%
X122009523Y-99427380D02*
X121342857Y-100427380D01*
X121342857Y-99427380D02*
X122009523Y-100427380D01*
X120438095Y-100427380D02*
X121009523Y-100427380D01*
X120723809Y-100427380D02*
X120723809Y-99427380D01*
X120819047Y-99570238D01*
X120914285Y-99665476D01*
X121009523Y-99713095D01*
%TO.C,R4*%
X156036666Y-115512380D02*
X156370000Y-115036190D01*
X156608095Y-115512380D02*
X156608095Y-114512380D01*
X156227142Y-114512380D01*
X156131904Y-114560000D01*
X156084285Y-114607619D01*
X156036666Y-114702857D01*
X156036666Y-114845714D01*
X156084285Y-114940952D01*
X156131904Y-114988571D01*
X156227142Y-115036190D01*
X156608095Y-115036190D01*
X155179523Y-114845714D02*
X155179523Y-115512380D01*
X155417619Y-114464761D02*
X155655714Y-115179047D01*
X155036666Y-115179047D01*
%TO.C,C23*%
X137929857Y-124182142D02*
X137977476Y-124229761D01*
X138120333Y-124277380D01*
X138215571Y-124277380D01*
X138358428Y-124229761D01*
X138453666Y-124134523D01*
X138501285Y-124039285D01*
X138548904Y-123848809D01*
X138548904Y-123705952D01*
X138501285Y-123515476D01*
X138453666Y-123420238D01*
X138358428Y-123325000D01*
X138215571Y-123277380D01*
X138120333Y-123277380D01*
X137977476Y-123325000D01*
X137929857Y-123372619D01*
X137548904Y-123372619D02*
X137501285Y-123325000D01*
X137406047Y-123277380D01*
X137167952Y-123277380D01*
X137072714Y-123325000D01*
X137025095Y-123372619D01*
X136977476Y-123467857D01*
X136977476Y-123563095D01*
X137025095Y-123705952D01*
X137596523Y-124277380D01*
X136977476Y-124277380D01*
X136644142Y-123277380D02*
X136025095Y-123277380D01*
X136358428Y-123658333D01*
X136215571Y-123658333D01*
X136120333Y-123705952D01*
X136072714Y-123753571D01*
X136025095Y-123848809D01*
X136025095Y-124086904D01*
X136072714Y-124182142D01*
X136120333Y-124229761D01*
X136215571Y-124277380D01*
X136501285Y-124277380D01*
X136596523Y-124229761D01*
X136644142Y-124182142D01*
%TO.C,J9*%
X163963225Y-114945988D02*
X164670331Y-114238881D01*
X164198927Y-113767477D02*
X164064240Y-113632790D01*
X163963225Y-113599118D01*
X163828538Y-113599118D01*
X163660179Y-113700133D01*
X163424477Y-113935835D01*
X163323461Y-114104194D01*
X163323461Y-114238881D01*
X163357133Y-114339896D01*
X163491820Y-114474583D01*
X163592835Y-114508255D01*
X163727522Y-114508255D01*
X163895881Y-114407240D01*
X164131583Y-114171538D01*
X164232599Y-114003179D01*
X164232599Y-113868492D01*
X164198927Y-113767477D01*
X163188774Y-113363416D02*
X163289790Y-113397087D01*
X163357133Y-113397087D01*
X163458148Y-113363416D01*
X163491820Y-113329744D01*
X163525492Y-113228729D01*
X163525492Y-113161385D01*
X163491820Y-113060370D01*
X163357133Y-112925683D01*
X163256118Y-112892011D01*
X163188774Y-112892011D01*
X163087759Y-112925683D01*
X163054087Y-112959355D01*
X163020416Y-113060370D01*
X163020416Y-113127713D01*
X163054087Y-113228729D01*
X163188774Y-113363416D01*
X163222446Y-113464431D01*
X163222446Y-113531774D01*
X163188774Y-113632790D01*
X163054087Y-113767477D01*
X162953072Y-113801148D01*
X162885729Y-113801148D01*
X162784713Y-113767477D01*
X162650026Y-113632790D01*
X162616355Y-113531774D01*
X162616355Y-113464431D01*
X162650026Y-113363416D01*
X162784713Y-113228729D01*
X162885729Y-113195057D01*
X162953072Y-113195057D01*
X163054087Y-113228729D01*
%TO.C,R10*%
X159826193Y-123384180D02*
X160159526Y-122907990D01*
X160397621Y-123384180D02*
X160397621Y-122384180D01*
X160016669Y-122384180D01*
X159921431Y-122431800D01*
X159873812Y-122479419D01*
X159826193Y-122574657D01*
X159826193Y-122717514D01*
X159873812Y-122812752D01*
X159921431Y-122860371D01*
X160016669Y-122907990D01*
X160397621Y-122907990D01*
X158873812Y-123384180D02*
X159445240Y-123384180D01*
X159159526Y-123384180D02*
X159159526Y-122384180D01*
X159254764Y-122527038D01*
X159350002Y-122622276D01*
X159445240Y-122669895D01*
X158254764Y-122384180D02*
X158159526Y-122384180D01*
X158064288Y-122431800D01*
X158016669Y-122479419D01*
X157969050Y-122574657D01*
X157921431Y-122765133D01*
X157921431Y-123003228D01*
X157969050Y-123193704D01*
X158016669Y-123288942D01*
X158064288Y-123336561D01*
X158159526Y-123384180D01*
X158254764Y-123384180D01*
X158350002Y-123336561D01*
X158397621Y-123288942D01*
X158445240Y-123193704D01*
X158492859Y-123003228D01*
X158492859Y-122765133D01*
X158445240Y-122574657D01*
X158397621Y-122479419D01*
X158350002Y-122431800D01*
X158254764Y-122384180D01*
%TO.C,MOSFET1*%
X147946428Y-75152380D02*
X147946428Y-74152380D01*
X147613095Y-74866666D01*
X147279761Y-74152380D01*
X147279761Y-75152380D01*
X146613095Y-74152380D02*
X146422619Y-74152380D01*
X146327380Y-74200000D01*
X146232142Y-74295238D01*
X146184523Y-74485714D01*
X146184523Y-74819047D01*
X146232142Y-75009523D01*
X146327380Y-75104761D01*
X146422619Y-75152380D01*
X146613095Y-75152380D01*
X146708333Y-75104761D01*
X146803571Y-75009523D01*
X146851190Y-74819047D01*
X146851190Y-74485714D01*
X146803571Y-74295238D01*
X146708333Y-74200000D01*
X146613095Y-74152380D01*
X145803571Y-75104761D02*
X145660714Y-75152380D01*
X145422619Y-75152380D01*
X145327380Y-75104761D01*
X145279761Y-75057142D01*
X145232142Y-74961904D01*
X145232142Y-74866666D01*
X145279761Y-74771428D01*
X145327380Y-74723809D01*
X145422619Y-74676190D01*
X145613095Y-74628571D01*
X145708333Y-74580952D01*
X145755952Y-74533333D01*
X145803571Y-74438095D01*
X145803571Y-74342857D01*
X145755952Y-74247619D01*
X145708333Y-74200000D01*
X145613095Y-74152380D01*
X145375000Y-74152380D01*
X145232142Y-74200000D01*
X144470238Y-74628571D02*
X144803571Y-74628571D01*
X144803571Y-75152380D02*
X144803571Y-74152380D01*
X144327380Y-74152380D01*
X143946428Y-74628571D02*
X143613095Y-74628571D01*
X143470238Y-75152380D02*
X143946428Y-75152380D01*
X143946428Y-74152380D01*
X143470238Y-74152380D01*
X143184523Y-74152380D02*
X142613095Y-74152380D01*
X142898809Y-75152380D02*
X142898809Y-74152380D01*
X141755952Y-75152380D02*
X142327380Y-75152380D01*
X142041666Y-75152380D02*
X142041666Y-74152380D01*
X142136904Y-74295238D01*
X142232142Y-74390476D01*
X142327380Y-74438095D01*
%TO.C,U1*%
X154736904Y-74252380D02*
X154736904Y-75061904D01*
X154689285Y-75157142D01*
X154641666Y-75204761D01*
X154546428Y-75252380D01*
X154355952Y-75252380D01*
X154260714Y-75204761D01*
X154213095Y-75157142D01*
X154165476Y-75061904D01*
X154165476Y-74252380D01*
X153165476Y-75252380D02*
X153736904Y-75252380D01*
X153451190Y-75252380D02*
X153451190Y-74252380D01*
X153546428Y-74395238D01*
X153641666Y-74490476D01*
X153736904Y-74538095D01*
%TO.C,J14*%
X161601025Y-120533988D02*
X162308131Y-119826881D01*
X161836727Y-119355477D02*
X161702040Y-119220790D01*
X161601025Y-119187118D01*
X161466338Y-119187118D01*
X161297979Y-119288133D01*
X161062277Y-119523835D01*
X160961261Y-119692194D01*
X160961261Y-119826881D01*
X160994933Y-119927896D01*
X161129620Y-120062583D01*
X161230635Y-120096255D01*
X161365322Y-120096255D01*
X161533681Y-119995240D01*
X161769383Y-119759538D01*
X161870399Y-119591179D01*
X161870399Y-119456492D01*
X161836727Y-119355477D01*
X160489857Y-119422820D02*
X160355170Y-119288133D01*
X160321498Y-119187118D01*
X160321498Y-119119774D01*
X160355170Y-118951416D01*
X160456185Y-118783057D01*
X160725559Y-118513683D01*
X160826574Y-118480011D01*
X160893918Y-118480011D01*
X160994933Y-118513683D01*
X161129620Y-118648370D01*
X161163292Y-118749385D01*
X161163292Y-118816729D01*
X161129620Y-118917744D01*
X160961261Y-119086103D01*
X160860246Y-119119774D01*
X160792903Y-119119774D01*
X160691887Y-119086103D01*
X160557200Y-118951416D01*
X160523529Y-118850400D01*
X160523529Y-118783057D01*
X160557200Y-118682042D01*
%TO.C,Y1*%
X153976190Y-106406190D02*
X153976190Y-106882380D01*
X154309523Y-105882380D02*
X153976190Y-106406190D01*
X153642857Y-105882380D01*
X152785714Y-106882380D02*
X153357142Y-106882380D01*
X153071428Y-106882380D02*
X153071428Y-105882380D01*
X153166666Y-106025238D01*
X153261904Y-106120476D01*
X153357142Y-106168095D01*
%TO.C,R9*%
X138977666Y-116530380D02*
X139311000Y-116054190D01*
X139549095Y-116530380D02*
X139549095Y-115530380D01*
X139168142Y-115530380D01*
X139072904Y-115578000D01*
X139025285Y-115625619D01*
X138977666Y-115720857D01*
X138977666Y-115863714D01*
X139025285Y-115958952D01*
X139072904Y-116006571D01*
X139168142Y-116054190D01*
X139549095Y-116054190D01*
X138501476Y-116530380D02*
X138311000Y-116530380D01*
X138215761Y-116482761D01*
X138168142Y-116435142D01*
X138072904Y-116292285D01*
X138025285Y-116101809D01*
X138025285Y-115720857D01*
X138072904Y-115625619D01*
X138120523Y-115578000D01*
X138215761Y-115530380D01*
X138406238Y-115530380D01*
X138501476Y-115578000D01*
X138549095Y-115625619D01*
X138596714Y-115720857D01*
X138596714Y-115958952D01*
X138549095Y-116054190D01*
X138501476Y-116101809D01*
X138406238Y-116149428D01*
X138215761Y-116149428D01*
X138120523Y-116101809D01*
X138072904Y-116054190D01*
X138025285Y-115958952D01*
%TO.C,J12*%
X142795583Y-114666003D02*
X142660896Y-114598660D01*
X142492538Y-114430301D01*
X142458866Y-114329286D01*
X142458866Y-114261942D01*
X142492538Y-114160927D01*
X142559881Y-114093583D01*
X142660896Y-114059912D01*
X142728240Y-114059912D01*
X142829255Y-114093583D01*
X142997614Y-114194599D01*
X143098629Y-114228270D01*
X143165973Y-114228270D01*
X143266988Y-114194599D01*
X143334331Y-114127255D01*
X143368003Y-114026240D01*
X143368003Y-113958896D01*
X143334331Y-113857881D01*
X143165973Y-113689522D01*
X143031286Y-113622179D01*
X141718087Y-113521164D02*
X141718087Y-113588507D01*
X141785431Y-113723194D01*
X141852774Y-113790538D01*
X141987461Y-113857881D01*
X142122148Y-113857881D01*
X142223164Y-113824209D01*
X142391522Y-113723194D01*
X142492538Y-113622179D01*
X142593553Y-113453820D01*
X142627225Y-113352805D01*
X142627225Y-113218118D01*
X142559881Y-113083431D01*
X142492538Y-113016087D01*
X142357851Y-112948744D01*
X142290507Y-112948744D01*
X141010981Y-112948744D02*
X141347698Y-113285461D01*
X142054805Y-112578355D01*
%TO.C,S1*%
X162539619Y-100335047D02*
X162448190Y-100365523D01*
X162295809Y-100365523D01*
X162234857Y-100335047D01*
X162204380Y-100304571D01*
X162173904Y-100243619D01*
X162173904Y-100182666D01*
X162204380Y-100121714D01*
X162234857Y-100091238D01*
X162295809Y-100060761D01*
X162417714Y-100030285D01*
X162478666Y-99999809D01*
X162509142Y-99969333D01*
X162539619Y-99908380D01*
X162539619Y-99847428D01*
X162509142Y-99786476D01*
X162478666Y-99756000D01*
X162417714Y-99725523D01*
X162265333Y-99725523D01*
X162173904Y-99756000D01*
X161564380Y-100365523D02*
X161930095Y-100365523D01*
X161747238Y-100365523D02*
X161747238Y-99725523D01*
X161808190Y-99816952D01*
X161869142Y-99877904D01*
X161930095Y-99908380D01*
%TO.C,C20*%
X156040057Y-103150942D02*
X156087676Y-103198561D01*
X156230533Y-103246180D01*
X156325771Y-103246180D01*
X156468628Y-103198561D01*
X156563866Y-103103323D01*
X156611485Y-103008085D01*
X156659104Y-102817609D01*
X156659104Y-102674752D01*
X156611485Y-102484276D01*
X156563866Y-102389038D01*
X156468628Y-102293800D01*
X156325771Y-102246180D01*
X156230533Y-102246180D01*
X156087676Y-102293800D01*
X156040057Y-102341419D01*
X155659104Y-102341419D02*
X155611485Y-102293800D01*
X155516247Y-102246180D01*
X155278152Y-102246180D01*
X155182914Y-102293800D01*
X155135295Y-102341419D01*
X155087676Y-102436657D01*
X155087676Y-102531895D01*
X155135295Y-102674752D01*
X155706723Y-103246180D01*
X155087676Y-103246180D01*
X154468628Y-102246180D02*
X154373390Y-102246180D01*
X154278152Y-102293800D01*
X154230533Y-102341419D01*
X154182914Y-102436657D01*
X154135295Y-102627133D01*
X154135295Y-102865228D01*
X154182914Y-103055704D01*
X154230533Y-103150942D01*
X154278152Y-103198561D01*
X154373390Y-103246180D01*
X154468628Y-103246180D01*
X154563866Y-103198561D01*
X154611485Y-103150942D01*
X154659104Y-103055704D01*
X154706723Y-102865228D01*
X154706723Y-102627133D01*
X154659104Y-102436657D01*
X154611485Y-102341419D01*
X154563866Y-102293800D01*
X154468628Y-102246180D01*
%TO.C,C14*%
X158017857Y-75157142D02*
X158065476Y-75204761D01*
X158208333Y-75252380D01*
X158303571Y-75252380D01*
X158446428Y-75204761D01*
X158541666Y-75109523D01*
X158589285Y-75014285D01*
X158636904Y-74823809D01*
X158636904Y-74680952D01*
X158589285Y-74490476D01*
X158541666Y-74395238D01*
X158446428Y-74300000D01*
X158303571Y-74252380D01*
X158208333Y-74252380D01*
X158065476Y-74300000D01*
X158017857Y-74347619D01*
X157065476Y-75252380D02*
X157636904Y-75252380D01*
X157351190Y-75252380D02*
X157351190Y-74252380D01*
X157446428Y-74395238D01*
X157541666Y-74490476D01*
X157636904Y-74538095D01*
X156208333Y-74585714D02*
X156208333Y-75252380D01*
X156446428Y-74204761D02*
X156684523Y-74919047D01*
X156065476Y-74919047D01*
%TO.C,BT1*%
X172160714Y-96728571D02*
X172017857Y-96776190D01*
X171970238Y-96823809D01*
X171922619Y-96919047D01*
X171922619Y-97061904D01*
X171970238Y-97157142D01*
X172017857Y-97204761D01*
X172113095Y-97252380D01*
X172494047Y-97252380D01*
X172494047Y-96252380D01*
X172160714Y-96252380D01*
X172065476Y-96300000D01*
X172017857Y-96347619D01*
X171970238Y-96442857D01*
X171970238Y-96538095D01*
X172017857Y-96633333D01*
X172065476Y-96680952D01*
X172160714Y-96728571D01*
X172494047Y-96728571D01*
X171636904Y-96252380D02*
X171065476Y-96252380D01*
X171351190Y-97252380D02*
X171351190Y-96252380D01*
X170208333Y-97252380D02*
X170779761Y-97252380D01*
X170494047Y-97252380D02*
X170494047Y-96252380D01*
X170589285Y-96395238D01*
X170684523Y-96490476D01*
X170779761Y-96538095D01*
%TO.C,C3*%
X143041666Y-93857142D02*
X143089285Y-93904761D01*
X143232142Y-93952380D01*
X143327380Y-93952380D01*
X143470238Y-93904761D01*
X143565476Y-93809523D01*
X143613095Y-93714285D01*
X143660714Y-93523809D01*
X143660714Y-93380952D01*
X143613095Y-93190476D01*
X143565476Y-93095238D01*
X143470238Y-93000000D01*
X143327380Y-92952380D01*
X143232142Y-92952380D01*
X143089285Y-93000000D01*
X143041666Y-93047619D01*
X142708333Y-92952380D02*
X142089285Y-92952380D01*
X142422619Y-93333333D01*
X142279761Y-93333333D01*
X142184523Y-93380952D01*
X142136904Y-93428571D01*
X142089285Y-93523809D01*
X142089285Y-93761904D01*
X142136904Y-93857142D01*
X142184523Y-93904761D01*
X142279761Y-93952380D01*
X142565476Y-93952380D01*
X142660714Y-93904761D01*
X142708333Y-93857142D01*
%TO.C,IO0*%
X134321425Y-118527388D02*
X135028531Y-117820281D01*
X134557127Y-117348877D02*
X134422440Y-117214190D01*
X134321425Y-117180518D01*
X134186738Y-117180518D01*
X134018379Y-117281533D01*
X133782677Y-117517235D01*
X133681661Y-117685594D01*
X133681661Y-117820281D01*
X133715333Y-117921296D01*
X133850020Y-118055983D01*
X133951035Y-118089655D01*
X134085722Y-118089655D01*
X134254081Y-117988640D01*
X134489783Y-117752938D01*
X134590799Y-117584579D01*
X134590799Y-117449892D01*
X134557127Y-117348877D01*
X133816348Y-116608098D02*
X133749005Y-116540755D01*
X133647990Y-116507083D01*
X133580646Y-116507083D01*
X133479631Y-116540755D01*
X133311272Y-116641770D01*
X133142913Y-116810129D01*
X133041898Y-116978487D01*
X133008226Y-117079503D01*
X133008226Y-117146846D01*
X133041898Y-117247861D01*
X133109242Y-117315205D01*
X133210257Y-117348877D01*
X133277600Y-117348877D01*
X133378616Y-117315205D01*
X133546974Y-117214190D01*
X133715333Y-117045831D01*
X133816348Y-116877472D01*
X133850020Y-116776457D01*
X133850020Y-116709113D01*
X133816348Y-116608098D01*
%TO.C,C24*%
X137040857Y-125807742D02*
X137088476Y-125855361D01*
X137231333Y-125902980D01*
X137326571Y-125902980D01*
X137469428Y-125855361D01*
X137564666Y-125760123D01*
X137612285Y-125664885D01*
X137659904Y-125474409D01*
X137659904Y-125331552D01*
X137612285Y-125141076D01*
X137564666Y-125045838D01*
X137469428Y-124950600D01*
X137326571Y-124902980D01*
X137231333Y-124902980D01*
X137088476Y-124950600D01*
X137040857Y-124998219D01*
X136659904Y-124998219D02*
X136612285Y-124950600D01*
X136517047Y-124902980D01*
X136278952Y-124902980D01*
X136183714Y-124950600D01*
X136136095Y-124998219D01*
X136088476Y-125093457D01*
X136088476Y-125188695D01*
X136136095Y-125331552D01*
X136707523Y-125902980D01*
X136088476Y-125902980D01*
X135231333Y-125236314D02*
X135231333Y-125902980D01*
X135469428Y-124855361D02*
X135707523Y-125569647D01*
X135088476Y-125569647D01*
%TO.C,R6*%
X148541666Y-96152380D02*
X148875000Y-95676190D01*
X149113095Y-96152380D02*
X149113095Y-95152380D01*
X148732142Y-95152380D01*
X148636904Y-95200000D01*
X148589285Y-95247619D01*
X148541666Y-95342857D01*
X148541666Y-95485714D01*
X148589285Y-95580952D01*
X148636904Y-95628571D01*
X148732142Y-95676190D01*
X149113095Y-95676190D01*
X147684523Y-95152380D02*
X147875000Y-95152380D01*
X147970238Y-95200000D01*
X148017857Y-95247619D01*
X148113095Y-95390476D01*
X148160714Y-95580952D01*
X148160714Y-95961904D01*
X148113095Y-96057142D01*
X148065476Y-96104761D01*
X147970238Y-96152380D01*
X147779761Y-96152380D01*
X147684523Y-96104761D01*
X147636904Y-96057142D01*
X147589285Y-95961904D01*
X147589285Y-95723809D01*
X147636904Y-95628571D01*
X147684523Y-95580952D01*
X147779761Y-95533333D01*
X147970238Y-95533333D01*
X148065476Y-95580952D01*
X148113095Y-95628571D01*
X148160714Y-95723809D01*
%TO.C,IO5*%
X137293225Y-111745588D02*
X138000331Y-111038481D01*
X137528927Y-110567077D02*
X137394240Y-110432390D01*
X137293225Y-110398718D01*
X137158538Y-110398718D01*
X136990179Y-110499733D01*
X136754477Y-110735435D01*
X136653461Y-110903794D01*
X136653461Y-111038481D01*
X136687133Y-111139496D01*
X136821820Y-111274183D01*
X136922835Y-111307855D01*
X137057522Y-111307855D01*
X137225881Y-111206840D01*
X137461583Y-110971138D01*
X137562599Y-110802779D01*
X137562599Y-110668092D01*
X137528927Y-110567077D01*
X136586118Y-109624268D02*
X136922835Y-109960985D01*
X136619790Y-110331374D01*
X136619790Y-110264031D01*
X136586118Y-110163016D01*
X136417759Y-109994657D01*
X136316744Y-109960985D01*
X136249400Y-109960985D01*
X136148385Y-109994657D01*
X135980026Y-110163016D01*
X135946355Y-110264031D01*
X135946355Y-110331374D01*
X135980026Y-110432390D01*
X136148385Y-110600748D01*
X136249400Y-110634420D01*
X136316744Y-110634420D01*
%TO.C,C5*%
X157341866Y-106656142D02*
X157389485Y-106703761D01*
X157532342Y-106751380D01*
X157627580Y-106751380D01*
X157770438Y-106703761D01*
X157865676Y-106608523D01*
X157913295Y-106513285D01*
X157960914Y-106322809D01*
X157960914Y-106179952D01*
X157913295Y-105989476D01*
X157865676Y-105894238D01*
X157770438Y-105799000D01*
X157627580Y-105751380D01*
X157532342Y-105751380D01*
X157389485Y-105799000D01*
X157341866Y-105846619D01*
X156437104Y-105751380D02*
X156913295Y-105751380D01*
X156960914Y-106227571D01*
X156913295Y-106179952D01*
X156818057Y-106132333D01*
X156579961Y-106132333D01*
X156484723Y-106179952D01*
X156437104Y-106227571D01*
X156389485Y-106322809D01*
X156389485Y-106560904D01*
X156437104Y-106656142D01*
X156484723Y-106703761D01*
X156579961Y-106751380D01*
X156818057Y-106751380D01*
X156913295Y-106703761D01*
X156960914Y-106656142D01*
%TO.C,R3*%
X149566666Y-114077380D02*
X149900000Y-113601190D01*
X150138095Y-114077380D02*
X150138095Y-113077380D01*
X149757142Y-113077380D01*
X149661904Y-113125000D01*
X149614285Y-113172619D01*
X149566666Y-113267857D01*
X149566666Y-113410714D01*
X149614285Y-113505952D01*
X149661904Y-113553571D01*
X149757142Y-113601190D01*
X150138095Y-113601190D01*
X149233333Y-113077380D02*
X148614285Y-113077380D01*
X148947619Y-113458333D01*
X148804761Y-113458333D01*
X148709523Y-113505952D01*
X148661904Y-113553571D01*
X148614285Y-113648809D01*
X148614285Y-113886904D01*
X148661904Y-113982142D01*
X148709523Y-114029761D01*
X148804761Y-114077380D01*
X149090476Y-114077380D01*
X149185714Y-114029761D01*
X149233333Y-113982142D01*
%TO.C,C13*%
X139567857Y-74107142D02*
X139615476Y-74154761D01*
X139758333Y-74202380D01*
X139853571Y-74202380D01*
X139996428Y-74154761D01*
X140091666Y-74059523D01*
X140139285Y-73964285D01*
X140186904Y-73773809D01*
X140186904Y-73630952D01*
X140139285Y-73440476D01*
X140091666Y-73345238D01*
X139996428Y-73250000D01*
X139853571Y-73202380D01*
X139758333Y-73202380D01*
X139615476Y-73250000D01*
X139567857Y-73297619D01*
X138615476Y-74202380D02*
X139186904Y-74202380D01*
X138901190Y-74202380D02*
X138901190Y-73202380D01*
X138996428Y-73345238D01*
X139091666Y-73440476D01*
X139186904Y-73488095D01*
X138282142Y-73202380D02*
X137663095Y-73202380D01*
X137996428Y-73583333D01*
X137853571Y-73583333D01*
X137758333Y-73630952D01*
X137710714Y-73678571D01*
X137663095Y-73773809D01*
X137663095Y-74011904D01*
X137710714Y-74107142D01*
X137758333Y-74154761D01*
X137853571Y-74202380D01*
X138139285Y-74202380D01*
X138234523Y-74154761D01*
X138282142Y-74107142D01*
%TO.C,C22*%
X142374857Y-116435142D02*
X142422476Y-116482761D01*
X142565333Y-116530380D01*
X142660571Y-116530380D01*
X142803428Y-116482761D01*
X142898666Y-116387523D01*
X142946285Y-116292285D01*
X142993904Y-116101809D01*
X142993904Y-115958952D01*
X142946285Y-115768476D01*
X142898666Y-115673238D01*
X142803428Y-115578000D01*
X142660571Y-115530380D01*
X142565333Y-115530380D01*
X142422476Y-115578000D01*
X142374857Y-115625619D01*
X141993904Y-115625619D02*
X141946285Y-115578000D01*
X141851047Y-115530380D01*
X141612952Y-115530380D01*
X141517714Y-115578000D01*
X141470095Y-115625619D01*
X141422476Y-115720857D01*
X141422476Y-115816095D01*
X141470095Y-115958952D01*
X142041523Y-116530380D01*
X141422476Y-116530380D01*
X141041523Y-115625619D02*
X140993904Y-115578000D01*
X140898666Y-115530380D01*
X140660571Y-115530380D01*
X140565333Y-115578000D01*
X140517714Y-115625619D01*
X140470095Y-115720857D01*
X140470095Y-115816095D01*
X140517714Y-115958952D01*
X141089142Y-116530380D01*
X140470095Y-116530380D01*
%TO.C,C8*%
X171166666Y-109057142D02*
X171214285Y-109104761D01*
X171357142Y-109152380D01*
X171452380Y-109152380D01*
X171595238Y-109104761D01*
X171690476Y-109009523D01*
X171738095Y-108914285D01*
X171785714Y-108723809D01*
X171785714Y-108580952D01*
X171738095Y-108390476D01*
X171690476Y-108295238D01*
X171595238Y-108200000D01*
X171452380Y-108152380D01*
X171357142Y-108152380D01*
X171214285Y-108200000D01*
X171166666Y-108247619D01*
X170595238Y-108580952D02*
X170690476Y-108533333D01*
X170738095Y-108485714D01*
X170785714Y-108390476D01*
X170785714Y-108342857D01*
X170738095Y-108247619D01*
X170690476Y-108200000D01*
X170595238Y-108152380D01*
X170404761Y-108152380D01*
X170309523Y-108200000D01*
X170261904Y-108247619D01*
X170214285Y-108342857D01*
X170214285Y-108390476D01*
X170261904Y-108485714D01*
X170309523Y-108533333D01*
X170404761Y-108580952D01*
X170595238Y-108580952D01*
X170690476Y-108628571D01*
X170738095Y-108676190D01*
X170785714Y-108771428D01*
X170785714Y-108961904D01*
X170738095Y-109057142D01*
X170690476Y-109104761D01*
X170595238Y-109152380D01*
X170404761Y-109152380D01*
X170309523Y-109104761D01*
X170261904Y-109057142D01*
X170214285Y-108961904D01*
X170214285Y-108771428D01*
X170261904Y-108676190D01*
X170309523Y-108628571D01*
X170404761Y-108580952D01*
%TO.C,C21*%
X169642857Y-103157142D02*
X169690476Y-103204761D01*
X169833333Y-103252380D01*
X169928571Y-103252380D01*
X170071428Y-103204761D01*
X170166666Y-103109523D01*
X170214285Y-103014285D01*
X170261904Y-102823809D01*
X170261904Y-102680952D01*
X170214285Y-102490476D01*
X170166666Y-102395238D01*
X170071428Y-102300000D01*
X169928571Y-102252380D01*
X169833333Y-102252380D01*
X169690476Y-102300000D01*
X169642857Y-102347619D01*
X169261904Y-102347619D02*
X169214285Y-102300000D01*
X169119047Y-102252380D01*
X168880952Y-102252380D01*
X168785714Y-102300000D01*
X168738095Y-102347619D01*
X168690476Y-102442857D01*
X168690476Y-102538095D01*
X168738095Y-102680952D01*
X169309523Y-103252380D01*
X168690476Y-103252380D01*
X167738095Y-103252380D02*
X168309523Y-103252380D01*
X168023809Y-103252380D02*
X168023809Y-102252380D01*
X168119047Y-102395238D01*
X168214285Y-102490476D01*
X168309523Y-102538095D01*
%TO.C,J7*%
X166839942Y-118076705D02*
X167547049Y-117369599D01*
X167075644Y-116898194D02*
X166940957Y-116763507D01*
X166839942Y-116729835D01*
X166705255Y-116729835D01*
X166536896Y-116830851D01*
X166301194Y-117066553D01*
X166200179Y-117234912D01*
X166200179Y-117369599D01*
X166233851Y-117470614D01*
X166368538Y-117605301D01*
X166469553Y-117638973D01*
X166604240Y-117638973D01*
X166772599Y-117537957D01*
X167008301Y-117302255D01*
X167109316Y-117133896D01*
X167109316Y-116999209D01*
X167075644Y-116898194D01*
X165392057Y-116628820D02*
X165796118Y-117032881D01*
X165594087Y-116830851D02*
X166301194Y-116123744D01*
X166267522Y-116292103D01*
X166267522Y-116426790D01*
X166301194Y-116527805D01*
X165392057Y-115820698D02*
X165493072Y-115854370D01*
X165560416Y-115854370D01*
X165661431Y-115820698D01*
X165695103Y-115787026D01*
X165728774Y-115686011D01*
X165728774Y-115618668D01*
X165695103Y-115517652D01*
X165560416Y-115382965D01*
X165459400Y-115349294D01*
X165392057Y-115349294D01*
X165291042Y-115382965D01*
X165257370Y-115416637D01*
X165223698Y-115517652D01*
X165223698Y-115584996D01*
X165257370Y-115686011D01*
X165392057Y-115820698D01*
X165425729Y-115921713D01*
X165425729Y-115989057D01*
X165392057Y-116090072D01*
X165257370Y-116224759D01*
X165156355Y-116258431D01*
X165089011Y-116258431D01*
X164987996Y-116224759D01*
X164853309Y-116090072D01*
X164819637Y-115989057D01*
X164819637Y-115921713D01*
X164853309Y-115820698D01*
X164987996Y-115686011D01*
X165089011Y-115652339D01*
X165156355Y-115652339D01*
X165257370Y-115686011D01*
%TO.C,C15*%
X165617857Y-74757142D02*
X165665476Y-74804761D01*
X165808333Y-74852380D01*
X165903571Y-74852380D01*
X166046428Y-74804761D01*
X166141666Y-74709523D01*
X166189285Y-74614285D01*
X166236904Y-74423809D01*
X166236904Y-74280952D01*
X166189285Y-74090476D01*
X166141666Y-73995238D01*
X166046428Y-73900000D01*
X165903571Y-73852380D01*
X165808333Y-73852380D01*
X165665476Y-73900000D01*
X165617857Y-73947619D01*
X164665476Y-74852380D02*
X165236904Y-74852380D01*
X164951190Y-74852380D02*
X164951190Y-73852380D01*
X165046428Y-73995238D01*
X165141666Y-74090476D01*
X165236904Y-74138095D01*
X163760714Y-73852380D02*
X164236904Y-73852380D01*
X164284523Y-74328571D01*
X164236904Y-74280952D01*
X164141666Y-74233333D01*
X163903571Y-74233333D01*
X163808333Y-74280952D01*
X163760714Y-74328571D01*
X163713095Y-74423809D01*
X163713095Y-74661904D01*
X163760714Y-74757142D01*
X163808333Y-74804761D01*
X163903571Y-74852380D01*
X164141666Y-74852380D01*
X164236904Y-74804761D01*
X164284523Y-74757142D01*
%TO.C,R11*%
X137892857Y-121876180D02*
X138226190Y-121399990D01*
X138464285Y-121876180D02*
X138464285Y-120876180D01*
X138083333Y-120876180D01*
X137988095Y-120923800D01*
X137940476Y-120971419D01*
X137892857Y-121066657D01*
X137892857Y-121209514D01*
X137940476Y-121304752D01*
X137988095Y-121352371D01*
X138083333Y-121399990D01*
X138464285Y-121399990D01*
X136940476Y-121876180D02*
X137511904Y-121876180D01*
X137226190Y-121876180D02*
X137226190Y-120876180D01*
X137321428Y-121019038D01*
X137416666Y-121114276D01*
X137511904Y-121161895D01*
X135988095Y-121876180D02*
X136559523Y-121876180D01*
X136273809Y-121876180D02*
X136273809Y-120876180D01*
X136369047Y-121019038D01*
X136464285Y-121114276D01*
X136559523Y-121161895D01*
%TO.C,C7*%
X148041666Y-76857142D02*
X148089285Y-76904761D01*
X148232142Y-76952380D01*
X148327380Y-76952380D01*
X148470238Y-76904761D01*
X148565476Y-76809523D01*
X148613095Y-76714285D01*
X148660714Y-76523809D01*
X148660714Y-76380952D01*
X148613095Y-76190476D01*
X148565476Y-76095238D01*
X148470238Y-76000000D01*
X148327380Y-75952380D01*
X148232142Y-75952380D01*
X148089285Y-76000000D01*
X148041666Y-76047619D01*
X147708333Y-75952380D02*
X147041666Y-75952380D01*
X147470238Y-76952380D01*
%TO.C,C4*%
X132841666Y-106107142D02*
X132889285Y-106154761D01*
X133032142Y-106202380D01*
X133127380Y-106202380D01*
X133270238Y-106154761D01*
X133365476Y-106059523D01*
X133413095Y-105964285D01*
X133460714Y-105773809D01*
X133460714Y-105630952D01*
X133413095Y-105440476D01*
X133365476Y-105345238D01*
X133270238Y-105250000D01*
X133127380Y-105202380D01*
X133032142Y-105202380D01*
X132889285Y-105250000D01*
X132841666Y-105297619D01*
X131984523Y-105535714D02*
X131984523Y-106202380D01*
X132222619Y-105154761D02*
X132460714Y-105869047D01*
X131841666Y-105869047D01*
%TO.C,C1*%
X122541666Y-111657142D02*
X122589285Y-111704761D01*
X122732142Y-111752380D01*
X122827380Y-111752380D01*
X122970238Y-111704761D01*
X123065476Y-111609523D01*
X123113095Y-111514285D01*
X123160714Y-111323809D01*
X123160714Y-111180952D01*
X123113095Y-110990476D01*
X123065476Y-110895238D01*
X122970238Y-110800000D01*
X122827380Y-110752380D01*
X122732142Y-110752380D01*
X122589285Y-110800000D01*
X122541666Y-110847619D01*
X121589285Y-111752380D02*
X122160714Y-111752380D01*
X121875000Y-111752380D02*
X121875000Y-110752380D01*
X121970238Y-110895238D01*
X122065476Y-110990476D01*
X122160714Y-111038095D01*
%TO.C,D13*%
X146580485Y-81019180D02*
X146580485Y-80019180D01*
X146342390Y-80019180D01*
X146199533Y-80066800D01*
X146104295Y-80162038D01*
X146056676Y-80257276D01*
X146009057Y-80447752D01*
X146009057Y-80590609D01*
X146056676Y-80781085D01*
X146104295Y-80876323D01*
X146199533Y-80971561D01*
X146342390Y-81019180D01*
X146580485Y-81019180D01*
X145056676Y-81019180D02*
X145628104Y-81019180D01*
X145342390Y-81019180D02*
X145342390Y-80019180D01*
X145437628Y-80162038D01*
X145532866Y-80257276D01*
X145628104Y-80304895D01*
X144723342Y-80019180D02*
X144104295Y-80019180D01*
X144437628Y-80400133D01*
X144294771Y-80400133D01*
X144199533Y-80447752D01*
X144151914Y-80495371D01*
X144104295Y-80590609D01*
X144104295Y-80828704D01*
X144151914Y-80923942D01*
X144199533Y-80971561D01*
X144294771Y-81019180D01*
X144580485Y-81019180D01*
X144675723Y-80971561D01*
X144723342Y-80923942D01*
%TO.C,S2*%
X138409619Y-100259047D02*
X138318190Y-100289523D01*
X138165809Y-100289523D01*
X138104857Y-100259047D01*
X138074380Y-100228571D01*
X138043904Y-100167619D01*
X138043904Y-100106666D01*
X138074380Y-100045714D01*
X138104857Y-100015238D01*
X138165809Y-99984761D01*
X138287714Y-99954285D01*
X138348666Y-99923809D01*
X138379142Y-99893333D01*
X138409619Y-99832380D01*
X138409619Y-99771428D01*
X138379142Y-99710476D01*
X138348666Y-99680000D01*
X138287714Y-99649523D01*
X138135333Y-99649523D01*
X138043904Y-99680000D01*
X137800095Y-99710476D02*
X137769619Y-99680000D01*
X137708666Y-99649523D01*
X137556285Y-99649523D01*
X137495333Y-99680000D01*
X137464857Y-99710476D01*
X137434380Y-99771428D01*
X137434380Y-99832380D01*
X137464857Y-99923809D01*
X137830571Y-100289523D01*
X137434380Y-100289523D01*
%TO.C,IO4*%
X136226425Y-115428588D02*
X136933531Y-114721481D01*
X136462127Y-114250077D02*
X136327440Y-114115390D01*
X136226425Y-114081718D01*
X136091738Y-114081718D01*
X135923379Y-114182733D01*
X135687677Y-114418435D01*
X135586661Y-114586794D01*
X135586661Y-114721481D01*
X135620333Y-114822496D01*
X135755020Y-114957183D01*
X135856035Y-114990855D01*
X135990722Y-114990855D01*
X136159081Y-114889840D01*
X136394783Y-114654138D01*
X136495799Y-114485779D01*
X136495799Y-114351092D01*
X136462127Y-114250077D01*
X135317287Y-113576642D02*
X134845883Y-114048046D01*
X135755020Y-113475626D02*
X135418303Y-114149061D01*
X134980570Y-113711329D01*
%TO.C,C18*%
X138818857Y-107193142D02*
X138866476Y-107240761D01*
X139009333Y-107288380D01*
X139104571Y-107288380D01*
X139247428Y-107240761D01*
X139342666Y-107145523D01*
X139390285Y-107050285D01*
X139437904Y-106859809D01*
X139437904Y-106716952D01*
X139390285Y-106526476D01*
X139342666Y-106431238D01*
X139247428Y-106336000D01*
X139104571Y-106288380D01*
X139009333Y-106288380D01*
X138866476Y-106336000D01*
X138818857Y-106383619D01*
X137866476Y-107288380D02*
X138437904Y-107288380D01*
X138152190Y-107288380D02*
X138152190Y-106288380D01*
X138247428Y-106431238D01*
X138342666Y-106526476D01*
X138437904Y-106574095D01*
X137295047Y-106716952D02*
X137390285Y-106669333D01*
X137437904Y-106621714D01*
X137485523Y-106526476D01*
X137485523Y-106478857D01*
X137437904Y-106383619D01*
X137390285Y-106336000D01*
X137295047Y-106288380D01*
X137104571Y-106288380D01*
X137009333Y-106336000D01*
X136961714Y-106383619D01*
X136914095Y-106478857D01*
X136914095Y-106526476D01*
X136961714Y-106621714D01*
X137009333Y-106669333D01*
X137104571Y-106716952D01*
X137295047Y-106716952D01*
X137390285Y-106764571D01*
X137437904Y-106812190D01*
X137485523Y-106907428D01*
X137485523Y-107097904D01*
X137437904Y-107193142D01*
X137390285Y-107240761D01*
X137295047Y-107288380D01*
X137104571Y-107288380D01*
X137009333Y-107240761D01*
X136961714Y-107193142D01*
X136914095Y-107097904D01*
X136914095Y-106907428D01*
X136961714Y-106812190D01*
X137009333Y-106764571D01*
X137104571Y-106716952D01*
%TO.C,J4*%
X168794912Y-116475068D02*
X169356349Y-116324548D01*
X169232652Y-116842376D02*
X169875439Y-116076331D01*
X169583613Y-115831460D01*
X169480047Y-115806720D01*
X169412960Y-115812590D01*
X169315264Y-115854937D01*
X169223437Y-115964372D01*
X169198697Y-116067938D01*
X169204567Y-116135025D01*
X169246914Y-116232721D01*
X169538741Y-116477593D01*
X169182351Y-115494762D02*
X168028867Y-115832281D01*
X168671655Y-115066236D02*
X168539564Y-116260806D01*
X167737041Y-115587409D02*
X168379829Y-114821365D01*
X168197437Y-114668320D01*
X168057393Y-114612972D01*
X167923219Y-114624711D01*
X167825523Y-114667058D01*
X167666609Y-114782363D01*
X167574782Y-114891797D01*
X167488824Y-115068320D01*
X167464085Y-115171885D01*
X167475824Y-115306060D01*
X167554649Y-115434365D01*
X167737041Y-115587409D01*
%TO.C,C16*%
X133092857Y-93857142D02*
X133140476Y-93904761D01*
X133283333Y-93952380D01*
X133378571Y-93952380D01*
X133521428Y-93904761D01*
X133616666Y-93809523D01*
X133664285Y-93714285D01*
X133711904Y-93523809D01*
X133711904Y-93380952D01*
X133664285Y-93190476D01*
X133616666Y-93095238D01*
X133521428Y-93000000D01*
X133378571Y-92952380D01*
X133283333Y-92952380D01*
X133140476Y-93000000D01*
X133092857Y-93047619D01*
X132140476Y-93952380D02*
X132711904Y-93952380D01*
X132426190Y-93952380D02*
X132426190Y-92952380D01*
X132521428Y-93095238D01*
X132616666Y-93190476D01*
X132711904Y-93238095D01*
X131283333Y-92952380D02*
X131473809Y-92952380D01*
X131569047Y-93000000D01*
X131616666Y-93047619D01*
X131711904Y-93190476D01*
X131759523Y-93380952D01*
X131759523Y-93761904D01*
X131711904Y-93857142D01*
X131664285Y-93904761D01*
X131569047Y-93952380D01*
X131378571Y-93952380D01*
X131283333Y-93904761D01*
X131235714Y-93857142D01*
X131188095Y-93761904D01*
X131188095Y-93523809D01*
X131235714Y-93428571D01*
X131283333Y-93380952D01*
X131378571Y-93333333D01*
X131569047Y-93333333D01*
X131664285Y-93380952D01*
X131711904Y-93428571D01*
X131759523Y-93523809D01*
%TO.C,C19*%
X152280857Y-103100142D02*
X152328476Y-103147761D01*
X152471333Y-103195380D01*
X152566571Y-103195380D01*
X152709428Y-103147761D01*
X152804666Y-103052523D01*
X152852285Y-102957285D01*
X152899904Y-102766809D01*
X152899904Y-102623952D01*
X152852285Y-102433476D01*
X152804666Y-102338238D01*
X152709428Y-102243000D01*
X152566571Y-102195380D01*
X152471333Y-102195380D01*
X152328476Y-102243000D01*
X152280857Y-102290619D01*
X151328476Y-103195380D02*
X151899904Y-103195380D01*
X151614190Y-103195380D02*
X151614190Y-102195380D01*
X151709428Y-102338238D01*
X151804666Y-102433476D01*
X151899904Y-102481095D01*
X150852285Y-103195380D02*
X150661809Y-103195380D01*
X150566571Y-103147761D01*
X150518952Y-103100142D01*
X150423714Y-102957285D01*
X150376095Y-102766809D01*
X150376095Y-102385857D01*
X150423714Y-102290619D01*
X150471333Y-102243000D01*
X150566571Y-102195380D01*
X150757047Y-102195380D01*
X150852285Y-102243000D01*
X150899904Y-102290619D01*
X150947523Y-102385857D01*
X150947523Y-102623952D01*
X150899904Y-102719190D01*
X150852285Y-102766809D01*
X150757047Y-102814428D01*
X150566571Y-102814428D01*
X150471333Y-102766809D01*
X150423714Y-102719190D01*
X150376095Y-102623952D01*
%TO.C,R2*%
X152891666Y-114077380D02*
X153225000Y-113601190D01*
X153463095Y-114077380D02*
X153463095Y-113077380D01*
X153082142Y-113077380D01*
X152986904Y-113125000D01*
X152939285Y-113172619D01*
X152891666Y-113267857D01*
X152891666Y-113410714D01*
X152939285Y-113505952D01*
X152986904Y-113553571D01*
X153082142Y-113601190D01*
X153463095Y-113601190D01*
X152510714Y-113172619D02*
X152463095Y-113125000D01*
X152367857Y-113077380D01*
X152129761Y-113077380D01*
X152034523Y-113125000D01*
X151986904Y-113172619D01*
X151939285Y-113267857D01*
X151939285Y-113363095D01*
X151986904Y-113505952D01*
X152558333Y-114077380D01*
X151939285Y-114077380D01*
%TO.C,R5*%
X152341666Y-96202380D02*
X152675000Y-95726190D01*
X152913095Y-96202380D02*
X152913095Y-95202380D01*
X152532142Y-95202380D01*
X152436904Y-95250000D01*
X152389285Y-95297619D01*
X152341666Y-95392857D01*
X152341666Y-95535714D01*
X152389285Y-95630952D01*
X152436904Y-95678571D01*
X152532142Y-95726190D01*
X152913095Y-95726190D01*
X151436904Y-95202380D02*
X151913095Y-95202380D01*
X151960714Y-95678571D01*
X151913095Y-95630952D01*
X151817857Y-95583333D01*
X151579761Y-95583333D01*
X151484523Y-95630952D01*
X151436904Y-95678571D01*
X151389285Y-95773809D01*
X151389285Y-96011904D01*
X151436904Y-96107142D01*
X151484523Y-96154761D01*
X151579761Y-96202380D01*
X151817857Y-96202380D01*
X151913095Y-96154761D01*
X151960714Y-96107142D01*
%TO.C,Q1*%
X145370238Y-99347619D02*
X145465476Y-99300000D01*
X145560714Y-99204761D01*
X145703571Y-99061904D01*
X145798809Y-99014285D01*
X145894047Y-99014285D01*
X145846428Y-99252380D02*
X145941666Y-99204761D01*
X146036904Y-99109523D01*
X146084523Y-98919047D01*
X146084523Y-98585714D01*
X146036904Y-98395238D01*
X145941666Y-98300000D01*
X145846428Y-98252380D01*
X145655952Y-98252380D01*
X145560714Y-98300000D01*
X145465476Y-98395238D01*
X145417857Y-98585714D01*
X145417857Y-98919047D01*
X145465476Y-99109523D01*
X145560714Y-99204761D01*
X145655952Y-99252380D01*
X145846428Y-99252380D01*
X144465476Y-99252380D02*
X145036904Y-99252380D01*
X144751190Y-99252380D02*
X144751190Y-98252380D01*
X144846428Y-98395238D01*
X144941666Y-98490476D01*
X145036904Y-98538095D01*
%TO.C,J3*%
X169038264Y-84590825D02*
X169617310Y-84540084D01*
X169405572Y-85028565D02*
X170171616Y-84385777D01*
X169926745Y-84093951D01*
X169829048Y-84051603D01*
X169761961Y-84045733D01*
X169658396Y-84070473D01*
X169548961Y-84162300D01*
X169506613Y-84259996D01*
X169500744Y-84327083D01*
X169525483Y-84430649D01*
X169770355Y-84722475D01*
X169620655Y-83729167D02*
X169253348Y-83291428D01*
X168670957Y-84153085D02*
X169437002Y-83510298D01*
X168340128Y-83684737D02*
X168211823Y-83605911D01*
X168058778Y-83423519D01*
X168034039Y-83319954D01*
X168039908Y-83252866D01*
X168082256Y-83155170D01*
X168155213Y-83093952D01*
X168258778Y-83069213D01*
X168325865Y-83075082D01*
X168423562Y-83117430D01*
X168582476Y-83232734D01*
X168680172Y-83275082D01*
X168747259Y-83280951D01*
X168850825Y-83256212D01*
X168923781Y-83194994D01*
X168966129Y-83097297D01*
X168971998Y-83030210D01*
X168947259Y-82926645D01*
X168794214Y-82744253D01*
X168665909Y-82665427D01*
%TO.C,J11*%
X158814419Y-115317839D02*
X158679732Y-115250496D01*
X158511374Y-115082137D01*
X158477702Y-114981122D01*
X158477702Y-114913778D01*
X158511374Y-114812763D01*
X158578717Y-114745419D01*
X158679732Y-114711748D01*
X158747076Y-114711748D01*
X158848091Y-114745419D01*
X159016450Y-114846435D01*
X159117465Y-114880106D01*
X159184809Y-114880106D01*
X159285824Y-114846435D01*
X159353167Y-114779091D01*
X159386839Y-114678076D01*
X159386839Y-114610732D01*
X159353167Y-114509717D01*
X159184809Y-114341358D01*
X159050122Y-114274015D01*
X158073641Y-114644404D02*
X158780748Y-113937297D01*
X158612389Y-113768938D01*
X158477702Y-113701595D01*
X158343015Y-113701595D01*
X158242000Y-113735267D01*
X158073641Y-113836282D01*
X157972625Y-113937297D01*
X157871610Y-114105656D01*
X157837938Y-114206671D01*
X157837938Y-114341358D01*
X157905282Y-114476045D01*
X158073641Y-114644404D01*
X157602236Y-113768938D02*
X157265519Y-113432221D01*
X157467549Y-114038312D02*
X157938954Y-113095503D01*
X156996145Y-113566908D01*
%TO.C,U3*%
X149371904Y-108322380D02*
X149371904Y-109131904D01*
X149324285Y-109227142D01*
X149276666Y-109274761D01*
X149181428Y-109322380D01*
X148990952Y-109322380D01*
X148895714Y-109274761D01*
X148848095Y-109227142D01*
X148800476Y-109131904D01*
X148800476Y-108322380D01*
X148419523Y-108322380D02*
X147800476Y-108322380D01*
X148133809Y-108703333D01*
X147990952Y-108703333D01*
X147895714Y-108750952D01*
X147848095Y-108798571D01*
X147800476Y-108893809D01*
X147800476Y-109131904D01*
X147848095Y-109227142D01*
X147895714Y-109274761D01*
X147990952Y-109322380D01*
X148276666Y-109322380D01*
X148371904Y-109274761D01*
X148419523Y-109227142D01*
%TO.C,C6*%
X153591666Y-93857142D02*
X153639285Y-93904761D01*
X153782142Y-93952380D01*
X153877380Y-93952380D01*
X154020238Y-93904761D01*
X154115476Y-93809523D01*
X154163095Y-93714285D01*
X154210714Y-93523809D01*
X154210714Y-93380952D01*
X154163095Y-93190476D01*
X154115476Y-93095238D01*
X154020238Y-93000000D01*
X153877380Y-92952380D01*
X153782142Y-92952380D01*
X153639285Y-93000000D01*
X153591666Y-93047619D01*
X152734523Y-92952380D02*
X152925000Y-92952380D01*
X153020238Y-93000000D01*
X153067857Y-93047619D01*
X153163095Y-93190476D01*
X153210714Y-93380952D01*
X153210714Y-93761904D01*
X153163095Y-93857142D01*
X153115476Y-93904761D01*
X153020238Y-93952380D01*
X152829761Y-93952380D01*
X152734523Y-93904761D01*
X152686904Y-93857142D01*
X152639285Y-93761904D01*
X152639285Y-93523809D01*
X152686904Y-93428571D01*
X152734523Y-93380952D01*
X152829761Y-93333333D01*
X153020238Y-93333333D01*
X153115476Y-93380952D01*
X153163095Y-93428571D01*
X153210714Y-93523809D01*
D12*
%TO.C,R8*%
X167130464Y-110847200D02*
X166676336Y-110847200D01*
X167130464Y-112317200D02*
X166676336Y-112317200D01*
%TO.C,C9*%
X162940000Y-91261252D02*
X162940000Y-90738748D01*
X164410000Y-91261252D02*
X164410000Y-90738748D01*
%TO.C,C10*%
X175775252Y-111225000D02*
X175252748Y-111225000D01*
X175775252Y-109755000D02*
X175252748Y-109755000D01*
%TO.C,J5*%
X172103186Y-114296814D02*
X173255000Y-114961814D01*
X172768186Y-113145000D02*
X172103186Y-114296814D01*
X175632891Y-113263186D02*
X175736814Y-113323186D01*
X174302891Y-115566814D02*
X174406814Y-115626814D01*
X175736814Y-113323186D02*
X174406814Y-115626814D01*
%TO.C,C11*%
X172940000Y-91261252D02*
X172940000Y-90738748D01*
X174410000Y-91261252D02*
X174410000Y-90738748D01*
%TO.C,R7*%
X147410000Y-112472936D02*
X147410000Y-112927064D01*
X145940000Y-112472936D02*
X145940000Y-112927064D01*
%TO.C,Q2*%
X152375000Y-98490000D02*
X151725000Y-98490000D01*
X152375000Y-98490000D02*
X153025000Y-98490000D01*
X152375000Y-101610000D02*
X153025000Y-101610000D01*
X152375000Y-101610000D02*
X150700000Y-101610000D01*
%TO.C,J6*%
X128767994Y-80443388D02*
X128676068Y-80366253D01*
X129858839Y-83094908D02*
X130713747Y-82076068D01*
X130713747Y-82076068D02*
X129694908Y-81221161D01*
X126966253Y-82403932D02*
X128676068Y-80366253D01*
X127058179Y-82481066D02*
X126966253Y-82403932D01*
%TO.C,C17*%
X161798748Y-103615000D02*
X162321252Y-103615000D01*
X161798748Y-105085000D02*
X162321252Y-105085000D01*
%TO.C,J8*%
X124367109Y-86736814D02*
X124263186Y-86676814D01*
X127896814Y-85703186D02*
X126745000Y-85038186D01*
X127231814Y-86855000D02*
X127896814Y-85703186D01*
X124263186Y-86676814D02*
X125593186Y-84373186D01*
X125697109Y-84433186D02*
X125593186Y-84373186D01*
%TO.C,C25*%
X147905800Y-106128452D02*
X147905800Y-105605948D01*
X149375800Y-106128452D02*
X149375800Y-105605948D01*
%TO.C,J2*%
X175632891Y-86736814D02*
X175736814Y-86676814D01*
X172768186Y-86855000D02*
X173433186Y-88006814D01*
X174302891Y-84433186D02*
X174406814Y-84373186D01*
X174406814Y-84373186D02*
X175736814Y-86676814D01*
X173433186Y-88006814D02*
X174585000Y-87341814D01*
%TO.C,JP3*%
X153125400Y-79441800D02*
X151725400Y-79441800D01*
X151725400Y-81441800D02*
X153125400Y-81441800D01*
X151025400Y-80141800D02*
X151025400Y-80741800D01*
X153825400Y-80741800D02*
X153825400Y-80141800D01*
X151025400Y-80741800D02*
G75*
G03*
X151725400Y-81441800I700000J0D01*
G01*
X153825400Y-80141800D02*
G75*
G03*
X153125400Y-79441800I-699999J1D01*
G01*
X151725400Y-79441800D02*
G75*
G03*
X151025400Y-80141800I0J-700000D01*
G01*
X153125400Y-81441800D02*
G75*
G03*
X153825400Y-80741800I1J699999D01*
G01*
%TO.C,C2*%
X141690000Y-107988748D02*
X141690000Y-108511252D01*
X143160000Y-107988748D02*
X143160000Y-108511252D01*
%TO.C,J13*%
X127821161Y-118614908D02*
X128676068Y-119633747D01*
X129003932Y-115886253D02*
X130713747Y-117923932D01*
X128676068Y-119633747D02*
X129694908Y-118778839D01*
X128912006Y-115963388D02*
X129003932Y-115886253D01*
X130621821Y-118001066D02*
X130713747Y-117923932D01*
%TO.C,R1*%
X156402064Y-81176800D02*
X155947936Y-81176800D01*
X156402064Y-79706800D02*
X155947936Y-79706800D01*
%TO.C,C12*%
X124940000Y-91261252D02*
X124940000Y-90738748D01*
X126410000Y-91261252D02*
X126410000Y-90738748D01*
D13*
%TO.C,U2*%
X143400000Y-127380000D02*
X143400000Y-132760000D01*
X143400000Y-132760000D02*
X156600000Y-132760000D01*
X156600000Y-132760000D02*
X156600000Y-127380000D01*
D14*
X142850000Y-125760000D02*
G75*
G03*
X142850000Y-125760000I-100000J0D01*
G01*
D12*
%TO.C,J10*%
X126566814Y-111993186D02*
X127896814Y-114296814D01*
X127792891Y-114356814D02*
X127896814Y-114296814D01*
X126462891Y-112053186D02*
X126566814Y-111993186D01*
X124928186Y-114475000D02*
X125593186Y-115626814D01*
X125593186Y-115626814D02*
X126745000Y-114961814D01*
%TO.C,JP2*%
X140573000Y-108647000D02*
G75*
G03*
X139873000Y-107947000I-699999J1D01*
G01*
X139273000Y-107947000D02*
G75*
G03*
X138573000Y-108647000I-1J-699999D01*
G01*
X138573000Y-110047000D02*
G75*
G03*
X139273000Y-110747000I700000J0D01*
G01*
X139873000Y-110747000D02*
G75*
G03*
X140573000Y-110047000I0J700000D01*
G01*
X138573000Y-108647000D02*
X138573000Y-110047000D01*
X140573000Y-110047000D02*
X140573000Y-108647000D01*
X139873000Y-107947000D02*
X139273000Y-107947000D01*
X139273000Y-110747000D02*
X139873000Y-110747000D01*
%TO.C,X1*%
X119159460Y-104724400D02*
X116469600Y-104724400D01*
X116469600Y-104724400D02*
X116469600Y-95275600D01*
X125918400Y-104724400D02*
X123228540Y-104724400D01*
X116469600Y-95275600D02*
X119159460Y-95275600D01*
X125918400Y-95275600D02*
X125918400Y-104724400D01*
X123228540Y-95275600D02*
X125918400Y-95275600D01*
X121270200Y-105867400D02*
G75*
G03*
X121270200Y-105867400I-76200J0D01*
G01*
%TO.C,R4*%
X156610000Y-112472936D02*
X156610000Y-112927064D01*
X155140000Y-112472936D02*
X155140000Y-112927064D01*
%TO.C,C23*%
X140997000Y-124721252D02*
X140997000Y-124198748D01*
X142467000Y-124721252D02*
X142467000Y-124198748D01*
%TO.C,J9*%
X162998000Y-115062000D02*
G75*
G03*
X162998000Y-115062000I-1200000J0D01*
G01*
%TO.C,R10*%
X159637464Y-121867600D02*
X159183336Y-121867600D01*
X159637464Y-120397600D02*
X159183336Y-120397600D01*
%TO.C,MOSFET1*%
X146584800Y-76041300D02*
X146584800Y-78098700D01*
X143435200Y-78098700D02*
X143435200Y-76041300D01*
X145373261Y-78098700D02*
X144646739Y-78098700D01*
X145596740Y-76041300D02*
X146584800Y-76041300D01*
X143435200Y-76041300D02*
X144423260Y-76041300D01*
X147854800Y-78314600D02*
G75*
G03*
X147854800Y-78314600I-127000J0D01*
G01*
%TO.C,U1*%
X152222500Y-75525200D02*
X154127500Y-75525200D01*
X154127500Y-76698639D02*
X154127500Y-77501361D01*
X154127500Y-78674800D02*
X152222500Y-78674800D01*
%TO.C,J14*%
X160458000Y-117602000D02*
G75*
G03*
X160458000Y-117602000I-1200000J0D01*
G01*
%TO.C,R9*%
X138838000Y-118136936D02*
X138838000Y-118591064D01*
X140308000Y-118136936D02*
X140308000Y-118591064D01*
%TO.C,J12*%
X145218000Y-112522000D02*
G75*
G03*
X145218000Y-112522000I-1200000J0D01*
G01*
D13*
%TO.C,S1*%
X160380000Y-97900000D02*
X160380000Y-102100000D01*
X163620000Y-102100000D02*
X163620000Y-97900000D01*
D12*
%TO.C,C20*%
X154947936Y-105085000D02*
X155402064Y-105085000D01*
X154947936Y-103615000D02*
X155402064Y-103615000D01*
%TO.C,C14*%
X157610000Y-76938748D02*
X157610000Y-77461252D01*
X156140000Y-76938748D02*
X156140000Y-77461252D01*
%TO.C,BT1*%
X174675000Y-93450000D02*
X173025000Y-95100000D01*
X180275000Y-106550000D02*
X181625000Y-105400000D01*
X173025000Y-104900000D02*
X174675000Y-106550000D01*
X180275000Y-93450000D02*
X181625000Y-94600000D01*
X173025000Y-95100000D02*
X173025000Y-97000000D01*
X173025000Y-104900000D02*
X173025000Y-103000000D01*
X182122607Y-97495902D02*
G75*
G03*
X181625000Y-94600000I-2297607J1095902D01*
G01*
X181625000Y-105400000D02*
G75*
G03*
X182121459Y-102501694I-1800000J1800000D01*
G01*
%TO.C,C3*%
X143660000Y-91261252D02*
X143660000Y-90738748D01*
X142190000Y-91261252D02*
X142190000Y-90738748D01*
%TO.C,IO0*%
X137598000Y-117602000D02*
G75*
G03*
X137598000Y-117602000I-1200000J0D01*
G01*
%TO.C,C24*%
X138965000Y-124721252D02*
X138965000Y-124198748D01*
X140435000Y-124721252D02*
X140435000Y-124198748D01*
%TO.C,R6*%
X148602064Y-98085000D02*
X148147936Y-98085000D01*
X148602064Y-96615000D02*
X148147936Y-96615000D01*
%TO.C,IO5*%
X140138000Y-112522000D02*
G75*
G03*
X140138000Y-112522000I-1200000J0D01*
G01*
%TO.C,C5*%
X156440000Y-108238748D02*
X156440000Y-108761252D01*
X157910000Y-108238748D02*
X157910000Y-108761252D01*
%TO.C,R3*%
X149272936Y-112735000D02*
X149727064Y-112735000D01*
X149272936Y-111265000D02*
X149727064Y-111265000D01*
%TO.C,C13*%
X139660000Y-76761252D02*
X139660000Y-76238748D01*
X138190000Y-76761252D02*
X138190000Y-76238748D01*
%TO.C,C22*%
X140997000Y-118625252D02*
X140997000Y-118102748D01*
X142467000Y-118625252D02*
X142467000Y-118102748D01*
%TO.C,C8*%
X168175000Y-108448748D02*
X168175000Y-108971252D01*
X169645000Y-108448748D02*
X169645000Y-108971252D01*
%TO.C,C21*%
X168713748Y-103815000D02*
X169236252Y-103815000D01*
X168713748Y-105285000D02*
X169236252Y-105285000D01*
%TO.C,J7*%
X165538000Y-117602000D02*
G75*
G03*
X165538000Y-117602000I-1200000J0D01*
G01*
%TO.C,JP1*%
X162848800Y-110961400D02*
X162848800Y-109561400D01*
X162148800Y-108861400D02*
X161548800Y-108861400D01*
X161548800Y-111661400D02*
X162148800Y-111661400D01*
X160848800Y-109561400D02*
X160848800Y-110961400D01*
X162848800Y-109561400D02*
G75*
G03*
X162148800Y-108861400I-700000J0D01*
G01*
X160848800Y-110961400D02*
G75*
G03*
X161548800Y-111661400I699999J-1D01*
G01*
X161548800Y-108861400D02*
G75*
G03*
X160848800Y-109561400I0J-700000D01*
G01*
X162148800Y-111661400D02*
G75*
G03*
X162848800Y-110961400I1J699999D01*
G01*
%TO.C,C15*%
X165660000Y-77261252D02*
X165660000Y-76738748D01*
X164190000Y-77261252D02*
X164190000Y-76738748D01*
%TO.C,R11*%
X140488936Y-120600800D02*
X140943064Y-120600800D01*
X140488936Y-122070800D02*
X140943064Y-122070800D01*
%TO.C,C7*%
X149140000Y-77461252D02*
X149140000Y-76938748D01*
X150610000Y-77461252D02*
X150610000Y-76938748D01*
%TO.C,C4*%
X133410000Y-108238748D02*
X133410000Y-108761252D01*
X131940000Y-108238748D02*
X131940000Y-108761252D01*
%TO.C,C1*%
X121440000Y-108238748D02*
X121440000Y-108761252D01*
X122910000Y-108238748D02*
X122910000Y-108761252D01*
%TO.C,D13*%
X149666200Y-81401800D02*
X146981200Y-81401800D01*
X146981200Y-81401800D02*
X146981200Y-79481800D01*
X146981200Y-79481800D02*
X149666200Y-79481800D01*
D13*
%TO.C,S2*%
X136380000Y-97900000D02*
X136380000Y-102100000D01*
X139620000Y-102100000D02*
X139620000Y-97900000D01*
D12*
%TO.C,IO4*%
X135058000Y-112522000D02*
G75*
G03*
X135058000Y-112522000I-1200000J0D01*
G01*
%TO.C,C18*%
X137914748Y-105891000D02*
X138437252Y-105891000D01*
X137914748Y-104421000D02*
X138437252Y-104421000D01*
%TO.C,J4*%
X171232006Y-119556612D02*
X171323932Y-119633747D01*
X173033747Y-117596068D02*
X171323932Y-119633747D01*
X170141161Y-116905092D02*
X169286253Y-117923932D01*
X169286253Y-117923932D02*
X170305092Y-118778839D01*
X172941821Y-117518934D02*
X173033747Y-117596068D01*
%TO.C,C16*%
X133160000Y-91261252D02*
X133160000Y-90738748D01*
X131690000Y-91261252D02*
X131690000Y-90738748D01*
%TO.C,C19*%
X151902064Y-103615000D02*
X151447936Y-103615000D01*
X151902064Y-105085000D02*
X151447936Y-105085000D01*
%TO.C,R2*%
X153389564Y-111265000D02*
X152935436Y-111265000D01*
X153389564Y-112735000D02*
X152935436Y-112735000D01*
%TO.C,R5*%
X152402064Y-96615000D02*
X151947936Y-96615000D01*
X152402064Y-98085000D02*
X151947936Y-98085000D01*
%TO.C,Q1*%
X148175000Y-101610000D02*
X148825000Y-101610000D01*
X148175000Y-101610000D02*
X146500000Y-101610000D01*
X148175000Y-98490000D02*
X148825000Y-98490000D01*
X148175000Y-98490000D02*
X147525000Y-98490000D01*
%TO.C,J3*%
X170996068Y-84113747D02*
X172014908Y-83258839D01*
X172941821Y-82481066D02*
X173033747Y-82403932D01*
X171232006Y-80443388D02*
X171323932Y-80366253D01*
X171323932Y-80366253D02*
X173033747Y-82403932D01*
X170141161Y-83094908D02*
X170996068Y-84113747D01*
%TO.C,J11*%
X160458000Y-112522000D02*
G75*
G03*
X160458000Y-112522000I-1200000J0D01*
G01*
%TO.C,U3*%
X149801800Y-107526800D02*
X152748200Y-107526800D01*
X152748200Y-110473200D02*
X149801800Y-110473200D01*
X153578526Y-107999748D02*
G75*
G03*
X153578526Y-107999748I-101600J0D01*
G01*
%TO.C,C6*%
X152690000Y-91261252D02*
X152690000Y-90738748D01*
X154160000Y-91261252D02*
X154160000Y-90738748D01*
%TD*%
M02*
