M48
; DRILL file {KiCad (6.0.7-1)-1} date Monday, December 12, 2022 at 08:47:52 PM
; FORMAT={-:-/ absolute / inch / decimal}
; #@! TF.CreationDate,2022-12-12T20:47:52-08:00
; #@! TF.GenerationSoftware,Kicad,Pcbnew,(6.0.7-1)-1
; #@! TF.FileFunction,Plated,1,2,PTH
FMAT,2
INCH
; #@! TA.AperFunction,Plated,PTH,ViaDrill
T1C0.0157
; #@! TA.AperFunction,Plated,PTH,ComponentDrill
T2C0.0394
; #@! TA.AperFunction,Plated,PTH,ComponentDrill
T3C0.0906
%
G90
G05
T1
X4.8219Y-3.5748
X4.8425Y-4.3268
X4.8491Y-3.6588
X4.8534Y-4.2675
X4.8691Y-4.2205
X4.8871Y-3.5758
X4.8883Y-3.6173
X4.8965Y-3.5376
X4.9061Y-3.6593
X4.9528Y-4.2775
X4.9636Y-4.2037
X5.2557Y-3.579
X5.265Y-4.2685
X5.2667Y-4.3228
X5.27Y-4.7
X5.27Y-4.78
X5.2726Y-3.5433
X5.2726Y-3.6319
X5.3Y-4.8315
X5.313Y-4.2126
X5.3228Y-3.5897
X5.3299Y-4.7006
X5.3327Y-4.2775
X5.3659Y-4.7258
X5.3809Y-2.9528
X5.3886Y-3.0184
X5.4104Y-2.9823
X5.4104Y-3.0512
X5.4252Y-4.8258
X5.6594Y-4.2775
X5.6599Y-4.2165
X5.6693Y-3.6378
X5.6702Y-3.5811
X5.6797Y-3.5227
X5.685Y-4.3435
X5.6964Y-4.2602
X5.72Y-4.2035
X5.739Y-4.3701
X5.7638Y-3.5897
X5.7999Y-4.1968
X6.063Y-4.3701
X6.0896Y-3.622
X6.0914Y-3.5335
X6.0935Y-3.5827
X6.1142Y-4.3071
X6.1292Y-4.2686
X6.134Y-3.6583
X6.137Y-4.2106
X6.1683Y-3.5906
X6.2051Y-4.3921
X6.3882Y-4.8333
X6.397Y-4.7677
X6.3981Y-3.0349
X6.422Y-4.2658
X6.4281Y-2.9843
X6.4295Y-4.1969
X6.4307Y-2.9125
X6.4441Y-4.7598
X6.4765Y-4.8314
X6.4783Y-4.3464
X6.4852Y-4.7012
X6.4966Y-3.6117
X6.5009Y-3.5335
X6.5026Y-3.5728
X6.5335Y-4.3213
X6.5365Y-3.6528
X6.5413Y-4.7382
X6.5443Y-4.698
X6.5444Y-4.2265
X6.5699Y-3.5897
X6.5778Y-4.191
X6.6031Y-4.8075
X6.6329Y-4.1978
X6.8573Y-4.2776
X6.8612Y-3.6535
X6.8612Y-4.2047
X6.8868Y-3.5218
X6.9153Y-4.309
X6.9291Y-3.5591
X6.9624Y-3.5091
X7.0069Y-4.3425
T2
X4.9638Y-3.3933
X4.9638Y-4.4807
X5.0724Y-3.2378
X5.0724Y-4.6362
X5.8555Y-2.8495
X5.9555Y-2.8495
X6.7386Y-3.2378
X6.7386Y-4.6362
X6.8472Y-3.3933
X6.8472Y-4.4807
T3
X5.9055Y-2.6378
T0
M30
