%TF.GenerationSoftware,KiCad,Pcbnew,(6.0.7-1)-1*%
%TF.CreationDate,2022-12-12T20:47:58-08:00*%
%TF.ProjectId,ChristmasCountdown2022,43687269-7374-46d6-9173-436f756e7464,rev?*%
%TF.SameCoordinates,Original*%
%TF.FileFunction,Paste,Top*%
%TF.FilePolarity,Positive*%
%FSLAX46Y46*%
G04 Gerber Fmt 4.6, Leading zero omitted, Abs format (unit mm)*
G04 Created by KiCad (PCBNEW (6.0.7-1)-1) date 2022-12-12 20:47:58*
%MOMM*%
%LPD*%
G01*
G04 APERTURE LIST*
G04 Aperture macros list*
%AMRotRect*
0 Rectangle, with rotation*
0 The origin of the aperture is its center*
0 $1 length*
0 $2 width*
0 $3 Rotation angle, in degrees counterclockwise*
0 Add horizontal line*
21,1,$1,$2,0,0,$3*%
G04 Aperture macros list end*
%ADD10R,1.600000X0.850000*%
%ADD11R,3.200000X1.000000*%
%ADD12RotRect,1.600000X0.850000X332.000000*%
%ADD13RotRect,1.600000X0.850000X28.000000*%
G04 APERTURE END LIST*
D10*
%TO.C,D11*%
X174122504Y-90155000D03*
X174122504Y-91905000D03*
X177622504Y-91905000D03*
X177622504Y-90155000D03*
%TD*%
%TO.C,D7*%
X167350000Y-109375000D03*
X167350000Y-107625000D03*
X163850000Y-107625000D03*
X163850000Y-109375000D03*
%TD*%
%TO.C,D3*%
X153322504Y-90155000D03*
X153322504Y-91905000D03*
X156822504Y-91905000D03*
X156822504Y-90155000D03*
%TD*%
%TO.C,D5*%
X156950000Y-109375000D03*
X156950000Y-107625000D03*
X153450000Y-107625000D03*
X153450000Y-109375000D03*
%TD*%
%TO.C,D14*%
X163722504Y-90155000D03*
X163722504Y-91905000D03*
X167222504Y-91905000D03*
X167222504Y-90155000D03*
%TD*%
%TO.C,D10*%
X122122504Y-90155000D03*
X122122504Y-91905000D03*
X125622504Y-91905000D03*
X125622504Y-90155000D03*
%TD*%
D11*
%TO.C,SW1*%
X138400000Y-124000000D03*
X131600000Y-124000000D03*
X138400000Y-120000000D03*
X131600000Y-120000000D03*
%TD*%
D10*
%TO.C,D4*%
X136150000Y-109375000D03*
X136150000Y-107625000D03*
X132650000Y-107625000D03*
X132650000Y-109375000D03*
%TD*%
D11*
%TO.C,SW2*%
X161600000Y-124000000D03*
X168400000Y-124000000D03*
X168400000Y-120000000D03*
X161600000Y-120000000D03*
%TD*%
D10*
%TO.C,D6*%
X142922504Y-90155000D03*
X142922504Y-91905000D03*
X146422504Y-91905000D03*
X146422504Y-90155000D03*
%TD*%
D12*
%TO.C,D15*%
X161835629Y-74015846D03*
X161014054Y-75561004D03*
X164104371Y-77204154D03*
X164925946Y-75658996D03*
%TD*%
D10*
%TO.C,D2*%
X146550000Y-109375000D03*
X146550000Y-107625000D03*
X143050000Y-107625000D03*
X143050000Y-109375000D03*
%TD*%
%TO.C,D9*%
X177750000Y-109375000D03*
X177750000Y-107625000D03*
X174250000Y-107625000D03*
X174250000Y-109375000D03*
%TD*%
%TO.C,D8*%
X132522504Y-90155000D03*
X132522504Y-91905000D03*
X136022504Y-91905000D03*
X136022504Y-90155000D03*
%TD*%
%TO.C,D1*%
X125750000Y-109375000D03*
X125750000Y-107625000D03*
X122250000Y-107625000D03*
X122250000Y-109375000D03*
%TD*%
D13*
%TO.C,D12*%
X135074054Y-75658996D03*
X135895629Y-77204154D03*
X138985946Y-75561004D03*
X138164371Y-74015846D03*
%TD*%
M02*
