%TF.GenerationSoftware,KiCad,Pcbnew,(6.0.7-1)-1*%
%TF.CreationDate,2022-10-21T21:52:49-07:00*%
%TF.ProjectId,ChristmasCountdown2022,43687269-7374-46d6-9173-436f756e7464,rev?*%
%TF.SameCoordinates,Original*%
%TF.FileFunction,Drillmap*%
%TF.FilePolarity,Positive*%
%FSLAX45Y45*%
G04 Gerber Fmt 4.5, Leading zero omitted, Abs format (unit mm)*
G04 Created by KiCad (PCBNEW (6.0.7-1)-1) date 2022-10-21 21:52:49*
%MOMM*%
%LPD*%
G01*
G04 APERTURE LIST*
%ADD10C,0.150000*%
%ADD11C,0.200000*%
%ADD12C,0.040000*%
%ADD13C,0.076200*%
%ADD14C,0.100000*%
%ADD15C,0.230000*%
G04 APERTURE END LIST*
D10*
X18500000Y-10000000D02*
G75*
G03*
X18500000Y-10000000I-3500000J0D01*
G01*
D11*
D12*
X12227550Y-9060000D02*
X12267550Y-9100000D01*
X12267550Y-9060000D02*
X12227550Y-9100000D01*
X12280000Y-10970000D02*
X12320000Y-11010000D01*
X12320000Y-10970000D02*
X12280000Y-11010000D01*
X12296650Y-9273375D02*
X12336650Y-9313375D01*
X12336650Y-9273375D02*
X12296650Y-9313375D01*
X12307550Y-10819453D02*
X12347550Y-10859453D01*
X12347550Y-10819453D02*
X12307550Y-10859453D01*
X12347500Y-10700000D02*
X12387500Y-10740000D01*
X12387500Y-10700000D02*
X12347500Y-10740000D01*
X12393196Y-9062470D02*
X12433196Y-9102470D01*
X12433196Y-9062470D02*
X12393196Y-9102470D01*
X12396285Y-9168020D02*
X12436285Y-9208020D01*
X12436285Y-9168020D02*
X12396285Y-9208020D01*
X12417051Y-8965409D02*
X12457051Y-9005409D01*
X12457051Y-8965409D02*
X12417051Y-9005409D01*
X12441600Y-9274740D02*
X12481600Y-9314740D01*
X12481600Y-9274740D02*
X12441600Y-9314740D01*
X12560000Y-10844950D02*
X12600000Y-10884950D01*
X12600000Y-10844950D02*
X12560000Y-10884950D01*
X12587500Y-10657500D02*
X12627500Y-10697500D01*
X12627500Y-10657500D02*
X12587500Y-10697500D01*
X12648449Y-11493474D02*
X12688449Y-11533474D01*
X12688449Y-11493474D02*
X12648449Y-11533474D01*
X13329537Y-9070596D02*
X13369537Y-9110596D01*
X13369537Y-9070596D02*
X13329537Y-9110596D01*
X13353053Y-10822019D02*
X13393053Y-10862019D01*
X13393053Y-10822019D02*
X13353053Y-10862019D01*
X13357500Y-10960000D02*
X13397500Y-11000000D01*
X13397500Y-10960000D02*
X13357500Y-11000000D01*
X13372500Y-8980000D02*
X13412500Y-9020000D01*
X13412500Y-8980000D02*
X13372500Y-9020000D01*
X13372500Y-9205000D02*
X13412500Y-9245000D01*
X13412500Y-9205000D02*
X13372500Y-9245000D01*
X13475000Y-10680000D02*
X13515000Y-10720000D01*
X13515000Y-10680000D02*
X13475000Y-10720000D01*
X13499950Y-9097906D02*
X13539950Y-9137906D01*
X13539950Y-9097906D02*
X13499950Y-9137906D01*
X13500000Y-12245000D02*
X13540000Y-12285000D01*
X13540000Y-12245000D02*
X13500000Y-12285000D01*
X13525000Y-10844950D02*
X13565000Y-10884950D01*
X13565000Y-10844950D02*
X13525000Y-10884950D01*
X13647500Y-7480000D02*
X13687500Y-7520000D01*
X13687500Y-7480000D02*
X13647500Y-7520000D01*
X13667058Y-7646836D02*
X13707058Y-7686836D01*
X13707058Y-7646836D02*
X13667058Y-7686836D01*
X13722500Y-7555000D02*
X13762500Y-7595000D01*
X13762500Y-7555000D02*
X13722500Y-7595000D01*
X13722500Y-7730000D02*
X13762500Y-7770000D01*
X13762500Y-7730000D02*
X13722500Y-7770000D01*
X13760000Y-12237500D02*
X13800000Y-12277500D01*
X13800000Y-12237500D02*
X13760000Y-12277500D01*
X14355000Y-10844950D02*
X14395000Y-10884950D01*
X14395000Y-10844950D02*
X14355000Y-10884950D01*
X14356230Y-10689950D02*
X14396230Y-10729950D01*
X14396230Y-10689950D02*
X14356230Y-10729950D01*
X14380000Y-9220000D02*
X14420000Y-9260000D01*
X14420000Y-9220000D02*
X14380000Y-9260000D01*
X14382255Y-9076099D02*
X14422255Y-9116099D01*
X14422255Y-9076099D02*
X14382255Y-9116099D01*
X14406538Y-8927567D02*
X14446538Y-8967567D01*
X14446538Y-8927567D02*
X14406538Y-8967567D01*
X14502500Y-10825000D02*
X14542500Y-10865000D01*
X14542500Y-10825000D02*
X14502500Y-10865000D01*
X14509235Y-10652550D02*
X14549235Y-10692550D01*
X14549235Y-10652550D02*
X14509235Y-10692550D01*
X14580000Y-11080000D02*
X14620000Y-11120000D01*
X14620000Y-11080000D02*
X14580000Y-11120000D01*
X14620000Y-9097950D02*
X14660000Y-9137950D01*
X14660000Y-9097950D02*
X14620000Y-9137950D01*
X14636330Y-10667990D02*
X14676330Y-10707990D01*
X14676330Y-10667990D02*
X14636330Y-10707990D01*
X14754611Y-10830000D02*
X14794611Y-10870000D01*
X14794611Y-10830000D02*
X14754611Y-10870000D01*
X15380000Y-11080000D02*
X15420000Y-11120000D01*
X15420000Y-11080000D02*
X15380000Y-11120000D01*
X15447500Y-9180000D02*
X15487500Y-9220000D01*
X15487500Y-9180000D02*
X15447500Y-9220000D01*
X15452201Y-8955000D02*
X15492201Y-8995000D01*
X15492201Y-8955000D02*
X15452201Y-8995000D01*
X15457500Y-9080000D02*
X15497500Y-9120000D01*
X15497500Y-9080000D02*
X15457500Y-9120000D01*
X15469409Y-10985044D02*
X15509409Y-11025044D01*
X15509409Y-10985044D02*
X15469409Y-11025044D01*
X15472109Y-10885130D02*
X15512109Y-10925130D01*
X15512109Y-10885130D02*
X15472109Y-10925130D01*
X15542450Y-10660000D02*
X15582450Y-10700000D01*
X15582450Y-10660000D02*
X15542450Y-10700000D01*
X15542785Y-10814454D02*
X15582785Y-10854454D01*
X15582785Y-10814454D02*
X15542785Y-10854454D01*
X15647500Y-9100000D02*
X15687500Y-9140000D01*
X15687500Y-9100000D02*
X15647500Y-9140000D01*
X16231255Y-7688745D02*
X16271255Y-7728745D01*
X16271255Y-7688745D02*
X16231255Y-7728745D01*
X16307500Y-7560000D02*
X16347500Y-7600000D01*
X16347500Y-7560000D02*
X16307500Y-7600000D01*
X16313984Y-7377874D02*
X16353984Y-7417874D01*
X16353984Y-7377874D02*
X16313984Y-7417874D01*
X16340000Y-11995000D02*
X16380000Y-12035000D01*
X16380000Y-11995000D02*
X16340000Y-12035000D01*
X16356319Y-10815050D02*
X16396319Y-10855050D01*
X16396319Y-10815050D02*
X16356319Y-10855050D01*
X16382500Y-10640050D02*
X16422500Y-10680050D01*
X16422500Y-10640050D02*
X16382500Y-10680050D01*
X16459950Y-11930000D02*
X16499950Y-11970000D01*
X16499950Y-11930000D02*
X16459950Y-11970000D01*
X16465379Y-8903035D02*
X16505379Y-8943035D01*
X16505379Y-8903035D02*
X16465379Y-8943035D01*
X16497500Y-9180000D02*
X16537500Y-9220000D01*
X16537500Y-9180000D02*
X16497500Y-9220000D01*
X16497500Y-10960000D02*
X16537500Y-11000000D01*
X16537500Y-10960000D02*
X16497500Y-11000000D01*
X16497550Y-8997666D02*
X16537550Y-9037666D01*
X16537550Y-8997666D02*
X16497550Y-9037666D01*
X16577529Y-10840050D02*
X16617529Y-10880050D01*
X16617529Y-10840050D02*
X16577529Y-10880050D01*
X16590000Y-12308450D02*
X16630000Y-12348450D01*
X16630000Y-12308450D02*
X16590000Y-12348450D01*
X16593679Y-10646219D02*
X16633679Y-10686219D01*
X16633679Y-10646219D02*
X16593679Y-10686219D01*
X16617500Y-11980000D02*
X16657500Y-12020000D01*
X16657500Y-11980000D02*
X16617500Y-12020000D01*
X16667500Y-9097950D02*
X16707500Y-9137950D01*
X16707500Y-9097950D02*
X16667500Y-9137950D01*
X16808381Y-10843438D02*
X16848381Y-10883438D01*
X16848381Y-10843438D02*
X16808381Y-10883438D01*
X17397500Y-10845000D02*
X17437500Y-10885000D01*
X17437500Y-10845000D02*
X17397500Y-10885000D01*
X17407550Y-9260000D02*
X17447550Y-9300000D01*
X17447550Y-9260000D02*
X17407550Y-9300000D01*
X17407550Y-10660000D02*
X17447550Y-10700000D01*
X17447550Y-10660000D02*
X17407550Y-10700000D01*
X17472584Y-8925400D02*
X17512584Y-8965400D01*
X17512584Y-8925400D02*
X17472584Y-8965400D01*
X17544950Y-10924950D02*
X17584950Y-10964950D01*
X17584950Y-10924950D02*
X17544950Y-10964950D01*
X17580000Y-9020000D02*
X17620000Y-9060000D01*
X17620000Y-9020000D02*
X17580000Y-9060000D01*
X17664569Y-8893050D02*
X17704569Y-8933050D01*
X17704569Y-8893050D02*
X17664569Y-8933050D01*
X17777500Y-11010000D02*
X17817500Y-11050000D01*
X17817500Y-11010000D02*
X17777500Y-11050000D01*
D13*
X14911100Y-7237801D02*
G75*
G03*
X14911100Y-7237801I-38100J0D01*
G01*
X15165100Y-7237801D02*
G75*
G03*
X15165100Y-7237801I-38100J0D01*
G01*
D14*
X12608000Y-8569000D02*
X12608000Y-8669000D01*
X12558000Y-8619000D02*
X12658000Y-8619000D01*
X12608000Y-11331000D02*
X12608000Y-11431000D01*
X12558000Y-11381000D02*
X12658000Y-11381000D01*
X12884000Y-8174000D02*
X12884000Y-8274000D01*
X12834000Y-8224000D02*
X12934000Y-8224000D01*
X12884000Y-11726000D02*
X12884000Y-11826000D01*
X12834000Y-11776000D02*
X12934000Y-11776000D01*
X17116000Y-8174000D02*
X17116000Y-8274000D01*
X17066000Y-8224000D02*
X17166000Y-8224000D01*
X17116000Y-11726000D02*
X17116000Y-11826000D01*
X17066000Y-11776000D02*
X17166000Y-11776000D01*
X17392000Y-8569000D02*
X17392000Y-8669000D01*
X17342000Y-8619000D02*
X17442000Y-8619000D01*
X17392000Y-11331000D02*
X17392000Y-11431000D01*
X17342000Y-11381000D02*
X17442000Y-11381000D01*
D15*
X15086318Y-6776318D02*
X15086318Y-6613682D01*
X14923682Y-6613682D01*
X14923682Y-6776318D01*
X15086318Y-6776318D01*
D11*
X11750119Y-13817976D02*
X11750119Y-13617976D01*
X11797738Y-13617976D01*
X11826309Y-13627500D01*
X11845357Y-13646548D01*
X11854881Y-13665595D01*
X11864405Y-13703690D01*
X11864405Y-13732262D01*
X11854881Y-13770357D01*
X11845357Y-13789405D01*
X11826309Y-13808452D01*
X11797738Y-13817976D01*
X11750119Y-13817976D01*
X11950119Y-13817976D02*
X11950119Y-13684643D01*
X11950119Y-13722738D02*
X11959643Y-13703690D01*
X11969167Y-13694167D01*
X11988214Y-13684643D01*
X12007262Y-13684643D01*
X12073928Y-13817976D02*
X12073928Y-13684643D01*
X12073928Y-13617976D02*
X12064405Y-13627500D01*
X12073928Y-13637024D01*
X12083452Y-13627500D01*
X12073928Y-13617976D01*
X12073928Y-13637024D01*
X12197738Y-13817976D02*
X12178690Y-13808452D01*
X12169167Y-13789405D01*
X12169167Y-13617976D01*
X12302500Y-13817976D02*
X12283452Y-13808452D01*
X12273928Y-13789405D01*
X12273928Y-13617976D01*
X12531071Y-13817976D02*
X12531071Y-13617976D01*
X12597738Y-13760833D01*
X12664405Y-13617976D01*
X12664405Y-13817976D01*
X12845357Y-13817976D02*
X12845357Y-13713214D01*
X12835833Y-13694167D01*
X12816786Y-13684643D01*
X12778690Y-13684643D01*
X12759643Y-13694167D01*
X12845357Y-13808452D02*
X12826309Y-13817976D01*
X12778690Y-13817976D01*
X12759643Y-13808452D01*
X12750119Y-13789405D01*
X12750119Y-13770357D01*
X12759643Y-13751309D01*
X12778690Y-13741786D01*
X12826309Y-13741786D01*
X12845357Y-13732262D01*
X12940595Y-13684643D02*
X12940595Y-13884643D01*
X12940595Y-13694167D02*
X12959643Y-13684643D01*
X12997738Y-13684643D01*
X13016786Y-13694167D01*
X13026309Y-13703690D01*
X13035833Y-13722738D01*
X13035833Y-13779881D01*
X13026309Y-13798928D01*
X13016786Y-13808452D01*
X12997738Y-13817976D01*
X12959643Y-13817976D01*
X12940595Y-13808452D01*
X13121548Y-13798928D02*
X13131071Y-13808452D01*
X13121548Y-13817976D01*
X13112024Y-13808452D01*
X13121548Y-13798928D01*
X13121548Y-13817976D01*
X13121548Y-13694167D02*
X13131071Y-13703690D01*
X13121548Y-13713214D01*
X13112024Y-13703690D01*
X13121548Y-13694167D01*
X13121548Y-13713214D01*
D12*
X11452500Y-14127500D02*
X11492500Y-14167500D01*
X11492500Y-14127500D02*
X11452500Y-14167500D01*
D11*
X11788214Y-14037976D02*
X11807262Y-14037976D01*
X11826309Y-14047500D01*
X11835833Y-14057024D01*
X11845357Y-14076071D01*
X11854881Y-14114167D01*
X11854881Y-14161786D01*
X11845357Y-14199881D01*
X11835833Y-14218928D01*
X11826309Y-14228452D01*
X11807262Y-14237976D01*
X11788214Y-14237976D01*
X11769167Y-14228452D01*
X11759643Y-14218928D01*
X11750119Y-14199881D01*
X11740595Y-14161786D01*
X11740595Y-14114167D01*
X11750119Y-14076071D01*
X11759643Y-14057024D01*
X11769167Y-14047500D01*
X11788214Y-14037976D01*
X11940595Y-14218928D02*
X11950119Y-14228452D01*
X11940595Y-14237976D01*
X11931071Y-14228452D01*
X11940595Y-14218928D01*
X11940595Y-14237976D01*
X12121548Y-14104643D02*
X12121548Y-14237976D01*
X12073928Y-14028452D02*
X12026309Y-14171309D01*
X12150119Y-14171309D01*
X12264405Y-14037976D02*
X12283452Y-14037976D01*
X12302500Y-14047500D01*
X12312024Y-14057024D01*
X12321548Y-14076071D01*
X12331071Y-14114167D01*
X12331071Y-14161786D01*
X12321548Y-14199881D01*
X12312024Y-14218928D01*
X12302500Y-14228452D01*
X12283452Y-14237976D01*
X12264405Y-14237976D01*
X12245357Y-14228452D01*
X12235833Y-14218928D01*
X12226309Y-14199881D01*
X12216786Y-14161786D01*
X12216786Y-14114167D01*
X12226309Y-14076071D01*
X12235833Y-14057024D01*
X12245357Y-14047500D01*
X12264405Y-14037976D01*
X12454881Y-14037976D02*
X12473928Y-14037976D01*
X12492976Y-14047500D01*
X12502500Y-14057024D01*
X12512024Y-14076071D01*
X12521548Y-14114167D01*
X12521548Y-14161786D01*
X12512024Y-14199881D01*
X12502500Y-14218928D01*
X12492976Y-14228452D01*
X12473928Y-14237976D01*
X12454881Y-14237976D01*
X12435833Y-14228452D01*
X12426309Y-14218928D01*
X12416786Y-14199881D01*
X12407262Y-14161786D01*
X12407262Y-14114167D01*
X12416786Y-14076071D01*
X12426309Y-14057024D01*
X12435833Y-14047500D01*
X12454881Y-14037976D01*
X12607262Y-14237976D02*
X12607262Y-14104643D01*
X12607262Y-14123690D02*
X12616786Y-14114167D01*
X12635833Y-14104643D01*
X12664405Y-14104643D01*
X12683452Y-14114167D01*
X12692976Y-14133214D01*
X12692976Y-14237976D01*
X12692976Y-14133214D02*
X12702500Y-14114167D01*
X12721548Y-14104643D01*
X12750119Y-14104643D01*
X12769167Y-14114167D01*
X12778690Y-14133214D01*
X12778690Y-14237976D01*
X12873928Y-14237976D02*
X12873928Y-14104643D01*
X12873928Y-14123690D02*
X12883452Y-14114167D01*
X12902500Y-14104643D01*
X12931071Y-14104643D01*
X12950119Y-14114167D01*
X12959643Y-14133214D01*
X12959643Y-14237976D01*
X12959643Y-14133214D02*
X12969167Y-14114167D01*
X12988214Y-14104643D01*
X13016786Y-14104643D01*
X13035833Y-14114167D01*
X13045357Y-14133214D01*
X13045357Y-14237976D01*
X13435833Y-14028452D02*
X13264405Y-14285595D01*
X13692976Y-14037976D02*
X13712024Y-14037976D01*
X13731071Y-14047500D01*
X13740595Y-14057024D01*
X13750119Y-14076071D01*
X13759643Y-14114167D01*
X13759643Y-14161786D01*
X13750119Y-14199881D01*
X13740595Y-14218928D01*
X13731071Y-14228452D01*
X13712024Y-14237976D01*
X13692976Y-14237976D01*
X13673928Y-14228452D01*
X13664405Y-14218928D01*
X13654881Y-14199881D01*
X13645357Y-14161786D01*
X13645357Y-14114167D01*
X13654881Y-14076071D01*
X13664405Y-14057024D01*
X13673928Y-14047500D01*
X13692976Y-14037976D01*
X13845357Y-14218928D02*
X13854881Y-14228452D01*
X13845357Y-14237976D01*
X13835833Y-14228452D01*
X13845357Y-14218928D01*
X13845357Y-14237976D01*
X13978690Y-14037976D02*
X13997738Y-14037976D01*
X14016786Y-14047500D01*
X14026309Y-14057024D01*
X14035833Y-14076071D01*
X14045357Y-14114167D01*
X14045357Y-14161786D01*
X14035833Y-14199881D01*
X14026309Y-14218928D01*
X14016786Y-14228452D01*
X13997738Y-14237976D01*
X13978690Y-14237976D01*
X13959643Y-14228452D01*
X13950119Y-14218928D01*
X13940595Y-14199881D01*
X13931071Y-14161786D01*
X13931071Y-14114167D01*
X13940595Y-14076071D01*
X13950119Y-14057024D01*
X13959643Y-14047500D01*
X13978690Y-14037976D01*
X14235833Y-14237976D02*
X14121548Y-14237976D01*
X14178690Y-14237976D02*
X14178690Y-14037976D01*
X14159643Y-14066548D01*
X14140595Y-14085595D01*
X14121548Y-14095119D01*
X14416786Y-14037976D02*
X14321548Y-14037976D01*
X14312024Y-14133214D01*
X14321548Y-14123690D01*
X14340595Y-14114167D01*
X14388214Y-14114167D01*
X14407262Y-14123690D01*
X14416786Y-14133214D01*
X14426309Y-14152262D01*
X14426309Y-14199881D01*
X14416786Y-14218928D01*
X14407262Y-14228452D01*
X14388214Y-14237976D01*
X14340595Y-14237976D01*
X14321548Y-14228452D01*
X14312024Y-14218928D01*
X14492976Y-14037976D02*
X14626309Y-14037976D01*
X14540595Y-14237976D01*
X14692976Y-14037976D02*
X14692976Y-14076071D01*
X14769167Y-14037976D02*
X14769167Y-14076071D01*
X15064405Y-14314167D02*
X15054881Y-14304643D01*
X15035833Y-14276071D01*
X15026309Y-14257024D01*
X15016786Y-14228452D01*
X15007262Y-14180833D01*
X15007262Y-14142738D01*
X15016786Y-14095119D01*
X15026309Y-14066548D01*
X15035833Y-14047500D01*
X15054881Y-14018928D01*
X15064405Y-14009405D01*
X15121548Y-14037976D02*
X15254881Y-14037976D01*
X15169167Y-14237976D01*
X15435833Y-14237976D02*
X15321548Y-14237976D01*
X15378690Y-14237976D02*
X15378690Y-14037976D01*
X15359643Y-14066548D01*
X15340595Y-14085595D01*
X15321548Y-14095119D01*
X15673928Y-14237976D02*
X15673928Y-14037976D01*
X15759643Y-14237976D02*
X15759643Y-14133214D01*
X15750119Y-14114167D01*
X15731071Y-14104643D01*
X15702500Y-14104643D01*
X15683452Y-14114167D01*
X15673928Y-14123690D01*
X15883452Y-14237976D02*
X15864405Y-14228452D01*
X15854881Y-14218928D01*
X15845357Y-14199881D01*
X15845357Y-14142738D01*
X15854881Y-14123690D01*
X15864405Y-14114167D01*
X15883452Y-14104643D01*
X15912024Y-14104643D01*
X15931071Y-14114167D01*
X15940595Y-14123690D01*
X15950119Y-14142738D01*
X15950119Y-14199881D01*
X15940595Y-14218928D01*
X15931071Y-14228452D01*
X15912024Y-14237976D01*
X15883452Y-14237976D01*
X16064405Y-14237976D02*
X16045357Y-14228452D01*
X16035833Y-14209405D01*
X16035833Y-14037976D01*
X16216786Y-14228452D02*
X16197738Y-14237976D01*
X16159643Y-14237976D01*
X16140595Y-14228452D01*
X16131071Y-14209405D01*
X16131071Y-14133214D01*
X16140595Y-14114167D01*
X16159643Y-14104643D01*
X16197738Y-14104643D01*
X16216786Y-14114167D01*
X16226309Y-14133214D01*
X16226309Y-14152262D01*
X16131071Y-14171309D01*
X16302500Y-14228452D02*
X16321548Y-14237976D01*
X16359643Y-14237976D01*
X16378690Y-14228452D01*
X16388214Y-14209405D01*
X16388214Y-14199881D01*
X16378690Y-14180833D01*
X16359643Y-14171309D01*
X16331071Y-14171309D01*
X16312024Y-14161786D01*
X16302500Y-14142738D01*
X16302500Y-14133214D01*
X16312024Y-14114167D01*
X16331071Y-14104643D01*
X16359643Y-14104643D01*
X16378690Y-14114167D01*
X16454881Y-14314167D02*
X16464405Y-14304643D01*
X16483452Y-14276071D01*
X16492976Y-14257024D01*
X16502500Y-14228452D01*
X16512024Y-14180833D01*
X16512024Y-14142738D01*
X16502500Y-14095119D01*
X16492976Y-14066548D01*
X16483452Y-14047500D01*
X16464405Y-14018928D01*
X16454881Y-14009405D01*
D13*
X11492500Y-14411500D02*
G75*
G03*
X11492500Y-14411500I-38100J0D01*
G01*
D11*
X11788214Y-14301976D02*
X11807262Y-14301976D01*
X11826309Y-14311500D01*
X11835833Y-14321024D01*
X11845357Y-14340071D01*
X11854881Y-14378167D01*
X11854881Y-14425786D01*
X11845357Y-14463881D01*
X11835833Y-14482928D01*
X11826309Y-14492452D01*
X11807262Y-14501976D01*
X11788214Y-14501976D01*
X11769167Y-14492452D01*
X11759643Y-14482928D01*
X11750119Y-14463881D01*
X11740595Y-14425786D01*
X11740595Y-14378167D01*
X11750119Y-14340071D01*
X11759643Y-14321024D01*
X11769167Y-14311500D01*
X11788214Y-14301976D01*
X11940595Y-14482928D02*
X11950119Y-14492452D01*
X11940595Y-14501976D01*
X11931071Y-14492452D01*
X11940595Y-14482928D01*
X11940595Y-14501976D01*
X12016786Y-14301976D02*
X12150119Y-14301976D01*
X12064405Y-14501976D01*
X12312024Y-14301976D02*
X12273928Y-14301976D01*
X12254881Y-14311500D01*
X12245357Y-14321024D01*
X12226309Y-14349595D01*
X12216786Y-14387690D01*
X12216786Y-14463881D01*
X12226309Y-14482928D01*
X12235833Y-14492452D01*
X12254881Y-14501976D01*
X12292976Y-14501976D01*
X12312024Y-14492452D01*
X12321548Y-14482928D01*
X12331071Y-14463881D01*
X12331071Y-14416262D01*
X12321548Y-14397214D01*
X12312024Y-14387690D01*
X12292976Y-14378167D01*
X12254881Y-14378167D01*
X12235833Y-14387690D01*
X12226309Y-14397214D01*
X12216786Y-14416262D01*
X12407262Y-14321024D02*
X12416786Y-14311500D01*
X12435833Y-14301976D01*
X12483452Y-14301976D01*
X12502500Y-14311500D01*
X12512024Y-14321024D01*
X12521548Y-14340071D01*
X12521548Y-14359119D01*
X12512024Y-14387690D01*
X12397738Y-14501976D01*
X12521548Y-14501976D01*
X12607262Y-14501976D02*
X12607262Y-14368643D01*
X12607262Y-14387690D02*
X12616786Y-14378167D01*
X12635833Y-14368643D01*
X12664405Y-14368643D01*
X12683452Y-14378167D01*
X12692976Y-14397214D01*
X12692976Y-14501976D01*
X12692976Y-14397214D02*
X12702500Y-14378167D01*
X12721548Y-14368643D01*
X12750119Y-14368643D01*
X12769167Y-14378167D01*
X12778690Y-14397214D01*
X12778690Y-14501976D01*
X12873928Y-14501976D02*
X12873928Y-14368643D01*
X12873928Y-14387690D02*
X12883452Y-14378167D01*
X12902500Y-14368643D01*
X12931071Y-14368643D01*
X12950119Y-14378167D01*
X12959643Y-14397214D01*
X12959643Y-14501976D01*
X12959643Y-14397214D02*
X12969167Y-14378167D01*
X12988214Y-14368643D01*
X13016786Y-14368643D01*
X13035833Y-14378167D01*
X13045357Y-14397214D01*
X13045357Y-14501976D01*
X13435833Y-14292452D02*
X13264405Y-14549595D01*
X13692976Y-14301976D02*
X13712024Y-14301976D01*
X13731071Y-14311500D01*
X13740595Y-14321024D01*
X13750119Y-14340071D01*
X13759643Y-14378167D01*
X13759643Y-14425786D01*
X13750119Y-14463881D01*
X13740595Y-14482928D01*
X13731071Y-14492452D01*
X13712024Y-14501976D01*
X13692976Y-14501976D01*
X13673928Y-14492452D01*
X13664405Y-14482928D01*
X13654881Y-14463881D01*
X13645357Y-14425786D01*
X13645357Y-14378167D01*
X13654881Y-14340071D01*
X13664405Y-14321024D01*
X13673928Y-14311500D01*
X13692976Y-14301976D01*
X13845357Y-14482928D02*
X13854881Y-14492452D01*
X13845357Y-14501976D01*
X13835833Y-14492452D01*
X13845357Y-14482928D01*
X13845357Y-14501976D01*
X13978690Y-14301976D02*
X13997738Y-14301976D01*
X14016786Y-14311500D01*
X14026309Y-14321024D01*
X14035833Y-14340071D01*
X14045357Y-14378167D01*
X14045357Y-14425786D01*
X14035833Y-14463881D01*
X14026309Y-14482928D01*
X14016786Y-14492452D01*
X13997738Y-14501976D01*
X13978690Y-14501976D01*
X13959643Y-14492452D01*
X13950119Y-14482928D01*
X13940595Y-14463881D01*
X13931071Y-14425786D01*
X13931071Y-14378167D01*
X13940595Y-14340071D01*
X13950119Y-14321024D01*
X13959643Y-14311500D01*
X13978690Y-14301976D01*
X14112024Y-14301976D02*
X14235833Y-14301976D01*
X14169167Y-14378167D01*
X14197738Y-14378167D01*
X14216786Y-14387690D01*
X14226309Y-14397214D01*
X14235833Y-14416262D01*
X14235833Y-14463881D01*
X14226309Y-14482928D01*
X14216786Y-14492452D01*
X14197738Y-14501976D01*
X14140595Y-14501976D01*
X14121548Y-14492452D01*
X14112024Y-14482928D01*
X14359643Y-14301976D02*
X14378690Y-14301976D01*
X14397738Y-14311500D01*
X14407262Y-14321024D01*
X14416786Y-14340071D01*
X14426309Y-14378167D01*
X14426309Y-14425786D01*
X14416786Y-14463881D01*
X14407262Y-14482928D01*
X14397738Y-14492452D01*
X14378690Y-14501976D01*
X14359643Y-14501976D01*
X14340595Y-14492452D01*
X14331071Y-14482928D01*
X14321548Y-14463881D01*
X14312024Y-14425786D01*
X14312024Y-14378167D01*
X14321548Y-14340071D01*
X14331071Y-14321024D01*
X14340595Y-14311500D01*
X14359643Y-14301976D01*
X14550119Y-14301976D02*
X14569167Y-14301976D01*
X14588214Y-14311500D01*
X14597738Y-14321024D01*
X14607262Y-14340071D01*
X14616786Y-14378167D01*
X14616786Y-14425786D01*
X14607262Y-14463881D01*
X14597738Y-14482928D01*
X14588214Y-14492452D01*
X14569167Y-14501976D01*
X14550119Y-14501976D01*
X14531071Y-14492452D01*
X14521548Y-14482928D01*
X14512024Y-14463881D01*
X14502500Y-14425786D01*
X14502500Y-14378167D01*
X14512024Y-14340071D01*
X14521548Y-14321024D01*
X14531071Y-14311500D01*
X14550119Y-14301976D01*
X14692976Y-14301976D02*
X14692976Y-14340071D01*
X14769167Y-14301976D02*
X14769167Y-14340071D01*
X15064405Y-14578167D02*
X15054881Y-14568643D01*
X15035833Y-14540071D01*
X15026309Y-14521024D01*
X15016786Y-14492452D01*
X15007262Y-14444833D01*
X15007262Y-14406738D01*
X15016786Y-14359119D01*
X15026309Y-14330548D01*
X15035833Y-14311500D01*
X15054881Y-14282928D01*
X15064405Y-14273405D01*
X15131071Y-14321024D02*
X15140595Y-14311500D01*
X15159643Y-14301976D01*
X15207262Y-14301976D01*
X15226309Y-14311500D01*
X15235833Y-14321024D01*
X15245357Y-14340071D01*
X15245357Y-14359119D01*
X15235833Y-14387690D01*
X15121548Y-14501976D01*
X15245357Y-14501976D01*
X15483452Y-14501976D02*
X15483452Y-14301976D01*
X15569167Y-14501976D02*
X15569167Y-14397214D01*
X15559643Y-14378167D01*
X15540595Y-14368643D01*
X15512024Y-14368643D01*
X15492976Y-14378167D01*
X15483452Y-14387690D01*
X15692976Y-14501976D02*
X15673928Y-14492452D01*
X15664405Y-14482928D01*
X15654881Y-14463881D01*
X15654881Y-14406738D01*
X15664405Y-14387690D01*
X15673928Y-14378167D01*
X15692976Y-14368643D01*
X15721548Y-14368643D01*
X15740595Y-14378167D01*
X15750119Y-14387690D01*
X15759643Y-14406738D01*
X15759643Y-14463881D01*
X15750119Y-14482928D01*
X15740595Y-14492452D01*
X15721548Y-14501976D01*
X15692976Y-14501976D01*
X15873928Y-14501976D02*
X15854881Y-14492452D01*
X15845357Y-14473405D01*
X15845357Y-14301976D01*
X16026309Y-14492452D02*
X16007262Y-14501976D01*
X15969167Y-14501976D01*
X15950119Y-14492452D01*
X15940595Y-14473405D01*
X15940595Y-14397214D01*
X15950119Y-14378167D01*
X15969167Y-14368643D01*
X16007262Y-14368643D01*
X16026309Y-14378167D01*
X16035833Y-14397214D01*
X16035833Y-14416262D01*
X15940595Y-14435309D01*
X16112024Y-14492452D02*
X16131071Y-14501976D01*
X16169167Y-14501976D01*
X16188214Y-14492452D01*
X16197738Y-14473405D01*
X16197738Y-14463881D01*
X16188214Y-14444833D01*
X16169167Y-14435309D01*
X16140595Y-14435309D01*
X16121548Y-14425786D01*
X16112024Y-14406738D01*
X16112024Y-14397214D01*
X16121548Y-14378167D01*
X16140595Y-14368643D01*
X16169167Y-14368643D01*
X16188214Y-14378167D01*
X16264405Y-14578167D02*
X16273928Y-14568643D01*
X16292976Y-14540071D01*
X16302500Y-14521024D01*
X16312024Y-14492452D01*
X16321548Y-14444833D01*
X16321548Y-14406738D01*
X16312024Y-14359119D01*
X16302500Y-14330548D01*
X16292976Y-14311500D01*
X16273928Y-14282928D01*
X16264405Y-14273405D01*
D14*
X11442500Y-14625500D02*
X11442500Y-14725500D01*
X11392500Y-14675500D02*
X11492500Y-14675500D01*
D11*
X11854881Y-14765976D02*
X11740595Y-14765976D01*
X11797738Y-14765976D02*
X11797738Y-14565976D01*
X11778690Y-14594548D01*
X11759643Y-14613595D01*
X11740595Y-14623119D01*
X11940595Y-14746928D02*
X11950119Y-14756452D01*
X11940595Y-14765976D01*
X11931071Y-14756452D01*
X11940595Y-14746928D01*
X11940595Y-14765976D01*
X12073928Y-14565976D02*
X12092976Y-14565976D01*
X12112024Y-14575500D01*
X12121548Y-14585024D01*
X12131071Y-14604071D01*
X12140595Y-14642167D01*
X12140595Y-14689786D01*
X12131071Y-14727881D01*
X12121548Y-14746928D01*
X12112024Y-14756452D01*
X12092976Y-14765976D01*
X12073928Y-14765976D01*
X12054881Y-14756452D01*
X12045357Y-14746928D01*
X12035833Y-14727881D01*
X12026309Y-14689786D01*
X12026309Y-14642167D01*
X12035833Y-14604071D01*
X12045357Y-14585024D01*
X12054881Y-14575500D01*
X12073928Y-14565976D01*
X12264405Y-14565976D02*
X12283452Y-14565976D01*
X12302500Y-14575500D01*
X12312024Y-14585024D01*
X12321548Y-14604071D01*
X12331071Y-14642167D01*
X12331071Y-14689786D01*
X12321548Y-14727881D01*
X12312024Y-14746928D01*
X12302500Y-14756452D01*
X12283452Y-14765976D01*
X12264405Y-14765976D01*
X12245357Y-14756452D01*
X12235833Y-14746928D01*
X12226309Y-14727881D01*
X12216786Y-14689786D01*
X12216786Y-14642167D01*
X12226309Y-14604071D01*
X12235833Y-14585024D01*
X12245357Y-14575500D01*
X12264405Y-14565976D01*
X12454881Y-14565976D02*
X12473928Y-14565976D01*
X12492976Y-14575500D01*
X12502500Y-14585024D01*
X12512024Y-14604071D01*
X12521548Y-14642167D01*
X12521548Y-14689786D01*
X12512024Y-14727881D01*
X12502500Y-14746928D01*
X12492976Y-14756452D01*
X12473928Y-14765976D01*
X12454881Y-14765976D01*
X12435833Y-14756452D01*
X12426309Y-14746928D01*
X12416786Y-14727881D01*
X12407262Y-14689786D01*
X12407262Y-14642167D01*
X12416786Y-14604071D01*
X12426309Y-14585024D01*
X12435833Y-14575500D01*
X12454881Y-14565976D01*
X12607262Y-14765976D02*
X12607262Y-14632643D01*
X12607262Y-14651690D02*
X12616786Y-14642167D01*
X12635833Y-14632643D01*
X12664405Y-14632643D01*
X12683452Y-14642167D01*
X12692976Y-14661214D01*
X12692976Y-14765976D01*
X12692976Y-14661214D02*
X12702500Y-14642167D01*
X12721548Y-14632643D01*
X12750119Y-14632643D01*
X12769167Y-14642167D01*
X12778690Y-14661214D01*
X12778690Y-14765976D01*
X12873928Y-14765976D02*
X12873928Y-14632643D01*
X12873928Y-14651690D02*
X12883452Y-14642167D01*
X12902500Y-14632643D01*
X12931071Y-14632643D01*
X12950119Y-14642167D01*
X12959643Y-14661214D01*
X12959643Y-14765976D01*
X12959643Y-14661214D02*
X12969167Y-14642167D01*
X12988214Y-14632643D01*
X13016786Y-14632643D01*
X13035833Y-14642167D01*
X13045357Y-14661214D01*
X13045357Y-14765976D01*
X13435833Y-14556452D02*
X13264405Y-14813595D01*
X13692976Y-14565976D02*
X13712024Y-14565976D01*
X13731071Y-14575500D01*
X13740595Y-14585024D01*
X13750119Y-14604071D01*
X13759643Y-14642167D01*
X13759643Y-14689786D01*
X13750119Y-14727881D01*
X13740595Y-14746928D01*
X13731071Y-14756452D01*
X13712024Y-14765976D01*
X13692976Y-14765976D01*
X13673928Y-14756452D01*
X13664405Y-14746928D01*
X13654881Y-14727881D01*
X13645357Y-14689786D01*
X13645357Y-14642167D01*
X13654881Y-14604071D01*
X13664405Y-14585024D01*
X13673928Y-14575500D01*
X13692976Y-14565976D01*
X13845357Y-14746928D02*
X13854881Y-14756452D01*
X13845357Y-14765976D01*
X13835833Y-14756452D01*
X13845357Y-14746928D01*
X13845357Y-14765976D01*
X13978690Y-14565976D02*
X13997738Y-14565976D01*
X14016786Y-14575500D01*
X14026309Y-14585024D01*
X14035833Y-14604071D01*
X14045357Y-14642167D01*
X14045357Y-14689786D01*
X14035833Y-14727881D01*
X14026309Y-14746928D01*
X14016786Y-14756452D01*
X13997738Y-14765976D01*
X13978690Y-14765976D01*
X13959643Y-14756452D01*
X13950119Y-14746928D01*
X13940595Y-14727881D01*
X13931071Y-14689786D01*
X13931071Y-14642167D01*
X13940595Y-14604071D01*
X13950119Y-14585024D01*
X13959643Y-14575500D01*
X13978690Y-14565976D01*
X14112024Y-14565976D02*
X14235833Y-14565976D01*
X14169167Y-14642167D01*
X14197738Y-14642167D01*
X14216786Y-14651690D01*
X14226309Y-14661214D01*
X14235833Y-14680262D01*
X14235833Y-14727881D01*
X14226309Y-14746928D01*
X14216786Y-14756452D01*
X14197738Y-14765976D01*
X14140595Y-14765976D01*
X14121548Y-14756452D01*
X14112024Y-14746928D01*
X14331071Y-14765976D02*
X14369167Y-14765976D01*
X14388214Y-14756452D01*
X14397738Y-14746928D01*
X14416786Y-14718357D01*
X14426309Y-14680262D01*
X14426309Y-14604071D01*
X14416786Y-14585024D01*
X14407262Y-14575500D01*
X14388214Y-14565976D01*
X14350119Y-14565976D01*
X14331071Y-14575500D01*
X14321548Y-14585024D01*
X14312024Y-14604071D01*
X14312024Y-14651690D01*
X14321548Y-14670738D01*
X14331071Y-14680262D01*
X14350119Y-14689786D01*
X14388214Y-14689786D01*
X14407262Y-14680262D01*
X14416786Y-14670738D01*
X14426309Y-14651690D01*
X14597738Y-14632643D02*
X14597738Y-14765976D01*
X14550119Y-14556452D02*
X14502500Y-14699309D01*
X14626309Y-14699309D01*
X14692976Y-14565976D02*
X14692976Y-14604071D01*
X14769167Y-14565976D02*
X14769167Y-14604071D01*
X15064405Y-14842167D02*
X15054881Y-14832643D01*
X15035833Y-14804071D01*
X15026309Y-14785024D01*
X15016786Y-14756452D01*
X15007262Y-14708833D01*
X15007262Y-14670738D01*
X15016786Y-14623119D01*
X15026309Y-14594548D01*
X15035833Y-14575500D01*
X15054881Y-14546928D01*
X15064405Y-14537405D01*
X15169167Y-14651690D02*
X15150119Y-14642167D01*
X15140595Y-14632643D01*
X15131071Y-14613595D01*
X15131071Y-14604071D01*
X15140595Y-14585024D01*
X15150119Y-14575500D01*
X15169167Y-14565976D01*
X15207262Y-14565976D01*
X15226309Y-14575500D01*
X15235833Y-14585024D01*
X15245357Y-14604071D01*
X15245357Y-14613595D01*
X15235833Y-14632643D01*
X15226309Y-14642167D01*
X15207262Y-14651690D01*
X15169167Y-14651690D01*
X15150119Y-14661214D01*
X15140595Y-14670738D01*
X15131071Y-14689786D01*
X15131071Y-14727881D01*
X15140595Y-14746928D01*
X15150119Y-14756452D01*
X15169167Y-14765976D01*
X15207262Y-14765976D01*
X15226309Y-14756452D01*
X15235833Y-14746928D01*
X15245357Y-14727881D01*
X15245357Y-14689786D01*
X15235833Y-14670738D01*
X15226309Y-14661214D01*
X15207262Y-14651690D01*
X15483452Y-14765976D02*
X15483452Y-14565976D01*
X15569167Y-14765976D02*
X15569167Y-14661214D01*
X15559643Y-14642167D01*
X15540595Y-14632643D01*
X15512024Y-14632643D01*
X15492976Y-14642167D01*
X15483452Y-14651690D01*
X15692976Y-14765976D02*
X15673928Y-14756452D01*
X15664405Y-14746928D01*
X15654881Y-14727881D01*
X15654881Y-14670738D01*
X15664405Y-14651690D01*
X15673928Y-14642167D01*
X15692976Y-14632643D01*
X15721548Y-14632643D01*
X15740595Y-14642167D01*
X15750119Y-14651690D01*
X15759643Y-14670738D01*
X15759643Y-14727881D01*
X15750119Y-14746928D01*
X15740595Y-14756452D01*
X15721548Y-14765976D01*
X15692976Y-14765976D01*
X15873928Y-14765976D02*
X15854881Y-14756452D01*
X15845357Y-14737405D01*
X15845357Y-14565976D01*
X16026309Y-14756452D02*
X16007262Y-14765976D01*
X15969167Y-14765976D01*
X15950119Y-14756452D01*
X15940595Y-14737405D01*
X15940595Y-14661214D01*
X15950119Y-14642167D01*
X15969167Y-14632643D01*
X16007262Y-14632643D01*
X16026309Y-14642167D01*
X16035833Y-14661214D01*
X16035833Y-14680262D01*
X15940595Y-14699309D01*
X16112024Y-14756452D02*
X16131071Y-14765976D01*
X16169167Y-14765976D01*
X16188214Y-14756452D01*
X16197738Y-14737405D01*
X16197738Y-14727881D01*
X16188214Y-14708833D01*
X16169167Y-14699309D01*
X16140595Y-14699309D01*
X16121548Y-14689786D01*
X16112024Y-14670738D01*
X16112024Y-14661214D01*
X16121548Y-14642167D01*
X16140595Y-14632643D01*
X16169167Y-14632643D01*
X16188214Y-14642167D01*
X16264405Y-14842167D02*
X16273928Y-14832643D01*
X16292976Y-14804071D01*
X16302500Y-14785024D01*
X16312024Y-14756452D01*
X16321548Y-14708833D01*
X16321548Y-14670738D01*
X16312024Y-14623119D01*
X16302500Y-14594548D01*
X16292976Y-14575500D01*
X16273928Y-14546928D01*
X16264405Y-14537405D01*
X11463211Y-15010211D02*
X11463211Y-14868789D01*
X11321789Y-14868789D01*
X11321789Y-15010211D01*
X11463211Y-15010211D01*
X11740595Y-14849024D02*
X11750119Y-14839500D01*
X11769167Y-14829976D01*
X11816786Y-14829976D01*
X11835833Y-14839500D01*
X11845357Y-14849024D01*
X11854881Y-14868071D01*
X11854881Y-14887119D01*
X11845357Y-14915690D01*
X11731071Y-15029976D01*
X11854881Y-15029976D01*
X11940595Y-15010928D02*
X11950119Y-15020452D01*
X11940595Y-15029976D01*
X11931071Y-15020452D01*
X11940595Y-15010928D01*
X11940595Y-15029976D01*
X12016786Y-14829976D02*
X12140595Y-14829976D01*
X12073928Y-14906167D01*
X12102500Y-14906167D01*
X12121548Y-14915690D01*
X12131071Y-14925214D01*
X12140595Y-14944262D01*
X12140595Y-14991881D01*
X12131071Y-15010928D01*
X12121548Y-15020452D01*
X12102500Y-15029976D01*
X12045357Y-15029976D01*
X12026309Y-15020452D01*
X12016786Y-15010928D01*
X12264405Y-14829976D02*
X12283452Y-14829976D01*
X12302500Y-14839500D01*
X12312024Y-14849024D01*
X12321548Y-14868071D01*
X12331071Y-14906167D01*
X12331071Y-14953786D01*
X12321548Y-14991881D01*
X12312024Y-15010928D01*
X12302500Y-15020452D01*
X12283452Y-15029976D01*
X12264405Y-15029976D01*
X12245357Y-15020452D01*
X12235833Y-15010928D01*
X12226309Y-14991881D01*
X12216786Y-14953786D01*
X12216786Y-14906167D01*
X12226309Y-14868071D01*
X12235833Y-14849024D01*
X12245357Y-14839500D01*
X12264405Y-14829976D01*
X12454881Y-14829976D02*
X12473928Y-14829976D01*
X12492976Y-14839500D01*
X12502500Y-14849024D01*
X12512024Y-14868071D01*
X12521548Y-14906167D01*
X12521548Y-14953786D01*
X12512024Y-14991881D01*
X12502500Y-15010928D01*
X12492976Y-15020452D01*
X12473928Y-15029976D01*
X12454881Y-15029976D01*
X12435833Y-15020452D01*
X12426309Y-15010928D01*
X12416786Y-14991881D01*
X12407262Y-14953786D01*
X12407262Y-14906167D01*
X12416786Y-14868071D01*
X12426309Y-14849024D01*
X12435833Y-14839500D01*
X12454881Y-14829976D01*
X12607262Y-15029976D02*
X12607262Y-14896643D01*
X12607262Y-14915690D02*
X12616786Y-14906167D01*
X12635833Y-14896643D01*
X12664405Y-14896643D01*
X12683452Y-14906167D01*
X12692976Y-14925214D01*
X12692976Y-15029976D01*
X12692976Y-14925214D02*
X12702500Y-14906167D01*
X12721548Y-14896643D01*
X12750119Y-14896643D01*
X12769167Y-14906167D01*
X12778690Y-14925214D01*
X12778690Y-15029976D01*
X12873928Y-15029976D02*
X12873928Y-14896643D01*
X12873928Y-14915690D02*
X12883452Y-14906167D01*
X12902500Y-14896643D01*
X12931071Y-14896643D01*
X12950119Y-14906167D01*
X12959643Y-14925214D01*
X12959643Y-15029976D01*
X12959643Y-14925214D02*
X12969167Y-14906167D01*
X12988214Y-14896643D01*
X13016786Y-14896643D01*
X13035833Y-14906167D01*
X13045357Y-14925214D01*
X13045357Y-15029976D01*
X13435833Y-14820452D02*
X13264405Y-15077595D01*
X13692976Y-14829976D02*
X13712024Y-14829976D01*
X13731071Y-14839500D01*
X13740595Y-14849024D01*
X13750119Y-14868071D01*
X13759643Y-14906167D01*
X13759643Y-14953786D01*
X13750119Y-14991881D01*
X13740595Y-15010928D01*
X13731071Y-15020452D01*
X13712024Y-15029976D01*
X13692976Y-15029976D01*
X13673928Y-15020452D01*
X13664405Y-15010928D01*
X13654881Y-14991881D01*
X13645357Y-14953786D01*
X13645357Y-14906167D01*
X13654881Y-14868071D01*
X13664405Y-14849024D01*
X13673928Y-14839500D01*
X13692976Y-14829976D01*
X13845357Y-15010928D02*
X13854881Y-15020452D01*
X13845357Y-15029976D01*
X13835833Y-15020452D01*
X13845357Y-15010928D01*
X13845357Y-15029976D01*
X13978690Y-14829976D02*
X13997738Y-14829976D01*
X14016786Y-14839500D01*
X14026309Y-14849024D01*
X14035833Y-14868071D01*
X14045357Y-14906167D01*
X14045357Y-14953786D01*
X14035833Y-14991881D01*
X14026309Y-15010928D01*
X14016786Y-15020452D01*
X13997738Y-15029976D01*
X13978690Y-15029976D01*
X13959643Y-15020452D01*
X13950119Y-15010928D01*
X13940595Y-14991881D01*
X13931071Y-14953786D01*
X13931071Y-14906167D01*
X13940595Y-14868071D01*
X13950119Y-14849024D01*
X13959643Y-14839500D01*
X13978690Y-14829976D01*
X14140595Y-15029976D02*
X14178690Y-15029976D01*
X14197738Y-15020452D01*
X14207262Y-15010928D01*
X14226309Y-14982357D01*
X14235833Y-14944262D01*
X14235833Y-14868071D01*
X14226309Y-14849024D01*
X14216786Y-14839500D01*
X14197738Y-14829976D01*
X14159643Y-14829976D01*
X14140595Y-14839500D01*
X14131071Y-14849024D01*
X14121548Y-14868071D01*
X14121548Y-14915690D01*
X14131071Y-14934738D01*
X14140595Y-14944262D01*
X14159643Y-14953786D01*
X14197738Y-14953786D01*
X14216786Y-14944262D01*
X14226309Y-14934738D01*
X14235833Y-14915690D01*
X14359643Y-14829976D02*
X14378690Y-14829976D01*
X14397738Y-14839500D01*
X14407262Y-14849024D01*
X14416786Y-14868071D01*
X14426309Y-14906167D01*
X14426309Y-14953786D01*
X14416786Y-14991881D01*
X14407262Y-15010928D01*
X14397738Y-15020452D01*
X14378690Y-15029976D01*
X14359643Y-15029976D01*
X14340595Y-15020452D01*
X14331071Y-15010928D01*
X14321548Y-14991881D01*
X14312024Y-14953786D01*
X14312024Y-14906167D01*
X14321548Y-14868071D01*
X14331071Y-14849024D01*
X14340595Y-14839500D01*
X14359643Y-14829976D01*
X14597738Y-14829976D02*
X14559643Y-14829976D01*
X14540595Y-14839500D01*
X14531071Y-14849024D01*
X14512024Y-14877595D01*
X14502500Y-14915690D01*
X14502500Y-14991881D01*
X14512024Y-15010928D01*
X14521548Y-15020452D01*
X14540595Y-15029976D01*
X14578690Y-15029976D01*
X14597738Y-15020452D01*
X14607262Y-15010928D01*
X14616786Y-14991881D01*
X14616786Y-14944262D01*
X14607262Y-14925214D01*
X14597738Y-14915690D01*
X14578690Y-14906167D01*
X14540595Y-14906167D01*
X14521548Y-14915690D01*
X14512024Y-14925214D01*
X14502500Y-14944262D01*
X14692976Y-14829976D02*
X14692976Y-14868071D01*
X14769167Y-14829976D02*
X14769167Y-14868071D01*
X15064405Y-15106167D02*
X15054881Y-15096643D01*
X15035833Y-15068071D01*
X15026309Y-15049024D01*
X15016786Y-15020452D01*
X15007262Y-14972833D01*
X15007262Y-14934738D01*
X15016786Y-14887119D01*
X15026309Y-14858548D01*
X15035833Y-14839500D01*
X15054881Y-14810928D01*
X15064405Y-14801405D01*
X15245357Y-15029976D02*
X15131071Y-15029976D01*
X15188214Y-15029976D02*
X15188214Y-14829976D01*
X15169167Y-14858548D01*
X15150119Y-14877595D01*
X15131071Y-14887119D01*
X15483452Y-15029976D02*
X15483452Y-14829976D01*
X15569167Y-15029976D02*
X15569167Y-14925214D01*
X15559643Y-14906167D01*
X15540595Y-14896643D01*
X15512024Y-14896643D01*
X15492976Y-14906167D01*
X15483452Y-14915690D01*
X15692976Y-15029976D02*
X15673928Y-15020452D01*
X15664405Y-15010928D01*
X15654881Y-14991881D01*
X15654881Y-14934738D01*
X15664405Y-14915690D01*
X15673928Y-14906167D01*
X15692976Y-14896643D01*
X15721548Y-14896643D01*
X15740595Y-14906167D01*
X15750119Y-14915690D01*
X15759643Y-14934738D01*
X15759643Y-14991881D01*
X15750119Y-15010928D01*
X15740595Y-15020452D01*
X15721548Y-15029976D01*
X15692976Y-15029976D01*
X15873928Y-15029976D02*
X15854881Y-15020452D01*
X15845357Y-15001405D01*
X15845357Y-14829976D01*
X16026309Y-15020452D02*
X16007262Y-15029976D01*
X15969167Y-15029976D01*
X15950119Y-15020452D01*
X15940595Y-15001405D01*
X15940595Y-14925214D01*
X15950119Y-14906167D01*
X15969167Y-14896643D01*
X16007262Y-14896643D01*
X16026309Y-14906167D01*
X16035833Y-14925214D01*
X16035833Y-14944262D01*
X15940595Y-14963309D01*
X16102500Y-15106167D02*
X16112024Y-15096643D01*
X16131071Y-15068071D01*
X16140595Y-15049024D01*
X16150119Y-15020452D01*
X16159643Y-14972833D01*
X16159643Y-14934738D01*
X16150119Y-14887119D01*
X16140595Y-14858548D01*
X16131071Y-14839500D01*
X16112024Y-14810928D01*
X16102500Y-14801405D01*
M02*
