%TF.GenerationSoftware,KiCad,Pcbnew,(6.0.7-1)-1*%
%TF.CreationDate,2022-12-12T20:47:58-08:00*%
%TF.ProjectId,ChristmasCountdown2022,43687269-7374-46d6-9173-436f756e7464,rev?*%
%TF.SameCoordinates,Original*%
%TF.FileFunction,AssemblyDrawing,Bot*%
%FSLAX46Y46*%
G04 Gerber Fmt 4.6, Leading zero omitted, Abs format (unit mm)*
G04 Created by KiCad (PCBNEW (6.0.7-1)-1) date 2022-12-12 20:47:58*
%MOMM*%
%LPD*%
G01*
G04 APERTURE LIST*
%ADD10C,0.150000*%
%ADD11C,0.080000*%
%ADD12C,0.050000*%
%ADD13C,0.040000*%
%ADD14C,0.100000*%
%ADD15C,0.127000*%
%ADD16C,0.200000*%
G04 APERTURE END LIST*
D10*
%TO.C,R8*%
X167498638Y-113684580D02*
X168070066Y-113684580D01*
X167784352Y-113684580D02*
X167784352Y-112684580D01*
X167879590Y-112827438D01*
X167974828Y-112922676D01*
X168070066Y-112970295D01*
X166879590Y-112684580D02*
X166784352Y-112684580D01*
X166689114Y-112732200D01*
X166641495Y-112779819D01*
X166593876Y-112875057D01*
X166546257Y-113065533D01*
X166546257Y-113303628D01*
X166593876Y-113494104D01*
X166641495Y-113589342D01*
X166689114Y-113636961D01*
X166784352Y-113684580D01*
X166879590Y-113684580D01*
X166974828Y-113636961D01*
X167022447Y-113589342D01*
X167070066Y-113494104D01*
X167117685Y-113303628D01*
X167117685Y-113065533D01*
X167070066Y-112875057D01*
X167022447Y-112779819D01*
X166974828Y-112732200D01*
X166879590Y-112684580D01*
X166117685Y-113684580D02*
X166117685Y-112684580D01*
X166022447Y-113303628D02*
X165736733Y-113684580D01*
X165736733Y-113017914D02*
X166117685Y-113398866D01*
D11*
X166986733Y-111808390D02*
X167153400Y-111570295D01*
X167272447Y-111808390D02*
X167272447Y-111308390D01*
X167081971Y-111308390D01*
X167034352Y-111332200D01*
X167010542Y-111356009D01*
X166986733Y-111403628D01*
X166986733Y-111475057D01*
X167010542Y-111522676D01*
X167034352Y-111546485D01*
X167081971Y-111570295D01*
X167272447Y-111570295D01*
X166701019Y-111522676D02*
X166748638Y-111498866D01*
X166772447Y-111475057D01*
X166796257Y-111427438D01*
X166796257Y-111403628D01*
X166772447Y-111356009D01*
X166748638Y-111332200D01*
X166701019Y-111308390D01*
X166605780Y-111308390D01*
X166558161Y-111332200D01*
X166534352Y-111356009D01*
X166510542Y-111403628D01*
X166510542Y-111427438D01*
X166534352Y-111475057D01*
X166558161Y-111498866D01*
X166605780Y-111522676D01*
X166701019Y-111522676D01*
X166748638Y-111546485D01*
X166772447Y-111570295D01*
X166796257Y-111617914D01*
X166796257Y-111713152D01*
X166772447Y-111760771D01*
X166748638Y-111784580D01*
X166701019Y-111808390D01*
X166605780Y-111808390D01*
X166558161Y-111784580D01*
X166534352Y-111760771D01*
X166510542Y-111713152D01*
X166510542Y-111617914D01*
X166534352Y-111570295D01*
X166558161Y-111546485D01*
X166605780Y-111522676D01*
%TO.C,C9*%
X163853571Y-90916666D02*
X163877380Y-90892857D01*
X163901190Y-90821428D01*
X163901190Y-90773809D01*
X163877380Y-90702380D01*
X163829761Y-90654761D01*
X163782142Y-90630952D01*
X163686904Y-90607142D01*
X163615476Y-90607142D01*
X163520238Y-90630952D01*
X163472619Y-90654761D01*
X163425000Y-90702380D01*
X163401190Y-90773809D01*
X163401190Y-90821428D01*
X163425000Y-90892857D01*
X163448809Y-90916666D01*
X163901190Y-91154761D02*
X163901190Y-91250000D01*
X163877380Y-91297619D01*
X163853571Y-91321428D01*
X163782142Y-91369047D01*
X163686904Y-91392857D01*
X163496428Y-91392857D01*
X163448809Y-91369047D01*
X163425000Y-91345238D01*
X163401190Y-91297619D01*
X163401190Y-91202380D01*
X163425000Y-91154761D01*
X163448809Y-91130952D01*
X163496428Y-91107142D01*
X163615476Y-91107142D01*
X163663095Y-91130952D01*
X163686904Y-91154761D01*
X163710714Y-91202380D01*
X163710714Y-91297619D01*
X163686904Y-91345238D01*
X163663095Y-91369047D01*
X163615476Y-91392857D01*
%TO.C,C10*%
X175835428Y-110668571D02*
X175859238Y-110692380D01*
X175930666Y-110716190D01*
X175978285Y-110716190D01*
X176049714Y-110692380D01*
X176097333Y-110644761D01*
X176121142Y-110597142D01*
X176144952Y-110501904D01*
X176144952Y-110430476D01*
X176121142Y-110335238D01*
X176097333Y-110287619D01*
X176049714Y-110240000D01*
X175978285Y-110216190D01*
X175930666Y-110216190D01*
X175859238Y-110240000D01*
X175835428Y-110263809D01*
X175359238Y-110716190D02*
X175644952Y-110716190D01*
X175502095Y-110716190D02*
X175502095Y-110216190D01*
X175549714Y-110287619D01*
X175597333Y-110335238D01*
X175644952Y-110359047D01*
X175049714Y-110216190D02*
X175002095Y-110216190D01*
X174954476Y-110240000D01*
X174930666Y-110263809D01*
X174906857Y-110311428D01*
X174883047Y-110406666D01*
X174883047Y-110525714D01*
X174906857Y-110620952D01*
X174930666Y-110668571D01*
X174954476Y-110692380D01*
X175002095Y-110716190D01*
X175049714Y-110716190D01*
X175097333Y-110692380D01*
X175121142Y-110668571D01*
X175144952Y-110620952D01*
X175168761Y-110525714D01*
X175168761Y-110406666D01*
X175144952Y-110311428D01*
X175121142Y-110263809D01*
X175097333Y-110240000D01*
X175049714Y-110216190D01*
%TO.C,C11*%
X173853571Y-90678571D02*
X173877380Y-90654761D01*
X173901190Y-90583333D01*
X173901190Y-90535714D01*
X173877380Y-90464285D01*
X173829761Y-90416666D01*
X173782142Y-90392857D01*
X173686904Y-90369047D01*
X173615476Y-90369047D01*
X173520238Y-90392857D01*
X173472619Y-90416666D01*
X173425000Y-90464285D01*
X173401190Y-90535714D01*
X173401190Y-90583333D01*
X173425000Y-90654761D01*
X173448809Y-90678571D01*
X173901190Y-91154761D02*
X173901190Y-90869047D01*
X173901190Y-91011904D02*
X173401190Y-91011904D01*
X173472619Y-90964285D01*
X173520238Y-90916666D01*
X173544047Y-90869047D01*
X173901190Y-91630952D02*
X173901190Y-91345238D01*
X173901190Y-91488095D02*
X173401190Y-91488095D01*
X173472619Y-91440476D01*
X173520238Y-91392857D01*
X173544047Y-91345238D01*
D10*
%TO.C,R7*%
X148777380Y-112104761D02*
X148777380Y-111533333D01*
X148777380Y-111819047D02*
X147777380Y-111819047D01*
X147920238Y-111723809D01*
X148015476Y-111628571D01*
X148063095Y-111533333D01*
X147777380Y-112723809D02*
X147777380Y-112819047D01*
X147825000Y-112914285D01*
X147872619Y-112961904D01*
X147967857Y-113009523D01*
X148158333Y-113057142D01*
X148396428Y-113057142D01*
X148586904Y-113009523D01*
X148682142Y-112961904D01*
X148729761Y-112914285D01*
X148777380Y-112819047D01*
X148777380Y-112723809D01*
X148729761Y-112628571D01*
X148682142Y-112580952D01*
X148586904Y-112533333D01*
X148396428Y-112485714D01*
X148158333Y-112485714D01*
X147967857Y-112533333D01*
X147872619Y-112580952D01*
X147825000Y-112628571D01*
X147777380Y-112723809D01*
X148777380Y-113485714D02*
X147777380Y-113485714D01*
X148396428Y-113580952D02*
X148777380Y-113866666D01*
X148110714Y-113866666D02*
X148491666Y-113485714D01*
D11*
X146901190Y-112616666D02*
X146663095Y-112450000D01*
X146901190Y-112330952D02*
X146401190Y-112330952D01*
X146401190Y-112521428D01*
X146425000Y-112569047D01*
X146448809Y-112592857D01*
X146496428Y-112616666D01*
X146567857Y-112616666D01*
X146615476Y-112592857D01*
X146639285Y-112569047D01*
X146663095Y-112521428D01*
X146663095Y-112330952D01*
X146401190Y-112783333D02*
X146401190Y-113116666D01*
X146901190Y-112902380D01*
D12*
%TO.C,Q2*%
X152405476Y-100225238D02*
X152435952Y-100210000D01*
X152466428Y-100179523D01*
X152512142Y-100133809D01*
X152542619Y-100118571D01*
X152573095Y-100118571D01*
X152557857Y-100194761D02*
X152588333Y-100179523D01*
X152618809Y-100149047D01*
X152634047Y-100088095D01*
X152634047Y-99981428D01*
X152618809Y-99920476D01*
X152588333Y-99890000D01*
X152557857Y-99874761D01*
X152496904Y-99874761D01*
X152466428Y-99890000D01*
X152435952Y-99920476D01*
X152420714Y-99981428D01*
X152420714Y-100088095D01*
X152435952Y-100149047D01*
X152466428Y-100179523D01*
X152496904Y-100194761D01*
X152557857Y-100194761D01*
X152298809Y-99905238D02*
X152283571Y-99890000D01*
X152253095Y-99874761D01*
X152176904Y-99874761D01*
X152146428Y-99890000D01*
X152131190Y-99905238D01*
X152115952Y-99935714D01*
X152115952Y-99966190D01*
X152131190Y-100011904D01*
X152314047Y-100194761D01*
X152115952Y-100194761D01*
D10*
%TO.C,C17*%
X163702857Y-102122380D02*
X163607619Y-102122380D01*
X163512380Y-102170000D01*
X163464761Y-102217619D01*
X163417142Y-102312857D01*
X163369523Y-102503333D01*
X163369523Y-102741428D01*
X163417142Y-102931904D01*
X163464761Y-103027142D01*
X163512380Y-103074761D01*
X163607619Y-103122380D01*
X163702857Y-103122380D01*
X163798095Y-103074761D01*
X163845714Y-103027142D01*
X163893333Y-102931904D01*
X163940952Y-102741428D01*
X163940952Y-102503333D01*
X163893333Y-102312857D01*
X163845714Y-102217619D01*
X163798095Y-102170000D01*
X163702857Y-102122380D01*
X162940952Y-103027142D02*
X162893333Y-103074761D01*
X162940952Y-103122380D01*
X162988571Y-103074761D01*
X162940952Y-103027142D01*
X162940952Y-103122380D01*
X161940952Y-103122380D02*
X162512380Y-103122380D01*
X162226666Y-103122380D02*
X162226666Y-102122380D01*
X162321904Y-102265238D01*
X162417142Y-102360476D01*
X162512380Y-102408095D01*
X161083809Y-102455714D02*
X161083809Y-103122380D01*
X161512380Y-102455714D02*
X161512380Y-102979523D01*
X161464761Y-103074761D01*
X161369523Y-103122380D01*
X161226666Y-103122380D01*
X161131428Y-103074761D01*
X161083809Y-103027142D01*
X160274285Y-102598571D02*
X160607619Y-102598571D01*
X160607619Y-103122380D02*
X160607619Y-102122380D01*
X160131428Y-102122380D01*
D11*
X162381428Y-104528571D02*
X162405238Y-104552380D01*
X162476666Y-104576190D01*
X162524285Y-104576190D01*
X162595714Y-104552380D01*
X162643333Y-104504761D01*
X162667142Y-104457142D01*
X162690952Y-104361904D01*
X162690952Y-104290476D01*
X162667142Y-104195238D01*
X162643333Y-104147619D01*
X162595714Y-104100000D01*
X162524285Y-104076190D01*
X162476666Y-104076190D01*
X162405238Y-104100000D01*
X162381428Y-104123809D01*
X161905238Y-104576190D02*
X162190952Y-104576190D01*
X162048095Y-104576190D02*
X162048095Y-104076190D01*
X162095714Y-104147619D01*
X162143333Y-104195238D01*
X162190952Y-104219047D01*
X161738571Y-104076190D02*
X161405238Y-104076190D01*
X161619523Y-104576190D01*
D13*
%TO.C,FID3*%
X132714285Y-78585714D02*
X132780952Y-78585714D01*
X132780952Y-78690476D02*
X132780952Y-78490476D01*
X132685714Y-78490476D01*
X132609523Y-78690476D02*
X132609523Y-78490476D01*
X132514285Y-78690476D02*
X132514285Y-78490476D01*
X132466666Y-78490476D01*
X132438095Y-78500000D01*
X132419047Y-78519047D01*
X132409523Y-78538095D01*
X132400000Y-78576190D01*
X132400000Y-78604761D01*
X132409523Y-78642857D01*
X132419047Y-78661904D01*
X132438095Y-78680952D01*
X132466666Y-78690476D01*
X132514285Y-78690476D01*
X132333333Y-78490476D02*
X132209523Y-78490476D01*
X132276190Y-78566666D01*
X132247619Y-78566666D01*
X132228571Y-78576190D01*
X132219047Y-78585714D01*
X132209523Y-78604761D01*
X132209523Y-78652380D01*
X132219047Y-78671428D01*
X132228571Y-78680952D01*
X132247619Y-78690476D01*
X132304761Y-78690476D01*
X132323809Y-78680952D01*
X132333333Y-78671428D01*
D10*
%TO.C,C25*%
X146413180Y-104224342D02*
X146413180Y-104319580D01*
X146460800Y-104414819D01*
X146508419Y-104462438D01*
X146603657Y-104510057D01*
X146794133Y-104557676D01*
X147032228Y-104557676D01*
X147222704Y-104510057D01*
X147317942Y-104462438D01*
X147365561Y-104414819D01*
X147413180Y-104319580D01*
X147413180Y-104224342D01*
X147365561Y-104129104D01*
X147317942Y-104081485D01*
X147222704Y-104033866D01*
X147032228Y-103986247D01*
X146794133Y-103986247D01*
X146603657Y-104033866D01*
X146508419Y-104081485D01*
X146460800Y-104129104D01*
X146413180Y-104224342D01*
X147317942Y-104986247D02*
X147365561Y-105033866D01*
X147413180Y-104986247D01*
X147365561Y-104938628D01*
X147317942Y-104986247D01*
X147413180Y-104986247D01*
X147413180Y-105986247D02*
X147413180Y-105414819D01*
X147413180Y-105700533D02*
X146413180Y-105700533D01*
X146556038Y-105605295D01*
X146651276Y-105510057D01*
X146698895Y-105414819D01*
X146746514Y-106843390D02*
X147413180Y-106843390D01*
X146746514Y-106414819D02*
X147270323Y-106414819D01*
X147365561Y-106462438D01*
X147413180Y-106557676D01*
X147413180Y-106700533D01*
X147365561Y-106795771D01*
X147317942Y-106843390D01*
X146889371Y-107652914D02*
X146889371Y-107319580D01*
X147413180Y-107319580D02*
X146413180Y-107319580D01*
X146413180Y-107795771D01*
D11*
X148819371Y-105545771D02*
X148843180Y-105521961D01*
X148866990Y-105450533D01*
X148866990Y-105402914D01*
X148843180Y-105331485D01*
X148795561Y-105283866D01*
X148747942Y-105260057D01*
X148652704Y-105236247D01*
X148581276Y-105236247D01*
X148486038Y-105260057D01*
X148438419Y-105283866D01*
X148390800Y-105331485D01*
X148366990Y-105402914D01*
X148366990Y-105450533D01*
X148390800Y-105521961D01*
X148414609Y-105545771D01*
X148414609Y-105736247D02*
X148390800Y-105760057D01*
X148366990Y-105807676D01*
X148366990Y-105926723D01*
X148390800Y-105974342D01*
X148414609Y-105998152D01*
X148462228Y-106021961D01*
X148509847Y-106021961D01*
X148581276Y-105998152D01*
X148866990Y-105712438D01*
X148866990Y-106021961D01*
X148366990Y-106474342D02*
X148366990Y-106236247D01*
X148605085Y-106212438D01*
X148581276Y-106236247D01*
X148557466Y-106283866D01*
X148557466Y-106402914D01*
X148581276Y-106450533D01*
X148605085Y-106474342D01*
X148652704Y-106498152D01*
X148771752Y-106498152D01*
X148819371Y-106474342D01*
X148843180Y-106450533D01*
X148866990Y-106402914D01*
X148866990Y-106283866D01*
X148843180Y-106236247D01*
X148819371Y-106212438D01*
%TO.C,C2*%
X142603571Y-108166666D02*
X142627380Y-108142857D01*
X142651190Y-108071428D01*
X142651190Y-108023809D01*
X142627380Y-107952380D01*
X142579761Y-107904761D01*
X142532142Y-107880952D01*
X142436904Y-107857142D01*
X142365476Y-107857142D01*
X142270238Y-107880952D01*
X142222619Y-107904761D01*
X142175000Y-107952380D01*
X142151190Y-108023809D01*
X142151190Y-108071428D01*
X142175000Y-108142857D01*
X142198809Y-108166666D01*
X142198809Y-108357142D02*
X142175000Y-108380952D01*
X142151190Y-108428571D01*
X142151190Y-108547619D01*
X142175000Y-108595238D01*
X142198809Y-108619047D01*
X142246428Y-108642857D01*
X142294047Y-108642857D01*
X142365476Y-108619047D01*
X142651190Y-108333333D01*
X142651190Y-108642857D01*
D10*
%TO.C,J13*%
X127900147Y-117491871D02*
X128447322Y-117032737D01*
X128526148Y-116904432D01*
X128537886Y-116770257D01*
X128482538Y-116630214D01*
X128421320Y-116557257D01*
X129308979Y-117615128D02*
X128941672Y-117177388D01*
X129125326Y-117396258D02*
X128359281Y-118039046D01*
X128407498Y-117874262D01*
X128419237Y-117740088D01*
X128394497Y-117636522D01*
X128757197Y-118513264D02*
X129155113Y-118987482D01*
X129232677Y-118487262D01*
X129324504Y-118596697D01*
X129422200Y-118639045D01*
X129489288Y-118644914D01*
X129592853Y-118620174D01*
X129775245Y-118467130D01*
X129817592Y-118369434D01*
X129823462Y-118302346D01*
X129798722Y-118198781D01*
X129615068Y-117979911D01*
X129517372Y-117937563D01*
X129450285Y-117931694D01*
%TO.C,R1*%
X159008333Y-81544180D02*
X158341666Y-81544180D01*
X158770238Y-82544180D01*
X157484523Y-81544180D02*
X157960714Y-81544180D01*
X158008333Y-82020371D01*
X157960714Y-81972752D01*
X157865476Y-81925133D01*
X157627380Y-81925133D01*
X157532142Y-81972752D01*
X157484523Y-82020371D01*
X157436904Y-82115609D01*
X157436904Y-82353704D01*
X157484523Y-82448942D01*
X157532142Y-82496561D01*
X157627380Y-82544180D01*
X157865476Y-82544180D01*
X157960714Y-82496561D01*
X158008333Y-82448942D01*
X156055952Y-81544180D02*
X155865476Y-81544180D01*
X155770238Y-81591800D01*
X155675000Y-81687038D01*
X155627380Y-81877514D01*
X155627380Y-82210847D01*
X155675000Y-82401323D01*
X155770238Y-82496561D01*
X155865476Y-82544180D01*
X156055952Y-82544180D01*
X156151190Y-82496561D01*
X156246428Y-82401323D01*
X156294047Y-82210847D01*
X156294047Y-81877514D01*
X156246428Y-81687038D01*
X156151190Y-81591800D01*
X156055952Y-81544180D01*
X155198809Y-82544180D02*
X155198809Y-81544180D01*
X154770238Y-82544180D02*
X154770238Y-82020371D01*
X154817857Y-81925133D01*
X154913095Y-81877514D01*
X155055952Y-81877514D01*
X155151190Y-81925133D01*
X155198809Y-81972752D01*
X154294047Y-82544180D02*
X154294047Y-81877514D01*
X154294047Y-81972752D02*
X154246428Y-81925133D01*
X154151190Y-81877514D01*
X154008333Y-81877514D01*
X153913095Y-81925133D01*
X153865476Y-82020371D01*
X153865476Y-82544180D01*
X153865476Y-82020371D02*
X153817857Y-81925133D01*
X153722619Y-81877514D01*
X153579761Y-81877514D01*
X153484523Y-81925133D01*
X153436904Y-82020371D01*
X153436904Y-82544180D01*
D11*
X156258333Y-80667990D02*
X156425000Y-80429895D01*
X156544047Y-80667990D02*
X156544047Y-80167990D01*
X156353571Y-80167990D01*
X156305952Y-80191800D01*
X156282142Y-80215609D01*
X156258333Y-80263228D01*
X156258333Y-80334657D01*
X156282142Y-80382276D01*
X156305952Y-80406085D01*
X156353571Y-80429895D01*
X156544047Y-80429895D01*
X155782142Y-80667990D02*
X156067857Y-80667990D01*
X155925000Y-80667990D02*
X155925000Y-80167990D01*
X155972619Y-80239419D01*
X156020238Y-80287038D01*
X156067857Y-80310847D01*
%TO.C,C12*%
X125853571Y-90678571D02*
X125877380Y-90654761D01*
X125901190Y-90583333D01*
X125901190Y-90535714D01*
X125877380Y-90464285D01*
X125829761Y-90416666D01*
X125782142Y-90392857D01*
X125686904Y-90369047D01*
X125615476Y-90369047D01*
X125520238Y-90392857D01*
X125472619Y-90416666D01*
X125425000Y-90464285D01*
X125401190Y-90535714D01*
X125401190Y-90583333D01*
X125425000Y-90654761D01*
X125448809Y-90678571D01*
X125901190Y-91154761D02*
X125901190Y-90869047D01*
X125901190Y-91011904D02*
X125401190Y-91011904D01*
X125472619Y-90964285D01*
X125520238Y-90916666D01*
X125544047Y-90869047D01*
X125448809Y-91345238D02*
X125425000Y-91369047D01*
X125401190Y-91416666D01*
X125401190Y-91535714D01*
X125425000Y-91583333D01*
X125448809Y-91607142D01*
X125496428Y-91630952D01*
X125544047Y-91630952D01*
X125615476Y-91607142D01*
X125901190Y-91321428D01*
X125901190Y-91630952D01*
D10*
%TO.C,U2*%
X158417857Y-128728571D02*
X158084523Y-128728571D01*
X157941666Y-129252380D02*
X158417857Y-129252380D01*
X158417857Y-128252380D01*
X157941666Y-128252380D01*
X157560714Y-129204761D02*
X157417857Y-129252380D01*
X157179761Y-129252380D01*
X157084523Y-129204761D01*
X157036904Y-129157142D01*
X156989285Y-129061904D01*
X156989285Y-128966666D01*
X157036904Y-128871428D01*
X157084523Y-128823809D01*
X157179761Y-128776190D01*
X157370238Y-128728571D01*
X157465476Y-128680952D01*
X157513095Y-128633333D01*
X157560714Y-128538095D01*
X157560714Y-128442857D01*
X157513095Y-128347619D01*
X157465476Y-128300000D01*
X157370238Y-128252380D01*
X157132142Y-128252380D01*
X156989285Y-128300000D01*
X156560714Y-129252380D02*
X156560714Y-128252380D01*
X156179761Y-128252380D01*
X156084523Y-128300000D01*
X156036904Y-128347619D01*
X155989285Y-128442857D01*
X155989285Y-128585714D01*
X156036904Y-128680952D01*
X156084523Y-128728571D01*
X156179761Y-128776190D01*
X156560714Y-128776190D01*
X155655952Y-128252380D02*
X155036904Y-128252380D01*
X155370238Y-128633333D01*
X155227380Y-128633333D01*
X155132142Y-128680952D01*
X155084523Y-128728571D01*
X155036904Y-128823809D01*
X155036904Y-129061904D01*
X155084523Y-129157142D01*
X155132142Y-129204761D01*
X155227380Y-129252380D01*
X155513095Y-129252380D01*
X155608333Y-129204761D01*
X155655952Y-129157142D01*
X154655952Y-128347619D02*
X154608333Y-128300000D01*
X154513095Y-128252380D01*
X154275000Y-128252380D01*
X154179761Y-128300000D01*
X154132142Y-128347619D01*
X154084523Y-128442857D01*
X154084523Y-128538095D01*
X154132142Y-128680952D01*
X154703571Y-129252380D01*
X154084523Y-129252380D01*
X153655952Y-128871428D02*
X152894047Y-128871428D01*
X151846428Y-129157142D02*
X151894047Y-129204761D01*
X152036904Y-129252380D01*
X152132142Y-129252380D01*
X152275000Y-129204761D01*
X152370238Y-129109523D01*
X152417857Y-129014285D01*
X152465476Y-128823809D01*
X152465476Y-128680952D01*
X152417857Y-128490476D01*
X152370238Y-128395238D01*
X152275000Y-128300000D01*
X152132142Y-128252380D01*
X152036904Y-128252380D01*
X151894047Y-128300000D01*
X151846428Y-128347619D01*
X151513095Y-128252380D02*
X150894047Y-128252380D01*
X151227380Y-128633333D01*
X151084523Y-128633333D01*
X150989285Y-128680952D01*
X150941666Y-128728571D01*
X150894047Y-128823809D01*
X150894047Y-129061904D01*
X150941666Y-129157142D01*
X150989285Y-129204761D01*
X151084523Y-129252380D01*
X151370238Y-129252380D01*
X151465476Y-129204761D01*
X151513095Y-129157142D01*
X150465476Y-128871428D02*
X149703571Y-128871428D01*
X149227380Y-129252380D02*
X149227380Y-128252380D01*
X148894047Y-128966666D01*
X148560714Y-128252380D01*
X148560714Y-129252380D01*
X148084523Y-129252380D02*
X148084523Y-128252380D01*
X147608333Y-129252380D02*
X147608333Y-128252380D01*
X147036904Y-129252380D01*
X147036904Y-128252380D01*
X146560714Y-129252380D02*
X146560714Y-128252380D01*
X146084523Y-128871428D02*
X145322619Y-128871428D01*
X144322619Y-129252380D02*
X144894047Y-129252380D01*
X144608333Y-129252380D02*
X144608333Y-128252380D01*
X144703571Y-128395238D01*
X144798809Y-128490476D01*
X144894047Y-128538095D01*
X143894047Y-128871428D02*
X143132142Y-128871428D01*
X142655952Y-129252380D02*
X142655952Y-128252380D01*
X142084523Y-129252380D01*
X142084523Y-128252380D01*
X141179761Y-128585714D02*
X141179761Y-129252380D01*
X141417857Y-128204761D02*
X141655952Y-128919047D01*
X141036904Y-128919047D01*
%TO.C,J10*%
X125200986Y-113382741D02*
X125819575Y-113025598D01*
X125919484Y-112912930D01*
X125954343Y-112782832D01*
X125924154Y-112635305D01*
X125876535Y-112552826D01*
X126567011Y-113748766D02*
X126281297Y-113253895D01*
X126424154Y-113501330D02*
X125558128Y-114001330D01*
X125634227Y-113847423D01*
X125669087Y-113717326D01*
X125662707Y-113611037D01*
X126010509Y-114784877D02*
X126058128Y-114867356D01*
X126146987Y-114926025D01*
X126212036Y-114943455D01*
X126318324Y-114937075D01*
X126507091Y-114883076D01*
X126713287Y-114764029D01*
X126854435Y-114627551D01*
X126913104Y-114538693D01*
X126930534Y-114473644D01*
X126924154Y-114367356D01*
X126876535Y-114284877D01*
X126787676Y-114226208D01*
X126722628Y-114208778D01*
X126616339Y-114215158D01*
X126427573Y-114269157D01*
X126221376Y-114388204D01*
X126080229Y-114524682D01*
X126021559Y-114613540D01*
X126004130Y-114678589D01*
X126010509Y-114784877D01*
%TO.C,JP2*%
X141877761Y-101370809D02*
X141925380Y-101513666D01*
X141925380Y-101751761D01*
X141877761Y-101847000D01*
X141830142Y-101894619D01*
X141734904Y-101942238D01*
X141639666Y-101942238D01*
X141544428Y-101894619D01*
X141496809Y-101847000D01*
X141449190Y-101751761D01*
X141401571Y-101561285D01*
X141353952Y-101466047D01*
X141306333Y-101418428D01*
X141211095Y-101370809D01*
X141115857Y-101370809D01*
X141020619Y-101418428D01*
X140973000Y-101466047D01*
X140925380Y-101561285D01*
X140925380Y-101799380D01*
X140973000Y-101942238D01*
X141925380Y-102513666D02*
X141877761Y-102418428D01*
X141830142Y-102370809D01*
X141734904Y-102323190D01*
X141449190Y-102323190D01*
X141353952Y-102370809D01*
X141306333Y-102418428D01*
X141258714Y-102513666D01*
X141258714Y-102656523D01*
X141306333Y-102751761D01*
X141353952Y-102799380D01*
X141449190Y-102847000D01*
X141734904Y-102847000D01*
X141830142Y-102799380D01*
X141877761Y-102751761D01*
X141925380Y-102656523D01*
X141925380Y-102513666D01*
X141925380Y-103418428D02*
X141877761Y-103323190D01*
X141782523Y-103275571D01*
X140925380Y-103275571D01*
X141925380Y-104227952D02*
X140925380Y-104227952D01*
X141877761Y-104227952D02*
X141925380Y-104132714D01*
X141925380Y-103942238D01*
X141877761Y-103847000D01*
X141830142Y-103799380D01*
X141734904Y-103751761D01*
X141449190Y-103751761D01*
X141353952Y-103799380D01*
X141306333Y-103847000D01*
X141258714Y-103942238D01*
X141258714Y-104132714D01*
X141306333Y-104227952D01*
X141877761Y-105085095D02*
X141925380Y-104989857D01*
X141925380Y-104799380D01*
X141877761Y-104704142D01*
X141782523Y-104656523D01*
X141401571Y-104656523D01*
X141306333Y-104704142D01*
X141258714Y-104799380D01*
X141258714Y-104989857D01*
X141306333Y-105085095D01*
X141401571Y-105132714D01*
X141496809Y-105132714D01*
X141592047Y-104656523D01*
X141925380Y-105561285D02*
X141258714Y-105561285D01*
X141449190Y-105561285D02*
X141353952Y-105608904D01*
X141306333Y-105656523D01*
X141258714Y-105751761D01*
X141258714Y-105847000D01*
X140925380Y-106466047D02*
X141639666Y-106466047D01*
X141782523Y-106418428D01*
X141877761Y-106323190D01*
X141925380Y-106180333D01*
X141925380Y-106085095D01*
X141258714Y-107370809D02*
X141925380Y-107370809D01*
X141258714Y-106942238D02*
X141782523Y-106942238D01*
X141877761Y-106989857D01*
X141925380Y-107085095D01*
X141925380Y-107227952D01*
X141877761Y-107323190D01*
X141830142Y-107370809D01*
X141925380Y-107847000D02*
X141258714Y-107847000D01*
X141353952Y-107847000D02*
X141306333Y-107894619D01*
X141258714Y-107989857D01*
X141258714Y-108132714D01*
X141306333Y-108227952D01*
X141401571Y-108275571D01*
X141925380Y-108275571D01*
X141401571Y-108275571D02*
X141306333Y-108323190D01*
X141258714Y-108418428D01*
X141258714Y-108561285D01*
X141306333Y-108656523D01*
X141401571Y-108704142D01*
X141925380Y-108704142D01*
X141258714Y-109180333D02*
X142258714Y-109180333D01*
X141306333Y-109180333D02*
X141258714Y-109275571D01*
X141258714Y-109466047D01*
X141306333Y-109561285D01*
X141353952Y-109608904D01*
X141449190Y-109656523D01*
X141734904Y-109656523D01*
X141830142Y-109608904D01*
X141877761Y-109561285D01*
X141925380Y-109466047D01*
X141925380Y-109275571D01*
X141877761Y-109180333D01*
X141877761Y-110466047D02*
X141925380Y-110370809D01*
X141925380Y-110180333D01*
X141877761Y-110085095D01*
X141782523Y-110037476D01*
X141401571Y-110037476D01*
X141306333Y-110085095D01*
X141258714Y-110180333D01*
X141258714Y-110370809D01*
X141306333Y-110466047D01*
X141401571Y-110513666D01*
X141496809Y-110513666D01*
X141592047Y-110037476D01*
X141925380Y-110942238D02*
X141258714Y-110942238D01*
X141449190Y-110942238D02*
X141353952Y-110989857D01*
X141306333Y-111037476D01*
X141258714Y-111132714D01*
X141258714Y-111227952D01*
X142020619Y-111323190D02*
X142020619Y-112085095D01*
X141020619Y-112275571D02*
X140973000Y-112323190D01*
X140925380Y-112418428D01*
X140925380Y-112656523D01*
X140973000Y-112751761D01*
X141020619Y-112799380D01*
X141115857Y-112847000D01*
X141211095Y-112847000D01*
X141353952Y-112799380D01*
X141925380Y-112227952D01*
X141925380Y-112847000D01*
X142020619Y-113037476D02*
X142020619Y-113799380D01*
X140925380Y-114227952D02*
X140925380Y-114418428D01*
X140973000Y-114513666D01*
X141068238Y-114608904D01*
X141258714Y-114656523D01*
X141592047Y-114656523D01*
X141782523Y-114608904D01*
X141877761Y-114513666D01*
X141925380Y-114418428D01*
X141925380Y-114227952D01*
X141877761Y-114132714D01*
X141782523Y-114037476D01*
X141592047Y-113989857D01*
X141258714Y-113989857D01*
X141068238Y-114037476D01*
X140973000Y-114132714D01*
X140925380Y-114227952D01*
X141258714Y-115085095D02*
X142258714Y-115085095D01*
X141306333Y-115085095D02*
X141258714Y-115180333D01*
X141258714Y-115370809D01*
X141306333Y-115466047D01*
X141353952Y-115513666D01*
X141449190Y-115561285D01*
X141734904Y-115561285D01*
X141830142Y-115513666D01*
X141877761Y-115466047D01*
X141925380Y-115370809D01*
X141925380Y-115180333D01*
X141877761Y-115085095D01*
X141877761Y-116370809D02*
X141925380Y-116275571D01*
X141925380Y-116085095D01*
X141877761Y-115989857D01*
X141782523Y-115942238D01*
X141401571Y-115942238D01*
X141306333Y-115989857D01*
X141258714Y-116085095D01*
X141258714Y-116275571D01*
X141306333Y-116370809D01*
X141401571Y-116418428D01*
X141496809Y-116418428D01*
X141592047Y-115942238D01*
X141258714Y-116847000D02*
X141925380Y-116847000D01*
X141353952Y-116847000D02*
X141306333Y-116894619D01*
X141258714Y-116989857D01*
X141258714Y-117132714D01*
X141306333Y-117227952D01*
X141401571Y-117275571D01*
X141925380Y-117275571D01*
D11*
%TO.C,R4*%
X156101190Y-112616666D02*
X155863095Y-112450000D01*
X156101190Y-112330952D02*
X155601190Y-112330952D01*
X155601190Y-112521428D01*
X155625000Y-112569047D01*
X155648809Y-112592857D01*
X155696428Y-112616666D01*
X155767857Y-112616666D01*
X155815476Y-112592857D01*
X155839285Y-112569047D01*
X155863095Y-112521428D01*
X155863095Y-112330952D01*
X155767857Y-113045238D02*
X156101190Y-113045238D01*
X155577380Y-112926190D02*
X155934523Y-112807142D01*
X155934523Y-113116666D01*
D10*
%TO.C,C23*%
X140504380Y-123531428D02*
X140504380Y-122960000D01*
X140504380Y-123245714D02*
X139504380Y-123245714D01*
X139647238Y-123150476D01*
X139742476Y-123055238D01*
X139790095Y-122960000D01*
X139504380Y-124150476D02*
X139504380Y-124245714D01*
X139552000Y-124340952D01*
X139599619Y-124388571D01*
X139694857Y-124436190D01*
X139885333Y-124483809D01*
X140123428Y-124483809D01*
X140313904Y-124436190D01*
X140409142Y-124388571D01*
X140456761Y-124340952D01*
X140504380Y-124245714D01*
X140504380Y-124150476D01*
X140456761Y-124055238D01*
X140409142Y-124007619D01*
X140313904Y-123960000D01*
X140123428Y-123912380D01*
X139885333Y-123912380D01*
X139694857Y-123960000D01*
X139599619Y-124007619D01*
X139552000Y-124055238D01*
X139504380Y-124150476D01*
X139837714Y-125340952D02*
X140504380Y-125340952D01*
X139837714Y-124912380D02*
X140361523Y-124912380D01*
X140456761Y-124960000D01*
X140504380Y-125055238D01*
X140504380Y-125198095D01*
X140456761Y-125293333D01*
X140409142Y-125340952D01*
X139837714Y-125674285D02*
X139837714Y-126055238D01*
X140504380Y-125817142D02*
X139647238Y-125817142D01*
X139552000Y-125864761D01*
X139504380Y-125960000D01*
X139504380Y-126055238D01*
D11*
X141910571Y-124138571D02*
X141934380Y-124114761D01*
X141958190Y-124043333D01*
X141958190Y-123995714D01*
X141934380Y-123924285D01*
X141886761Y-123876666D01*
X141839142Y-123852857D01*
X141743904Y-123829047D01*
X141672476Y-123829047D01*
X141577238Y-123852857D01*
X141529619Y-123876666D01*
X141482000Y-123924285D01*
X141458190Y-123995714D01*
X141458190Y-124043333D01*
X141482000Y-124114761D01*
X141505809Y-124138571D01*
X141505809Y-124329047D02*
X141482000Y-124352857D01*
X141458190Y-124400476D01*
X141458190Y-124519523D01*
X141482000Y-124567142D01*
X141505809Y-124590952D01*
X141553428Y-124614761D01*
X141601047Y-124614761D01*
X141672476Y-124590952D01*
X141958190Y-124305238D01*
X141958190Y-124614761D01*
X141458190Y-124781428D02*
X141458190Y-125090952D01*
X141648666Y-124924285D01*
X141648666Y-124995714D01*
X141672476Y-125043333D01*
X141696285Y-125067142D01*
X141743904Y-125090952D01*
X141862952Y-125090952D01*
X141910571Y-125067142D01*
X141934380Y-125043333D01*
X141958190Y-124995714D01*
X141958190Y-124852857D01*
X141934380Y-124805238D01*
X141910571Y-124781428D01*
D10*
%TO.C,J9*%
X162131333Y-112514380D02*
X162131333Y-113228666D01*
X162178952Y-113371523D01*
X162274190Y-113466761D01*
X162417047Y-113514380D01*
X162512285Y-113514380D01*
X161607523Y-113514380D02*
X161417047Y-113514380D01*
X161321809Y-113466761D01*
X161274190Y-113419142D01*
X161178952Y-113276285D01*
X161131333Y-113085809D01*
X161131333Y-112704857D01*
X161178952Y-112609619D01*
X161226571Y-112562000D01*
X161321809Y-112514380D01*
X161512285Y-112514380D01*
X161607523Y-112562000D01*
X161655142Y-112609619D01*
X161702761Y-112704857D01*
X161702761Y-112942952D01*
X161655142Y-113038190D01*
X161607523Y-113085809D01*
X161512285Y-113133428D01*
X161321809Y-113133428D01*
X161226571Y-113085809D01*
X161178952Y-113038190D01*
X161131333Y-112942952D01*
%TO.C,R10*%
X160005638Y-123234980D02*
X160577066Y-123234980D01*
X160291352Y-123234980D02*
X160291352Y-122234980D01*
X160386590Y-122377838D01*
X160481828Y-122473076D01*
X160577066Y-122520695D01*
X159386590Y-122234980D02*
X159291352Y-122234980D01*
X159196114Y-122282600D01*
X159148495Y-122330219D01*
X159100876Y-122425457D01*
X159053257Y-122615933D01*
X159053257Y-122854028D01*
X159100876Y-123044504D01*
X159148495Y-123139742D01*
X159196114Y-123187361D01*
X159291352Y-123234980D01*
X159386590Y-123234980D01*
X159481828Y-123187361D01*
X159529447Y-123139742D01*
X159577066Y-123044504D01*
X159624685Y-122854028D01*
X159624685Y-122615933D01*
X159577066Y-122425457D01*
X159529447Y-122330219D01*
X159481828Y-122282600D01*
X159386590Y-122234980D01*
X158624685Y-123234980D02*
X158624685Y-122234980D01*
X158529447Y-122854028D02*
X158243733Y-123234980D01*
X158243733Y-122568314D02*
X158624685Y-122949266D01*
D11*
X159731828Y-121358790D02*
X159898495Y-121120695D01*
X160017542Y-121358790D02*
X160017542Y-120858790D01*
X159827066Y-120858790D01*
X159779447Y-120882600D01*
X159755638Y-120906409D01*
X159731828Y-120954028D01*
X159731828Y-121025457D01*
X159755638Y-121073076D01*
X159779447Y-121096885D01*
X159827066Y-121120695D01*
X160017542Y-121120695D01*
X159255638Y-121358790D02*
X159541352Y-121358790D01*
X159398495Y-121358790D02*
X159398495Y-120858790D01*
X159446114Y-120930219D01*
X159493733Y-120977838D01*
X159541352Y-121001647D01*
X158946114Y-120858790D02*
X158898495Y-120858790D01*
X158850876Y-120882600D01*
X158827066Y-120906409D01*
X158803257Y-120954028D01*
X158779447Y-121049266D01*
X158779447Y-121168314D01*
X158803257Y-121263552D01*
X158827066Y-121311171D01*
X158850876Y-121334980D01*
X158898495Y-121358790D01*
X158946114Y-121358790D01*
X158993733Y-121334980D01*
X159017542Y-121311171D01*
X159041352Y-121263552D01*
X159065161Y-121168314D01*
X159065161Y-121049266D01*
X159041352Y-120954028D01*
X159017542Y-120906409D01*
X158993733Y-120882600D01*
X158946114Y-120858790D01*
D10*
%TO.C,MOSFET1*%
X141938571Y-76617619D02*
X141938571Y-77617619D01*
X142271904Y-76903333D01*
X142605238Y-77617619D01*
X142605238Y-76617619D01*
X143271904Y-77617619D02*
X143462380Y-77617619D01*
X143557619Y-77570000D01*
X143652857Y-77474761D01*
X143700476Y-77284285D01*
X143700476Y-76950952D01*
X143652857Y-76760476D01*
X143557619Y-76665238D01*
X143462380Y-76617619D01*
X143271904Y-76617619D01*
X143176666Y-76665238D01*
X143081428Y-76760476D01*
X143033809Y-76950952D01*
X143033809Y-77284285D01*
X143081428Y-77474761D01*
X143176666Y-77570000D01*
X143271904Y-77617619D01*
X144081428Y-76665238D02*
X144224285Y-76617619D01*
X144462380Y-76617619D01*
X144557619Y-76665238D01*
X144605238Y-76712857D01*
X144652857Y-76808095D01*
X144652857Y-76903333D01*
X144605238Y-76998571D01*
X144557619Y-77046190D01*
X144462380Y-77093809D01*
X144271904Y-77141428D01*
X144176666Y-77189047D01*
X144129047Y-77236666D01*
X144081428Y-77331904D01*
X144081428Y-77427142D01*
X144129047Y-77522380D01*
X144176666Y-77570000D01*
X144271904Y-77617619D01*
X144510000Y-77617619D01*
X144652857Y-77570000D01*
X145414761Y-77141428D02*
X145081428Y-77141428D01*
X145081428Y-76617619D02*
X145081428Y-77617619D01*
X145557619Y-77617619D01*
X145938571Y-77141428D02*
X146271904Y-77141428D01*
X146414761Y-76617619D02*
X145938571Y-76617619D01*
X145938571Y-77617619D01*
X146414761Y-77617619D01*
X146700476Y-77617619D02*
X147271904Y-77617619D01*
X146986190Y-76617619D02*
X146986190Y-77617619D01*
X148129047Y-76617619D02*
X147557619Y-76617619D01*
X147843333Y-76617619D02*
X147843333Y-77617619D01*
X147748095Y-77474761D01*
X147652857Y-77379523D01*
X147557619Y-77331904D01*
%TO.C,U1*%
X153936904Y-76552380D02*
X153936904Y-77361904D01*
X153889285Y-77457142D01*
X153841666Y-77504761D01*
X153746428Y-77552380D01*
X153555952Y-77552380D01*
X153460714Y-77504761D01*
X153413095Y-77457142D01*
X153365476Y-77361904D01*
X153365476Y-76552380D01*
X152365476Y-77552380D02*
X152936904Y-77552380D01*
X152651190Y-77552380D02*
X152651190Y-76552380D01*
X152746428Y-76695238D01*
X152841666Y-76790476D01*
X152936904Y-76838095D01*
%TO.C,J14*%
X160067523Y-115054380D02*
X160067523Y-115768666D01*
X160115142Y-115911523D01*
X160210380Y-116006761D01*
X160353238Y-116054380D01*
X160448476Y-116054380D01*
X159067523Y-116054380D02*
X159638952Y-116054380D01*
X159353238Y-116054380D02*
X159353238Y-115054380D01*
X159448476Y-115197238D01*
X159543714Y-115292476D01*
X159638952Y-115340095D01*
X158210380Y-115387714D02*
X158210380Y-116054380D01*
X158448476Y-115006761D02*
X158686571Y-115721047D01*
X158067523Y-115721047D01*
%TO.C,R9*%
X141675380Y-117768761D02*
X141675380Y-117197333D01*
X141675380Y-117483047D02*
X140675380Y-117483047D01*
X140818238Y-117387809D01*
X140913476Y-117292571D01*
X140961095Y-117197333D01*
X140675380Y-118387809D02*
X140675380Y-118483047D01*
X140723000Y-118578285D01*
X140770619Y-118625904D01*
X140865857Y-118673523D01*
X141056333Y-118721142D01*
X141294428Y-118721142D01*
X141484904Y-118673523D01*
X141580142Y-118625904D01*
X141627761Y-118578285D01*
X141675380Y-118483047D01*
X141675380Y-118387809D01*
X141627761Y-118292571D01*
X141580142Y-118244952D01*
X141484904Y-118197333D01*
X141294428Y-118149714D01*
X141056333Y-118149714D01*
X140865857Y-118197333D01*
X140770619Y-118244952D01*
X140723000Y-118292571D01*
X140675380Y-118387809D01*
X141675380Y-119149714D02*
X140675380Y-119149714D01*
X141294428Y-119244952D02*
X141675380Y-119530666D01*
X141008714Y-119530666D02*
X141389666Y-119149714D01*
D11*
X139799190Y-118280666D02*
X139561095Y-118114000D01*
X139799190Y-117994952D02*
X139299190Y-117994952D01*
X139299190Y-118185428D01*
X139323000Y-118233047D01*
X139346809Y-118256857D01*
X139394428Y-118280666D01*
X139465857Y-118280666D01*
X139513476Y-118256857D01*
X139537285Y-118233047D01*
X139561095Y-118185428D01*
X139561095Y-117994952D01*
X139799190Y-118518761D02*
X139799190Y-118614000D01*
X139775380Y-118661619D01*
X139751571Y-118685428D01*
X139680142Y-118733047D01*
X139584904Y-118756857D01*
X139394428Y-118756857D01*
X139346809Y-118733047D01*
X139323000Y-118709238D01*
X139299190Y-118661619D01*
X139299190Y-118566380D01*
X139323000Y-118518761D01*
X139346809Y-118494952D01*
X139394428Y-118471142D01*
X139513476Y-118471142D01*
X139561095Y-118494952D01*
X139584904Y-118518761D01*
X139608714Y-118566380D01*
X139608714Y-118661619D01*
X139584904Y-118709238D01*
X139561095Y-118733047D01*
X139513476Y-118756857D01*
D10*
%TO.C,J12*%
X145208476Y-114976761D02*
X145065619Y-115024380D01*
X144827523Y-115024380D01*
X144732285Y-114976761D01*
X144684666Y-114929142D01*
X144637047Y-114833904D01*
X144637047Y-114738666D01*
X144684666Y-114643428D01*
X144732285Y-114595809D01*
X144827523Y-114548190D01*
X145018000Y-114500571D01*
X145113238Y-114452952D01*
X145160857Y-114405333D01*
X145208476Y-114310095D01*
X145208476Y-114214857D01*
X145160857Y-114119619D01*
X145113238Y-114072000D01*
X145018000Y-114024380D01*
X144779904Y-114024380D01*
X144637047Y-114072000D01*
X143637047Y-114929142D02*
X143684666Y-114976761D01*
X143827523Y-115024380D01*
X143922761Y-115024380D01*
X144065619Y-114976761D01*
X144160857Y-114881523D01*
X144208476Y-114786285D01*
X144256095Y-114595809D01*
X144256095Y-114452952D01*
X144208476Y-114262476D01*
X144160857Y-114167238D01*
X144065619Y-114072000D01*
X143922761Y-114024380D01*
X143827523Y-114024380D01*
X143684666Y-114072000D01*
X143637047Y-114119619D01*
X142732285Y-115024380D02*
X143208476Y-115024380D01*
X143208476Y-114024380D01*
X144827523Y-109974380D02*
X144827523Y-110688666D01*
X144875142Y-110831523D01*
X144970380Y-110926761D01*
X145113238Y-110974380D01*
X145208476Y-110974380D01*
X143827523Y-110974380D02*
X144398952Y-110974380D01*
X144113238Y-110974380D02*
X144113238Y-109974380D01*
X144208476Y-110117238D01*
X144303714Y-110212476D01*
X144398952Y-110260095D01*
X143446571Y-110069619D02*
X143398952Y-110022000D01*
X143303714Y-109974380D01*
X143065619Y-109974380D01*
X142970380Y-110022000D01*
X142922761Y-110069619D01*
X142875142Y-110164857D01*
X142875142Y-110260095D01*
X142922761Y-110402952D01*
X143494190Y-110974380D01*
X142875142Y-110974380D01*
%TO.C,S1*%
X164483123Y-99628647D02*
X163843123Y-99628647D01*
X164483123Y-99994361D02*
X164117409Y-99720076D01*
X163843123Y-99994361D02*
X164208838Y-99628647D01*
X164483123Y-100268647D02*
X163843123Y-100268647D01*
X164300266Y-100481980D01*
X163843123Y-100695314D01*
X164483123Y-100695314D01*
X164483123Y-101365790D02*
X164178361Y-101152457D01*
X164483123Y-101000076D02*
X163843123Y-101000076D01*
X163843123Y-101243885D01*
X163873600Y-101304838D01*
X163904076Y-101335314D01*
X163965028Y-101365790D01*
X164056457Y-101365790D01*
X164117409Y-101335314D01*
X164147885Y-101304838D01*
X164178361Y-101243885D01*
X164178361Y-101000076D01*
X163843123Y-101914361D02*
X163843123Y-101792457D01*
X163873600Y-101731504D01*
X163904076Y-101701028D01*
X163995504Y-101640076D01*
X164117409Y-101609600D01*
X164361219Y-101609600D01*
X164422171Y-101640076D01*
X164452647Y-101670552D01*
X164483123Y-101731504D01*
X164483123Y-101853409D01*
X164452647Y-101914361D01*
X164422171Y-101944838D01*
X164361219Y-101975314D01*
X164208838Y-101975314D01*
X164147885Y-101944838D01*
X164117409Y-101914361D01*
X164086933Y-101853409D01*
X164086933Y-101731504D01*
X164117409Y-101670552D01*
X164147885Y-101640076D01*
X164208838Y-101609600D01*
X163904076Y-102219123D02*
X163873600Y-102249600D01*
X163843123Y-102310552D01*
X163843123Y-102462933D01*
X163873600Y-102523885D01*
X163904076Y-102554361D01*
X163965028Y-102584838D01*
X164025980Y-102584838D01*
X164117409Y-102554361D01*
X164483123Y-102188647D01*
X164483123Y-102584838D01*
X164483123Y-103194361D02*
X164483123Y-102828647D01*
X164483123Y-103011504D02*
X163843123Y-103011504D01*
X163934552Y-102950552D01*
X163995504Y-102889600D01*
X164025980Y-102828647D01*
X164483123Y-103468647D02*
X163843123Y-103468647D01*
X164483123Y-103834361D01*
X163843123Y-103834361D01*
X163873600Y-104474361D02*
X163843123Y-104413409D01*
X163843123Y-104321980D01*
X163873600Y-104230552D01*
X163934552Y-104169600D01*
X163995504Y-104139123D01*
X164117409Y-104108647D01*
X164208838Y-104108647D01*
X164330742Y-104139123D01*
X164391695Y-104169600D01*
X164452647Y-104230552D01*
X164483123Y-104321980D01*
X164483123Y-104382933D01*
X164452647Y-104474361D01*
X164422171Y-104504838D01*
X164208838Y-104504838D01*
X164208838Y-104382933D01*
X164483123Y-105083885D02*
X164483123Y-104779123D01*
X163843123Y-104779123D01*
X164147885Y-105510552D02*
X164147885Y-105297219D01*
X164483123Y-105297219D02*
X163843123Y-105297219D01*
X163843123Y-105601980D01*
X164452647Y-105815314D02*
X164483123Y-105906742D01*
X164483123Y-106059123D01*
X164452647Y-106120076D01*
X164422171Y-106150552D01*
X164361219Y-106181028D01*
X164300266Y-106181028D01*
X164239314Y-106150552D01*
X164208838Y-106120076D01*
X164178361Y-106059123D01*
X164147885Y-105937219D01*
X164117409Y-105876266D01*
X164086933Y-105845790D01*
X164025980Y-105815314D01*
X163965028Y-105815314D01*
X163904076Y-105845790D01*
X163873600Y-105876266D01*
X163843123Y-105937219D01*
X163843123Y-106089600D01*
X163873600Y-106181028D01*
D11*
%TO.C,C20*%
X155496428Y-104528571D02*
X155520238Y-104552380D01*
X155591666Y-104576190D01*
X155639285Y-104576190D01*
X155710714Y-104552380D01*
X155758333Y-104504761D01*
X155782142Y-104457142D01*
X155805952Y-104361904D01*
X155805952Y-104290476D01*
X155782142Y-104195238D01*
X155758333Y-104147619D01*
X155710714Y-104100000D01*
X155639285Y-104076190D01*
X155591666Y-104076190D01*
X155520238Y-104100000D01*
X155496428Y-104123809D01*
X155305952Y-104123809D02*
X155282142Y-104100000D01*
X155234523Y-104076190D01*
X155115476Y-104076190D01*
X155067857Y-104100000D01*
X155044047Y-104123809D01*
X155020238Y-104171428D01*
X155020238Y-104219047D01*
X155044047Y-104290476D01*
X155329761Y-104576190D01*
X155020238Y-104576190D01*
X154710714Y-104076190D02*
X154663095Y-104076190D01*
X154615476Y-104100000D01*
X154591666Y-104123809D01*
X154567857Y-104171428D01*
X154544047Y-104266666D01*
X154544047Y-104385714D01*
X154567857Y-104480952D01*
X154591666Y-104528571D01*
X154615476Y-104552380D01*
X154663095Y-104576190D01*
X154710714Y-104576190D01*
X154758333Y-104552380D01*
X154782142Y-104528571D01*
X154805952Y-104480952D01*
X154829761Y-104385714D01*
X154829761Y-104266666D01*
X154805952Y-104171428D01*
X154782142Y-104123809D01*
X154758333Y-104100000D01*
X154710714Y-104076190D01*
%TO.C,C14*%
X157053571Y-76878571D02*
X157077380Y-76854761D01*
X157101190Y-76783333D01*
X157101190Y-76735714D01*
X157077380Y-76664285D01*
X157029761Y-76616666D01*
X156982142Y-76592857D01*
X156886904Y-76569047D01*
X156815476Y-76569047D01*
X156720238Y-76592857D01*
X156672619Y-76616666D01*
X156625000Y-76664285D01*
X156601190Y-76735714D01*
X156601190Y-76783333D01*
X156625000Y-76854761D01*
X156648809Y-76878571D01*
X157101190Y-77354761D02*
X157101190Y-77069047D01*
X157101190Y-77211904D02*
X156601190Y-77211904D01*
X156672619Y-77164285D01*
X156720238Y-77116666D01*
X156744047Y-77069047D01*
X156767857Y-77783333D02*
X157101190Y-77783333D01*
X156577380Y-77664285D02*
X156934523Y-77545238D01*
X156934523Y-77854761D01*
D10*
%TO.C,BT1*%
X174703571Y-95695238D02*
X174751190Y-95838095D01*
X174798809Y-95885714D01*
X174894047Y-95933333D01*
X175036904Y-95933333D01*
X175132142Y-95885714D01*
X175179761Y-95838095D01*
X175227380Y-95742857D01*
X175227380Y-95361904D01*
X174227380Y-95361904D01*
X174227380Y-95695238D01*
X174275000Y-95790476D01*
X174322619Y-95838095D01*
X174417857Y-95885714D01*
X174513095Y-95885714D01*
X174608333Y-95838095D01*
X174655952Y-95790476D01*
X174703571Y-95695238D01*
X174703571Y-95361904D01*
X175227380Y-96790476D02*
X174703571Y-96790476D01*
X174608333Y-96742857D01*
X174560714Y-96647619D01*
X174560714Y-96457142D01*
X174608333Y-96361904D01*
X175179761Y-96790476D02*
X175227380Y-96695238D01*
X175227380Y-96457142D01*
X175179761Y-96361904D01*
X175084523Y-96314285D01*
X174989285Y-96314285D01*
X174894047Y-96361904D01*
X174846428Y-96457142D01*
X174846428Y-96695238D01*
X174798809Y-96790476D01*
X174560714Y-97123809D02*
X174560714Y-97504761D01*
X174227380Y-97266666D02*
X175084523Y-97266666D01*
X175179761Y-97314285D01*
X175227380Y-97409523D01*
X175227380Y-97504761D01*
X174560714Y-97695238D02*
X174560714Y-98076190D01*
X174227380Y-97838095D02*
X175084523Y-97838095D01*
X175179761Y-97885714D01*
X175227380Y-97980952D01*
X175227380Y-98076190D01*
X175179761Y-98790476D02*
X175227380Y-98695238D01*
X175227380Y-98504761D01*
X175179761Y-98409523D01*
X175084523Y-98361904D01*
X174703571Y-98361904D01*
X174608333Y-98409523D01*
X174560714Y-98504761D01*
X174560714Y-98695238D01*
X174608333Y-98790476D01*
X174703571Y-98838095D01*
X174798809Y-98838095D01*
X174894047Y-98361904D01*
X175227380Y-99266666D02*
X174560714Y-99266666D01*
X174751190Y-99266666D02*
X174655952Y-99314285D01*
X174608333Y-99361904D01*
X174560714Y-99457142D01*
X174560714Y-99552380D01*
X174560714Y-99790476D02*
X175227380Y-100028571D01*
X174560714Y-100266666D02*
X175227380Y-100028571D01*
X175465476Y-99933333D01*
X175513095Y-99885714D01*
X175560714Y-99790476D01*
X175322619Y-100409523D02*
X175322619Y-101171428D01*
X175132142Y-101980952D02*
X175179761Y-101933333D01*
X175227380Y-101790476D01*
X175227380Y-101695238D01*
X175179761Y-101552380D01*
X175084523Y-101457142D01*
X174989285Y-101409523D01*
X174798809Y-101361904D01*
X174655952Y-101361904D01*
X174465476Y-101409523D01*
X174370238Y-101457142D01*
X174275000Y-101552380D01*
X174227380Y-101695238D01*
X174227380Y-101790476D01*
X174275000Y-101933333D01*
X174322619Y-101980952D01*
X175179761Y-102790476D02*
X175227380Y-102695238D01*
X175227380Y-102504761D01*
X175179761Y-102409523D01*
X175084523Y-102361904D01*
X174703571Y-102361904D01*
X174608333Y-102409523D01*
X174560714Y-102504761D01*
X174560714Y-102695238D01*
X174608333Y-102790476D01*
X174703571Y-102838095D01*
X174798809Y-102838095D01*
X174894047Y-102361904D01*
X175227380Y-103409523D02*
X175179761Y-103314285D01*
X175084523Y-103266666D01*
X174227380Y-103266666D01*
X175227380Y-103933333D02*
X175179761Y-103838095D01*
X175084523Y-103790476D01*
X174227380Y-103790476D01*
D11*
%TO.C,C3*%
X143103571Y-90916666D02*
X143127380Y-90892857D01*
X143151190Y-90821428D01*
X143151190Y-90773809D01*
X143127380Y-90702380D01*
X143079761Y-90654761D01*
X143032142Y-90630952D01*
X142936904Y-90607142D01*
X142865476Y-90607142D01*
X142770238Y-90630952D01*
X142722619Y-90654761D01*
X142675000Y-90702380D01*
X142651190Y-90773809D01*
X142651190Y-90821428D01*
X142675000Y-90892857D01*
X142698809Y-90916666D01*
X142651190Y-91083333D02*
X142651190Y-91392857D01*
X142841666Y-91226190D01*
X142841666Y-91297619D01*
X142865476Y-91345238D01*
X142889285Y-91369047D01*
X142936904Y-91392857D01*
X143055952Y-91392857D01*
X143103571Y-91369047D01*
X143127380Y-91345238D01*
X143151190Y-91297619D01*
X143151190Y-91154761D01*
X143127380Y-91107142D01*
X143103571Y-91083333D01*
D10*
%TO.C,C24*%
X137472380Y-122960000D02*
X137472380Y-123055238D01*
X137520000Y-123150476D01*
X137567619Y-123198095D01*
X137662857Y-123245714D01*
X137853333Y-123293333D01*
X138091428Y-123293333D01*
X138281904Y-123245714D01*
X138377142Y-123198095D01*
X138424761Y-123150476D01*
X138472380Y-123055238D01*
X138472380Y-122960000D01*
X138424761Y-122864761D01*
X138377142Y-122817142D01*
X138281904Y-122769523D01*
X138091428Y-122721904D01*
X137853333Y-122721904D01*
X137662857Y-122769523D01*
X137567619Y-122817142D01*
X137520000Y-122864761D01*
X137472380Y-122960000D01*
X138377142Y-123721904D02*
X138424761Y-123769523D01*
X138472380Y-123721904D01*
X138424761Y-123674285D01*
X138377142Y-123721904D01*
X138472380Y-123721904D01*
X138472380Y-124721904D02*
X138472380Y-124150476D01*
X138472380Y-124436190D02*
X137472380Y-124436190D01*
X137615238Y-124340952D01*
X137710476Y-124245714D01*
X137758095Y-124150476D01*
X137805714Y-125579047D02*
X138472380Y-125579047D01*
X137805714Y-125150476D02*
X138329523Y-125150476D01*
X138424761Y-125198095D01*
X138472380Y-125293333D01*
X138472380Y-125436190D01*
X138424761Y-125531428D01*
X138377142Y-125579047D01*
X137805714Y-125912380D02*
X137805714Y-126293333D01*
X138472380Y-126055238D02*
X137615238Y-126055238D01*
X137520000Y-126102857D01*
X137472380Y-126198095D01*
X137472380Y-126293333D01*
D11*
X139878571Y-124138571D02*
X139902380Y-124114761D01*
X139926190Y-124043333D01*
X139926190Y-123995714D01*
X139902380Y-123924285D01*
X139854761Y-123876666D01*
X139807142Y-123852857D01*
X139711904Y-123829047D01*
X139640476Y-123829047D01*
X139545238Y-123852857D01*
X139497619Y-123876666D01*
X139450000Y-123924285D01*
X139426190Y-123995714D01*
X139426190Y-124043333D01*
X139450000Y-124114761D01*
X139473809Y-124138571D01*
X139473809Y-124329047D02*
X139450000Y-124352857D01*
X139426190Y-124400476D01*
X139426190Y-124519523D01*
X139450000Y-124567142D01*
X139473809Y-124590952D01*
X139521428Y-124614761D01*
X139569047Y-124614761D01*
X139640476Y-124590952D01*
X139926190Y-124305238D01*
X139926190Y-124614761D01*
X139592857Y-125043333D02*
X139926190Y-125043333D01*
X139402380Y-124924285D02*
X139759523Y-124805238D01*
X139759523Y-125114761D01*
D10*
%TO.C,R6*%
X148970238Y-99452380D02*
X149541666Y-99452380D01*
X149255952Y-99452380D02*
X149255952Y-98452380D01*
X149351190Y-98595238D01*
X149446428Y-98690476D01*
X149541666Y-98738095D01*
X148351190Y-98452380D02*
X148255952Y-98452380D01*
X148160714Y-98500000D01*
X148113095Y-98547619D01*
X148065476Y-98642857D01*
X148017857Y-98833333D01*
X148017857Y-99071428D01*
X148065476Y-99261904D01*
X148113095Y-99357142D01*
X148160714Y-99404761D01*
X148255952Y-99452380D01*
X148351190Y-99452380D01*
X148446428Y-99404761D01*
X148494047Y-99357142D01*
X148541666Y-99261904D01*
X148589285Y-99071428D01*
X148589285Y-98833333D01*
X148541666Y-98642857D01*
X148494047Y-98547619D01*
X148446428Y-98500000D01*
X148351190Y-98452380D01*
X147589285Y-99452380D02*
X147589285Y-98452380D01*
X147494047Y-99071428D02*
X147208333Y-99452380D01*
X147208333Y-98785714D02*
X147589285Y-99166666D01*
D11*
X148458333Y-97576190D02*
X148625000Y-97338095D01*
X148744047Y-97576190D02*
X148744047Y-97076190D01*
X148553571Y-97076190D01*
X148505952Y-97100000D01*
X148482142Y-97123809D01*
X148458333Y-97171428D01*
X148458333Y-97242857D01*
X148482142Y-97290476D01*
X148505952Y-97314285D01*
X148553571Y-97338095D01*
X148744047Y-97338095D01*
X148029761Y-97076190D02*
X148125000Y-97076190D01*
X148172619Y-97100000D01*
X148196428Y-97123809D01*
X148244047Y-97195238D01*
X148267857Y-97290476D01*
X148267857Y-97480952D01*
X148244047Y-97528571D01*
X148220238Y-97552380D01*
X148172619Y-97576190D01*
X148077380Y-97576190D01*
X148029761Y-97552380D01*
X148005952Y-97528571D01*
X147982142Y-97480952D01*
X147982142Y-97361904D01*
X148005952Y-97314285D01*
X148029761Y-97290476D01*
X148077380Y-97266666D01*
X148172619Y-97266666D01*
X148220238Y-97290476D01*
X148244047Y-97314285D01*
X148267857Y-97361904D01*
%TO.C,C5*%
X157353571Y-108416666D02*
X157377380Y-108392857D01*
X157401190Y-108321428D01*
X157401190Y-108273809D01*
X157377380Y-108202380D01*
X157329761Y-108154761D01*
X157282142Y-108130952D01*
X157186904Y-108107142D01*
X157115476Y-108107142D01*
X157020238Y-108130952D01*
X156972619Y-108154761D01*
X156925000Y-108202380D01*
X156901190Y-108273809D01*
X156901190Y-108321428D01*
X156925000Y-108392857D01*
X156948809Y-108416666D01*
X156901190Y-108869047D02*
X156901190Y-108630952D01*
X157139285Y-108607142D01*
X157115476Y-108630952D01*
X157091666Y-108678571D01*
X157091666Y-108797619D01*
X157115476Y-108845238D01*
X157139285Y-108869047D01*
X157186904Y-108892857D01*
X157305952Y-108892857D01*
X157353571Y-108869047D01*
X157377380Y-108845238D01*
X157401190Y-108797619D01*
X157401190Y-108678571D01*
X157377380Y-108630952D01*
X157353571Y-108607142D01*
%TO.C,R3*%
X149583333Y-112226190D02*
X149750000Y-111988095D01*
X149869047Y-112226190D02*
X149869047Y-111726190D01*
X149678571Y-111726190D01*
X149630952Y-111750000D01*
X149607142Y-111773809D01*
X149583333Y-111821428D01*
X149583333Y-111892857D01*
X149607142Y-111940476D01*
X149630952Y-111964285D01*
X149678571Y-111988095D01*
X149869047Y-111988095D01*
X149416666Y-111726190D02*
X149107142Y-111726190D01*
X149273809Y-111916666D01*
X149202380Y-111916666D01*
X149154761Y-111940476D01*
X149130952Y-111964285D01*
X149107142Y-112011904D01*
X149107142Y-112130952D01*
X149130952Y-112178571D01*
X149154761Y-112202380D01*
X149202380Y-112226190D01*
X149345238Y-112226190D01*
X149392857Y-112202380D01*
X149416666Y-112178571D01*
%TO.C,C13*%
X139103571Y-76178571D02*
X139127380Y-76154761D01*
X139151190Y-76083333D01*
X139151190Y-76035714D01*
X139127380Y-75964285D01*
X139079761Y-75916666D01*
X139032142Y-75892857D01*
X138936904Y-75869047D01*
X138865476Y-75869047D01*
X138770238Y-75892857D01*
X138722619Y-75916666D01*
X138675000Y-75964285D01*
X138651190Y-76035714D01*
X138651190Y-76083333D01*
X138675000Y-76154761D01*
X138698809Y-76178571D01*
X139151190Y-76654761D02*
X139151190Y-76369047D01*
X139151190Y-76511904D02*
X138651190Y-76511904D01*
X138722619Y-76464285D01*
X138770238Y-76416666D01*
X138794047Y-76369047D01*
X138651190Y-76821428D02*
X138651190Y-77130952D01*
X138841666Y-76964285D01*
X138841666Y-77035714D01*
X138865476Y-77083333D01*
X138889285Y-77107142D01*
X138936904Y-77130952D01*
X139055952Y-77130952D01*
X139103571Y-77107142D01*
X139127380Y-77083333D01*
X139151190Y-77035714D01*
X139151190Y-76892857D01*
X139127380Y-76845238D01*
X139103571Y-76821428D01*
D10*
%TO.C,C22*%
X139504380Y-116721142D02*
X139504380Y-116816380D01*
X139552000Y-116911619D01*
X139599619Y-116959238D01*
X139694857Y-117006857D01*
X139885333Y-117054476D01*
X140123428Y-117054476D01*
X140313904Y-117006857D01*
X140409142Y-116959238D01*
X140456761Y-116911619D01*
X140504380Y-116816380D01*
X140504380Y-116721142D01*
X140456761Y-116625904D01*
X140409142Y-116578285D01*
X140313904Y-116530666D01*
X140123428Y-116483047D01*
X139885333Y-116483047D01*
X139694857Y-116530666D01*
X139599619Y-116578285D01*
X139552000Y-116625904D01*
X139504380Y-116721142D01*
X140409142Y-117483047D02*
X140456761Y-117530666D01*
X140504380Y-117483047D01*
X140456761Y-117435428D01*
X140409142Y-117483047D01*
X140504380Y-117483047D01*
X140504380Y-118483047D02*
X140504380Y-117911619D01*
X140504380Y-118197333D02*
X139504380Y-118197333D01*
X139647238Y-118102095D01*
X139742476Y-118006857D01*
X139790095Y-117911619D01*
X139837714Y-119340190D02*
X140504380Y-119340190D01*
X139837714Y-118911619D02*
X140361523Y-118911619D01*
X140456761Y-118959238D01*
X140504380Y-119054476D01*
X140504380Y-119197333D01*
X140456761Y-119292571D01*
X140409142Y-119340190D01*
X139980571Y-120149714D02*
X139980571Y-119816380D01*
X140504380Y-119816380D02*
X139504380Y-119816380D01*
X139504380Y-120292571D01*
D11*
X141910571Y-118042571D02*
X141934380Y-118018761D01*
X141958190Y-117947333D01*
X141958190Y-117899714D01*
X141934380Y-117828285D01*
X141886761Y-117780666D01*
X141839142Y-117756857D01*
X141743904Y-117733047D01*
X141672476Y-117733047D01*
X141577238Y-117756857D01*
X141529619Y-117780666D01*
X141482000Y-117828285D01*
X141458190Y-117899714D01*
X141458190Y-117947333D01*
X141482000Y-118018761D01*
X141505809Y-118042571D01*
X141505809Y-118233047D02*
X141482000Y-118256857D01*
X141458190Y-118304476D01*
X141458190Y-118423523D01*
X141482000Y-118471142D01*
X141505809Y-118494952D01*
X141553428Y-118518761D01*
X141601047Y-118518761D01*
X141672476Y-118494952D01*
X141958190Y-118209238D01*
X141958190Y-118518761D01*
X141505809Y-118709238D02*
X141482000Y-118733047D01*
X141458190Y-118780666D01*
X141458190Y-118899714D01*
X141482000Y-118947333D01*
X141505809Y-118971142D01*
X141553428Y-118994952D01*
X141601047Y-118994952D01*
X141672476Y-118971142D01*
X141958190Y-118685428D01*
X141958190Y-118994952D01*
%TO.C,C8*%
X169088571Y-108626666D02*
X169112380Y-108602857D01*
X169136190Y-108531428D01*
X169136190Y-108483809D01*
X169112380Y-108412380D01*
X169064761Y-108364761D01*
X169017142Y-108340952D01*
X168921904Y-108317142D01*
X168850476Y-108317142D01*
X168755238Y-108340952D01*
X168707619Y-108364761D01*
X168660000Y-108412380D01*
X168636190Y-108483809D01*
X168636190Y-108531428D01*
X168660000Y-108602857D01*
X168683809Y-108626666D01*
X168850476Y-108912380D02*
X168826666Y-108864761D01*
X168802857Y-108840952D01*
X168755238Y-108817142D01*
X168731428Y-108817142D01*
X168683809Y-108840952D01*
X168660000Y-108864761D01*
X168636190Y-108912380D01*
X168636190Y-109007619D01*
X168660000Y-109055238D01*
X168683809Y-109079047D01*
X168731428Y-109102857D01*
X168755238Y-109102857D01*
X168802857Y-109079047D01*
X168826666Y-109055238D01*
X168850476Y-109007619D01*
X168850476Y-108912380D01*
X168874285Y-108864761D01*
X168898095Y-108840952D01*
X168945714Y-108817142D01*
X169040952Y-108817142D01*
X169088571Y-108840952D01*
X169112380Y-108864761D01*
X169136190Y-108912380D01*
X169136190Y-109007619D01*
X169112380Y-109055238D01*
X169088571Y-109079047D01*
X169040952Y-109102857D01*
X168945714Y-109102857D01*
X168898095Y-109079047D01*
X168874285Y-109055238D01*
X168850476Y-109007619D01*
%TO.C,C21*%
X169296428Y-104728571D02*
X169320238Y-104752380D01*
X169391666Y-104776190D01*
X169439285Y-104776190D01*
X169510714Y-104752380D01*
X169558333Y-104704761D01*
X169582142Y-104657142D01*
X169605952Y-104561904D01*
X169605952Y-104490476D01*
X169582142Y-104395238D01*
X169558333Y-104347619D01*
X169510714Y-104300000D01*
X169439285Y-104276190D01*
X169391666Y-104276190D01*
X169320238Y-104300000D01*
X169296428Y-104323809D01*
X169105952Y-104323809D02*
X169082142Y-104300000D01*
X169034523Y-104276190D01*
X168915476Y-104276190D01*
X168867857Y-104300000D01*
X168844047Y-104323809D01*
X168820238Y-104371428D01*
X168820238Y-104419047D01*
X168844047Y-104490476D01*
X169129761Y-104776190D01*
X168820238Y-104776190D01*
X168344047Y-104776190D02*
X168629761Y-104776190D01*
X168486904Y-104776190D02*
X168486904Y-104276190D01*
X168534523Y-104347619D01*
X168582142Y-104395238D01*
X168629761Y-104419047D01*
%TO.C,C15*%
X165103571Y-76678571D02*
X165127380Y-76654761D01*
X165151190Y-76583333D01*
X165151190Y-76535714D01*
X165127380Y-76464285D01*
X165079761Y-76416666D01*
X165032142Y-76392857D01*
X164936904Y-76369047D01*
X164865476Y-76369047D01*
X164770238Y-76392857D01*
X164722619Y-76416666D01*
X164675000Y-76464285D01*
X164651190Y-76535714D01*
X164651190Y-76583333D01*
X164675000Y-76654761D01*
X164698809Y-76678571D01*
X165151190Y-77154761D02*
X165151190Y-76869047D01*
X165151190Y-77011904D02*
X164651190Y-77011904D01*
X164722619Y-76964285D01*
X164770238Y-76916666D01*
X164794047Y-76869047D01*
X164651190Y-77607142D02*
X164651190Y-77369047D01*
X164889285Y-77345238D01*
X164865476Y-77369047D01*
X164841666Y-77416666D01*
X164841666Y-77535714D01*
X164865476Y-77583333D01*
X164889285Y-77607142D01*
X164936904Y-77630952D01*
X165055952Y-77630952D01*
X165103571Y-77607142D01*
X165127380Y-77583333D01*
X165151190Y-77535714D01*
X165151190Y-77416666D01*
X165127380Y-77369047D01*
X165103571Y-77345238D01*
D10*
%TO.C,R11*%
X141311238Y-120138180D02*
X141882666Y-120138180D01*
X141596952Y-120138180D02*
X141596952Y-119138180D01*
X141692190Y-119281038D01*
X141787428Y-119376276D01*
X141882666Y-119423895D01*
X140692190Y-119138180D02*
X140596952Y-119138180D01*
X140501714Y-119185800D01*
X140454095Y-119233419D01*
X140406476Y-119328657D01*
X140358857Y-119519133D01*
X140358857Y-119757228D01*
X140406476Y-119947704D01*
X140454095Y-120042942D01*
X140501714Y-120090561D01*
X140596952Y-120138180D01*
X140692190Y-120138180D01*
X140787428Y-120090561D01*
X140835047Y-120042942D01*
X140882666Y-119947704D01*
X140930285Y-119757228D01*
X140930285Y-119519133D01*
X140882666Y-119328657D01*
X140835047Y-119233419D01*
X140787428Y-119185800D01*
X140692190Y-119138180D01*
X139930285Y-120138180D02*
X139930285Y-119138180D01*
X139835047Y-119757228D02*
X139549333Y-120138180D01*
X139549333Y-119471514D02*
X139930285Y-119852466D01*
D11*
X141037428Y-121561990D02*
X141204095Y-121323895D01*
X141323142Y-121561990D02*
X141323142Y-121061990D01*
X141132666Y-121061990D01*
X141085047Y-121085800D01*
X141061238Y-121109609D01*
X141037428Y-121157228D01*
X141037428Y-121228657D01*
X141061238Y-121276276D01*
X141085047Y-121300085D01*
X141132666Y-121323895D01*
X141323142Y-121323895D01*
X140561238Y-121561990D02*
X140846952Y-121561990D01*
X140704095Y-121561990D02*
X140704095Y-121061990D01*
X140751714Y-121133419D01*
X140799333Y-121181038D01*
X140846952Y-121204847D01*
X140085047Y-121561990D02*
X140370761Y-121561990D01*
X140227904Y-121561990D02*
X140227904Y-121061990D01*
X140275523Y-121133419D01*
X140323142Y-121181038D01*
X140370761Y-121204847D01*
%TO.C,C7*%
X150053571Y-77116666D02*
X150077380Y-77092857D01*
X150101190Y-77021428D01*
X150101190Y-76973809D01*
X150077380Y-76902380D01*
X150029761Y-76854761D01*
X149982142Y-76830952D01*
X149886904Y-76807142D01*
X149815476Y-76807142D01*
X149720238Y-76830952D01*
X149672619Y-76854761D01*
X149625000Y-76902380D01*
X149601190Y-76973809D01*
X149601190Y-77021428D01*
X149625000Y-77092857D01*
X149648809Y-77116666D01*
X149601190Y-77283333D02*
X149601190Y-77616666D01*
X150101190Y-77402380D01*
%TO.C,C4*%
X132853571Y-108416666D02*
X132877380Y-108392857D01*
X132901190Y-108321428D01*
X132901190Y-108273809D01*
X132877380Y-108202380D01*
X132829761Y-108154761D01*
X132782142Y-108130952D01*
X132686904Y-108107142D01*
X132615476Y-108107142D01*
X132520238Y-108130952D01*
X132472619Y-108154761D01*
X132425000Y-108202380D01*
X132401190Y-108273809D01*
X132401190Y-108321428D01*
X132425000Y-108392857D01*
X132448809Y-108416666D01*
X132567857Y-108845238D02*
X132901190Y-108845238D01*
X132377380Y-108726190D02*
X132734523Y-108607142D01*
X132734523Y-108916666D01*
%TO.C,C1*%
X122353571Y-108416666D02*
X122377380Y-108392857D01*
X122401190Y-108321428D01*
X122401190Y-108273809D01*
X122377380Y-108202380D01*
X122329761Y-108154761D01*
X122282142Y-108130952D01*
X122186904Y-108107142D01*
X122115476Y-108107142D01*
X122020238Y-108130952D01*
X121972619Y-108154761D01*
X121925000Y-108202380D01*
X121901190Y-108273809D01*
X121901190Y-108321428D01*
X121925000Y-108392857D01*
X121948809Y-108416666D01*
X122401190Y-108892857D02*
X122401190Y-108607142D01*
X122401190Y-108750000D02*
X121901190Y-108750000D01*
X121972619Y-108702380D01*
X122020238Y-108654761D01*
X122044047Y-108607142D01*
%TO.C,D13*%
X149273342Y-80667990D02*
X149273342Y-80167990D01*
X149154295Y-80167990D01*
X149082866Y-80191800D01*
X149035247Y-80239419D01*
X149011438Y-80287038D01*
X148987628Y-80382276D01*
X148987628Y-80453704D01*
X149011438Y-80548942D01*
X149035247Y-80596561D01*
X149082866Y-80644180D01*
X149154295Y-80667990D01*
X149273342Y-80667990D01*
X148511438Y-80667990D02*
X148797152Y-80667990D01*
X148654295Y-80667990D02*
X148654295Y-80167990D01*
X148701914Y-80239419D01*
X148749533Y-80287038D01*
X148797152Y-80310847D01*
X148344771Y-80167990D02*
X148035247Y-80167990D01*
X148201914Y-80358466D01*
X148130485Y-80358466D01*
X148082866Y-80382276D01*
X148059057Y-80406085D01*
X148035247Y-80453704D01*
X148035247Y-80572752D01*
X148059057Y-80620371D01*
X148082866Y-80644180D01*
X148130485Y-80667990D01*
X148273342Y-80667990D01*
X148320961Y-80644180D01*
X148344771Y-80620371D01*
D10*
%TO.C,S2*%
X140483123Y-99628647D02*
X139843123Y-99628647D01*
X140483123Y-99994361D02*
X140117409Y-99720076D01*
X139843123Y-99994361D02*
X140208838Y-99628647D01*
X140483123Y-100268647D02*
X139843123Y-100268647D01*
X140300266Y-100481980D01*
X139843123Y-100695314D01*
X140483123Y-100695314D01*
X140483123Y-101365790D02*
X140178361Y-101152457D01*
X140483123Y-101000076D02*
X139843123Y-101000076D01*
X139843123Y-101243885D01*
X139873600Y-101304838D01*
X139904076Y-101335314D01*
X139965028Y-101365790D01*
X140056457Y-101365790D01*
X140117409Y-101335314D01*
X140147885Y-101304838D01*
X140178361Y-101243885D01*
X140178361Y-101000076D01*
X139843123Y-101914361D02*
X139843123Y-101792457D01*
X139873600Y-101731504D01*
X139904076Y-101701028D01*
X139995504Y-101640076D01*
X140117409Y-101609600D01*
X140361219Y-101609600D01*
X140422171Y-101640076D01*
X140452647Y-101670552D01*
X140483123Y-101731504D01*
X140483123Y-101853409D01*
X140452647Y-101914361D01*
X140422171Y-101944838D01*
X140361219Y-101975314D01*
X140208838Y-101975314D01*
X140147885Y-101944838D01*
X140117409Y-101914361D01*
X140086933Y-101853409D01*
X140086933Y-101731504D01*
X140117409Y-101670552D01*
X140147885Y-101640076D01*
X140208838Y-101609600D01*
X139904076Y-102219123D02*
X139873600Y-102249600D01*
X139843123Y-102310552D01*
X139843123Y-102462933D01*
X139873600Y-102523885D01*
X139904076Y-102554361D01*
X139965028Y-102584838D01*
X140025980Y-102584838D01*
X140117409Y-102554361D01*
X140483123Y-102188647D01*
X140483123Y-102584838D01*
X140483123Y-103194361D02*
X140483123Y-102828647D01*
X140483123Y-103011504D02*
X139843123Y-103011504D01*
X139934552Y-102950552D01*
X139995504Y-102889600D01*
X140025980Y-102828647D01*
X140483123Y-103468647D02*
X139843123Y-103468647D01*
X140483123Y-103834361D01*
X139843123Y-103834361D01*
X139873600Y-104474361D02*
X139843123Y-104413409D01*
X139843123Y-104321980D01*
X139873600Y-104230552D01*
X139934552Y-104169600D01*
X139995504Y-104139123D01*
X140117409Y-104108647D01*
X140208838Y-104108647D01*
X140330742Y-104139123D01*
X140391695Y-104169600D01*
X140452647Y-104230552D01*
X140483123Y-104321980D01*
X140483123Y-104382933D01*
X140452647Y-104474361D01*
X140422171Y-104504838D01*
X140208838Y-104504838D01*
X140208838Y-104382933D01*
X140483123Y-105083885D02*
X140483123Y-104779123D01*
X139843123Y-104779123D01*
X140147885Y-105510552D02*
X140147885Y-105297219D01*
X140483123Y-105297219D02*
X139843123Y-105297219D01*
X139843123Y-105601980D01*
X140452647Y-105815314D02*
X140483123Y-105906742D01*
X140483123Y-106059123D01*
X140452647Y-106120076D01*
X140422171Y-106150552D01*
X140361219Y-106181028D01*
X140300266Y-106181028D01*
X140239314Y-106150552D01*
X140208838Y-106120076D01*
X140178361Y-106059123D01*
X140147885Y-105937219D01*
X140117409Y-105876266D01*
X140086933Y-105845790D01*
X140025980Y-105815314D01*
X139965028Y-105815314D01*
X139904076Y-105845790D01*
X139873600Y-105876266D01*
X139843123Y-105937219D01*
X139843123Y-106089600D01*
X139873600Y-106181028D01*
%TO.C,C18*%
X139818857Y-102928380D02*
X139723619Y-102928380D01*
X139628380Y-102976000D01*
X139580761Y-103023619D01*
X139533142Y-103118857D01*
X139485523Y-103309333D01*
X139485523Y-103547428D01*
X139533142Y-103737904D01*
X139580761Y-103833142D01*
X139628380Y-103880761D01*
X139723619Y-103928380D01*
X139818857Y-103928380D01*
X139914095Y-103880761D01*
X139961714Y-103833142D01*
X140009333Y-103737904D01*
X140056952Y-103547428D01*
X140056952Y-103309333D01*
X140009333Y-103118857D01*
X139961714Y-103023619D01*
X139914095Y-102976000D01*
X139818857Y-102928380D01*
X139056952Y-103833142D02*
X139009333Y-103880761D01*
X139056952Y-103928380D01*
X139104571Y-103880761D01*
X139056952Y-103833142D01*
X139056952Y-103928380D01*
X138056952Y-103928380D02*
X138628380Y-103928380D01*
X138342666Y-103928380D02*
X138342666Y-102928380D01*
X138437904Y-103071238D01*
X138533142Y-103166476D01*
X138628380Y-103214095D01*
X137199809Y-103261714D02*
X137199809Y-103928380D01*
X137628380Y-103261714D02*
X137628380Y-103785523D01*
X137580761Y-103880761D01*
X137485523Y-103928380D01*
X137342666Y-103928380D01*
X137247428Y-103880761D01*
X137199809Y-103833142D01*
X136390285Y-103404571D02*
X136723619Y-103404571D01*
X136723619Y-103928380D02*
X136723619Y-102928380D01*
X136247428Y-102928380D01*
D11*
X138497428Y-105334571D02*
X138521238Y-105358380D01*
X138592666Y-105382190D01*
X138640285Y-105382190D01*
X138711714Y-105358380D01*
X138759333Y-105310761D01*
X138783142Y-105263142D01*
X138806952Y-105167904D01*
X138806952Y-105096476D01*
X138783142Y-105001238D01*
X138759333Y-104953619D01*
X138711714Y-104906000D01*
X138640285Y-104882190D01*
X138592666Y-104882190D01*
X138521238Y-104906000D01*
X138497428Y-104929809D01*
X138021238Y-105382190D02*
X138306952Y-105382190D01*
X138164095Y-105382190D02*
X138164095Y-104882190D01*
X138211714Y-104953619D01*
X138259333Y-105001238D01*
X138306952Y-105025047D01*
X137735523Y-105096476D02*
X137783142Y-105072666D01*
X137806952Y-105048857D01*
X137830761Y-105001238D01*
X137830761Y-104977428D01*
X137806952Y-104929809D01*
X137783142Y-104906000D01*
X137735523Y-104882190D01*
X137640285Y-104882190D01*
X137592666Y-104906000D01*
X137568857Y-104929809D01*
X137545047Y-104977428D01*
X137545047Y-105001238D01*
X137568857Y-105048857D01*
X137592666Y-105072666D01*
X137640285Y-105096476D01*
X137735523Y-105096476D01*
X137783142Y-105120285D01*
X137806952Y-105144095D01*
X137830761Y-105191714D01*
X137830761Y-105286952D01*
X137806952Y-105334571D01*
X137783142Y-105358380D01*
X137735523Y-105382190D01*
X137640285Y-105382190D01*
X137592666Y-105358380D01*
X137568857Y-105334571D01*
X137545047Y-105286952D01*
X137545047Y-105191714D01*
X137568857Y-105144095D01*
X137592666Y-105120285D01*
X137640285Y-105096476D01*
D13*
%TO.C,FID4*%
X167814285Y-78685714D02*
X167880952Y-78685714D01*
X167880952Y-78790476D02*
X167880952Y-78590476D01*
X167785714Y-78590476D01*
X167709523Y-78790476D02*
X167709523Y-78590476D01*
X167614285Y-78790476D02*
X167614285Y-78590476D01*
X167566666Y-78590476D01*
X167538095Y-78600000D01*
X167519047Y-78619047D01*
X167509523Y-78638095D01*
X167500000Y-78676190D01*
X167500000Y-78704761D01*
X167509523Y-78742857D01*
X167519047Y-78761904D01*
X167538095Y-78780952D01*
X167566666Y-78790476D01*
X167614285Y-78790476D01*
X167328571Y-78657142D02*
X167328571Y-78790476D01*
X167376190Y-78580952D02*
X167423809Y-78723809D01*
X167300000Y-78723809D01*
D11*
%TO.C,C16*%
X132603571Y-90678571D02*
X132627380Y-90654761D01*
X132651190Y-90583333D01*
X132651190Y-90535714D01*
X132627380Y-90464285D01*
X132579761Y-90416666D01*
X132532142Y-90392857D01*
X132436904Y-90369047D01*
X132365476Y-90369047D01*
X132270238Y-90392857D01*
X132222619Y-90416666D01*
X132175000Y-90464285D01*
X132151190Y-90535714D01*
X132151190Y-90583333D01*
X132175000Y-90654761D01*
X132198809Y-90678571D01*
X132651190Y-91154761D02*
X132651190Y-90869047D01*
X132651190Y-91011904D02*
X132151190Y-91011904D01*
X132222619Y-90964285D01*
X132270238Y-90916666D01*
X132294047Y-90869047D01*
X132151190Y-91583333D02*
X132151190Y-91488095D01*
X132175000Y-91440476D01*
X132198809Y-91416666D01*
X132270238Y-91369047D01*
X132365476Y-91345238D01*
X132555952Y-91345238D01*
X132603571Y-91369047D01*
X132627380Y-91392857D01*
X132651190Y-91440476D01*
X132651190Y-91535714D01*
X132627380Y-91583333D01*
X132603571Y-91607142D01*
X132555952Y-91630952D01*
X132436904Y-91630952D01*
X132389285Y-91607142D01*
X132365476Y-91583333D01*
X132341666Y-91535714D01*
X132341666Y-91440476D01*
X132365476Y-91392857D01*
X132389285Y-91369047D01*
X132436904Y-91345238D01*
%TO.C,C19*%
X151996428Y-104528571D02*
X152020238Y-104552380D01*
X152091666Y-104576190D01*
X152139285Y-104576190D01*
X152210714Y-104552380D01*
X152258333Y-104504761D01*
X152282142Y-104457142D01*
X152305952Y-104361904D01*
X152305952Y-104290476D01*
X152282142Y-104195238D01*
X152258333Y-104147619D01*
X152210714Y-104100000D01*
X152139285Y-104076190D01*
X152091666Y-104076190D01*
X152020238Y-104100000D01*
X151996428Y-104123809D01*
X151520238Y-104576190D02*
X151805952Y-104576190D01*
X151663095Y-104576190D02*
X151663095Y-104076190D01*
X151710714Y-104147619D01*
X151758333Y-104195238D01*
X151805952Y-104219047D01*
X151282142Y-104576190D02*
X151186904Y-104576190D01*
X151139285Y-104552380D01*
X151115476Y-104528571D01*
X151067857Y-104457142D01*
X151044047Y-104361904D01*
X151044047Y-104171428D01*
X151067857Y-104123809D01*
X151091666Y-104100000D01*
X151139285Y-104076190D01*
X151234523Y-104076190D01*
X151282142Y-104100000D01*
X151305952Y-104123809D01*
X151329761Y-104171428D01*
X151329761Y-104290476D01*
X151305952Y-104338095D01*
X151282142Y-104361904D01*
X151234523Y-104385714D01*
X151139285Y-104385714D01*
X151091666Y-104361904D01*
X151067857Y-104338095D01*
X151044047Y-104290476D01*
%TO.C,R2*%
X153245833Y-112226190D02*
X153412500Y-111988095D01*
X153531547Y-112226190D02*
X153531547Y-111726190D01*
X153341071Y-111726190D01*
X153293452Y-111750000D01*
X153269642Y-111773809D01*
X153245833Y-111821428D01*
X153245833Y-111892857D01*
X153269642Y-111940476D01*
X153293452Y-111964285D01*
X153341071Y-111988095D01*
X153531547Y-111988095D01*
X153055357Y-111773809D02*
X153031547Y-111750000D01*
X152983928Y-111726190D01*
X152864880Y-111726190D01*
X152817261Y-111750000D01*
X152793452Y-111773809D01*
X152769642Y-111821428D01*
X152769642Y-111869047D01*
X152793452Y-111940476D01*
X153079166Y-112226190D01*
X152769642Y-112226190D01*
%TO.C,R5*%
X152258333Y-97576190D02*
X152425000Y-97338095D01*
X152544047Y-97576190D02*
X152544047Y-97076190D01*
X152353571Y-97076190D01*
X152305952Y-97100000D01*
X152282142Y-97123809D01*
X152258333Y-97171428D01*
X152258333Y-97242857D01*
X152282142Y-97290476D01*
X152305952Y-97314285D01*
X152353571Y-97338095D01*
X152544047Y-97338095D01*
X151805952Y-97076190D02*
X152044047Y-97076190D01*
X152067857Y-97314285D01*
X152044047Y-97290476D01*
X151996428Y-97266666D01*
X151877380Y-97266666D01*
X151829761Y-97290476D01*
X151805952Y-97314285D01*
X151782142Y-97361904D01*
X151782142Y-97480952D01*
X151805952Y-97528571D01*
X151829761Y-97552380D01*
X151877380Y-97576190D01*
X151996428Y-97576190D01*
X152044047Y-97552380D01*
X152067857Y-97528571D01*
D12*
%TO.C,Q1*%
X148205476Y-100225238D02*
X148235952Y-100210000D01*
X148266428Y-100179523D01*
X148312142Y-100133809D01*
X148342619Y-100118571D01*
X148373095Y-100118571D01*
X148357857Y-100194761D02*
X148388333Y-100179523D01*
X148418809Y-100149047D01*
X148434047Y-100088095D01*
X148434047Y-99981428D01*
X148418809Y-99920476D01*
X148388333Y-99890000D01*
X148357857Y-99874761D01*
X148296904Y-99874761D01*
X148266428Y-99890000D01*
X148235952Y-99920476D01*
X148220714Y-99981428D01*
X148220714Y-100088095D01*
X148235952Y-100149047D01*
X148266428Y-100179523D01*
X148296904Y-100194761D01*
X148357857Y-100194761D01*
X147915952Y-100194761D02*
X148098809Y-100194761D01*
X148007380Y-100194761D02*
X148007380Y-99874761D01*
X148037857Y-99920476D01*
X148068333Y-99950952D01*
X148098809Y-99966190D01*
D10*
%TO.C,J11*%
X160067523Y-109974380D02*
X160067523Y-110688666D01*
X160115142Y-110831523D01*
X160210380Y-110926761D01*
X160353238Y-110974380D01*
X160448476Y-110974380D01*
X159067523Y-110974380D02*
X159638952Y-110974380D01*
X159353238Y-110974380D02*
X159353238Y-109974380D01*
X159448476Y-110117238D01*
X159543714Y-110212476D01*
X159638952Y-110260095D01*
X158115142Y-110974380D02*
X158686571Y-110974380D01*
X158400857Y-110974380D02*
X158400857Y-109974380D01*
X158496095Y-110117238D01*
X158591333Y-110212476D01*
X158686571Y-110260095D01*
D11*
%TO.C,C6*%
X153603571Y-90916666D02*
X153627380Y-90892857D01*
X153651190Y-90821428D01*
X153651190Y-90773809D01*
X153627380Y-90702380D01*
X153579761Y-90654761D01*
X153532142Y-90630952D01*
X153436904Y-90607142D01*
X153365476Y-90607142D01*
X153270238Y-90630952D01*
X153222619Y-90654761D01*
X153175000Y-90702380D01*
X153151190Y-90773809D01*
X153151190Y-90821428D01*
X153175000Y-90892857D01*
X153198809Y-90916666D01*
X153151190Y-91345238D02*
X153151190Y-91250000D01*
X153175000Y-91202380D01*
X153198809Y-91178571D01*
X153270238Y-91130952D01*
X153365476Y-91107142D01*
X153555952Y-91107142D01*
X153603571Y-91130952D01*
X153627380Y-91154761D01*
X153651190Y-91202380D01*
X153651190Y-91297619D01*
X153627380Y-91345238D01*
X153603571Y-91369047D01*
X153555952Y-91392857D01*
X153436904Y-91392857D01*
X153389285Y-91369047D01*
X153365476Y-91345238D01*
X153341666Y-91297619D01*
X153341666Y-91202380D01*
X153365476Y-91154761D01*
X153389285Y-91130952D01*
X153436904Y-91107142D01*
D14*
%TO.C,R8*%
X167903400Y-110957200D02*
X165903400Y-110957200D01*
X167903400Y-112207200D02*
X167903400Y-110957200D01*
X165903400Y-112207200D02*
X167903400Y-112207200D01*
X165903400Y-110957200D02*
X165903400Y-112207200D01*
%TO.C,C9*%
X163050000Y-92000000D02*
X164300000Y-92000000D01*
X164300000Y-92000000D02*
X164300000Y-90000000D01*
X163050000Y-90000000D02*
X163050000Y-92000000D01*
X164300000Y-90000000D02*
X163050000Y-90000000D01*
%TO.C,C10*%
X176514000Y-109865000D02*
X174514000Y-109865000D01*
X174514000Y-111115000D02*
X176514000Y-111115000D01*
X176514000Y-111115000D02*
X176514000Y-109865000D01*
X174514000Y-109865000D02*
X174514000Y-111115000D01*
%TO.C,J5*%
X172502648Y-113724926D02*
X172735074Y-114592352D01*
X175654852Y-113345148D02*
X173455148Y-112075148D01*
X173455148Y-112075148D02*
X172502648Y-113724926D01*
X172735074Y-114592352D02*
X174384852Y-115544852D01*
X174384852Y-115544852D02*
X175654852Y-113345148D01*
%TO.C,C11*%
X174300000Y-90000000D02*
X173050000Y-90000000D01*
X173050000Y-90000000D02*
X173050000Y-92000000D01*
X173050000Y-92000000D02*
X174300000Y-92000000D01*
X174300000Y-92000000D02*
X174300000Y-90000000D01*
%TO.C,R7*%
X146050000Y-113700000D02*
X147300000Y-113700000D01*
X147300000Y-113700000D02*
X147300000Y-111700000D01*
X146050000Y-111700000D02*
X146050000Y-113700000D01*
X147300000Y-111700000D02*
X146050000Y-111700000D01*
%TO.C,Q2*%
X152050000Y-101500000D02*
X153025000Y-101500000D01*
X153025000Y-101500000D02*
X153025000Y-98600000D01*
X151725000Y-101175000D02*
X152050000Y-101500000D01*
X153025000Y-98600000D02*
X151725000Y-98600000D01*
X151725000Y-98600000D02*
X151725000Y-101175000D01*
%TO.C,J6*%
X130142778Y-81675294D02*
X128683464Y-80450783D01*
X128683464Y-80450783D02*
X127050783Y-82396536D01*
X127050783Y-82396536D02*
X128996536Y-84029217D01*
X130221047Y-82569902D02*
X130142778Y-81675294D01*
X128996536Y-84029217D02*
X130221047Y-82569902D01*
%TO.C,C17*%
X161060000Y-103725000D02*
X161060000Y-104975000D01*
X163060000Y-103725000D02*
X161060000Y-103725000D01*
X163060000Y-104975000D02*
X163060000Y-103725000D01*
X161060000Y-104975000D02*
X163060000Y-104975000D01*
%TO.C,J8*%
X124345148Y-86654852D02*
X126544852Y-87924852D01*
X127264926Y-85407648D02*
X125615148Y-84455148D01*
X125615148Y-84455148D02*
X124345148Y-86654852D01*
X127497352Y-86275074D02*
X127264926Y-85407648D01*
X126544852Y-87924852D02*
X127497352Y-86275074D01*
%TO.C,FID3*%
X133000000Y-78600000D02*
G75*
G03*
X133000000Y-78600000I-500000J0D01*
G01*
%TO.C,C25*%
X149265800Y-104867200D02*
X148015800Y-104867200D01*
X148015800Y-106867200D02*
X149265800Y-106867200D01*
X148015800Y-104867200D02*
X148015800Y-106867200D01*
X149265800Y-106867200D02*
X149265800Y-104867200D01*
%TO.C,J2*%
X175654852Y-86654852D02*
X174384852Y-84455148D01*
X174005074Y-87607352D02*
X175654852Y-86654852D01*
X174384852Y-84455148D02*
X172185148Y-85725148D01*
X172185148Y-85725148D02*
X173137648Y-87374926D01*
X173137648Y-87374926D02*
X174005074Y-87607352D01*
%TO.C,C2*%
X141800000Y-107250000D02*
X141800000Y-109250000D01*
X143050000Y-107250000D02*
X141800000Y-107250000D01*
X141800000Y-109250000D02*
X143050000Y-109250000D01*
X143050000Y-109250000D02*
X143050000Y-107250000D01*
%TO.C,J13*%
X128275294Y-119062778D02*
X129169902Y-119141047D01*
X128996536Y-115970783D02*
X127050783Y-117603464D01*
X129169902Y-119141047D02*
X130629217Y-117916536D01*
X130629217Y-117916536D02*
X128996536Y-115970783D01*
X127050783Y-117603464D02*
X128275294Y-119062778D01*
%TO.C,R1*%
X155175000Y-79816800D02*
X155175000Y-81066800D01*
X155175000Y-81066800D02*
X157175000Y-81066800D01*
X157175000Y-79816800D02*
X155175000Y-79816800D01*
X157175000Y-81066800D02*
X157175000Y-79816800D01*
%TO.C,C12*%
X126300000Y-92000000D02*
X126300000Y-90000000D01*
X125050000Y-90000000D02*
X125050000Y-92000000D01*
X125050000Y-92000000D02*
X126300000Y-92000000D01*
X126300000Y-90000000D02*
X125050000Y-90000000D01*
D15*
%TO.C,U2*%
X156600000Y-132760000D02*
X156600000Y-127360000D01*
X143400000Y-132760000D02*
X156600000Y-132760000D01*
X143400000Y-127360000D02*
X156600000Y-127360000D01*
X143400000Y-116160000D02*
X143400000Y-127360000D01*
X156600000Y-127360000D02*
X156600000Y-116160000D01*
X143400000Y-127360000D02*
X143400000Y-132760000D01*
X156600000Y-116160000D02*
X143400000Y-116160000D01*
D16*
X142850000Y-125760000D02*
G75*
G03*
X142850000Y-125760000I-100000J0D01*
G01*
D14*
%TO.C,J10*%
X126165074Y-115227352D02*
X127814852Y-114274852D01*
X126544852Y-112075148D02*
X124345148Y-113345148D01*
X127814852Y-114274852D02*
X126544852Y-112075148D01*
X124345148Y-113345148D02*
X125297648Y-114994926D01*
X125297648Y-114994926D02*
X126165074Y-115227352D01*
%TO.C,X1*%
X125791400Y-95402600D02*
X125791400Y-104597400D01*
X125791400Y-104597400D02*
X116596600Y-104597400D01*
X116596600Y-95402600D02*
X125791400Y-95402600D01*
X116596600Y-104597400D02*
X116596600Y-95402600D01*
X121270200Y-104343400D02*
G75*
G03*
X121270200Y-104343400I-76200J0D01*
G01*
%TO.C,R4*%
X156500000Y-113700000D02*
X156500000Y-111700000D01*
X155250000Y-111700000D02*
X155250000Y-113700000D01*
X155250000Y-113700000D02*
X156500000Y-113700000D01*
X156500000Y-111700000D02*
X155250000Y-111700000D01*
%TO.C,C23*%
X141107000Y-123460000D02*
X141107000Y-125460000D01*
X142357000Y-123460000D02*
X141107000Y-123460000D01*
X142357000Y-125460000D02*
X142357000Y-123460000D01*
X141107000Y-125460000D02*
X142357000Y-125460000D01*
%TO.C,R10*%
X158410400Y-120507600D02*
X158410400Y-121757600D01*
X160410400Y-121757600D02*
X160410400Y-120507600D01*
X158410400Y-121757600D02*
X160410400Y-121757600D01*
X160410400Y-120507600D02*
X158410400Y-120507600D01*
%TO.C,MOSFET1*%
X144314000Y-77971700D02*
X144314000Y-78314600D01*
X144314000Y-78314600D02*
X143806000Y-78314600D01*
X145706000Y-77971700D02*
X146214000Y-77971700D01*
X145706000Y-78314600D02*
X145706000Y-77971700D01*
X146214000Y-77971700D02*
X146214000Y-78314600D01*
X143562200Y-77971700D02*
X143562200Y-76168300D01*
X144756000Y-75825400D02*
X145264000Y-75825400D01*
X145264000Y-76168300D02*
X144756000Y-76168300D01*
X146457800Y-76168300D02*
X146457800Y-77971700D01*
X143806000Y-78314600D02*
X143806000Y-77971700D01*
X143806000Y-77971700D02*
X144314000Y-77971700D01*
X146457800Y-77971700D02*
X143562200Y-77971700D01*
X143562200Y-76168300D02*
X146457800Y-76168300D01*
X146214000Y-78314600D02*
X145706000Y-78314600D01*
X145264000Y-75825400D02*
X145264000Y-76168300D01*
X144756000Y-76168300D02*
X144756000Y-75825400D01*
X146330800Y-77717700D02*
G75*
G03*
X146330800Y-77717700I-127000J0D01*
G01*
%TO.C,U1*%
X152349500Y-77315900D02*
X151778000Y-77315900D01*
X154000500Y-75934100D02*
X154572000Y-75934100D01*
X154572000Y-75934100D02*
X154572000Y-76365900D01*
X152349500Y-77834100D02*
X152349500Y-78265900D01*
X151778000Y-76884100D02*
X152349500Y-76884100D01*
X151778000Y-78265900D02*
X151778000Y-77834100D01*
X151778000Y-76365900D02*
X151778000Y-75934100D01*
X151778000Y-75934100D02*
X152349500Y-75934100D01*
X154000500Y-76365900D02*
X154000500Y-75934100D01*
X151778000Y-77834100D02*
X152349500Y-77834100D01*
X152349500Y-75934100D02*
X152349500Y-76365900D01*
X154572000Y-78265900D02*
X154000500Y-78265900D01*
X154572000Y-77834100D02*
X154572000Y-78265900D01*
X152349500Y-78547800D02*
X152349500Y-75652200D01*
X154572000Y-76365900D02*
X154000500Y-76365900D01*
X152349500Y-78265900D02*
X151778000Y-78265900D01*
X152349500Y-76365900D02*
X151778000Y-76365900D01*
X154000500Y-78265900D02*
X154000500Y-77834100D01*
X152349500Y-76884100D02*
X152349500Y-77315900D01*
X154000500Y-77834100D02*
X154572000Y-77834100D01*
X154000500Y-78547800D02*
X152349500Y-78547800D01*
X152349500Y-75652200D02*
X154000500Y-75652200D01*
X151778000Y-77315900D02*
X151778000Y-76884100D01*
X154000500Y-75652200D02*
X154000500Y-78547800D01*
X153182742Y-79958826D02*
G75*
G03*
X153167258Y-77136774I-7742J1411026D01*
G01*
%TO.C,R9*%
X140198000Y-119364000D02*
X140198000Y-117364000D01*
X138948000Y-117364000D02*
X138948000Y-119364000D01*
X140198000Y-117364000D02*
X138948000Y-117364000D01*
X138948000Y-119364000D02*
X140198000Y-119364000D01*
D15*
%TO.C,S1*%
X160600000Y-97900000D02*
X160600000Y-102100000D01*
X160600000Y-102100000D02*
X163400000Y-102100000D01*
X163400000Y-102100000D02*
X163400000Y-97900000D01*
X163400000Y-97900000D02*
X160600000Y-97900000D01*
D14*
%TO.C,C20*%
X156175000Y-103725000D02*
X154175000Y-103725000D01*
X154175000Y-103725000D02*
X154175000Y-104975000D01*
X154175000Y-104975000D02*
X156175000Y-104975000D01*
X156175000Y-104975000D02*
X156175000Y-103725000D01*
%TO.C,C14*%
X156250000Y-78200000D02*
X157500000Y-78200000D01*
X157500000Y-76200000D02*
X156250000Y-76200000D01*
X156250000Y-76200000D02*
X156250000Y-78200000D01*
X157500000Y-78200000D02*
X157500000Y-76200000D01*
%TO.C,BT1*%
X180275000Y-93250000D02*
X174675000Y-93250000D01*
X180275000Y-93450000D02*
X181625000Y-94600000D01*
X177975000Y-92350000D02*
X179975000Y-92350000D01*
X180275000Y-106750000D02*
X174675000Y-106750000D01*
X179975000Y-92350000D02*
X179975000Y-93250000D01*
X176875000Y-92350000D02*
X176875000Y-93250000D01*
X172875000Y-105050000D02*
X173025000Y-104900000D01*
X176875000Y-107650000D02*
X174875000Y-107650000D01*
X174525000Y-93300000D02*
X172875000Y-94950000D01*
X176875000Y-106750000D02*
X176875000Y-107650000D01*
X180275000Y-106550000D02*
X174675000Y-106550000D01*
X174675000Y-106550000D02*
X174675000Y-106750000D01*
X174875000Y-107650000D02*
X174875000Y-106750000D01*
X177975000Y-93250000D02*
X177975000Y-92350000D01*
X174875000Y-92350000D02*
X174875000Y-93250000D01*
X179975000Y-106750000D02*
X179975000Y-107650000D01*
X180275000Y-93250000D02*
X180275000Y-93450000D01*
X180275000Y-93450000D02*
X174675000Y-93450000D01*
X180275000Y-106750000D02*
X180275000Y-106550000D01*
X174675000Y-93450000D02*
X173025000Y-95100000D01*
X174875000Y-92350000D02*
X176875000Y-92350000D01*
X177975000Y-107650000D02*
X177975000Y-106750000D01*
X174525000Y-106700000D02*
X172875000Y-105050000D01*
X180275000Y-106550000D02*
X181625000Y-105400000D01*
X174675000Y-106550000D02*
X173025000Y-104900000D01*
X174675000Y-106550000D02*
X174525000Y-106700000D01*
X179975000Y-107650000D02*
X177975000Y-107650000D01*
X174675000Y-93250000D02*
X174675000Y-93450000D01*
X173025000Y-104900000D02*
X173025000Y-95100000D01*
X172875000Y-94950000D02*
X173025000Y-95100000D01*
X174675000Y-93450000D02*
X174525000Y-93300000D01*
X181625000Y-105400000D02*
G75*
G03*
X181625000Y-101800000I-1800001J1800000D01*
G01*
X181625000Y-98200000D02*
G75*
G03*
X181625000Y-101800000I1800001J-1800000D01*
G01*
X181625000Y-98200000D02*
G75*
G03*
X181625000Y-94600000I-1800001J1800000D01*
G01*
X183675000Y-100000000D02*
G75*
G03*
X183675000Y-100000000I-6250000J0D01*
G01*
%TO.C,C3*%
X143550000Y-90000000D02*
X142300000Y-90000000D01*
X143550000Y-92000000D02*
X143550000Y-90000000D01*
X142300000Y-90000000D02*
X142300000Y-92000000D01*
X142300000Y-92000000D02*
X143550000Y-92000000D01*
%TO.C,C24*%
X140325000Y-125460000D02*
X140325000Y-123460000D01*
X140325000Y-123460000D02*
X139075000Y-123460000D01*
X139075000Y-123460000D02*
X139075000Y-125460000D01*
X139075000Y-125460000D02*
X140325000Y-125460000D01*
%TO.C,R6*%
X147375000Y-96725000D02*
X147375000Y-97975000D01*
X147375000Y-97975000D02*
X149375000Y-97975000D01*
X149375000Y-96725000D02*
X147375000Y-96725000D01*
X149375000Y-97975000D02*
X149375000Y-96725000D01*
%TO.C,C5*%
X157800000Y-109500000D02*
X157800000Y-107500000D01*
X156550000Y-107500000D02*
X156550000Y-109500000D01*
X157800000Y-107500000D02*
X156550000Y-107500000D01*
X156550000Y-109500000D02*
X157800000Y-109500000D01*
%TO.C,R3*%
X148500000Y-111375000D02*
X148500000Y-112625000D01*
X150500000Y-112625000D02*
X150500000Y-111375000D01*
X148500000Y-112625000D02*
X150500000Y-112625000D01*
X150500000Y-111375000D02*
X148500000Y-111375000D01*
%TO.C,C13*%
X139550000Y-75500000D02*
X138300000Y-75500000D01*
X139550000Y-77500000D02*
X139550000Y-75500000D01*
X138300000Y-77500000D02*
X139550000Y-77500000D01*
X138300000Y-75500000D02*
X138300000Y-77500000D01*
%TO.C,C22*%
X142357000Y-117364000D02*
X141107000Y-117364000D01*
X141107000Y-117364000D02*
X141107000Y-119364000D01*
X142357000Y-119364000D02*
X142357000Y-117364000D01*
X141107000Y-119364000D02*
X142357000Y-119364000D01*
%TO.C,C8*%
X169535000Y-109710000D02*
X169535000Y-107710000D01*
X169535000Y-107710000D02*
X168285000Y-107710000D01*
X168285000Y-109710000D02*
X169535000Y-109710000D01*
X168285000Y-107710000D02*
X168285000Y-109710000D01*
%TO.C,C21*%
X169975000Y-103925000D02*
X167975000Y-103925000D01*
X167975000Y-105175000D02*
X169975000Y-105175000D01*
X169975000Y-105175000D02*
X169975000Y-103925000D01*
X167975000Y-103925000D02*
X167975000Y-105175000D01*
%TO.C,C15*%
X164300000Y-76000000D02*
X164300000Y-78000000D01*
X164300000Y-78000000D02*
X165550000Y-78000000D01*
X165550000Y-78000000D02*
X165550000Y-76000000D01*
X165550000Y-76000000D02*
X164300000Y-76000000D01*
%TO.C,R11*%
X141716000Y-121960800D02*
X141716000Y-120710800D01*
X139716000Y-121960800D02*
X141716000Y-121960800D01*
X139716000Y-120710800D02*
X139716000Y-121960800D01*
X141716000Y-120710800D02*
X139716000Y-120710800D01*
%TO.C,C7*%
X149250000Y-78200000D02*
X150500000Y-78200000D01*
X150500000Y-76200000D02*
X149250000Y-76200000D01*
X149250000Y-76200000D02*
X149250000Y-78200000D01*
X150500000Y-78200000D02*
X150500000Y-76200000D01*
%TO.C,C4*%
X133300000Y-109500000D02*
X133300000Y-107500000D01*
X132050000Y-107500000D02*
X132050000Y-109500000D01*
X132050000Y-109500000D02*
X133300000Y-109500000D01*
X133300000Y-107500000D02*
X132050000Y-107500000D01*
%TO.C,C1*%
X121550000Y-109500000D02*
X122800000Y-109500000D01*
X121550000Y-107500000D02*
X121550000Y-109500000D01*
X122800000Y-107500000D02*
X121550000Y-107500000D01*
X122800000Y-109500000D02*
X122800000Y-107500000D01*
%TO.C,D13*%
X147666200Y-79841800D02*
X149666200Y-79841800D01*
X147966200Y-81041800D02*
X147666200Y-80741800D01*
X149666200Y-79841800D02*
X149666200Y-81041800D01*
X149666200Y-81041800D02*
X147966200Y-81041800D01*
X147666200Y-80741800D02*
X147666200Y-79841800D01*
D15*
%TO.C,S2*%
X136600000Y-102100000D02*
X139400000Y-102100000D01*
X136600000Y-97900000D02*
X136600000Y-102100000D01*
X139400000Y-102100000D02*
X139400000Y-97900000D01*
X139400000Y-97900000D02*
X136600000Y-97900000D01*
D14*
%TO.C,C18*%
X137176000Y-105781000D02*
X139176000Y-105781000D01*
X137176000Y-104531000D02*
X137176000Y-105781000D01*
X139176000Y-105781000D02*
X139176000Y-104531000D01*
X139176000Y-104531000D02*
X137176000Y-104531000D01*
%TO.C,FID4*%
X168100000Y-78700000D02*
G75*
G03*
X168100000Y-78700000I-500000J0D01*
G01*
%TO.C,J4*%
X171003464Y-115970783D02*
X169778953Y-117430098D01*
X171316536Y-119549217D02*
X172949217Y-117603464D01*
X172949217Y-117603464D02*
X171003464Y-115970783D01*
X169857222Y-118324706D02*
X171316536Y-119549217D01*
X169778953Y-117430098D02*
X169857222Y-118324706D01*
%TO.C,C16*%
X133050000Y-90000000D02*
X131800000Y-90000000D01*
X131800000Y-92000000D02*
X133050000Y-92000000D01*
X131800000Y-90000000D02*
X131800000Y-92000000D01*
X133050000Y-92000000D02*
X133050000Y-90000000D01*
%TO.C,C19*%
X150675000Y-104975000D02*
X152675000Y-104975000D01*
X152675000Y-104975000D02*
X152675000Y-103725000D01*
X150675000Y-103725000D02*
X150675000Y-104975000D01*
X152675000Y-103725000D02*
X150675000Y-103725000D01*
%TO.C,R2*%
X152162500Y-111375000D02*
X152162500Y-112625000D01*
X154162500Y-112625000D02*
X154162500Y-111375000D01*
X154162500Y-111375000D02*
X152162500Y-111375000D01*
X152162500Y-112625000D02*
X154162500Y-112625000D01*
%TO.C,R5*%
X151175000Y-97975000D02*
X153175000Y-97975000D01*
X153175000Y-97975000D02*
X153175000Y-96725000D01*
X151175000Y-96725000D02*
X151175000Y-97975000D01*
X153175000Y-96725000D02*
X151175000Y-96725000D01*
%TO.C,Q1*%
X148825000Y-98600000D02*
X147525000Y-98600000D01*
X147525000Y-98600000D02*
X147525000Y-101175000D01*
X147850000Y-101500000D02*
X148825000Y-101500000D01*
X148825000Y-101500000D02*
X148825000Y-98600000D01*
X147525000Y-101175000D02*
X147850000Y-101500000D01*
%TO.C,J3*%
X169370783Y-82083464D02*
X170595294Y-83542778D01*
X170595294Y-83542778D02*
X171489902Y-83621047D01*
X171489902Y-83621047D02*
X172949217Y-82396536D01*
X172949217Y-82396536D02*
X171316536Y-80450783D01*
X171316536Y-80450783D02*
X169370783Y-82083464D01*
%TO.C,U3*%
X152621200Y-107653800D02*
X152621200Y-110346200D01*
X149928800Y-107653800D02*
X152621200Y-107653800D01*
X149928800Y-110346200D02*
X149928800Y-107653800D01*
X152621200Y-110346200D02*
X149928800Y-110346200D01*
X150970200Y-107653800D02*
G75*
G03*
X151579800Y-107653800I304800J0D01*
G01*
X152291000Y-107999748D02*
G75*
G03*
X152291000Y-107999748I-76200J0D01*
G01*
%TO.C,C6*%
X154050000Y-92000000D02*
X154050000Y-90000000D01*
X152800000Y-92000000D02*
X154050000Y-92000000D01*
X154050000Y-90000000D02*
X152800000Y-90000000D01*
X152800000Y-90000000D02*
X152800000Y-92000000D01*
%TD*%
M02*
