%TF.GenerationSoftware,KiCad,Pcbnew,(6.0.7-1)-1*%
%TF.CreationDate,2022-12-12T20:47:58-08:00*%
%TF.ProjectId,ChristmasCountdown2022,43687269-7374-46d6-9173-436f756e7464,rev?*%
%TF.SameCoordinates,Original*%
%TF.FileFunction,Soldermask,Bot*%
%TF.FilePolarity,Negative*%
%FSLAX46Y46*%
G04 Gerber Fmt 4.6, Leading zero omitted, Abs format (unit mm)*
G04 Created by KiCad (PCBNEW (6.0.7-1)-1) date 2022-12-12 20:47:58*
%MOMM*%
%LPD*%
G01*
G04 APERTURE LIST*
G04 Aperture macros list*
%AMRoundRect*
0 Rectangle with rounded corners*
0 $1 Rounding radius*
0 $2 $3 $4 $5 $6 $7 $8 $9 X,Y pos of 4 corners*
0 Add a 4 corners polygon primitive as box body*
4,1,4,$2,$3,$4,$5,$6,$7,$8,$9,$2,$3,0*
0 Add four circle primitives for the rounded corners*
1,1,$1+$1,$2,$3*
1,1,$1+$1,$4,$5*
1,1,$1+$1,$6,$7*
1,1,$1+$1,$8,$9*
0 Add four rect primitives between the rounded corners*
20,1,$1+$1,$2,$3,$4,$5,0*
20,1,$1+$1,$4,$5,$6,$7,0*
20,1,$1+$1,$6,$7,$8,$9,0*
20,1,$1+$1,$8,$9,$2,$3,0*%
%AMRotRect*
0 Rectangle, with rotation*
0 The origin of the aperture is its center*
0 $1 length*
0 $2 width*
0 $3 Rotation angle, in degrees counterclockwise*
0 Add horizontal line*
21,1,$1,$2,0,0,$3*%
%AMFreePoly0*
4,1,22,0.500000,-0.750000,0.000000,-0.750000,0.000000,-0.745033,-0.079941,-0.743568,-0.215256,-0.701293,-0.333266,-0.622738,-0.424486,-0.514219,-0.481581,-0.384460,-0.499164,-0.250000,-0.500000,-0.250000,-0.500000,0.250000,-0.499164,0.250000,-0.499963,0.256109,-0.478152,0.396186,-0.417904,0.524511,-0.324060,0.630769,-0.204165,0.706417,-0.067858,0.745374,0.000000,0.744959,0.000000,0.750000,
0.500000,0.750000,0.500000,-0.750000,0.500000,-0.750000,$1*%
%AMFreePoly1*
4,1,20,0.000000,0.744959,0.073905,0.744508,0.209726,0.703889,0.328688,0.626782,0.421226,0.519385,0.479903,0.390333,0.500000,0.250000,0.500000,-0.250000,0.499851,-0.262216,0.476331,-0.402017,0.414519,-0.529596,0.319384,-0.634700,0.198574,-0.708877,0.061801,-0.746166,0.000000,-0.745033,0.000000,-0.750000,-0.500000,-0.750000,-0.500000,0.750000,0.000000,0.750000,0.000000,0.744959,
0.000000,0.744959,$1*%
G04 Aperture macros list end*
%ADD10C,0.010000*%
%ADD11C,3.000000*%
%ADD12O,1.524000X2.240000*%
%ADD13RoundRect,0.250000X0.262500X0.450000X-0.262500X0.450000X-0.262500X-0.450000X0.262500X-0.450000X0*%
%ADD14RoundRect,0.250000X0.475000X-0.250000X0.475000X0.250000X-0.475000X0.250000X-0.475000X-0.250000X0*%
%ADD15RoundRect,0.250000X0.250000X0.475000X-0.250000X0.475000X-0.250000X-0.475000X0.250000X-0.475000X0*%
%ADD16RotRect,1.700000X1.700000X240.000000*%
%ADD17RoundRect,0.250000X-0.450000X0.262500X-0.450000X-0.262500X0.450000X-0.262500X0.450000X0.262500X0*%
%ADD18RoundRect,0.150000X-0.587500X-0.150000X0.587500X-0.150000X0.587500X0.150000X-0.587500X0.150000X0*%
%ADD19RotRect,1.700000X1.700000X50.000000*%
%ADD20RoundRect,0.250000X-0.250000X-0.475000X0.250000X-0.475000X0.250000X0.475000X-0.250000X0.475000X0*%
%ADD21RotRect,1.700000X1.700000X60.000000*%
%ADD22C,1.000000*%
%ADD23RotRect,1.700000X1.700000X300.000000*%
%ADD24FreePoly0,180.000000*%
%ADD25FreePoly1,180.000000*%
%ADD26RoundRect,0.250000X-0.475000X0.250000X-0.475000X-0.250000X0.475000X-0.250000X0.475000X0.250000X0*%
%ADD27RotRect,1.700000X1.700000X310.000000*%
%ADD28R,0.800000X0.400000*%
%ADD29R,0.400000X0.800000*%
%ADD30R,1.450000X1.450000*%
%ADD31R,0.700000X0.700000*%
%ADD32FreePoly1,270.000000*%
%ADD33FreePoly0,270.000000*%
%ADD34R,3.403600X1.843799*%
%ADD35C,2.000000*%
%ADD36R,0.508000X0.504800*%
%ADD37R,0.921499X0.431800*%
%ADD38R,0.800000X1.500000*%
%ADD39R,1.000000X0.900000*%
%ADD40RoundRect,0.250000X-0.262500X-0.450000X0.262500X-0.450000X0.262500X0.450000X-0.262500X0.450000X0*%
%ADD41R,5.100000X2.500000*%
%ADD42C,10.200000*%
%ADD43FreePoly0,90.000000*%
%ADD44FreePoly1,90.000000*%
%ADD45RoundRect,0.243750X-0.243750X-0.456250X0.243750X-0.456250X0.243750X0.456250X-0.243750X0.456250X0*%
%ADD46RotRect,1.700000X1.700000X230.000000*%
%ADD47R,0.711200X0.254000*%
%ADD48R,1.295400X2.200000*%
G04 APERTURE END LIST*
%TO.C,U2*%
G36*
X148850000Y-124560000D02*
G01*
X147860000Y-124560000D01*
X147200000Y-123900000D01*
X147200000Y-122910000D01*
X148850000Y-122910000D01*
X148850000Y-124560000D01*
G37*
D10*
X148850000Y-124560000D02*
X147860000Y-124560000D01*
X147200000Y-123900000D01*
X147200000Y-122910000D01*
X148850000Y-122910000D01*
X148850000Y-124560000D01*
%TD*%
D11*
%TO.C,U4*%
X150000000Y-67000000D03*
%TD*%
D12*
%TO.C,J1*%
X148730000Y-72378010D03*
X151270000Y-72378010D03*
%TD*%
D13*
%TO.C,R8*%
X167815900Y-111582200D03*
X165990900Y-111582200D03*
%TD*%
D14*
%TO.C,C9*%
X163675000Y-91950000D03*
X163675000Y-90050000D03*
%TD*%
D15*
%TO.C,C10*%
X176464000Y-110490000D03*
X174564000Y-110490000D03*
%TD*%
D16*
%TO.C,J5*%
X173920000Y-113810000D03*
%TD*%
D14*
%TO.C,C11*%
X173675000Y-91950000D03*
X173675000Y-90050000D03*
%TD*%
D17*
%TO.C,R7*%
X146675000Y-111787500D03*
X146675000Y-113612500D03*
%TD*%
D18*
%TO.C,Q2*%
X151437500Y-101000000D03*
X151437500Y-99100000D03*
X153312500Y-100050000D03*
%TD*%
D19*
%TO.C,J6*%
X128840000Y-82240000D03*
%TD*%
D20*
%TO.C,C17*%
X161110000Y-104350000D03*
X163010000Y-104350000D03*
%TD*%
D21*
%TO.C,J8*%
X126080000Y-86190000D03*
%TD*%
D22*
%TO.C,FID3*%
X132500000Y-78600000D03*
%TD*%
D14*
%TO.C,C25*%
X148640800Y-106817200D03*
X148640800Y-104917200D03*
%TD*%
D23*
%TO.C,J2*%
X173920000Y-86190000D03*
%TD*%
D24*
%TO.C,JP3*%
X153075400Y-80441800D03*
D25*
X151775400Y-80441800D03*
%TD*%
D26*
%TO.C,C2*%
X142425000Y-107300000D03*
X142425000Y-109200000D03*
%TD*%
D27*
%TO.C,J13*%
X128840000Y-117760000D03*
%TD*%
D13*
%TO.C,R1*%
X157087500Y-80441800D03*
X155262500Y-80441800D03*
%TD*%
D14*
%TO.C,C12*%
X125675000Y-91950000D03*
X125675000Y-90050000D03*
%TD*%
D28*
%TO.C,U2*%
X144100000Y-125760000D03*
X144100000Y-124960000D03*
X144100000Y-124160000D03*
X144100000Y-123360000D03*
X144100000Y-122560000D03*
X144100000Y-121760000D03*
X144100000Y-120960000D03*
X144100000Y-120160000D03*
X144100000Y-119360000D03*
X144100000Y-118560000D03*
X144100000Y-117760000D03*
D29*
X145200000Y-116860000D03*
X146000000Y-116860000D03*
X146800000Y-116860000D03*
X147600000Y-116860000D03*
X148400000Y-116860000D03*
X149200000Y-116860000D03*
X150000000Y-116860000D03*
X150800000Y-116860000D03*
X151600000Y-116860000D03*
X152400000Y-116860000D03*
X153200000Y-116860000D03*
X154000000Y-116860000D03*
X154800000Y-116860000D03*
D28*
X155900000Y-117760000D03*
X155900000Y-118560000D03*
X155900000Y-119360000D03*
X155900000Y-120160000D03*
X155900000Y-120960000D03*
X155900000Y-121760000D03*
X155900000Y-122560000D03*
X155900000Y-123360000D03*
X155900000Y-124160000D03*
X155900000Y-124960000D03*
X155900000Y-125760000D03*
D29*
X154800000Y-126660000D03*
X154000000Y-126660000D03*
X153200000Y-126660000D03*
X152400000Y-126660000D03*
X151600000Y-126660000D03*
X150800000Y-126660000D03*
X150000000Y-126660000D03*
X149200000Y-126660000D03*
X148400000Y-126660000D03*
X147600000Y-126660000D03*
X146800000Y-126660000D03*
X146000000Y-126660000D03*
X145200000Y-126660000D03*
D30*
X150000000Y-123735000D03*
X151975000Y-123735000D03*
X151975000Y-121760000D03*
X151975000Y-119785000D03*
X150000000Y-119785000D03*
X148025000Y-119785000D03*
X148025000Y-121760000D03*
X150000000Y-121760000D03*
D31*
X155950000Y-126710000D03*
X155950000Y-116810000D03*
X144050000Y-116810000D03*
X144050000Y-126710000D03*
%TD*%
D23*
%TO.C,J10*%
X126080000Y-113810000D03*
%TD*%
D32*
%TO.C,JP2*%
X139573000Y-109997000D03*
D33*
X139573000Y-108697000D03*
%TD*%
D34*
%TO.C,X1*%
X121194000Y-103825499D03*
X121194000Y-96174501D03*
%TD*%
D17*
%TO.C,R4*%
X155875000Y-111787500D03*
X155875000Y-113612500D03*
%TD*%
D14*
%TO.C,C23*%
X141732000Y-125410000D03*
X141732000Y-123510000D03*
%TD*%
D35*
%TO.C,J9*%
X161798000Y-115062000D03*
%TD*%
D13*
%TO.C,R10*%
X160322900Y-121132600D03*
X158497900Y-121132600D03*
%TD*%
D36*
%TO.C,MOSFET1*%
X145960001Y-78262200D03*
X144059999Y-78262200D03*
X145010000Y-75877800D03*
%TD*%
D37*
%TO.C,U1*%
X151888749Y-78050001D03*
X151888749Y-77100000D03*
X151888749Y-76149999D03*
X154461251Y-76149999D03*
X154461251Y-78050001D03*
%TD*%
D35*
%TO.C,J14*%
X159258000Y-117602000D03*
%TD*%
D38*
%TO.C,Y1*%
X151970000Y-106430000D03*
X150470000Y-106430000D03*
%TD*%
D17*
%TO.C,R9*%
X139573000Y-117451500D03*
X139573000Y-119276500D03*
%TD*%
D35*
%TO.C,J12*%
X144018000Y-112522000D03*
%TD*%
D39*
%TO.C,S1*%
X161200000Y-97950000D03*
X161200000Y-102050000D03*
X162800000Y-97950000D03*
X162800000Y-102050000D03*
%TD*%
D40*
%TO.C,C20*%
X154262500Y-104350000D03*
X156087500Y-104350000D03*
%TD*%
D26*
%TO.C,C14*%
X156875000Y-76250000D03*
X156875000Y-78150000D03*
%TD*%
D41*
%TO.C,BT1*%
X177425000Y-107600000D03*
X177425000Y-92400000D03*
D42*
X177425000Y-100000000D03*
%TD*%
D14*
%TO.C,C3*%
X142925000Y-91950000D03*
X142925000Y-90050000D03*
%TD*%
D35*
%TO.C,IO0*%
X136398000Y-117602000D03*
%TD*%
D14*
%TO.C,C24*%
X139700000Y-125410000D03*
X139700000Y-123510000D03*
%TD*%
D13*
%TO.C,R6*%
X149287500Y-97350000D03*
X147462500Y-97350000D03*
%TD*%
D35*
%TO.C,IO5*%
X138938000Y-112522000D03*
%TD*%
D26*
%TO.C,C5*%
X157175000Y-107550000D03*
X157175000Y-109450000D03*
%TD*%
D40*
%TO.C,R3*%
X148587500Y-112000000D03*
X150412500Y-112000000D03*
%TD*%
D14*
%TO.C,C13*%
X138925000Y-77450000D03*
X138925000Y-75550000D03*
%TD*%
%TO.C,C22*%
X141732000Y-119314000D03*
X141732000Y-117414000D03*
%TD*%
D26*
%TO.C,C8*%
X168910000Y-107760000D03*
X168910000Y-109660000D03*
%TD*%
D20*
%TO.C,C21*%
X168025000Y-104550000D03*
X169925000Y-104550000D03*
%TD*%
D35*
%TO.C,J7*%
X164338000Y-117602000D03*
%TD*%
D43*
%TO.C,JP1*%
X161848800Y-110911400D03*
D44*
X161848800Y-109611400D03*
%TD*%
D14*
%TO.C,C15*%
X164925000Y-77950000D03*
X164925000Y-76050000D03*
%TD*%
D40*
%TO.C,R11*%
X139803500Y-121335800D03*
X141628500Y-121335800D03*
%TD*%
D14*
%TO.C,C7*%
X149875000Y-78150000D03*
X149875000Y-76250000D03*
%TD*%
D26*
%TO.C,C4*%
X132675000Y-107550000D03*
X132675000Y-109450000D03*
%TD*%
%TO.C,C1*%
X122175000Y-107550000D03*
X122175000Y-109450000D03*
%TD*%
D45*
%TO.C,D13*%
X147728700Y-80441800D03*
X149603700Y-80441800D03*
%TD*%
D39*
%TO.C,S2*%
X137200000Y-97950000D03*
X137200000Y-102050000D03*
X138800000Y-97950000D03*
X138800000Y-102050000D03*
%TD*%
D35*
%TO.C,IO4*%
X133858000Y-112522000D03*
%TD*%
D20*
%TO.C,C18*%
X137226000Y-105156000D03*
X139126000Y-105156000D03*
%TD*%
D22*
%TO.C,FID4*%
X167600000Y-78700000D03*
%TD*%
D46*
%TO.C,J4*%
X171160000Y-117760000D03*
%TD*%
D14*
%TO.C,C16*%
X132425000Y-91950000D03*
X132425000Y-90050000D03*
%TD*%
D13*
%TO.C,C19*%
X152587500Y-104350000D03*
X150762500Y-104350000D03*
%TD*%
%TO.C,R2*%
X154075000Y-112000000D03*
X152250000Y-112000000D03*
%TD*%
%TO.C,R5*%
X153087500Y-97350000D03*
X151262500Y-97350000D03*
%TD*%
D18*
%TO.C,Q1*%
X147237500Y-101000000D03*
X147237500Y-99100000D03*
X149112500Y-100050000D03*
%TD*%
D27*
%TO.C,J3*%
X171160000Y-82240000D03*
%TD*%
D35*
%TO.C,J11*%
X159258000Y-112522000D03*
%TD*%
D47*
%TO.C,U3*%
X152570400Y-107999748D03*
X152570400Y-108499874D03*
X152570400Y-109000000D03*
X152570400Y-109500126D03*
X152570400Y-110000252D03*
X149979600Y-110000252D03*
X149979600Y-109500126D03*
X149979600Y-109000000D03*
X149979600Y-108499874D03*
X149979600Y-107999748D03*
D48*
X151275000Y-109000000D03*
%TD*%
D14*
%TO.C,C6*%
X153425000Y-91950000D03*
X153425000Y-90050000D03*
%TD*%
M02*
