%TF.GenerationSoftware,KiCad,Pcbnew,(6.0.7-1)-1*%
%TF.CreationDate,2022-12-12T20:47:58-08:00*%
%TF.ProjectId,ChristmasCountdown2022,43687269-7374-46d6-9173-436f756e7464,rev?*%
%TF.SameCoordinates,Original*%
%TF.FileFunction,Soldermask,Top*%
%TF.FilePolarity,Negative*%
%FSLAX46Y46*%
G04 Gerber Fmt 4.6, Leading zero omitted, Abs format (unit mm)*
G04 Created by KiCad (PCBNEW (6.0.7-1)-1) date 2022-12-12 20:47:58*
%MOMM*%
%LPD*%
G01*
G04 APERTURE LIST*
G04 Aperture macros list*
%AMRotRect*
0 Rectangle, with rotation*
0 The origin of the aperture is its center*
0 $1 length*
0 $2 width*
0 $3 Rotation angle, in degrees counterclockwise*
0 Add horizontal line*
21,1,$1,$2,0,0,$3*%
G04 Aperture macros list end*
%ADD10C,0.010000*%
%ADD11R,1.600000X0.850000*%
%ADD12C,1.000000*%
%ADD13R,3.200000X1.000000*%
%ADD14RotRect,1.600000X0.850000X332.000000*%
%ADD15C,3.000000*%
%ADD16O,1.524000X2.240000*%
%ADD17RotRect,1.600000X0.850000X28.000000*%
%ADD18RotRect,1.700000X1.700000X240.000000*%
%ADD19RotRect,1.700000X1.700000X50.000000*%
%ADD20RotRect,1.700000X1.700000X60.000000*%
%ADD21RotRect,1.700000X1.700000X300.000000*%
%ADD22RotRect,1.700000X1.700000X310.000000*%
%ADD23RotRect,1.700000X1.700000X230.000000*%
G04 APERTURE END LIST*
%TO.C,U5*%
G36*
X144785998Y-115817872D02*
G01*
X144798619Y-115833849D01*
X144807876Y-115860735D01*
X144815010Y-115884831D01*
X144837387Y-115958029D01*
X144864605Y-116048088D01*
X144893275Y-116143687D01*
X144920003Y-116233500D01*
X144941400Y-116306206D01*
X144946990Y-116325475D01*
X144958944Y-116360290D01*
X144975650Y-116387151D01*
X145003647Y-116412006D01*
X145049472Y-116440803D01*
X145111293Y-116474972D01*
X145176258Y-116510099D01*
X145222060Y-116530716D01*
X145255330Y-116534178D01*
X145282697Y-116517845D01*
X145310793Y-116479073D01*
X145346249Y-116415220D01*
X145369301Y-116372146D01*
X145412778Y-116291737D01*
X145460402Y-116204340D01*
X145502783Y-116127179D01*
X145507779Y-116118146D01*
X145541598Y-116056589D01*
X145571014Y-116002199D01*
X145590451Y-115965302D01*
X145592362Y-115961512D01*
X145612299Y-115932526D01*
X145626955Y-115923412D01*
X145648072Y-115930987D01*
X145691000Y-115951203D01*
X145747917Y-115980300D01*
X145772403Y-115993343D01*
X145841805Y-116030619D01*
X145908934Y-116066484D01*
X145961421Y-116094334D01*
X145969945Y-116098819D01*
X146011932Y-116120958D01*
X146039292Y-116135583D01*
X146043963Y-116138184D01*
X146039519Y-116153582D01*
X146021824Y-116190269D01*
X145994796Y-116240142D01*
X145948974Y-116321336D01*
X145914009Y-116383678D01*
X145884050Y-116437771D01*
X145853243Y-116494218D01*
X145815735Y-116563624D01*
X145794917Y-116602268D01*
X145759310Y-116669951D01*
X145730690Y-116727310D01*
X145712408Y-116767437D01*
X145707479Y-116782477D01*
X145721436Y-116795009D01*
X145759277Y-116819965D01*
X145814952Y-116853924D01*
X145882413Y-116893466D01*
X145955610Y-116935171D01*
X146028496Y-116975617D01*
X146095020Y-117011385D01*
X146149134Y-117039054D01*
X146184790Y-117055205D01*
X146194634Y-117057946D01*
X146208381Y-117044040D01*
X146232128Y-117007460D01*
X146260907Y-116955909D01*
X146262892Y-116952113D01*
X146296434Y-116888670D01*
X146339251Y-116809093D01*
X146384098Y-116726810D01*
X146402235Y-116693879D01*
X146442527Y-116620484D01*
X146480854Y-116549756D01*
X146511481Y-116492321D01*
X146522670Y-116470824D01*
X146545055Y-116432459D01*
X146567633Y-116413563D01*
X146597418Y-116414110D01*
X146641425Y-116434077D01*
X146701489Y-116470194D01*
X146748481Y-116497986D01*
X146812657Y-116533892D01*
X146881020Y-116570660D01*
X146888579Y-116574624D01*
X146945344Y-116606252D01*
X146988199Y-116633844D01*
X147009987Y-116652661D01*
X147011345Y-116655909D01*
X147002809Y-116679812D01*
X146977382Y-116732393D01*
X146935335Y-116813132D01*
X146876939Y-116921511D01*
X146802465Y-117057012D01*
X146787870Y-117083346D01*
X146739827Y-117170167D01*
X146706458Y-117232117D01*
X146686056Y-117273966D01*
X146676912Y-117300486D01*
X146677320Y-117316444D01*
X146685570Y-117326612D01*
X146697927Y-117334537D01*
X146758307Y-117369805D01*
X146831665Y-117411154D01*
X146912255Y-117455522D01*
X146994331Y-117499846D01*
X147072146Y-117541064D01*
X147139956Y-117576114D01*
X147192014Y-117601934D01*
X147222573Y-117615462D01*
X147227480Y-117616746D01*
X147242808Y-117602975D01*
X147265717Y-117567991D01*
X147278293Y-117544779D01*
X147301060Y-117501327D01*
X147335502Y-117437135D01*
X147376835Y-117361061D01*
X147417745Y-117286546D01*
X147461197Y-117207374D01*
X147502265Y-117131739D01*
X147536162Y-117068502D01*
X147557227Y-117028252D01*
X147575822Y-116993546D01*
X147593262Y-116973116D01*
X147615723Y-116967350D01*
X147649383Y-116976637D01*
X147700416Y-117001365D01*
X147775001Y-117041923D01*
X147775053Y-117041951D01*
X147832820Y-117072900D01*
X147879166Y-117096237D01*
X147906207Y-117108040D01*
X147909345Y-117108746D01*
X147926897Y-117119243D01*
X147925294Y-117151772D01*
X147904100Y-117207887D01*
X147862881Y-117289142D01*
X147854701Y-117304035D01*
X147772306Y-117453852D01*
X147706464Y-117575946D01*
X147656461Y-117671729D01*
X147621587Y-117742615D01*
X147601131Y-117790016D01*
X147594380Y-117815346D01*
X147595183Y-117819360D01*
X147614011Y-117834203D01*
X147655529Y-117859671D01*
X147712150Y-117891219D01*
X147737458Y-117904591D01*
X147869519Y-117973297D01*
X147896273Y-118078655D01*
X147916351Y-118156432D01*
X147938528Y-118240459D01*
X147950391Y-118284525D01*
X147963724Y-118340904D01*
X147970586Y-118385322D01*
X147970064Y-118405077D01*
X147951797Y-118417761D01*
X147908569Y-118437131D01*
X147847988Y-118460587D01*
X147777663Y-118485525D01*
X147705200Y-118509344D01*
X147638207Y-118529442D01*
X147584292Y-118543218D01*
X147551936Y-118548079D01*
X147520530Y-118540252D01*
X147469338Y-118519437D01*
X147407869Y-118489632D01*
X147388600Y-118479403D01*
X147323972Y-118445100D01*
X147281266Y-118428050D01*
X147252462Y-118429685D01*
X147229539Y-118451437D01*
X147204477Y-118494738D01*
X147194325Y-118514084D01*
X147177795Y-118545066D01*
X147149074Y-118598341D01*
X147112181Y-118666469D01*
X147071138Y-118742010D01*
X147070612Y-118742978D01*
X147028096Y-118821235D01*
X146988272Y-118894780D01*
X146955709Y-118955157D01*
X146935528Y-118992873D01*
X146905293Y-119039392D01*
X146878379Y-119055038D01*
X146850842Y-119042017D01*
X146849632Y-119040893D01*
X146828206Y-119026538D01*
X146784543Y-119001022D01*
X146726436Y-118968835D01*
X146698078Y-118953597D01*
X146637753Y-118921341D01*
X146589921Y-118895493D01*
X146561610Y-118879865D01*
X146557018Y-118877112D01*
X146561521Y-118861345D01*
X146578997Y-118825227D01*
X146597691Y-118790841D01*
X146666214Y-118668088D01*
X146728769Y-118553206D01*
X146783533Y-118449768D01*
X146828682Y-118361345D01*
X146862392Y-118291510D01*
X146882840Y-118243833D01*
X146888203Y-118221887D01*
X146888178Y-118221819D01*
X146869498Y-118202102D01*
X146831000Y-118175383D01*
X146806045Y-118160993D01*
X146753237Y-118132614D01*
X146684988Y-118096062D01*
X146615751Y-118059076D01*
X146613412Y-118057829D01*
X146546461Y-118021553D01*
X146482074Y-117985711D01*
X146433535Y-117957703D01*
X146431236Y-117956325D01*
X146387244Y-117934674D01*
X146352525Y-117925881D01*
X146344576Y-117926865D01*
X146335197Y-117933970D01*
X146321533Y-117951217D01*
X146301945Y-117981466D01*
X146274797Y-118027574D01*
X146238450Y-118092398D01*
X146191268Y-118178797D01*
X146131612Y-118289628D01*
X146061469Y-118420949D01*
X146028532Y-118479086D01*
X145998464Y-118525790D01*
X145976858Y-118552506D01*
X145974012Y-118554719D01*
X145950226Y-118555854D01*
X145905499Y-118540628D01*
X145837157Y-118507982D01*
X145781998Y-118478661D01*
X145709359Y-118439235D01*
X145643280Y-118403700D01*
X145592077Y-118376511D01*
X145567779Y-118363943D01*
X145535027Y-118343374D01*
X145521214Y-118326384D01*
X145521212Y-118326256D01*
X145528655Y-118306368D01*
X145547927Y-118265711D01*
X145574440Y-118213141D01*
X145603610Y-118157512D01*
X145630849Y-118107678D01*
X145651570Y-118072493D01*
X145656288Y-118065479D01*
X145679272Y-118028976D01*
X145709582Y-117974357D01*
X145743794Y-117908643D01*
X145778480Y-117838854D01*
X145810214Y-117772011D01*
X145835571Y-117715133D01*
X145851123Y-117675241D01*
X145854139Y-117660080D01*
X145836539Y-117643572D01*
X145795307Y-117615694D01*
X145736921Y-117580580D01*
X145679222Y-117548444D01*
X145605364Y-117508568D01*
X145536867Y-117471396D01*
X145482681Y-117441797D01*
X145457197Y-117427707D01*
X145415209Y-117407182D01*
X145383736Y-117396891D01*
X145380398Y-117396613D01*
X145362695Y-117410664D01*
X145336283Y-117447598D01*
X145306723Y-117499582D01*
X145305257Y-117502446D01*
X145255112Y-117599039D01*
X145200903Y-117700302D01*
X145147299Y-117797765D01*
X145098965Y-117882957D01*
X145060568Y-117947407D01*
X145056701Y-117953582D01*
X145011704Y-118024861D01*
X144822311Y-117924270D01*
X144749041Y-117884175D01*
X144686494Y-117847734D01*
X144640966Y-117818774D01*
X144618755Y-117801117D01*
X144618155Y-117800276D01*
X144619459Y-117778171D01*
X144636747Y-117731704D01*
X144670561Y-117659695D01*
X144721442Y-117560963D01*
X144765969Y-117478138D01*
X144815581Y-117385880D01*
X144859071Y-117302910D01*
X144893976Y-117234102D01*
X144917832Y-117184330D01*
X144928176Y-117158467D01*
X144928413Y-117156774D01*
X144914576Y-117132969D01*
X144890313Y-117116404D01*
X144856105Y-117099422D01*
X144803774Y-117072365D01*
X144748073Y-117042910D01*
X144643801Y-116987158D01*
X144502540Y-117030664D01*
X144393791Y-117063881D01*
X144292399Y-117094339D01*
X144203347Y-117120586D01*
X144131620Y-117141170D01*
X144082201Y-117154640D01*
X144060074Y-117159545D01*
X144059983Y-117159546D01*
X144050615Y-117145211D01*
X144029213Y-117105842D01*
X143998492Y-117046886D01*
X143961169Y-116973794D01*
X143919960Y-116892016D01*
X143877582Y-116807002D01*
X143836750Y-116724202D01*
X143800181Y-116649064D01*
X143770592Y-116587040D01*
X143750698Y-116543578D01*
X143743216Y-116524129D01*
X143743212Y-116524000D01*
X143736219Y-116508203D01*
X143716897Y-116467167D01*
X143687734Y-116406109D01*
X143651215Y-116330244D01*
X143625387Y-116276856D01*
X143586232Y-116193700D01*
X143554233Y-116121131D01*
X143531608Y-116064569D01*
X143520576Y-116029435D01*
X143520574Y-116020744D01*
X143541437Y-116013310D01*
X143588959Y-116002441D01*
X143656279Y-115989547D01*
X143736535Y-115976036D01*
X143744232Y-115974827D01*
X143836491Y-115960282D01*
X143927405Y-115945722D01*
X144005877Y-115932936D01*
X144056479Y-115924461D01*
X144119637Y-115913959D01*
X144202307Y-115900690D01*
X144290505Y-115886887D01*
X144327412Y-115881227D01*
X144410761Y-115868260D01*
X144491955Y-115855152D01*
X144558370Y-115843959D01*
X144581412Y-115839848D01*
X144667720Y-115823791D01*
X144726571Y-115814002D01*
X144763990Y-115811643D01*
X144785998Y-115817872D01*
G37*
D10*
X144785998Y-115817872D02*
X144798619Y-115833849D01*
X144807876Y-115860735D01*
X144815010Y-115884831D01*
X144837387Y-115958029D01*
X144864605Y-116048088D01*
X144893275Y-116143687D01*
X144920003Y-116233500D01*
X144941400Y-116306206D01*
X144946990Y-116325475D01*
X144958944Y-116360290D01*
X144975650Y-116387151D01*
X145003647Y-116412006D01*
X145049472Y-116440803D01*
X145111293Y-116474972D01*
X145176258Y-116510099D01*
X145222060Y-116530716D01*
X145255330Y-116534178D01*
X145282697Y-116517845D01*
X145310793Y-116479073D01*
X145346249Y-116415220D01*
X145369301Y-116372146D01*
X145412778Y-116291737D01*
X145460402Y-116204340D01*
X145502783Y-116127179D01*
X145507779Y-116118146D01*
X145541598Y-116056589D01*
X145571014Y-116002199D01*
X145590451Y-115965302D01*
X145592362Y-115961512D01*
X145612299Y-115932526D01*
X145626955Y-115923412D01*
X145648072Y-115930987D01*
X145691000Y-115951203D01*
X145747917Y-115980300D01*
X145772403Y-115993343D01*
X145841805Y-116030619D01*
X145908934Y-116066484D01*
X145961421Y-116094334D01*
X145969945Y-116098819D01*
X146011932Y-116120958D01*
X146039292Y-116135583D01*
X146043963Y-116138184D01*
X146039519Y-116153582D01*
X146021824Y-116190269D01*
X145994796Y-116240142D01*
X145948974Y-116321336D01*
X145914009Y-116383678D01*
X145884050Y-116437771D01*
X145853243Y-116494218D01*
X145815735Y-116563624D01*
X145794917Y-116602268D01*
X145759310Y-116669951D01*
X145730690Y-116727310D01*
X145712408Y-116767437D01*
X145707479Y-116782477D01*
X145721436Y-116795009D01*
X145759277Y-116819965D01*
X145814952Y-116853924D01*
X145882413Y-116893466D01*
X145955610Y-116935171D01*
X146028496Y-116975617D01*
X146095020Y-117011385D01*
X146149134Y-117039054D01*
X146184790Y-117055205D01*
X146194634Y-117057946D01*
X146208381Y-117044040D01*
X146232128Y-117007460D01*
X146260907Y-116955909D01*
X146262892Y-116952113D01*
X146296434Y-116888670D01*
X146339251Y-116809093D01*
X146384098Y-116726810D01*
X146402235Y-116693879D01*
X146442527Y-116620484D01*
X146480854Y-116549756D01*
X146511481Y-116492321D01*
X146522670Y-116470824D01*
X146545055Y-116432459D01*
X146567633Y-116413563D01*
X146597418Y-116414110D01*
X146641425Y-116434077D01*
X146701489Y-116470194D01*
X146748481Y-116497986D01*
X146812657Y-116533892D01*
X146881020Y-116570660D01*
X146888579Y-116574624D01*
X146945344Y-116606252D01*
X146988199Y-116633844D01*
X147009987Y-116652661D01*
X147011345Y-116655909D01*
X147002809Y-116679812D01*
X146977382Y-116732393D01*
X146935335Y-116813132D01*
X146876939Y-116921511D01*
X146802465Y-117057012D01*
X146787870Y-117083346D01*
X146739827Y-117170167D01*
X146706458Y-117232117D01*
X146686056Y-117273966D01*
X146676912Y-117300486D01*
X146677320Y-117316444D01*
X146685570Y-117326612D01*
X146697927Y-117334537D01*
X146758307Y-117369805D01*
X146831665Y-117411154D01*
X146912255Y-117455522D01*
X146994331Y-117499846D01*
X147072146Y-117541064D01*
X147139956Y-117576114D01*
X147192014Y-117601934D01*
X147222573Y-117615462D01*
X147227480Y-117616746D01*
X147242808Y-117602975D01*
X147265717Y-117567991D01*
X147278293Y-117544779D01*
X147301060Y-117501327D01*
X147335502Y-117437135D01*
X147376835Y-117361061D01*
X147417745Y-117286546D01*
X147461197Y-117207374D01*
X147502265Y-117131739D01*
X147536162Y-117068502D01*
X147557227Y-117028252D01*
X147575822Y-116993546D01*
X147593262Y-116973116D01*
X147615723Y-116967350D01*
X147649383Y-116976637D01*
X147700416Y-117001365D01*
X147775001Y-117041923D01*
X147775053Y-117041951D01*
X147832820Y-117072900D01*
X147879166Y-117096237D01*
X147906207Y-117108040D01*
X147909345Y-117108746D01*
X147926897Y-117119243D01*
X147925294Y-117151772D01*
X147904100Y-117207887D01*
X147862881Y-117289142D01*
X147854701Y-117304035D01*
X147772306Y-117453852D01*
X147706464Y-117575946D01*
X147656461Y-117671729D01*
X147621587Y-117742615D01*
X147601131Y-117790016D01*
X147594380Y-117815346D01*
X147595183Y-117819360D01*
X147614011Y-117834203D01*
X147655529Y-117859671D01*
X147712150Y-117891219D01*
X147737458Y-117904591D01*
X147869519Y-117973297D01*
X147896273Y-118078655D01*
X147916351Y-118156432D01*
X147938528Y-118240459D01*
X147950391Y-118284525D01*
X147963724Y-118340904D01*
X147970586Y-118385322D01*
X147970064Y-118405077D01*
X147951797Y-118417761D01*
X147908569Y-118437131D01*
X147847988Y-118460587D01*
X147777663Y-118485525D01*
X147705200Y-118509344D01*
X147638207Y-118529442D01*
X147584292Y-118543218D01*
X147551936Y-118548079D01*
X147520530Y-118540252D01*
X147469338Y-118519437D01*
X147407869Y-118489632D01*
X147388600Y-118479403D01*
X147323972Y-118445100D01*
X147281266Y-118428050D01*
X147252462Y-118429685D01*
X147229539Y-118451437D01*
X147204477Y-118494738D01*
X147194325Y-118514084D01*
X147177795Y-118545066D01*
X147149074Y-118598341D01*
X147112181Y-118666469D01*
X147071138Y-118742010D01*
X147070612Y-118742978D01*
X147028096Y-118821235D01*
X146988272Y-118894780D01*
X146955709Y-118955157D01*
X146935528Y-118992873D01*
X146905293Y-119039392D01*
X146878379Y-119055038D01*
X146850842Y-119042017D01*
X146849632Y-119040893D01*
X146828206Y-119026538D01*
X146784543Y-119001022D01*
X146726436Y-118968835D01*
X146698078Y-118953597D01*
X146637753Y-118921341D01*
X146589921Y-118895493D01*
X146561610Y-118879865D01*
X146557018Y-118877112D01*
X146561521Y-118861345D01*
X146578997Y-118825227D01*
X146597691Y-118790841D01*
X146666214Y-118668088D01*
X146728769Y-118553206D01*
X146783533Y-118449768D01*
X146828682Y-118361345D01*
X146862392Y-118291510D01*
X146882840Y-118243833D01*
X146888203Y-118221887D01*
X146888178Y-118221819D01*
X146869498Y-118202102D01*
X146831000Y-118175383D01*
X146806045Y-118160993D01*
X146753237Y-118132614D01*
X146684988Y-118096062D01*
X146615751Y-118059076D01*
X146613412Y-118057829D01*
X146546461Y-118021553D01*
X146482074Y-117985711D01*
X146433535Y-117957703D01*
X146431236Y-117956325D01*
X146387244Y-117934674D01*
X146352525Y-117925881D01*
X146344576Y-117926865D01*
X146335197Y-117933970D01*
X146321533Y-117951217D01*
X146301945Y-117981466D01*
X146274797Y-118027574D01*
X146238450Y-118092398D01*
X146191268Y-118178797D01*
X146131612Y-118289628D01*
X146061469Y-118420949D01*
X146028532Y-118479086D01*
X145998464Y-118525790D01*
X145976858Y-118552506D01*
X145974012Y-118554719D01*
X145950226Y-118555854D01*
X145905499Y-118540628D01*
X145837157Y-118507982D01*
X145781998Y-118478661D01*
X145709359Y-118439235D01*
X145643280Y-118403700D01*
X145592077Y-118376511D01*
X145567779Y-118363943D01*
X145535027Y-118343374D01*
X145521214Y-118326384D01*
X145521212Y-118326256D01*
X145528655Y-118306368D01*
X145547927Y-118265711D01*
X145574440Y-118213141D01*
X145603610Y-118157512D01*
X145630849Y-118107678D01*
X145651570Y-118072493D01*
X145656288Y-118065479D01*
X145679272Y-118028976D01*
X145709582Y-117974357D01*
X145743794Y-117908643D01*
X145778480Y-117838854D01*
X145810214Y-117772011D01*
X145835571Y-117715133D01*
X145851123Y-117675241D01*
X145854139Y-117660080D01*
X145836539Y-117643572D01*
X145795307Y-117615694D01*
X145736921Y-117580580D01*
X145679222Y-117548444D01*
X145605364Y-117508568D01*
X145536867Y-117471396D01*
X145482681Y-117441797D01*
X145457197Y-117427707D01*
X145415209Y-117407182D01*
X145383736Y-117396891D01*
X145380398Y-117396613D01*
X145362695Y-117410664D01*
X145336283Y-117447598D01*
X145306723Y-117499582D01*
X145305257Y-117502446D01*
X145255112Y-117599039D01*
X145200903Y-117700302D01*
X145147299Y-117797765D01*
X145098965Y-117882957D01*
X145060568Y-117947407D01*
X145056701Y-117953582D01*
X145011704Y-118024861D01*
X144822311Y-117924270D01*
X144749041Y-117884175D01*
X144686494Y-117847734D01*
X144640966Y-117818774D01*
X144618755Y-117801117D01*
X144618155Y-117800276D01*
X144619459Y-117778171D01*
X144636747Y-117731704D01*
X144670561Y-117659695D01*
X144721442Y-117560963D01*
X144765969Y-117478138D01*
X144815581Y-117385880D01*
X144859071Y-117302910D01*
X144893976Y-117234102D01*
X144917832Y-117184330D01*
X144928176Y-117158467D01*
X144928413Y-117156774D01*
X144914576Y-117132969D01*
X144890313Y-117116404D01*
X144856105Y-117099422D01*
X144803774Y-117072365D01*
X144748073Y-117042910D01*
X144643801Y-116987158D01*
X144502540Y-117030664D01*
X144393791Y-117063881D01*
X144292399Y-117094339D01*
X144203347Y-117120586D01*
X144131620Y-117141170D01*
X144082201Y-117154640D01*
X144060074Y-117159545D01*
X144059983Y-117159546D01*
X144050615Y-117145211D01*
X144029213Y-117105842D01*
X143998492Y-117046886D01*
X143961169Y-116973794D01*
X143919960Y-116892016D01*
X143877582Y-116807002D01*
X143836750Y-116724202D01*
X143800181Y-116649064D01*
X143770592Y-116587040D01*
X143750698Y-116543578D01*
X143743216Y-116524129D01*
X143743212Y-116524000D01*
X143736219Y-116508203D01*
X143716897Y-116467167D01*
X143687734Y-116406109D01*
X143651215Y-116330244D01*
X143625387Y-116276856D01*
X143586232Y-116193700D01*
X143554233Y-116121131D01*
X143531608Y-116064569D01*
X143520576Y-116029435D01*
X143520574Y-116020744D01*
X143541437Y-116013310D01*
X143588959Y-116002441D01*
X143656279Y-115989547D01*
X143736535Y-115976036D01*
X143744232Y-115974827D01*
X143836491Y-115960282D01*
X143927405Y-115945722D01*
X144005877Y-115932936D01*
X144056479Y-115924461D01*
X144119637Y-115913959D01*
X144202307Y-115900690D01*
X144290505Y-115886887D01*
X144327412Y-115881227D01*
X144410761Y-115868260D01*
X144491955Y-115855152D01*
X144558370Y-115843959D01*
X144581412Y-115839848D01*
X144667720Y-115823791D01*
X144726571Y-115814002D01*
X144763990Y-115811643D01*
X144785998Y-115817872D01*
G36*
X150189413Y-121539176D02*
G01*
X150227216Y-121568033D01*
X150277074Y-121609469D01*
X150332809Y-121658035D01*
X150388242Y-121708284D01*
X150437195Y-121754766D01*
X150473491Y-121792034D01*
X150486653Y-121807746D01*
X150492160Y-121831264D01*
X150496480Y-121880059D01*
X150498982Y-121945545D01*
X150499353Y-121980717D01*
X150500227Y-122055372D01*
X150503502Y-122103359D01*
X150510606Y-122131865D01*
X150522966Y-122148075D01*
X150534018Y-122155168D01*
X150565320Y-122162092D01*
X150628691Y-122167099D01*
X150722384Y-122170119D01*
X150844650Y-122171080D01*
X150919251Y-122170741D01*
X151270079Y-122167900D01*
X151270079Y-122552813D01*
X150901693Y-122556099D01*
X150792838Y-122557524D01*
X150695183Y-122559664D01*
X150613888Y-122562337D01*
X150554116Y-122565359D01*
X150521027Y-122568545D01*
X150516460Y-122569798D01*
X150511261Y-122589069D01*
X150506906Y-122635496D01*
X150503467Y-122702376D01*
X150501016Y-122783009D01*
X150499626Y-122870691D01*
X150499368Y-122958722D01*
X150500317Y-123040399D01*
X150502543Y-123109019D01*
X150506119Y-123157882D01*
X150509890Y-123177961D01*
X150516960Y-123186828D01*
X150533222Y-123193530D01*
X150562816Y-123198358D01*
X150609885Y-123201602D01*
X150678571Y-123203555D01*
X150773016Y-123204505D01*
X150891331Y-123204746D01*
X151262494Y-123204746D01*
X151257820Y-123462979D01*
X151253145Y-123721213D01*
X150880612Y-123729679D01*
X150508078Y-123738146D01*
X150503217Y-123983679D01*
X150502097Y-124074429D01*
X150502350Y-124155548D01*
X150503860Y-124219804D01*
X150506514Y-124259965D01*
X150507689Y-124266976D01*
X150511650Y-124279479D01*
X150519417Y-124288928D01*
X150535346Y-124295824D01*
X150563789Y-124300665D01*
X150609101Y-124303951D01*
X150675634Y-124306182D01*
X150767744Y-124307857D01*
X150876617Y-124309310D01*
X151236212Y-124313879D01*
X151240923Y-124546713D01*
X151242310Y-124631446D01*
X151242857Y-124702895D01*
X151242564Y-124754829D01*
X151241431Y-124781019D01*
X151240923Y-124782928D01*
X151223378Y-124784336D01*
X151176948Y-124786371D01*
X151106605Y-124788864D01*
X151017319Y-124791641D01*
X150914065Y-124794533D01*
X150872145Y-124795628D01*
X150508078Y-124804946D01*
X150503194Y-124962785D01*
X150498309Y-125120624D01*
X150714860Y-125340644D01*
X150783594Y-125411549D01*
X150842856Y-125474736D01*
X150888964Y-125526106D01*
X150918235Y-125561562D01*
X150927096Y-125576752D01*
X150915800Y-125594580D01*
X150886909Y-125634670D01*
X150843705Y-125692621D01*
X150789474Y-125764030D01*
X150727500Y-125844496D01*
X150722591Y-125850826D01*
X150597173Y-126012617D01*
X150491216Y-126149671D01*
X150403265Y-126263886D01*
X150331865Y-126357160D01*
X150275559Y-126431392D01*
X150232893Y-126488480D01*
X150216371Y-126510979D01*
X150183105Y-126554084D01*
X150157017Y-126583275D01*
X150145903Y-126591412D01*
X150130203Y-126578923D01*
X150101601Y-126546535D01*
X150073697Y-126510979D01*
X150036600Y-126460671D01*
X149988164Y-126393808D01*
X149936470Y-126321580D01*
X149913584Y-126289298D01*
X149862481Y-126217250D01*
X149810326Y-126144209D01*
X149765510Y-126081913D01*
X149750109Y-126060698D01*
X149711157Y-126006896D01*
X149676079Y-125957789D01*
X149657321Y-125931012D01*
X149635611Y-125900316D01*
X149599269Y-125849860D01*
X149553729Y-125787161D01*
X149513590Y-125732233D01*
X149468147Y-125669274D01*
X149431223Y-125616317D01*
X149406841Y-125579256D01*
X149398945Y-125564303D01*
X149410306Y-125549203D01*
X149441896Y-125514143D01*
X149489979Y-125463093D01*
X149550818Y-125400022D01*
X149619778Y-125329803D01*
X149840611Y-125106785D01*
X149835678Y-124955866D01*
X149830745Y-124804946D01*
X149466678Y-124796479D01*
X149102612Y-124788013D01*
X149097914Y-124546713D01*
X149093215Y-124305413D01*
X149457424Y-124305413D01*
X149577236Y-124305336D01*
X149667507Y-124304813D01*
X149732562Y-124303402D01*
X149776726Y-124300662D01*
X149804324Y-124296152D01*
X149819683Y-124289430D01*
X149827127Y-124280057D01*
X149830982Y-124267590D01*
X149831050Y-124267313D01*
X149834108Y-124237137D01*
X149836056Y-124180353D01*
X149836778Y-124104206D01*
X149836159Y-124015941D01*
X149835606Y-123983679D01*
X149830745Y-123738146D01*
X149449745Y-123729679D01*
X149068745Y-123721213D01*
X149064073Y-123463298D01*
X149059400Y-123205384D01*
X149445073Y-123200832D01*
X149830745Y-123196279D01*
X149830745Y-122569746D01*
X149466678Y-122560428D01*
X149359450Y-122557538D01*
X149264334Y-122554697D01*
X149186293Y-122552076D01*
X149130290Y-122549847D01*
X149101288Y-122548179D01*
X149098379Y-122547728D01*
X149096690Y-122530513D01*
X149095318Y-122486352D01*
X149094414Y-122422165D01*
X149094125Y-122353846D01*
X149094106Y-122163346D01*
X149420669Y-122168550D01*
X149541044Y-122169486D01*
X149643259Y-122168308D01*
X149722981Y-122165159D01*
X149775876Y-122160182D01*
X149793222Y-122156269D01*
X149814652Y-122146878D01*
X149828112Y-122133765D01*
X149835455Y-122109830D01*
X149838535Y-122067973D01*
X149839204Y-122001093D01*
X149839212Y-121980030D01*
X149839212Y-121821275D01*
X149991855Y-121674811D01*
X150052151Y-121618814D01*
X150105491Y-121572699D01*
X150146324Y-121541038D01*
X150169093Y-121528400D01*
X150169841Y-121528346D01*
X150189413Y-121539176D01*
G37*
X150189413Y-121539176D02*
X150227216Y-121568033D01*
X150277074Y-121609469D01*
X150332809Y-121658035D01*
X150388242Y-121708284D01*
X150437195Y-121754766D01*
X150473491Y-121792034D01*
X150486653Y-121807746D01*
X150492160Y-121831264D01*
X150496480Y-121880059D01*
X150498982Y-121945545D01*
X150499353Y-121980717D01*
X150500227Y-122055372D01*
X150503502Y-122103359D01*
X150510606Y-122131865D01*
X150522966Y-122148075D01*
X150534018Y-122155168D01*
X150565320Y-122162092D01*
X150628691Y-122167099D01*
X150722384Y-122170119D01*
X150844650Y-122171080D01*
X150919251Y-122170741D01*
X151270079Y-122167900D01*
X151270079Y-122552813D01*
X150901693Y-122556099D01*
X150792838Y-122557524D01*
X150695183Y-122559664D01*
X150613888Y-122562337D01*
X150554116Y-122565359D01*
X150521027Y-122568545D01*
X150516460Y-122569798D01*
X150511261Y-122589069D01*
X150506906Y-122635496D01*
X150503467Y-122702376D01*
X150501016Y-122783009D01*
X150499626Y-122870691D01*
X150499368Y-122958722D01*
X150500317Y-123040399D01*
X150502543Y-123109019D01*
X150506119Y-123157882D01*
X150509890Y-123177961D01*
X150516960Y-123186828D01*
X150533222Y-123193530D01*
X150562816Y-123198358D01*
X150609885Y-123201602D01*
X150678571Y-123203555D01*
X150773016Y-123204505D01*
X150891331Y-123204746D01*
X151262494Y-123204746D01*
X151257820Y-123462979D01*
X151253145Y-123721213D01*
X150880612Y-123729679D01*
X150508078Y-123738146D01*
X150503217Y-123983679D01*
X150502097Y-124074429D01*
X150502350Y-124155548D01*
X150503860Y-124219804D01*
X150506514Y-124259965D01*
X150507689Y-124266976D01*
X150511650Y-124279479D01*
X150519417Y-124288928D01*
X150535346Y-124295824D01*
X150563789Y-124300665D01*
X150609101Y-124303951D01*
X150675634Y-124306182D01*
X150767744Y-124307857D01*
X150876617Y-124309310D01*
X151236212Y-124313879D01*
X151240923Y-124546713D01*
X151242310Y-124631446D01*
X151242857Y-124702895D01*
X151242564Y-124754829D01*
X151241431Y-124781019D01*
X151240923Y-124782928D01*
X151223378Y-124784336D01*
X151176948Y-124786371D01*
X151106605Y-124788864D01*
X151017319Y-124791641D01*
X150914065Y-124794533D01*
X150872145Y-124795628D01*
X150508078Y-124804946D01*
X150503194Y-124962785D01*
X150498309Y-125120624D01*
X150714860Y-125340644D01*
X150783594Y-125411549D01*
X150842856Y-125474736D01*
X150888964Y-125526106D01*
X150918235Y-125561562D01*
X150927096Y-125576752D01*
X150915800Y-125594580D01*
X150886909Y-125634670D01*
X150843705Y-125692621D01*
X150789474Y-125764030D01*
X150727500Y-125844496D01*
X150722591Y-125850826D01*
X150597173Y-126012617D01*
X150491216Y-126149671D01*
X150403265Y-126263886D01*
X150331865Y-126357160D01*
X150275559Y-126431392D01*
X150232893Y-126488480D01*
X150216371Y-126510979D01*
X150183105Y-126554084D01*
X150157017Y-126583275D01*
X150145903Y-126591412D01*
X150130203Y-126578923D01*
X150101601Y-126546535D01*
X150073697Y-126510979D01*
X150036600Y-126460671D01*
X149988164Y-126393808D01*
X149936470Y-126321580D01*
X149913584Y-126289298D01*
X149862481Y-126217250D01*
X149810326Y-126144209D01*
X149765510Y-126081913D01*
X149750109Y-126060698D01*
X149711157Y-126006896D01*
X149676079Y-125957789D01*
X149657321Y-125931012D01*
X149635611Y-125900316D01*
X149599269Y-125849860D01*
X149553729Y-125787161D01*
X149513590Y-125732233D01*
X149468147Y-125669274D01*
X149431223Y-125616317D01*
X149406841Y-125579256D01*
X149398945Y-125564303D01*
X149410306Y-125549203D01*
X149441896Y-125514143D01*
X149489979Y-125463093D01*
X149550818Y-125400022D01*
X149619778Y-125329803D01*
X149840611Y-125106785D01*
X149835678Y-124955866D01*
X149830745Y-124804946D01*
X149466678Y-124796479D01*
X149102612Y-124788013D01*
X149097914Y-124546713D01*
X149093215Y-124305413D01*
X149457424Y-124305413D01*
X149577236Y-124305336D01*
X149667507Y-124304813D01*
X149732562Y-124303402D01*
X149776726Y-124300662D01*
X149804324Y-124296152D01*
X149819683Y-124289430D01*
X149827127Y-124280057D01*
X149830982Y-124267590D01*
X149831050Y-124267313D01*
X149834108Y-124237137D01*
X149836056Y-124180353D01*
X149836778Y-124104206D01*
X149836159Y-124015941D01*
X149835606Y-123983679D01*
X149830745Y-123738146D01*
X149449745Y-123729679D01*
X149068745Y-123721213D01*
X149064073Y-123463298D01*
X149059400Y-123205384D01*
X149445073Y-123200832D01*
X149830745Y-123196279D01*
X149830745Y-122569746D01*
X149466678Y-122560428D01*
X149359450Y-122557538D01*
X149264334Y-122554697D01*
X149186293Y-122552076D01*
X149130290Y-122549847D01*
X149101288Y-122548179D01*
X149098379Y-122547728D01*
X149096690Y-122530513D01*
X149095318Y-122486352D01*
X149094414Y-122422165D01*
X149094125Y-122353846D01*
X149094106Y-122163346D01*
X149420669Y-122168550D01*
X149541044Y-122169486D01*
X149643259Y-122168308D01*
X149722981Y-122165159D01*
X149775876Y-122160182D01*
X149793222Y-122156269D01*
X149814652Y-122146878D01*
X149828112Y-122133765D01*
X149835455Y-122109830D01*
X149838535Y-122067973D01*
X149839204Y-122001093D01*
X149839212Y-121980030D01*
X149839212Y-121821275D01*
X149991855Y-121674811D01*
X150052151Y-121618814D01*
X150105491Y-121572699D01*
X150146324Y-121541038D01*
X150169093Y-121528400D01*
X150169841Y-121528346D01*
X150189413Y-121539176D01*
G36*
X153414559Y-119910607D02*
G01*
X153453450Y-119931326D01*
X153506389Y-119960605D01*
X153565797Y-119994145D01*
X153624100Y-120027649D01*
X153673721Y-120056818D01*
X153707082Y-120077354D01*
X153715747Y-120083404D01*
X153716074Y-120097595D01*
X153702854Y-120130347D01*
X153674976Y-120183694D01*
X153631331Y-120259670D01*
X153570809Y-120360308D01*
X153515612Y-120450064D01*
X153465072Y-120532934D01*
X153421482Y-120606757D01*
X153387771Y-120666378D01*
X153366872Y-120706640D01*
X153361345Y-120721441D01*
X153375125Y-120737055D01*
X153413374Y-120766733D01*
X153471452Y-120807227D01*
X153544722Y-120855289D01*
X153618142Y-120901299D01*
X153718210Y-120961732D01*
X153793354Y-121004614D01*
X153846628Y-121031477D01*
X153881088Y-121043856D01*
X153899786Y-121043282D01*
X153900339Y-121042956D01*
X153916624Y-121023998D01*
X153947028Y-120980621D01*
X153988444Y-120917565D01*
X154037768Y-120839568D01*
X154091894Y-120751373D01*
X154098343Y-120740695D01*
X154152718Y-120651719D01*
X154202519Y-120572467D01*
X154244672Y-120507654D01*
X154276100Y-120461998D01*
X154293730Y-120440214D01*
X154294764Y-120439433D01*
X154316879Y-120439670D01*
X154360014Y-120456581D01*
X154426285Y-120491169D01*
X154517805Y-120544439D01*
X154525076Y-120548812D01*
X154599040Y-120594477D01*
X154661352Y-120635057D01*
X154706789Y-120666985D01*
X154730123Y-120686693D01*
X154732108Y-120690146D01*
X154723804Y-120709058D01*
X154700291Y-120752270D01*
X154664167Y-120815272D01*
X154618031Y-120893558D01*
X154564481Y-120982618D01*
X154546679Y-121011879D01*
X154491335Y-121103381D01*
X154442575Y-121185512D01*
X154403001Y-121253765D01*
X154375216Y-121303630D01*
X154361821Y-121330598D01*
X154360997Y-121333613D01*
X154374678Y-121346898D01*
X154411582Y-121373663D01*
X154465769Y-121410171D01*
X154531297Y-121452686D01*
X154602224Y-121497472D01*
X154672610Y-121540793D01*
X154736512Y-121578914D01*
X154787991Y-121608097D01*
X154821104Y-121624608D01*
X154826989Y-121626639D01*
X154843128Y-121614870D01*
X154872346Y-121579015D01*
X154910786Y-121524313D01*
X154954590Y-121456003D01*
X154964139Y-121440372D01*
X155008830Y-121366628D01*
X155048253Y-121301660D01*
X155078523Y-121251867D01*
X155095751Y-121223650D01*
X155097011Y-121221609D01*
X155115541Y-121190082D01*
X155141548Y-121144056D01*
X155150808Y-121127343D01*
X155177929Y-121079777D01*
X155201493Y-121049026D01*
X155227227Y-121035191D01*
X155260860Y-121038375D01*
X155308119Y-121058680D01*
X155374732Y-121096209D01*
X155435362Y-121132432D01*
X155506893Y-121176266D01*
X155566616Y-121214559D01*
X155609145Y-121243730D01*
X155629096Y-121260199D01*
X155629926Y-121261831D01*
X155621678Y-121280926D01*
X155599142Y-121321518D01*
X155566305Y-121376596D01*
X155545745Y-121409813D01*
X155509077Y-121469008D01*
X155480410Y-121516593D01*
X155463717Y-121545905D01*
X155461079Y-121551827D01*
X155452755Y-121568185D01*
X155430230Y-121607075D01*
X155397177Y-121662259D01*
X155366189Y-121713022D01*
X155328017Y-121778363D01*
X155298911Y-121834551D01*
X155282259Y-121874625D01*
X155280039Y-121890078D01*
X155298645Y-121910084D01*
X155338440Y-121939113D01*
X155391504Y-121972659D01*
X155449917Y-122006215D01*
X155505757Y-122035276D01*
X155551104Y-122055336D01*
X155578037Y-122061888D01*
X155580667Y-122061094D01*
X155605376Y-122052109D01*
X155658382Y-122037050D01*
X155734908Y-122017131D01*
X155830177Y-121993563D01*
X155939412Y-121967561D01*
X156041912Y-121943944D01*
X156076306Y-121935726D01*
X156103566Y-121930873D01*
X156126161Y-121932676D01*
X156146558Y-121944428D01*
X156167228Y-121969421D01*
X156190639Y-122010947D01*
X156219259Y-122072298D01*
X156255558Y-122156765D01*
X156302003Y-122267642D01*
X156323928Y-122320011D01*
X156367973Y-122424639D01*
X156410447Y-122524794D01*
X156448580Y-122614003D01*
X156479603Y-122685789D01*
X156500746Y-122733679D01*
X156502722Y-122738026D01*
X156525144Y-122788457D01*
X156540412Y-122825499D01*
X156544812Y-122839170D01*
X156551371Y-122857964D01*
X156568651Y-122898947D01*
X156593053Y-122953615D01*
X156595612Y-122959213D01*
X156620455Y-123014292D01*
X156638556Y-123056018D01*
X156646339Y-123076130D01*
X156646412Y-123076640D01*
X156630186Y-123083190D01*
X156584027Y-123092420D01*
X156511715Y-123103779D01*
X156417031Y-123116720D01*
X156303754Y-123130694D01*
X156175664Y-123145150D01*
X156172278Y-123145516D01*
X156073476Y-123156462D01*
X155976229Y-123167737D01*
X155890546Y-123178149D01*
X155826440Y-123186505D01*
X155816678Y-123187883D01*
X155737531Y-123198421D01*
X155652577Y-123208419D01*
X155605012Y-123213322D01*
X155534618Y-123220325D01*
X155465078Y-123227838D01*
X155431422Y-123231789D01*
X155385097Y-123235320D01*
X155360449Y-123227841D01*
X155345924Y-123204888D01*
X155343064Y-123197644D01*
X155331837Y-123161780D01*
X155316055Y-123103382D01*
X155298516Y-123032974D01*
X155292168Y-123006103D01*
X155262446Y-122881854D01*
X155237501Y-122785809D01*
X155215964Y-122712865D01*
X155204236Y-122678417D01*
X155177172Y-122642090D01*
X155119099Y-122595591D01*
X155051885Y-122552169D01*
X154987796Y-122514111D01*
X154946065Y-122492069D01*
X154920432Y-122483945D01*
X154904637Y-122487647D01*
X154893741Y-122499246D01*
X154878473Y-122522659D01*
X154848974Y-122570049D01*
X154808370Y-122636312D01*
X154759790Y-122716345D01*
X154706359Y-122805043D01*
X154705156Y-122807048D01*
X154652596Y-122893563D01*
X154605436Y-122969162D01*
X154566575Y-123029362D01*
X154538909Y-123069683D01*
X154525336Y-123085643D01*
X154524974Y-123085733D01*
X154504528Y-123077604D01*
X154462404Y-123055435D01*
X154405510Y-123023344D01*
X154340754Y-122985449D01*
X154275047Y-122945868D01*
X154215295Y-122908720D01*
X154168409Y-122878124D01*
X154141295Y-122858197D01*
X154138292Y-122855219D01*
X154132149Y-122848167D01*
X154128524Y-122840967D01*
X154129288Y-122830047D01*
X154136309Y-122811836D01*
X154151458Y-122782765D01*
X154176606Y-122739263D01*
X154213622Y-122677758D01*
X154264376Y-122594680D01*
X154330739Y-122486459D01*
X154335444Y-122478784D01*
X154396078Y-122377706D01*
X154438182Y-122302264D01*
X154462770Y-122250438D01*
X154470858Y-122220207D01*
X154469091Y-122212644D01*
X154449740Y-122196324D01*
X154406670Y-122166392D01*
X154345335Y-122126441D01*
X154271184Y-122080065D01*
X154229386Y-122054613D01*
X154005226Y-121919359D01*
X153978563Y-121956686D01*
X153961587Y-121982865D01*
X153930695Y-122032816D01*
X153889173Y-122101137D01*
X153840304Y-122182426D01*
X153791132Y-122264946D01*
X153739466Y-122351502D01*
X153693083Y-122428237D01*
X153654975Y-122490280D01*
X153628134Y-122532758D01*
X153615664Y-122550691D01*
X153597215Y-122547431D01*
X153556609Y-122529473D01*
X153500149Y-122500475D01*
X153434139Y-122464092D01*
X153364884Y-122423983D01*
X153298687Y-122383803D01*
X153241853Y-122347209D01*
X153200684Y-122317859D01*
X153181486Y-122299409D01*
X153181130Y-122298624D01*
X153181484Y-122284473D01*
X153190725Y-122258634D01*
X153210441Y-122218190D01*
X153242217Y-122160226D01*
X153287641Y-122081824D01*
X153348298Y-121980069D01*
X153409432Y-121878945D01*
X153453689Y-121804446D01*
X153490709Y-121739095D01*
X153517235Y-121688874D01*
X153530009Y-121659765D01*
X153530679Y-121656251D01*
X153517336Y-121633316D01*
X153484373Y-121605859D01*
X153475645Y-121600343D01*
X153440756Y-121579292D01*
X153384239Y-121545009D01*
X153313368Y-121501912D01*
X153235416Y-121454422D01*
X153220071Y-121445063D01*
X153145678Y-121401215D01*
X153080415Y-121365610D01*
X153030181Y-121341254D01*
X153000877Y-121331157D01*
X152997068Y-121331350D01*
X152981786Y-121347991D01*
X152952472Y-121389267D01*
X152912155Y-121450556D01*
X152863866Y-121527241D01*
X152810634Y-121614701D01*
X152804680Y-121624658D01*
X152750795Y-121714597D01*
X152701641Y-121796003D01*
X152660298Y-121863826D01*
X152629847Y-121913016D01*
X152613366Y-121938523D01*
X152612765Y-121939360D01*
X152601177Y-121951166D01*
X152585428Y-121954137D01*
X152559891Y-121946225D01*
X152518937Y-121925381D01*
X152456940Y-121889555D01*
X152426760Y-121871627D01*
X152262745Y-121773879D01*
X152314609Y-121680746D01*
X152341842Y-121633418D01*
X152382390Y-121564947D01*
X152431685Y-121482955D01*
X152485161Y-121395061D01*
X152511561Y-121352061D01*
X152566618Y-121263887D01*
X152605539Y-121199850D01*
X152627813Y-121154042D01*
X152632935Y-121120557D01*
X152620395Y-121093485D01*
X152589685Y-121066921D01*
X152540298Y-121034955D01*
X152481092Y-120997736D01*
X152422406Y-120957742D01*
X152386936Y-120926254D01*
X152367920Y-120896018D01*
X152360016Y-120867899D01*
X152350314Y-120820616D01*
X152336024Y-120755093D01*
X152321301Y-120690146D01*
X152306096Y-120624183D01*
X152292751Y-120565839D01*
X152284264Y-120528237D01*
X152281446Y-120501702D01*
X152292881Y-120485221D01*
X152325972Y-120472224D01*
X152356567Y-120464057D01*
X152416959Y-120448178D01*
X152472569Y-120432695D01*
X152489279Y-120427751D01*
X152534898Y-120414700D01*
X152596364Y-120398169D01*
X152634834Y-120388233D01*
X152729589Y-120364215D01*
X152863051Y-120445366D01*
X152922709Y-120480069D01*
X152971561Y-120505559D01*
X153002526Y-120518282D01*
X153009162Y-120518701D01*
X153021276Y-120502431D01*
X153047895Y-120461441D01*
X153086264Y-120400146D01*
X153133629Y-120322965D01*
X153187232Y-120234314D01*
X153203715Y-120206815D01*
X153258460Y-120116195D01*
X153307723Y-120036335D01*
X153348783Y-119971511D01*
X153378915Y-119926002D01*
X153395397Y-119904082D01*
X153397291Y-119902746D01*
X153414559Y-119910607D01*
G37*
X153414559Y-119910607D02*
X153453450Y-119931326D01*
X153506389Y-119960605D01*
X153565797Y-119994145D01*
X153624100Y-120027649D01*
X153673721Y-120056818D01*
X153707082Y-120077354D01*
X153715747Y-120083404D01*
X153716074Y-120097595D01*
X153702854Y-120130347D01*
X153674976Y-120183694D01*
X153631331Y-120259670D01*
X153570809Y-120360308D01*
X153515612Y-120450064D01*
X153465072Y-120532934D01*
X153421482Y-120606757D01*
X153387771Y-120666378D01*
X153366872Y-120706640D01*
X153361345Y-120721441D01*
X153375125Y-120737055D01*
X153413374Y-120766733D01*
X153471452Y-120807227D01*
X153544722Y-120855289D01*
X153618142Y-120901299D01*
X153718210Y-120961732D01*
X153793354Y-121004614D01*
X153846628Y-121031477D01*
X153881088Y-121043856D01*
X153899786Y-121043282D01*
X153900339Y-121042956D01*
X153916624Y-121023998D01*
X153947028Y-120980621D01*
X153988444Y-120917565D01*
X154037768Y-120839568D01*
X154091894Y-120751373D01*
X154098343Y-120740695D01*
X154152718Y-120651719D01*
X154202519Y-120572467D01*
X154244672Y-120507654D01*
X154276100Y-120461998D01*
X154293730Y-120440214D01*
X154294764Y-120439433D01*
X154316879Y-120439670D01*
X154360014Y-120456581D01*
X154426285Y-120491169D01*
X154517805Y-120544439D01*
X154525076Y-120548812D01*
X154599040Y-120594477D01*
X154661352Y-120635057D01*
X154706789Y-120666985D01*
X154730123Y-120686693D01*
X154732108Y-120690146D01*
X154723804Y-120709058D01*
X154700291Y-120752270D01*
X154664167Y-120815272D01*
X154618031Y-120893558D01*
X154564481Y-120982618D01*
X154546679Y-121011879D01*
X154491335Y-121103381D01*
X154442575Y-121185512D01*
X154403001Y-121253765D01*
X154375216Y-121303630D01*
X154361821Y-121330598D01*
X154360997Y-121333613D01*
X154374678Y-121346898D01*
X154411582Y-121373663D01*
X154465769Y-121410171D01*
X154531297Y-121452686D01*
X154602224Y-121497472D01*
X154672610Y-121540793D01*
X154736512Y-121578914D01*
X154787991Y-121608097D01*
X154821104Y-121624608D01*
X154826989Y-121626639D01*
X154843128Y-121614870D01*
X154872346Y-121579015D01*
X154910786Y-121524313D01*
X154954590Y-121456003D01*
X154964139Y-121440372D01*
X155008830Y-121366628D01*
X155048253Y-121301660D01*
X155078523Y-121251867D01*
X155095751Y-121223650D01*
X155097011Y-121221609D01*
X155115541Y-121190082D01*
X155141548Y-121144056D01*
X155150808Y-121127343D01*
X155177929Y-121079777D01*
X155201493Y-121049026D01*
X155227227Y-121035191D01*
X155260860Y-121038375D01*
X155308119Y-121058680D01*
X155374732Y-121096209D01*
X155435362Y-121132432D01*
X155506893Y-121176266D01*
X155566616Y-121214559D01*
X155609145Y-121243730D01*
X155629096Y-121260199D01*
X155629926Y-121261831D01*
X155621678Y-121280926D01*
X155599142Y-121321518D01*
X155566305Y-121376596D01*
X155545745Y-121409813D01*
X155509077Y-121469008D01*
X155480410Y-121516593D01*
X155463717Y-121545905D01*
X155461079Y-121551827D01*
X155452755Y-121568185D01*
X155430230Y-121607075D01*
X155397177Y-121662259D01*
X155366189Y-121713022D01*
X155328017Y-121778363D01*
X155298911Y-121834551D01*
X155282259Y-121874625D01*
X155280039Y-121890078D01*
X155298645Y-121910084D01*
X155338440Y-121939113D01*
X155391504Y-121972659D01*
X155449917Y-122006215D01*
X155505757Y-122035276D01*
X155551104Y-122055336D01*
X155578037Y-122061888D01*
X155580667Y-122061094D01*
X155605376Y-122052109D01*
X155658382Y-122037050D01*
X155734908Y-122017131D01*
X155830177Y-121993563D01*
X155939412Y-121967561D01*
X156041912Y-121943944D01*
X156076306Y-121935726D01*
X156103566Y-121930873D01*
X156126161Y-121932676D01*
X156146558Y-121944428D01*
X156167228Y-121969421D01*
X156190639Y-122010947D01*
X156219259Y-122072298D01*
X156255558Y-122156765D01*
X156302003Y-122267642D01*
X156323928Y-122320011D01*
X156367973Y-122424639D01*
X156410447Y-122524794D01*
X156448580Y-122614003D01*
X156479603Y-122685789D01*
X156500746Y-122733679D01*
X156502722Y-122738026D01*
X156525144Y-122788457D01*
X156540412Y-122825499D01*
X156544812Y-122839170D01*
X156551371Y-122857964D01*
X156568651Y-122898947D01*
X156593053Y-122953615D01*
X156595612Y-122959213D01*
X156620455Y-123014292D01*
X156638556Y-123056018D01*
X156646339Y-123076130D01*
X156646412Y-123076640D01*
X156630186Y-123083190D01*
X156584027Y-123092420D01*
X156511715Y-123103779D01*
X156417031Y-123116720D01*
X156303754Y-123130694D01*
X156175664Y-123145150D01*
X156172278Y-123145516D01*
X156073476Y-123156462D01*
X155976229Y-123167737D01*
X155890546Y-123178149D01*
X155826440Y-123186505D01*
X155816678Y-123187883D01*
X155737531Y-123198421D01*
X155652577Y-123208419D01*
X155605012Y-123213322D01*
X155534618Y-123220325D01*
X155465078Y-123227838D01*
X155431422Y-123231789D01*
X155385097Y-123235320D01*
X155360449Y-123227841D01*
X155345924Y-123204888D01*
X155343064Y-123197644D01*
X155331837Y-123161780D01*
X155316055Y-123103382D01*
X155298516Y-123032974D01*
X155292168Y-123006103D01*
X155262446Y-122881854D01*
X155237501Y-122785809D01*
X155215964Y-122712865D01*
X155204236Y-122678417D01*
X155177172Y-122642090D01*
X155119099Y-122595591D01*
X155051885Y-122552169D01*
X154987796Y-122514111D01*
X154946065Y-122492069D01*
X154920432Y-122483945D01*
X154904637Y-122487647D01*
X154893741Y-122499246D01*
X154878473Y-122522659D01*
X154848974Y-122570049D01*
X154808370Y-122636312D01*
X154759790Y-122716345D01*
X154706359Y-122805043D01*
X154705156Y-122807048D01*
X154652596Y-122893563D01*
X154605436Y-122969162D01*
X154566575Y-123029362D01*
X154538909Y-123069683D01*
X154525336Y-123085643D01*
X154524974Y-123085733D01*
X154504528Y-123077604D01*
X154462404Y-123055435D01*
X154405510Y-123023344D01*
X154340754Y-122985449D01*
X154275047Y-122945868D01*
X154215295Y-122908720D01*
X154168409Y-122878124D01*
X154141295Y-122858197D01*
X154138292Y-122855219D01*
X154132149Y-122848167D01*
X154128524Y-122840967D01*
X154129288Y-122830047D01*
X154136309Y-122811836D01*
X154151458Y-122782765D01*
X154176606Y-122739263D01*
X154213622Y-122677758D01*
X154264376Y-122594680D01*
X154330739Y-122486459D01*
X154335444Y-122478784D01*
X154396078Y-122377706D01*
X154438182Y-122302264D01*
X154462770Y-122250438D01*
X154470858Y-122220207D01*
X154469091Y-122212644D01*
X154449740Y-122196324D01*
X154406670Y-122166392D01*
X154345335Y-122126441D01*
X154271184Y-122080065D01*
X154229386Y-122054613D01*
X154005226Y-121919359D01*
X153978563Y-121956686D01*
X153961587Y-121982865D01*
X153930695Y-122032816D01*
X153889173Y-122101137D01*
X153840304Y-122182426D01*
X153791132Y-122264946D01*
X153739466Y-122351502D01*
X153693083Y-122428237D01*
X153654975Y-122490280D01*
X153628134Y-122532758D01*
X153615664Y-122550691D01*
X153597215Y-122547431D01*
X153556609Y-122529473D01*
X153500149Y-122500475D01*
X153434139Y-122464092D01*
X153364884Y-122423983D01*
X153298687Y-122383803D01*
X153241853Y-122347209D01*
X153200684Y-122317859D01*
X153181486Y-122299409D01*
X153181130Y-122298624D01*
X153181484Y-122284473D01*
X153190725Y-122258634D01*
X153210441Y-122218190D01*
X153242217Y-122160226D01*
X153287641Y-122081824D01*
X153348298Y-121980069D01*
X153409432Y-121878945D01*
X153453689Y-121804446D01*
X153490709Y-121739095D01*
X153517235Y-121688874D01*
X153530009Y-121659765D01*
X153530679Y-121656251D01*
X153517336Y-121633316D01*
X153484373Y-121605859D01*
X153475645Y-121600343D01*
X153440756Y-121579292D01*
X153384239Y-121545009D01*
X153313368Y-121501912D01*
X153235416Y-121454422D01*
X153220071Y-121445063D01*
X153145678Y-121401215D01*
X153080415Y-121365610D01*
X153030181Y-121341254D01*
X153000877Y-121331157D01*
X152997068Y-121331350D01*
X152981786Y-121347991D01*
X152952472Y-121389267D01*
X152912155Y-121450556D01*
X152863866Y-121527241D01*
X152810634Y-121614701D01*
X152804680Y-121624658D01*
X152750795Y-121714597D01*
X152701641Y-121796003D01*
X152660298Y-121863826D01*
X152629847Y-121913016D01*
X152613366Y-121938523D01*
X152612765Y-121939360D01*
X152601177Y-121951166D01*
X152585428Y-121954137D01*
X152559891Y-121946225D01*
X152518937Y-121925381D01*
X152456940Y-121889555D01*
X152426760Y-121871627D01*
X152262745Y-121773879D01*
X152314609Y-121680746D01*
X152341842Y-121633418D01*
X152382390Y-121564947D01*
X152431685Y-121482955D01*
X152485161Y-121395061D01*
X152511561Y-121352061D01*
X152566618Y-121263887D01*
X152605539Y-121199850D01*
X152627813Y-121154042D01*
X152632935Y-121120557D01*
X152620395Y-121093485D01*
X152589685Y-121066921D01*
X152540298Y-121034955D01*
X152481092Y-120997736D01*
X152422406Y-120957742D01*
X152386936Y-120926254D01*
X152367920Y-120896018D01*
X152360016Y-120867899D01*
X152350314Y-120820616D01*
X152336024Y-120755093D01*
X152321301Y-120690146D01*
X152306096Y-120624183D01*
X152292751Y-120565839D01*
X152284264Y-120528237D01*
X152281446Y-120501702D01*
X152292881Y-120485221D01*
X152325972Y-120472224D01*
X152356567Y-120464057D01*
X152416959Y-120448178D01*
X152472569Y-120432695D01*
X152489279Y-120427751D01*
X152534898Y-120414700D01*
X152596364Y-120398169D01*
X152634834Y-120388233D01*
X152729589Y-120364215D01*
X152863051Y-120445366D01*
X152922709Y-120480069D01*
X152971561Y-120505559D01*
X153002526Y-120518282D01*
X153009162Y-120518701D01*
X153021276Y-120502431D01*
X153047895Y-120461441D01*
X153086264Y-120400146D01*
X153133629Y-120322965D01*
X153187232Y-120234314D01*
X153203715Y-120206815D01*
X153258460Y-120116195D01*
X153307723Y-120036335D01*
X153348783Y-119971511D01*
X153378915Y-119926002D01*
X153395397Y-119904082D01*
X153397291Y-119902746D01*
X153414559Y-119910607D01*
G36*
X148256429Y-118703036D02*
G01*
X148300167Y-118721133D01*
X148361972Y-118749755D01*
X148443770Y-118789847D01*
X148547484Y-118842352D01*
X148675041Y-118908215D01*
X148828363Y-118988381D01*
X149009377Y-119083795D01*
X149019790Y-119089300D01*
X149169756Y-119168702D01*
X149310721Y-119243535D01*
X149439835Y-119312272D01*
X149554248Y-119373385D01*
X149651109Y-119425349D01*
X149727569Y-119466636D01*
X149780775Y-119495720D01*
X149807879Y-119511074D01*
X149810677Y-119512927D01*
X149798705Y-119523123D01*
X149761103Y-119548681D01*
X149701267Y-119587517D01*
X149622594Y-119637549D01*
X149528482Y-119696692D01*
X149422326Y-119762863D01*
X149307524Y-119833978D01*
X149187473Y-119907954D01*
X149065570Y-119982707D01*
X148945211Y-120056154D01*
X148829793Y-120126211D01*
X148722713Y-120190794D01*
X148627369Y-120247820D01*
X148547157Y-120295205D01*
X148485473Y-120330866D01*
X148445715Y-120352718D01*
X148431535Y-120358868D01*
X148415479Y-120351058D01*
X148373359Y-120329577D01*
X148309113Y-120296460D01*
X148226678Y-120253743D01*
X148129994Y-120203463D01*
X148022998Y-120147656D01*
X148018879Y-120145505D01*
X147881590Y-120074549D01*
X147724621Y-119994673D01*
X147558933Y-119911378D01*
X147395489Y-119830159D01*
X147245254Y-119756517D01*
X147189145Y-119729369D01*
X147078750Y-119676159D01*
X146978755Y-119627864D01*
X146893097Y-119586394D01*
X146825712Y-119553657D01*
X146780535Y-119531563D01*
X146761505Y-119522020D01*
X146761174Y-119521816D01*
X146774522Y-119513036D01*
X146814582Y-119489277D01*
X146878540Y-119452152D01*
X146963581Y-119403273D01*
X147066893Y-119344250D01*
X147185660Y-119276695D01*
X147317070Y-119202220D01*
X147458309Y-119122436D01*
X147472374Y-119114505D01*
X147615690Y-119033681D01*
X147750546Y-118957594D01*
X147873960Y-118887928D01*
X147982951Y-118826368D01*
X148074539Y-118774597D01*
X148145743Y-118734300D01*
X148193582Y-118707162D01*
X148215074Y-118694866D01*
X148215457Y-118694639D01*
X148228834Y-118694519D01*
X148256429Y-118703036D01*
G37*
X148256429Y-118703036D02*
X148300167Y-118721133D01*
X148361972Y-118749755D01*
X148443770Y-118789847D01*
X148547484Y-118842352D01*
X148675041Y-118908215D01*
X148828363Y-118988381D01*
X149009377Y-119083795D01*
X149019790Y-119089300D01*
X149169756Y-119168702D01*
X149310721Y-119243535D01*
X149439835Y-119312272D01*
X149554248Y-119373385D01*
X149651109Y-119425349D01*
X149727569Y-119466636D01*
X149780775Y-119495720D01*
X149807879Y-119511074D01*
X149810677Y-119512927D01*
X149798705Y-119523123D01*
X149761103Y-119548681D01*
X149701267Y-119587517D01*
X149622594Y-119637549D01*
X149528482Y-119696692D01*
X149422326Y-119762863D01*
X149307524Y-119833978D01*
X149187473Y-119907954D01*
X149065570Y-119982707D01*
X148945211Y-120056154D01*
X148829793Y-120126211D01*
X148722713Y-120190794D01*
X148627369Y-120247820D01*
X148547157Y-120295205D01*
X148485473Y-120330866D01*
X148445715Y-120352718D01*
X148431535Y-120358868D01*
X148415479Y-120351058D01*
X148373359Y-120329577D01*
X148309113Y-120296460D01*
X148226678Y-120253743D01*
X148129994Y-120203463D01*
X148022998Y-120147656D01*
X148018879Y-120145505D01*
X147881590Y-120074549D01*
X147724621Y-119994673D01*
X147558933Y-119911378D01*
X147395489Y-119830159D01*
X147245254Y-119756517D01*
X147189145Y-119729369D01*
X147078750Y-119676159D01*
X146978755Y-119627864D01*
X146893097Y-119586394D01*
X146825712Y-119553657D01*
X146780535Y-119531563D01*
X146761505Y-119522020D01*
X146761174Y-119521816D01*
X146774522Y-119513036D01*
X146814582Y-119489277D01*
X146878540Y-119452152D01*
X146963581Y-119403273D01*
X147066893Y-119344250D01*
X147185660Y-119276695D01*
X147317070Y-119202220D01*
X147458309Y-119122436D01*
X147472374Y-119114505D01*
X147615690Y-119033681D01*
X147750546Y-118957594D01*
X147873960Y-118887928D01*
X147982951Y-118826368D01*
X148074539Y-118774597D01*
X148145743Y-118734300D01*
X148193582Y-118707162D01*
X148215074Y-118694866D01*
X148215457Y-118694639D01*
X148228834Y-118694519D01*
X148256429Y-118703036D01*
G36*
X151684627Y-117001107D02*
G01*
X151685263Y-117049444D01*
X151684838Y-117123256D01*
X151683473Y-117218360D01*
X151681293Y-117330574D01*
X151678419Y-117455713D01*
X151674976Y-117589595D01*
X151671087Y-117728036D01*
X151666874Y-117866854D01*
X151662461Y-118001865D01*
X151657970Y-118128886D01*
X151653526Y-118243735D01*
X151649250Y-118342227D01*
X151645267Y-118420181D01*
X151641698Y-118473412D01*
X151638668Y-118497738D01*
X151638180Y-118498733D01*
X151621089Y-118509242D01*
X151577963Y-118534210D01*
X151512136Y-118571770D01*
X151426945Y-118620055D01*
X151325724Y-118677199D01*
X151211808Y-118741335D01*
X151088535Y-118810595D01*
X150959237Y-118883114D01*
X150827252Y-118957024D01*
X150695915Y-119030458D01*
X150568560Y-119101550D01*
X150448523Y-119168433D01*
X150339139Y-119229239D01*
X150243745Y-119282103D01*
X150165675Y-119325157D01*
X150108264Y-119356534D01*
X150074849Y-119374368D01*
X150067573Y-119377812D01*
X150065996Y-119361411D01*
X150064683Y-119314328D01*
X150063648Y-119239752D01*
X150062908Y-119140866D01*
X150062478Y-119020857D01*
X150062373Y-118882910D01*
X150062609Y-118730211D01*
X150063202Y-118565946D01*
X150063423Y-118520285D01*
X150067812Y-117662758D01*
X150871088Y-117318373D01*
X151026171Y-117252111D01*
X151171721Y-117190361D01*
X151304802Y-117134337D01*
X151422479Y-117085254D01*
X151521816Y-117044328D01*
X151599876Y-117012773D01*
X151653726Y-116991804D01*
X151680428Y-116982636D01*
X151682805Y-116982428D01*
X151684627Y-117001107D01*
G37*
X151684627Y-117001107D02*
X151685263Y-117049444D01*
X151684838Y-117123256D01*
X151683473Y-117218360D01*
X151681293Y-117330574D01*
X151678419Y-117455713D01*
X151674976Y-117589595D01*
X151671087Y-117728036D01*
X151666874Y-117866854D01*
X151662461Y-118001865D01*
X151657970Y-118128886D01*
X151653526Y-118243735D01*
X151649250Y-118342227D01*
X151645267Y-118420181D01*
X151641698Y-118473412D01*
X151638668Y-118497738D01*
X151638180Y-118498733D01*
X151621089Y-118509242D01*
X151577963Y-118534210D01*
X151512136Y-118571770D01*
X151426945Y-118620055D01*
X151325724Y-118677199D01*
X151211808Y-118741335D01*
X151088535Y-118810595D01*
X150959237Y-118883114D01*
X150827252Y-118957024D01*
X150695915Y-119030458D01*
X150568560Y-119101550D01*
X150448523Y-119168433D01*
X150339139Y-119229239D01*
X150243745Y-119282103D01*
X150165675Y-119325157D01*
X150108264Y-119356534D01*
X150074849Y-119374368D01*
X150067573Y-119377812D01*
X150065996Y-119361411D01*
X150064683Y-119314328D01*
X150063648Y-119239752D01*
X150062908Y-119140866D01*
X150062478Y-119020857D01*
X150062373Y-118882910D01*
X150062609Y-118730211D01*
X150063202Y-118565946D01*
X150063423Y-118520285D01*
X150067812Y-117662758D01*
X150871088Y-117318373D01*
X151026171Y-117252111D01*
X151171721Y-117190361D01*
X151304802Y-117134337D01*
X151422479Y-117085254D01*
X151521816Y-117044328D01*
X151599876Y-117012773D01*
X151653726Y-116991804D01*
X151680428Y-116982636D01*
X151682805Y-116982428D01*
X151684627Y-117001107D01*
G36*
X155270734Y-115886708D02*
G01*
X155283279Y-115889390D01*
X155320830Y-115896733D01*
X155385461Y-115908096D01*
X155470771Y-115922406D01*
X155570358Y-115938592D01*
X155677819Y-115955581D01*
X155689678Y-115957427D01*
X155798325Y-115974461D01*
X155900479Y-115990755D01*
X155989549Y-116005236D01*
X156058945Y-116016832D01*
X156102076Y-116024469D01*
X156104545Y-116024946D01*
X156158848Y-116034650D01*
X156232137Y-116046575D01*
X156309844Y-116058364D01*
X156320755Y-116059943D01*
X156385908Y-116070662D01*
X156437081Y-116081640D01*
X156465856Y-116090978D01*
X156469008Y-116093388D01*
X156469493Y-116100305D01*
X156465524Y-116115143D01*
X156455972Y-116140355D01*
X156439705Y-116178395D01*
X156415591Y-116231718D01*
X156382499Y-116302776D01*
X156339297Y-116394023D01*
X156284854Y-116507915D01*
X156218039Y-116646904D01*
X156137720Y-116813444D01*
X156121865Y-116846279D01*
X156077063Y-116939429D01*
X156036611Y-117024240D01*
X156003136Y-117095146D01*
X155979268Y-117146583D01*
X155967751Y-117172680D01*
X155946772Y-117206405D01*
X155928685Y-117220411D01*
X155905252Y-117218786D01*
X155855257Y-117208538D01*
X155784484Y-117191079D01*
X155698719Y-117167818D01*
X155622318Y-117145718D01*
X155339920Y-117061828D01*
X155201936Y-117134876D01*
X155140729Y-117168731D01*
X155092097Y-117198368D01*
X155063111Y-117219346D01*
X155058207Y-117225161D01*
X155064224Y-117243929D01*
X155083539Y-117286651D01*
X155113171Y-117347586D01*
X155150138Y-117420990D01*
X155191462Y-117501120D01*
X155234160Y-117582233D01*
X155275252Y-117658587D01*
X155311756Y-117724439D01*
X155340694Y-117774046D01*
X155353496Y-117794080D01*
X155374739Y-117843292D01*
X155364812Y-117882024D01*
X155346779Y-117897691D01*
X155304984Y-117921944D01*
X155247667Y-117953441D01*
X155181965Y-117988478D01*
X155115016Y-118023352D01*
X155053956Y-118054360D01*
X155005922Y-118077800D01*
X154978051Y-118089968D01*
X154974439Y-118090879D01*
X154962072Y-118076620D01*
X154936537Y-118036771D01*
X154900413Y-117975725D01*
X154856279Y-117897875D01*
X154806715Y-117807615D01*
X154790739Y-117777968D01*
X154740036Y-117684748D01*
X154693999Y-117602556D01*
X154655204Y-117535791D01*
X154626224Y-117488851D01*
X154609633Y-117466136D01*
X154607417Y-117464701D01*
X154584493Y-117472461D01*
X154539810Y-117493894D01*
X154479436Y-117525537D01*
X154409435Y-117563926D01*
X154335874Y-117605597D01*
X154264818Y-117647089D01*
X154202334Y-117684938D01*
X154154487Y-117715680D01*
X154127343Y-117735853D01*
X154123423Y-117741027D01*
X154131227Y-117761205D01*
X154152983Y-117806328D01*
X154186283Y-117871692D01*
X154228716Y-117952590D01*
X154277873Y-118044316D01*
X154292757Y-118071745D01*
X154343302Y-118165265D01*
X154387828Y-118248840D01*
X154423937Y-118317872D01*
X154449233Y-118367766D01*
X154461319Y-118393925D01*
X154462012Y-118396430D01*
X154447953Y-118410098D01*
X154410005Y-118434872D01*
X154354510Y-118467408D01*
X154287809Y-118504362D01*
X154216245Y-118542390D01*
X154146159Y-118578147D01*
X154083893Y-118608290D01*
X154035790Y-118629474D01*
X154008192Y-118638354D01*
X154004356Y-118637761D01*
X153991416Y-118617570D01*
X153967104Y-118574961D01*
X153935710Y-118517541D01*
X153920370Y-118488813D01*
X153847250Y-118351114D01*
X153788273Y-118240677D01*
X153741908Y-118154743D01*
X153706626Y-118090550D01*
X153680896Y-118045341D01*
X153663187Y-118016353D01*
X153651971Y-118000828D01*
X153647530Y-117996707D01*
X153627926Y-118001018D01*
X153584373Y-118019358D01*
X153522422Y-118049125D01*
X153447624Y-118087713D01*
X153407668Y-118109215D01*
X153325093Y-118154165D01*
X153249608Y-118195099D01*
X153187853Y-118228426D01*
X153146469Y-118250558D01*
X153136979Y-118255538D01*
X153104215Y-118277887D01*
X153090413Y-118298030D01*
X153090412Y-118298180D01*
X153098200Y-118318469D01*
X153119832Y-118363429D01*
X153152708Y-118428125D01*
X153194228Y-118507621D01*
X153241793Y-118596981D01*
X153292803Y-118691268D01*
X153344659Y-118785548D01*
X153385919Y-118859267D01*
X153411788Y-118908944D01*
X153420151Y-118938214D01*
X153412813Y-118954493D01*
X153409659Y-118956817D01*
X153374020Y-118978374D01*
X153322321Y-119007609D01*
X153262357Y-119040369D01*
X153201924Y-119072502D01*
X153148817Y-119099853D01*
X153110831Y-119118269D01*
X153096272Y-119123795D01*
X153080800Y-119110174D01*
X153056251Y-119075152D01*
X153037514Y-119043362D01*
X152950282Y-118884213D01*
X152854890Y-118707900D01*
X152830987Y-118663394D01*
X152790036Y-118585999D01*
X152760754Y-118534487D01*
X152736697Y-118506128D01*
X152711417Y-118498191D01*
X152678469Y-118507945D01*
X152631408Y-118532660D01*
X152584055Y-118558786D01*
X152440822Y-118636230D01*
X152244917Y-118572083D01*
X152166901Y-118545518D01*
X152099601Y-118520707D01*
X152050241Y-118500439D01*
X152026112Y-118487569D01*
X152017633Y-118473827D01*
X152016005Y-118449580D01*
X152022032Y-118409254D01*
X152036517Y-118347274D01*
X152058003Y-118266342D01*
X152083043Y-118176875D01*
X152104635Y-118112905D01*
X152128101Y-118067215D01*
X152158763Y-118032591D01*
X152201943Y-118001815D01*
X152262962Y-117967674D01*
X152288121Y-117954333D01*
X152340980Y-117924125D01*
X152379445Y-117897839D01*
X152395899Y-117880738D01*
X152396041Y-117879746D01*
X152388580Y-117852966D01*
X152373410Y-117819946D01*
X152343715Y-117764763D01*
X152301880Y-117687859D01*
X152252222Y-117597113D01*
X152199057Y-117500406D01*
X152146701Y-117405616D01*
X152127259Y-117370556D01*
X152087819Y-117296775D01*
X152065166Y-117246731D01*
X152057561Y-117215807D01*
X152062940Y-117199694D01*
X152085888Y-117184078D01*
X152131503Y-117157532D01*
X152192207Y-117124365D01*
X152234089Y-117102371D01*
X152385300Y-117024167D01*
X152434252Y-117113023D01*
X152463218Y-117166003D01*
X152502255Y-117237945D01*
X152545457Y-117317948D01*
X152574105Y-117371213D01*
X152630145Y-117475446D01*
X152672503Y-117553561D01*
X152703445Y-117609318D01*
X152725238Y-117646476D01*
X152740147Y-117668794D01*
X152750440Y-117680029D01*
X152758381Y-117683943D01*
X152762887Y-117684339D01*
X152789427Y-117675752D01*
X152843706Y-117650234D01*
X152924501Y-117608411D01*
X153030593Y-117550910D01*
X153124279Y-117498853D01*
X153182328Y-117467030D01*
X153231905Y-117441099D01*
X153262955Y-117426304D01*
X153264363Y-117425750D01*
X153293377Y-117406673D01*
X153301821Y-117376092D01*
X153289398Y-117329172D01*
X153255811Y-117261081D01*
X153254083Y-117257955D01*
X153214263Y-117186282D01*
X153171698Y-117109841D01*
X153142736Y-117057946D01*
X153092305Y-116966049D01*
X153047757Y-116881683D01*
X153011446Y-116809604D01*
X152985726Y-116754573D01*
X152972950Y-116721345D01*
X152972504Y-116713829D01*
X152996913Y-116697640D01*
X153043137Y-116671516D01*
X153104559Y-116638775D01*
X153174565Y-116602739D01*
X153246538Y-116566725D01*
X153313861Y-116534053D01*
X153369919Y-116508043D01*
X153408096Y-116492014D01*
X153421368Y-116488626D01*
X153441462Y-116507751D01*
X153463804Y-116543858D01*
X153464265Y-116544789D01*
X153480084Y-116575467D01*
X153508907Y-116629958D01*
X153547562Y-116702323D01*
X153592879Y-116786620D01*
X153632279Y-116859546D01*
X153688297Y-116961292D01*
X153731944Y-117035649D01*
X153765768Y-117085634D01*
X153792317Y-117114263D01*
X153814138Y-117124550D01*
X153833779Y-117119512D01*
X153844792Y-117111106D01*
X153865868Y-117097399D01*
X153909755Y-117072155D01*
X153969221Y-117039462D01*
X154013279Y-117015900D01*
X154110464Y-116963949D01*
X154181167Y-116924650D01*
X154229212Y-116895544D01*
X154258422Y-116874167D01*
X154272621Y-116858059D01*
X154275745Y-116846926D01*
X154267831Y-116825920D01*
X154245776Y-116780330D01*
X154212111Y-116715051D01*
X154169367Y-116634979D01*
X154120075Y-116545008D01*
X154113669Y-116533470D01*
X154064216Y-116442800D01*
X154021679Y-116361464D01*
X153988451Y-116294320D01*
X153966926Y-116246226D01*
X153959496Y-116222040D01*
X153959695Y-116220895D01*
X153976212Y-116206487D01*
X154015730Y-116180109D01*
X154071369Y-116145733D01*
X154136249Y-116107329D01*
X154203491Y-116068871D01*
X154266214Y-116034328D01*
X154317540Y-116007673D01*
X154350589Y-115992877D01*
X154357674Y-115991146D01*
X154365733Y-115998703D01*
X154381943Y-116022783D01*
X154407497Y-116065496D01*
X154443589Y-116128952D01*
X154491412Y-116215263D01*
X154552159Y-116326539D01*
X154627022Y-116464890D01*
X154658965Y-116524157D01*
X154686652Y-116571437D01*
X154712202Y-116598146D01*
X154742727Y-116604978D01*
X154785334Y-116592633D01*
X154847133Y-116561808D01*
X154876879Y-116545531D01*
X154940865Y-116509580D01*
X154982371Y-116482335D01*
X155008560Y-116456133D01*
X155026598Y-116423311D01*
X155043651Y-116376203D01*
X155048310Y-116362169D01*
X155069169Y-116296445D01*
X155094669Y-116212081D01*
X155120599Y-116123127D01*
X155131584Y-116084279D01*
X155153082Y-116011497D01*
X155173381Y-115950088D01*
X155189725Y-115908014D01*
X155197219Y-115894463D01*
X155223339Y-115882571D01*
X155270734Y-115886708D01*
G37*
X155270734Y-115886708D02*
X155283279Y-115889390D01*
X155320830Y-115896733D01*
X155385461Y-115908096D01*
X155470771Y-115922406D01*
X155570358Y-115938592D01*
X155677819Y-115955581D01*
X155689678Y-115957427D01*
X155798325Y-115974461D01*
X155900479Y-115990755D01*
X155989549Y-116005236D01*
X156058945Y-116016832D01*
X156102076Y-116024469D01*
X156104545Y-116024946D01*
X156158848Y-116034650D01*
X156232137Y-116046575D01*
X156309844Y-116058364D01*
X156320755Y-116059943D01*
X156385908Y-116070662D01*
X156437081Y-116081640D01*
X156465856Y-116090978D01*
X156469008Y-116093388D01*
X156469493Y-116100305D01*
X156465524Y-116115143D01*
X156455972Y-116140355D01*
X156439705Y-116178395D01*
X156415591Y-116231718D01*
X156382499Y-116302776D01*
X156339297Y-116394023D01*
X156284854Y-116507915D01*
X156218039Y-116646904D01*
X156137720Y-116813444D01*
X156121865Y-116846279D01*
X156077063Y-116939429D01*
X156036611Y-117024240D01*
X156003136Y-117095146D01*
X155979268Y-117146583D01*
X155967751Y-117172680D01*
X155946772Y-117206405D01*
X155928685Y-117220411D01*
X155905252Y-117218786D01*
X155855257Y-117208538D01*
X155784484Y-117191079D01*
X155698719Y-117167818D01*
X155622318Y-117145718D01*
X155339920Y-117061828D01*
X155201936Y-117134876D01*
X155140729Y-117168731D01*
X155092097Y-117198368D01*
X155063111Y-117219346D01*
X155058207Y-117225161D01*
X155064224Y-117243929D01*
X155083539Y-117286651D01*
X155113171Y-117347586D01*
X155150138Y-117420990D01*
X155191462Y-117501120D01*
X155234160Y-117582233D01*
X155275252Y-117658587D01*
X155311756Y-117724439D01*
X155340694Y-117774046D01*
X155353496Y-117794080D01*
X155374739Y-117843292D01*
X155364812Y-117882024D01*
X155346779Y-117897691D01*
X155304984Y-117921944D01*
X155247667Y-117953441D01*
X155181965Y-117988478D01*
X155115016Y-118023352D01*
X155053956Y-118054360D01*
X155005922Y-118077800D01*
X154978051Y-118089968D01*
X154974439Y-118090879D01*
X154962072Y-118076620D01*
X154936537Y-118036771D01*
X154900413Y-117975725D01*
X154856279Y-117897875D01*
X154806715Y-117807615D01*
X154790739Y-117777968D01*
X154740036Y-117684748D01*
X154693999Y-117602556D01*
X154655204Y-117535791D01*
X154626224Y-117488851D01*
X154609633Y-117466136D01*
X154607417Y-117464701D01*
X154584493Y-117472461D01*
X154539810Y-117493894D01*
X154479436Y-117525537D01*
X154409435Y-117563926D01*
X154335874Y-117605597D01*
X154264818Y-117647089D01*
X154202334Y-117684938D01*
X154154487Y-117715680D01*
X154127343Y-117735853D01*
X154123423Y-117741027D01*
X154131227Y-117761205D01*
X154152983Y-117806328D01*
X154186283Y-117871692D01*
X154228716Y-117952590D01*
X154277873Y-118044316D01*
X154292757Y-118071745D01*
X154343302Y-118165265D01*
X154387828Y-118248840D01*
X154423937Y-118317872D01*
X154449233Y-118367766D01*
X154461319Y-118393925D01*
X154462012Y-118396430D01*
X154447953Y-118410098D01*
X154410005Y-118434872D01*
X154354510Y-118467408D01*
X154287809Y-118504362D01*
X154216245Y-118542390D01*
X154146159Y-118578147D01*
X154083893Y-118608290D01*
X154035790Y-118629474D01*
X154008192Y-118638354D01*
X154004356Y-118637761D01*
X153991416Y-118617570D01*
X153967104Y-118574961D01*
X153935710Y-118517541D01*
X153920370Y-118488813D01*
X153847250Y-118351114D01*
X153788273Y-118240677D01*
X153741908Y-118154743D01*
X153706626Y-118090550D01*
X153680896Y-118045341D01*
X153663187Y-118016353D01*
X153651971Y-118000828D01*
X153647530Y-117996707D01*
X153627926Y-118001018D01*
X153584373Y-118019358D01*
X153522422Y-118049125D01*
X153447624Y-118087713D01*
X153407668Y-118109215D01*
X153325093Y-118154165D01*
X153249608Y-118195099D01*
X153187853Y-118228426D01*
X153146469Y-118250558D01*
X153136979Y-118255538D01*
X153104215Y-118277887D01*
X153090413Y-118298030D01*
X153090412Y-118298180D01*
X153098200Y-118318469D01*
X153119832Y-118363429D01*
X153152708Y-118428125D01*
X153194228Y-118507621D01*
X153241793Y-118596981D01*
X153292803Y-118691268D01*
X153344659Y-118785548D01*
X153385919Y-118859267D01*
X153411788Y-118908944D01*
X153420151Y-118938214D01*
X153412813Y-118954493D01*
X153409659Y-118956817D01*
X153374020Y-118978374D01*
X153322321Y-119007609D01*
X153262357Y-119040369D01*
X153201924Y-119072502D01*
X153148817Y-119099853D01*
X153110831Y-119118269D01*
X153096272Y-119123795D01*
X153080800Y-119110174D01*
X153056251Y-119075152D01*
X153037514Y-119043362D01*
X152950282Y-118884213D01*
X152854890Y-118707900D01*
X152830987Y-118663394D01*
X152790036Y-118585999D01*
X152760754Y-118534487D01*
X152736697Y-118506128D01*
X152711417Y-118498191D01*
X152678469Y-118507945D01*
X152631408Y-118532660D01*
X152584055Y-118558786D01*
X152440822Y-118636230D01*
X152244917Y-118572083D01*
X152166901Y-118545518D01*
X152099601Y-118520707D01*
X152050241Y-118500439D01*
X152026112Y-118487569D01*
X152017633Y-118473827D01*
X152016005Y-118449580D01*
X152022032Y-118409254D01*
X152036517Y-118347274D01*
X152058003Y-118266342D01*
X152083043Y-118176875D01*
X152104635Y-118112905D01*
X152128101Y-118067215D01*
X152158763Y-118032591D01*
X152201943Y-118001815D01*
X152262962Y-117967674D01*
X152288121Y-117954333D01*
X152340980Y-117924125D01*
X152379445Y-117897839D01*
X152395899Y-117880738D01*
X152396041Y-117879746D01*
X152388580Y-117852966D01*
X152373410Y-117819946D01*
X152343715Y-117764763D01*
X152301880Y-117687859D01*
X152252222Y-117597113D01*
X152199057Y-117500406D01*
X152146701Y-117405616D01*
X152127259Y-117370556D01*
X152087819Y-117296775D01*
X152065166Y-117246731D01*
X152057561Y-117215807D01*
X152062940Y-117199694D01*
X152085888Y-117184078D01*
X152131503Y-117157532D01*
X152192207Y-117124365D01*
X152234089Y-117102371D01*
X152385300Y-117024167D01*
X152434252Y-117113023D01*
X152463218Y-117166003D01*
X152502255Y-117237945D01*
X152545457Y-117317948D01*
X152574105Y-117371213D01*
X152630145Y-117475446D01*
X152672503Y-117553561D01*
X152703445Y-117609318D01*
X152725238Y-117646476D01*
X152740147Y-117668794D01*
X152750440Y-117680029D01*
X152758381Y-117683943D01*
X152762887Y-117684339D01*
X152789427Y-117675752D01*
X152843706Y-117650234D01*
X152924501Y-117608411D01*
X153030593Y-117550910D01*
X153124279Y-117498853D01*
X153182328Y-117467030D01*
X153231905Y-117441099D01*
X153262955Y-117426304D01*
X153264363Y-117425750D01*
X153293377Y-117406673D01*
X153301821Y-117376092D01*
X153289398Y-117329172D01*
X153255811Y-117261081D01*
X153254083Y-117257955D01*
X153214263Y-117186282D01*
X153171698Y-117109841D01*
X153142736Y-117057946D01*
X153092305Y-116966049D01*
X153047757Y-116881683D01*
X153011446Y-116809604D01*
X152985726Y-116754573D01*
X152972950Y-116721345D01*
X152972504Y-116713829D01*
X152996913Y-116697640D01*
X153043137Y-116671516D01*
X153104559Y-116638775D01*
X153174565Y-116602739D01*
X153246538Y-116566725D01*
X153313861Y-116534053D01*
X153369919Y-116508043D01*
X153408096Y-116492014D01*
X153421368Y-116488626D01*
X153441462Y-116507751D01*
X153463804Y-116543858D01*
X153464265Y-116544789D01*
X153480084Y-116575467D01*
X153508907Y-116629958D01*
X153547562Y-116702323D01*
X153592879Y-116786620D01*
X153632279Y-116859546D01*
X153688297Y-116961292D01*
X153731944Y-117035649D01*
X153765768Y-117085634D01*
X153792317Y-117114263D01*
X153814138Y-117124550D01*
X153833779Y-117119512D01*
X153844792Y-117111106D01*
X153865868Y-117097399D01*
X153909755Y-117072155D01*
X153969221Y-117039462D01*
X154013279Y-117015900D01*
X154110464Y-116963949D01*
X154181167Y-116924650D01*
X154229212Y-116895544D01*
X154258422Y-116874167D01*
X154272621Y-116858059D01*
X154275745Y-116846926D01*
X154267831Y-116825920D01*
X154245776Y-116780330D01*
X154212111Y-116715051D01*
X154169367Y-116634979D01*
X154120075Y-116545008D01*
X154113669Y-116533470D01*
X154064216Y-116442800D01*
X154021679Y-116361464D01*
X153988451Y-116294320D01*
X153966926Y-116246226D01*
X153959496Y-116222040D01*
X153959695Y-116220895D01*
X153976212Y-116206487D01*
X154015730Y-116180109D01*
X154071369Y-116145733D01*
X154136249Y-116107329D01*
X154203491Y-116068871D01*
X154266214Y-116034328D01*
X154317540Y-116007673D01*
X154350589Y-115992877D01*
X154357674Y-115991146D01*
X154365733Y-115998703D01*
X154381943Y-116022783D01*
X154407497Y-116065496D01*
X154443589Y-116128952D01*
X154491412Y-116215263D01*
X154552159Y-116326539D01*
X154627022Y-116464890D01*
X154658965Y-116524157D01*
X154686652Y-116571437D01*
X154712202Y-116598146D01*
X154742727Y-116604978D01*
X154785334Y-116592633D01*
X154847133Y-116561808D01*
X154876879Y-116545531D01*
X154940865Y-116509580D01*
X154982371Y-116482335D01*
X155008560Y-116456133D01*
X155026598Y-116423311D01*
X155043651Y-116376203D01*
X155048310Y-116362169D01*
X155069169Y-116296445D01*
X155094669Y-116212081D01*
X155120599Y-116123127D01*
X155131584Y-116084279D01*
X155153082Y-116011497D01*
X155173381Y-115950088D01*
X155189725Y-115908014D01*
X155197219Y-115894463D01*
X155223339Y-115882571D01*
X155270734Y-115886708D01*
G36*
X151754688Y-118656621D02*
G01*
X151800462Y-118676312D01*
X151869146Y-118707047D01*
X151957117Y-118747121D01*
X152060752Y-118794830D01*
X152176429Y-118848471D01*
X152300524Y-118906338D01*
X152429414Y-118966728D01*
X152559476Y-119027936D01*
X152687088Y-119088258D01*
X152808625Y-119145990D01*
X152920466Y-119199426D01*
X153018987Y-119246864D01*
X153100565Y-119286598D01*
X153161577Y-119316925D01*
X153198400Y-119336139D01*
X153208008Y-119342388D01*
X153195011Y-119354080D01*
X153158467Y-119384059D01*
X153101564Y-119429819D01*
X153027489Y-119488859D01*
X152939429Y-119558673D01*
X152840572Y-119636758D01*
X152734106Y-119720611D01*
X152623217Y-119807727D01*
X152511094Y-119895603D01*
X152400923Y-119981736D01*
X152295893Y-120063620D01*
X152199191Y-120138754D01*
X152114004Y-120204633D01*
X152043521Y-120258753D01*
X151990927Y-120298610D01*
X151984939Y-120303084D01*
X151913545Y-120356289D01*
X150244497Y-119521121D01*
X150980666Y-119085400D01*
X151124704Y-119000359D01*
X151260146Y-118920803D01*
X151384161Y-118848366D01*
X151493917Y-118784682D01*
X151586581Y-118731386D01*
X151659323Y-118690114D01*
X151709310Y-118662500D01*
X151733710Y-118650179D01*
X151735448Y-118649679D01*
X151754688Y-118656621D01*
G37*
X151754688Y-118656621D02*
X151800462Y-118676312D01*
X151869146Y-118707047D01*
X151957117Y-118747121D01*
X152060752Y-118794830D01*
X152176429Y-118848471D01*
X152300524Y-118906338D01*
X152429414Y-118966728D01*
X152559476Y-119027936D01*
X152687088Y-119088258D01*
X152808625Y-119145990D01*
X152920466Y-119199426D01*
X153018987Y-119246864D01*
X153100565Y-119286598D01*
X153161577Y-119316925D01*
X153198400Y-119336139D01*
X153208008Y-119342388D01*
X153195011Y-119354080D01*
X153158467Y-119384059D01*
X153101564Y-119429819D01*
X153027489Y-119488859D01*
X152939429Y-119558673D01*
X152840572Y-119636758D01*
X152734106Y-119720611D01*
X152623217Y-119807727D01*
X152511094Y-119895603D01*
X152400923Y-119981736D01*
X152295893Y-120063620D01*
X152199191Y-120138754D01*
X152114004Y-120204633D01*
X152043521Y-120258753D01*
X151990927Y-120298610D01*
X151984939Y-120303084D01*
X151913545Y-120356289D01*
X150244497Y-119521121D01*
X150980666Y-119085400D01*
X151124704Y-119000359D01*
X151260146Y-118920803D01*
X151384161Y-118848366D01*
X151493917Y-118784682D01*
X151586581Y-118731386D01*
X151659323Y-118690114D01*
X151709310Y-118662500D01*
X151733710Y-118650179D01*
X151735448Y-118649679D01*
X151754688Y-118656621D01*
G36*
X149896896Y-112391226D02*
G01*
X149906511Y-112399370D01*
X149909460Y-112402451D01*
X149937550Y-112435744D01*
X149957878Y-112463156D01*
X149978438Y-112491130D01*
X150014474Y-112538531D01*
X150060497Y-112598188D01*
X150100429Y-112649423D01*
X150222747Y-112806122D01*
X150346453Y-112965487D01*
X150465007Y-113119056D01*
X150571865Y-113258368D01*
X150613724Y-113313274D01*
X150685503Y-113407644D01*
X150465557Y-113629766D01*
X150245612Y-113851887D01*
X150245612Y-114005043D01*
X150247497Y-114088421D01*
X150253573Y-114142721D01*
X150264469Y-114172545D01*
X150269278Y-114177840D01*
X150292823Y-114185386D01*
X150343798Y-114190813D01*
X150423911Y-114194205D01*
X150534871Y-114195643D01*
X150637578Y-114195499D01*
X150982212Y-114193516D01*
X150982212Y-114661879D01*
X150622617Y-114666449D01*
X150503647Y-114668052D01*
X150414188Y-114669759D01*
X150349886Y-114672070D01*
X150306387Y-114675484D01*
X150279338Y-114680501D01*
X150264384Y-114687620D01*
X150257172Y-114697342D01*
X150253689Y-114708782D01*
X150250662Y-114738830D01*
X150248740Y-114795498D01*
X150248035Y-114871553D01*
X150248664Y-114959763D01*
X150249217Y-114992079D01*
X150254078Y-115237613D01*
X151007612Y-115246727D01*
X151007612Y-115771012D01*
X150645619Y-115771012D01*
X150520145Y-115771444D01*
X150424649Y-115772896D01*
X150355252Y-115775608D01*
X150308074Y-115779816D01*
X150279235Y-115785759D01*
X150264856Y-115793676D01*
X150264210Y-115794406D01*
X150256281Y-115819402D01*
X150251134Y-115872929D01*
X150248696Y-115956579D01*
X150248892Y-116071944D01*
X150249437Y-116111906D01*
X150254078Y-116406013D01*
X150630604Y-116410569D01*
X150757111Y-116411637D01*
X150853728Y-116412975D01*
X150924368Y-116416968D01*
X150972940Y-116426001D01*
X151003357Y-116442459D01*
X151019529Y-116468726D01*
X151025367Y-116507189D01*
X151024783Y-116560231D01*
X151021688Y-116630237D01*
X151021043Y-116648646D01*
X151016078Y-116806613D01*
X150654484Y-116804668D01*
X150516629Y-116804693D01*
X150410840Y-116806486D01*
X150335359Y-116810128D01*
X150288429Y-116815698D01*
X150269251Y-116822341D01*
X150256807Y-116844566D01*
X150249229Y-116889303D01*
X150245896Y-116961202D01*
X150245612Y-116999161D01*
X150245612Y-117156364D01*
X150091022Y-117301888D01*
X150030717Y-117357270D01*
X149978247Y-117402882D01*
X149938958Y-117434253D01*
X149918195Y-117446915D01*
X149917455Y-117446985D01*
X149898548Y-117435800D01*
X149860570Y-117405557D01*
X149808824Y-117360715D01*
X149748611Y-117305731D01*
X149741234Y-117298819D01*
X149583989Y-117151079D01*
X149584601Y-116995042D01*
X149584166Y-116920490D01*
X149581219Y-116872589D01*
X149574360Y-116844137D01*
X149562187Y-116827937D01*
X149550627Y-116820495D01*
X149518129Y-116813288D01*
X149452683Y-116808544D01*
X149355122Y-116806291D01*
X149226278Y-116806560D01*
X149177573Y-116807199D01*
X148839105Y-116812413D01*
X148843858Y-116617679D01*
X148848612Y-116422946D01*
X149212678Y-116414479D01*
X149576745Y-116406013D01*
X149581387Y-116111906D01*
X149582340Y-115986966D01*
X149580679Y-115894205D01*
X149576332Y-115832033D01*
X149569225Y-115798858D01*
X149566614Y-115794406D01*
X149553385Y-115786414D01*
X149526149Y-115780366D01*
X149481067Y-115776033D01*
X149414299Y-115773185D01*
X149322009Y-115771592D01*
X149200355Y-115771024D01*
X149176297Y-115771012D01*
X148805396Y-115771012D01*
X148810071Y-115512779D01*
X148814745Y-115254546D01*
X149195745Y-115246079D01*
X149576745Y-115237613D01*
X149581606Y-114992079D01*
X149582721Y-114901293D01*
X149582452Y-114820103D01*
X149580918Y-114755752D01*
X149578234Y-114715485D01*
X149577050Y-114708446D01*
X149573220Y-114695907D01*
X149565881Y-114686474D01*
X149550706Y-114679705D01*
X149523366Y-114675157D01*
X149479533Y-114672390D01*
X149414879Y-114670960D01*
X149325076Y-114670426D01*
X149205795Y-114670346D01*
X148840145Y-114670346D01*
X148840145Y-114196212D01*
X149192358Y-114196213D01*
X149324720Y-114195510D01*
X149425668Y-114193315D01*
X149497628Y-114189494D01*
X149543025Y-114183916D01*
X149564286Y-114176448D01*
X149564892Y-114175893D01*
X149575793Y-114147040D01*
X149582733Y-114088743D01*
X149585211Y-114005247D01*
X149585212Y-114003730D01*
X149585212Y-113851887D01*
X149363813Y-113628299D01*
X149142415Y-113404710D01*
X149373046Y-113085028D01*
X149446794Y-112982738D01*
X149521296Y-112879285D01*
X149591766Y-112781322D01*
X149653420Y-112695501D01*
X149701474Y-112628475D01*
X149712581Y-112612946D01*
X149774178Y-112526883D01*
X149819210Y-112464970D01*
X149850837Y-112423827D01*
X149872219Y-112400075D01*
X149886519Y-112390334D01*
X149896896Y-112391226D01*
G37*
X149896896Y-112391226D02*
X149906511Y-112399370D01*
X149909460Y-112402451D01*
X149937550Y-112435744D01*
X149957878Y-112463156D01*
X149978438Y-112491130D01*
X150014474Y-112538531D01*
X150060497Y-112598188D01*
X150100429Y-112649423D01*
X150222747Y-112806122D01*
X150346453Y-112965487D01*
X150465007Y-113119056D01*
X150571865Y-113258368D01*
X150613724Y-113313274D01*
X150685503Y-113407644D01*
X150465557Y-113629766D01*
X150245612Y-113851887D01*
X150245612Y-114005043D01*
X150247497Y-114088421D01*
X150253573Y-114142721D01*
X150264469Y-114172545D01*
X150269278Y-114177840D01*
X150292823Y-114185386D01*
X150343798Y-114190813D01*
X150423911Y-114194205D01*
X150534871Y-114195643D01*
X150637578Y-114195499D01*
X150982212Y-114193516D01*
X150982212Y-114661879D01*
X150622617Y-114666449D01*
X150503647Y-114668052D01*
X150414188Y-114669759D01*
X150349886Y-114672070D01*
X150306387Y-114675484D01*
X150279338Y-114680501D01*
X150264384Y-114687620D01*
X150257172Y-114697342D01*
X150253689Y-114708782D01*
X150250662Y-114738830D01*
X150248740Y-114795498D01*
X150248035Y-114871553D01*
X150248664Y-114959763D01*
X150249217Y-114992079D01*
X150254078Y-115237613D01*
X151007612Y-115246727D01*
X151007612Y-115771012D01*
X150645619Y-115771012D01*
X150520145Y-115771444D01*
X150424649Y-115772896D01*
X150355252Y-115775608D01*
X150308074Y-115779816D01*
X150279235Y-115785759D01*
X150264856Y-115793676D01*
X150264210Y-115794406D01*
X150256281Y-115819402D01*
X150251134Y-115872929D01*
X150248696Y-115956579D01*
X150248892Y-116071944D01*
X150249437Y-116111906D01*
X150254078Y-116406013D01*
X150630604Y-116410569D01*
X150757111Y-116411637D01*
X150853728Y-116412975D01*
X150924368Y-116416968D01*
X150972940Y-116426001D01*
X151003357Y-116442459D01*
X151019529Y-116468726D01*
X151025367Y-116507189D01*
X151024783Y-116560231D01*
X151021688Y-116630237D01*
X151021043Y-116648646D01*
X151016078Y-116806613D01*
X150654484Y-116804668D01*
X150516629Y-116804693D01*
X150410840Y-116806486D01*
X150335359Y-116810128D01*
X150288429Y-116815698D01*
X150269251Y-116822341D01*
X150256807Y-116844566D01*
X150249229Y-116889303D01*
X150245896Y-116961202D01*
X150245612Y-116999161D01*
X150245612Y-117156364D01*
X150091022Y-117301888D01*
X150030717Y-117357270D01*
X149978247Y-117402882D01*
X149938958Y-117434253D01*
X149918195Y-117446915D01*
X149917455Y-117446985D01*
X149898548Y-117435800D01*
X149860570Y-117405557D01*
X149808824Y-117360715D01*
X149748611Y-117305731D01*
X149741234Y-117298819D01*
X149583989Y-117151079D01*
X149584601Y-116995042D01*
X149584166Y-116920490D01*
X149581219Y-116872589D01*
X149574360Y-116844137D01*
X149562187Y-116827937D01*
X149550627Y-116820495D01*
X149518129Y-116813288D01*
X149452683Y-116808544D01*
X149355122Y-116806291D01*
X149226278Y-116806560D01*
X149177573Y-116807199D01*
X148839105Y-116812413D01*
X148843858Y-116617679D01*
X148848612Y-116422946D01*
X149212678Y-116414479D01*
X149576745Y-116406013D01*
X149581387Y-116111906D01*
X149582340Y-115986966D01*
X149580679Y-115894205D01*
X149576332Y-115832033D01*
X149569225Y-115798858D01*
X149566614Y-115794406D01*
X149553385Y-115786414D01*
X149526149Y-115780366D01*
X149481067Y-115776033D01*
X149414299Y-115773185D01*
X149322009Y-115771592D01*
X149200355Y-115771024D01*
X149176297Y-115771012D01*
X148805396Y-115771012D01*
X148810071Y-115512779D01*
X148814745Y-115254546D01*
X149195745Y-115246079D01*
X149576745Y-115237613D01*
X149581606Y-114992079D01*
X149582721Y-114901293D01*
X149582452Y-114820103D01*
X149580918Y-114755752D01*
X149578234Y-114715485D01*
X149577050Y-114708446D01*
X149573220Y-114695907D01*
X149565881Y-114686474D01*
X149550706Y-114679705D01*
X149523366Y-114675157D01*
X149479533Y-114672390D01*
X149414879Y-114670960D01*
X149325076Y-114670426D01*
X149205795Y-114670346D01*
X148840145Y-114670346D01*
X148840145Y-114196212D01*
X149192358Y-114196213D01*
X149324720Y-114195510D01*
X149425668Y-114193315D01*
X149497628Y-114189494D01*
X149543025Y-114183916D01*
X149564286Y-114176448D01*
X149564892Y-114175893D01*
X149575793Y-114147040D01*
X149582733Y-114088743D01*
X149585211Y-114005247D01*
X149585212Y-114003730D01*
X149585212Y-113851887D01*
X149363813Y-113628299D01*
X149142415Y-113404710D01*
X149373046Y-113085028D01*
X149446794Y-112982738D01*
X149521296Y-112879285D01*
X149591766Y-112781322D01*
X149653420Y-112695501D01*
X149701474Y-112628475D01*
X149712581Y-112612946D01*
X149774178Y-112526883D01*
X149819210Y-112464970D01*
X149850837Y-112423827D01*
X149872219Y-112400075D01*
X149886519Y-112390334D01*
X149896896Y-112391226D01*
G36*
X150114339Y-119643978D02*
G01*
X150156515Y-119664519D01*
X150222229Y-119697295D01*
X150308214Y-119740631D01*
X150411208Y-119792849D01*
X150527946Y-119852273D01*
X150655164Y-119917225D01*
X150789597Y-119986031D01*
X150927980Y-120057011D01*
X151067050Y-120128491D01*
X151203543Y-120198793D01*
X151334194Y-120266241D01*
X151455738Y-120329158D01*
X151564911Y-120385868D01*
X151658450Y-120434693D01*
X151733089Y-120473957D01*
X151785565Y-120501984D01*
X151812613Y-120517096D01*
X151815421Y-120518980D01*
X151818607Y-120536471D01*
X151824912Y-120583550D01*
X151833880Y-120656126D01*
X151845059Y-120750110D01*
X151857995Y-120861410D01*
X151872235Y-120985937D01*
X151887326Y-121119601D01*
X151902813Y-121258310D01*
X151918245Y-121397976D01*
X151933167Y-121534507D01*
X151947125Y-121663813D01*
X151959668Y-121781804D01*
X151970340Y-121884391D01*
X151978689Y-121967481D01*
X151984262Y-122026987D01*
X151986605Y-122058816D01*
X151986549Y-122062828D01*
X151975651Y-122063736D01*
X151944648Y-122054274D01*
X151892247Y-122033869D01*
X151817152Y-122001946D01*
X151718068Y-121957930D01*
X151593703Y-121901248D01*
X151442761Y-121831324D01*
X151263948Y-121747584D01*
X151067062Y-121654702D01*
X150902468Y-121576727D01*
X150747027Y-121502873D01*
X150603434Y-121434435D01*
X150474388Y-121372710D01*
X150362586Y-121318991D01*
X150270724Y-121274577D01*
X150201501Y-121240762D01*
X150157612Y-121218842D01*
X150141809Y-121210183D01*
X150139259Y-121191521D01*
X150136164Y-121143152D01*
X150132634Y-121069177D01*
X150128782Y-120973694D01*
X150124719Y-120860803D01*
X150120557Y-120734604D01*
X150116408Y-120599197D01*
X150112382Y-120458681D01*
X150108592Y-120317155D01*
X150105150Y-120178720D01*
X150102167Y-120047476D01*
X150099755Y-119927520D01*
X150098026Y-119822955D01*
X150097090Y-119737878D01*
X150097061Y-119676390D01*
X150098049Y-119642590D01*
X150098964Y-119637349D01*
X150114339Y-119643978D01*
G37*
X150114339Y-119643978D02*
X150156515Y-119664519D01*
X150222229Y-119697295D01*
X150308214Y-119740631D01*
X150411208Y-119792849D01*
X150527946Y-119852273D01*
X150655164Y-119917225D01*
X150789597Y-119986031D01*
X150927980Y-120057011D01*
X151067050Y-120128491D01*
X151203543Y-120198793D01*
X151334194Y-120266241D01*
X151455738Y-120329158D01*
X151564911Y-120385868D01*
X151658450Y-120434693D01*
X151733089Y-120473957D01*
X151785565Y-120501984D01*
X151812613Y-120517096D01*
X151815421Y-120518980D01*
X151818607Y-120536471D01*
X151824912Y-120583550D01*
X151833880Y-120656126D01*
X151845059Y-120750110D01*
X151857995Y-120861410D01*
X151872235Y-120985937D01*
X151887326Y-121119601D01*
X151902813Y-121258310D01*
X151918245Y-121397976D01*
X151933167Y-121534507D01*
X151947125Y-121663813D01*
X151959668Y-121781804D01*
X151970340Y-121884391D01*
X151978689Y-121967481D01*
X151984262Y-122026987D01*
X151986605Y-122058816D01*
X151986549Y-122062828D01*
X151975651Y-122063736D01*
X151944648Y-122054274D01*
X151892247Y-122033869D01*
X151817152Y-122001946D01*
X151718068Y-121957930D01*
X151593703Y-121901248D01*
X151442761Y-121831324D01*
X151263948Y-121747584D01*
X151067062Y-121654702D01*
X150902468Y-121576727D01*
X150747027Y-121502873D01*
X150603434Y-121434435D01*
X150474388Y-121372710D01*
X150362586Y-121318991D01*
X150270724Y-121274577D01*
X150201501Y-121240762D01*
X150157612Y-121218842D01*
X150141809Y-121210183D01*
X150139259Y-121191521D01*
X150136164Y-121143152D01*
X150132634Y-121069177D01*
X150128782Y-120973694D01*
X150124719Y-120860803D01*
X150120557Y-120734604D01*
X150116408Y-120599197D01*
X150112382Y-120458681D01*
X150108592Y-120317155D01*
X150105150Y-120178720D01*
X150102167Y-120047476D01*
X150099755Y-119927520D01*
X150098026Y-119822955D01*
X150097090Y-119737878D01*
X150097061Y-119676390D01*
X150098049Y-119642590D01*
X150098964Y-119637349D01*
X150114339Y-119643978D01*
G36*
X148228750Y-116966198D02*
G01*
X148272727Y-116980950D01*
X148343381Y-117007608D01*
X148438555Y-117045302D01*
X148556088Y-117093164D01*
X148693822Y-117150325D01*
X148849597Y-117215916D01*
X149021253Y-117289068D01*
X149026412Y-117291279D01*
X149839212Y-117639643D01*
X149839212Y-118500261D01*
X149839131Y-118667339D01*
X149838900Y-118823661D01*
X149838533Y-118966055D01*
X149838046Y-119091347D01*
X149837456Y-119196367D01*
X149836777Y-119277941D01*
X149836026Y-119332896D01*
X149835217Y-119358062D01*
X149834978Y-119359337D01*
X149819649Y-119351323D01*
X149777319Y-119328935D01*
X149710885Y-119293713D01*
X149623242Y-119247192D01*
X149517285Y-119190911D01*
X149395911Y-119126408D01*
X149262016Y-119055221D01*
X149118496Y-118978886D01*
X149105631Y-118972043D01*
X148960899Y-118894907D01*
X148825189Y-118822310D01*
X148701457Y-118755851D01*
X148592661Y-118697132D01*
X148501756Y-118647754D01*
X148431701Y-118609317D01*
X148385450Y-118583422D01*
X148365962Y-118571670D01*
X148365676Y-118571419D01*
X148362175Y-118553132D01*
X148356096Y-118505135D01*
X148347819Y-118431455D01*
X148337727Y-118336121D01*
X148326200Y-118223160D01*
X148313619Y-118096598D01*
X148300365Y-117960463D01*
X148286819Y-117818784D01*
X148273363Y-117675586D01*
X148260377Y-117534898D01*
X148248243Y-117400747D01*
X148237341Y-117277160D01*
X148228053Y-117168165D01*
X148220759Y-117077790D01*
X148215841Y-117010061D01*
X148213680Y-116969006D01*
X148213612Y-116964220D01*
X148228750Y-116966198D01*
G37*
X148228750Y-116966198D02*
X148272727Y-116980950D01*
X148343381Y-117007608D01*
X148438555Y-117045302D01*
X148556088Y-117093164D01*
X148693822Y-117150325D01*
X148849597Y-117215916D01*
X149021253Y-117289068D01*
X149026412Y-117291279D01*
X149839212Y-117639643D01*
X149839212Y-118500261D01*
X149839131Y-118667339D01*
X149838900Y-118823661D01*
X149838533Y-118966055D01*
X149838046Y-119091347D01*
X149837456Y-119196367D01*
X149836777Y-119277941D01*
X149836026Y-119332896D01*
X149835217Y-119358062D01*
X149834978Y-119359337D01*
X149819649Y-119351323D01*
X149777319Y-119328935D01*
X149710885Y-119293713D01*
X149623242Y-119247192D01*
X149517285Y-119190911D01*
X149395911Y-119126408D01*
X149262016Y-119055221D01*
X149118496Y-118978886D01*
X149105631Y-118972043D01*
X148960899Y-118894907D01*
X148825189Y-118822310D01*
X148701457Y-118755851D01*
X148592661Y-118697132D01*
X148501756Y-118647754D01*
X148431701Y-118609317D01*
X148385450Y-118583422D01*
X148365962Y-118571670D01*
X148365676Y-118571419D01*
X148362175Y-118553132D01*
X148356096Y-118505135D01*
X148347819Y-118431455D01*
X148337727Y-118336121D01*
X148326200Y-118223160D01*
X148313619Y-118096598D01*
X148300365Y-117960463D01*
X148286819Y-117818784D01*
X148273363Y-117675586D01*
X148260377Y-117534898D01*
X148248243Y-117400747D01*
X148237341Y-117277160D01*
X148228053Y-117168165D01*
X148220759Y-117077790D01*
X148215841Y-117010061D01*
X148213680Y-116969006D01*
X148213612Y-116964220D01*
X148228750Y-116966198D01*
G36*
X149843985Y-119748893D02*
G01*
X149846570Y-119755385D01*
X149853178Y-119794558D01*
X149859652Y-119847814D01*
X149866193Y-119918009D01*
X149873000Y-120008000D01*
X149880273Y-120120644D01*
X149888211Y-120258796D01*
X149897015Y-120425315D01*
X149906024Y-120605479D01*
X149913669Y-120763792D01*
X149919497Y-120891710D01*
X149923519Y-120992657D01*
X149925749Y-121070053D01*
X149926198Y-121127322D01*
X149924880Y-121167887D01*
X149921807Y-121195169D01*
X149916992Y-121212592D01*
X149910446Y-121223577D01*
X149908306Y-121225965D01*
X149891038Y-121239910D01*
X149849518Y-121271662D01*
X149786787Y-121318970D01*
X149705883Y-121379586D01*
X149609845Y-121451261D01*
X149501713Y-121531746D01*
X149384526Y-121618793D01*
X149261323Y-121710152D01*
X149135143Y-121803574D01*
X149009026Y-121896811D01*
X148886010Y-121987614D01*
X148769135Y-122073734D01*
X148661441Y-122152922D01*
X148565965Y-122222928D01*
X148485748Y-122281505D01*
X148423829Y-122326403D01*
X148383246Y-122355374D01*
X148368358Y-122365468D01*
X148355184Y-122367804D01*
X148350850Y-122349277D01*
X148354223Y-122304037D01*
X148355067Y-122296745D01*
X148357776Y-122263565D01*
X148361785Y-122200211D01*
X148366905Y-122110344D01*
X148372944Y-121997625D01*
X148379710Y-121865712D01*
X148387012Y-121718267D01*
X148394659Y-121558950D01*
X148402460Y-121391421D01*
X148403063Y-121378252D01*
X148411592Y-121198936D01*
X148420047Y-121034736D01*
X148428252Y-120888390D01*
X148436028Y-120762637D01*
X148443199Y-120660216D01*
X148449585Y-120583865D01*
X148455011Y-120536322D01*
X148458688Y-120520663D01*
X148476545Y-120508041D01*
X148520842Y-120480434D01*
X148588582Y-120439609D01*
X148676772Y-120387331D01*
X148782416Y-120325367D01*
X148902520Y-120255483D01*
X149034088Y-120179445D01*
X149157525Y-120108529D01*
X149317146Y-120017185D01*
X149449937Y-119941537D01*
X149558378Y-119880314D01*
X149644949Y-119832246D01*
X149712130Y-119796060D01*
X149762401Y-119770487D01*
X149798242Y-119754254D01*
X149822133Y-119746092D01*
X149836554Y-119744729D01*
X149843985Y-119748893D01*
G37*
X149843985Y-119748893D02*
X149846570Y-119755385D01*
X149853178Y-119794558D01*
X149859652Y-119847814D01*
X149866193Y-119918009D01*
X149873000Y-120008000D01*
X149880273Y-120120644D01*
X149888211Y-120258796D01*
X149897015Y-120425315D01*
X149906024Y-120605479D01*
X149913669Y-120763792D01*
X149919497Y-120891710D01*
X149923519Y-120992657D01*
X149925749Y-121070053D01*
X149926198Y-121127322D01*
X149924880Y-121167887D01*
X149921807Y-121195169D01*
X149916992Y-121212592D01*
X149910446Y-121223577D01*
X149908306Y-121225965D01*
X149891038Y-121239910D01*
X149849518Y-121271662D01*
X149786787Y-121318970D01*
X149705883Y-121379586D01*
X149609845Y-121451261D01*
X149501713Y-121531746D01*
X149384526Y-121618793D01*
X149261323Y-121710152D01*
X149135143Y-121803574D01*
X149009026Y-121896811D01*
X148886010Y-121987614D01*
X148769135Y-122073734D01*
X148661441Y-122152922D01*
X148565965Y-122222928D01*
X148485748Y-122281505D01*
X148423829Y-122326403D01*
X148383246Y-122355374D01*
X148368358Y-122365468D01*
X148355184Y-122367804D01*
X148350850Y-122349277D01*
X148354223Y-122304037D01*
X148355067Y-122296745D01*
X148357776Y-122263565D01*
X148361785Y-122200211D01*
X148366905Y-122110344D01*
X148372944Y-121997625D01*
X148379710Y-121865712D01*
X148387012Y-121718267D01*
X148394659Y-121558950D01*
X148402460Y-121391421D01*
X148403063Y-121378252D01*
X148411592Y-121198936D01*
X148420047Y-121034736D01*
X148428252Y-120888390D01*
X148436028Y-120762637D01*
X148443199Y-120660216D01*
X148449585Y-120583865D01*
X148455011Y-120536322D01*
X148458688Y-120520663D01*
X148476545Y-120508041D01*
X148520842Y-120480434D01*
X148588582Y-120439609D01*
X148676772Y-120387331D01*
X148782416Y-120325367D01*
X148902520Y-120255483D01*
X149034088Y-120179445D01*
X149157525Y-120108529D01*
X149317146Y-120017185D01*
X149449937Y-119941537D01*
X149558378Y-119880314D01*
X149644949Y-119832246D01*
X149712130Y-119796060D01*
X149762401Y-119770487D01*
X149798242Y-119754254D01*
X149822133Y-119746092D01*
X149836554Y-119744729D01*
X149843985Y-119748893D01*
G36*
X146782404Y-119931979D02*
G01*
X146812891Y-119963506D01*
X146849189Y-120006204D01*
X146884172Y-120052015D01*
X146892812Y-120064377D01*
X146914520Y-120094714D01*
X146949715Y-120142261D01*
X146994206Y-120201521D01*
X147043799Y-120267000D01*
X147094302Y-120333203D01*
X147141522Y-120394636D01*
X147181267Y-120445802D01*
X147209343Y-120481209D01*
X147221558Y-120495359D01*
X147221699Y-120495412D01*
X147236306Y-120486011D01*
X147271769Y-120460796D01*
X147321833Y-120424253D01*
X147351540Y-120402279D01*
X147409496Y-120361209D01*
X147459385Y-120329460D01*
X147493678Y-120311666D01*
X147502362Y-120309441D01*
X147532656Y-120312646D01*
X147592957Y-120321579D01*
X147679988Y-120335714D01*
X147790473Y-120354522D01*
X147881080Y-120370375D01*
X147946482Y-120381928D01*
X147935721Y-120485237D01*
X147927179Y-120558374D01*
X147915825Y-120644313D01*
X147906011Y-120711840D01*
X147887062Y-120835135D01*
X147763199Y-120931974D01*
X147709867Y-120976236D01*
X147669621Y-121014583D01*
X147648081Y-121041398D01*
X147646150Y-121048954D01*
X147658075Y-121067984D01*
X147687459Y-121109540D01*
X147731127Y-121169292D01*
X147785906Y-121242909D01*
X147848622Y-121326060D01*
X147865554Y-121348335D01*
X147929407Y-121433264D01*
X147985554Y-121509968D01*
X148030934Y-121574094D01*
X148062482Y-121621292D01*
X148077138Y-121647210D01*
X148077803Y-121649927D01*
X148064770Y-121668604D01*
X148029777Y-121701721D01*
X147978539Y-121744194D01*
X147931114Y-121780443D01*
X147864235Y-121828718D01*
X147818773Y-121858119D01*
X147789863Y-121871132D01*
X147772642Y-121870245D01*
X147766355Y-121864686D01*
X147750572Y-121843889D01*
X147718070Y-121800857D01*
X147672491Y-121740419D01*
X147617477Y-121667401D01*
X147563459Y-121595655D01*
X147501868Y-121514221D01*
X147445142Y-121439954D01*
X147397278Y-121378029D01*
X147362273Y-121333625D01*
X147345552Y-121313451D01*
X147312131Y-121276357D01*
X147077488Y-121455148D01*
X146999687Y-121514854D01*
X146930749Y-121568559D01*
X146875454Y-121612474D01*
X146838582Y-121642813D01*
X146825555Y-121654772D01*
X146825006Y-121671777D01*
X146840630Y-121705000D01*
X146874038Y-121757025D01*
X146926837Y-121830440D01*
X146973305Y-121892148D01*
X147031326Y-121968511D01*
X147083605Y-122037754D01*
X147125993Y-122094348D01*
X147154339Y-122132763D01*
X147162677Y-122144485D01*
X147191634Y-122182750D01*
X147227093Y-122224494D01*
X147227102Y-122224504D01*
X147267194Y-122268729D01*
X147063404Y-122423471D01*
X146991541Y-122477378D01*
X146928916Y-122523112D01*
X146880559Y-122557096D01*
X146851501Y-122575751D01*
X146845807Y-122578213D01*
X146831959Y-122565293D01*
X146801047Y-122529166D01*
X146756246Y-122473779D01*
X146700727Y-122403080D01*
X146637666Y-122321018D01*
X146614403Y-122290346D01*
X146549079Y-122205140D01*
X146489674Y-122129947D01*
X146439463Y-122068727D01*
X146401724Y-122025443D01*
X146379731Y-122004058D01*
X146376401Y-122002479D01*
X146354452Y-122012303D01*
X146313651Y-122038486D01*
X146261482Y-122076096D01*
X146241493Y-122091379D01*
X146184032Y-122135651D01*
X146132769Y-122174548D01*
X146096676Y-122201277D01*
X146090477Y-122205679D01*
X146016816Y-122259111D01*
X145970080Y-122298567D01*
X145947574Y-122326489D01*
X145944545Y-122337681D01*
X145954320Y-122359931D01*
X145980920Y-122402639D01*
X146020261Y-122459624D01*
X146067312Y-122523457D01*
X146156875Y-122641594D01*
X146227669Y-122735323D01*
X146281522Y-122807120D01*
X146320260Y-122859461D01*
X146345713Y-122894823D01*
X146359708Y-122915680D01*
X146364072Y-122924510D01*
X146363855Y-122925141D01*
X146349519Y-122935954D01*
X146313341Y-122963462D01*
X146260394Y-123003802D01*
X146195750Y-123053113D01*
X146178262Y-123066462D01*
X146110680Y-123117266D01*
X146052463Y-123159558D01*
X146008972Y-123189549D01*
X145985567Y-123203456D01*
X145983528Y-123203979D01*
X145969724Y-123190804D01*
X145938988Y-123154453D01*
X145894543Y-123098967D01*
X145839611Y-123028388D01*
X145777415Y-122946757D01*
X145760721Y-122924579D01*
X145696714Y-122840695D01*
X145638476Y-122766926D01*
X145589363Y-122707319D01*
X145552732Y-122665922D01*
X145531940Y-122646780D01*
X145529619Y-122645946D01*
X145507185Y-122655840D01*
X145465865Y-122682281D01*
X145413016Y-122720408D01*
X145388844Y-122738976D01*
X145337479Y-122779654D01*
X145301986Y-122812087D01*
X145278376Y-122844193D01*
X145262659Y-122883889D01*
X145250845Y-122939094D01*
X145238945Y-123017726D01*
X145235217Y-123043879D01*
X145224005Y-123121482D01*
X145210535Y-123213345D01*
X145197625Y-123300244D01*
X145197012Y-123304331D01*
X145175723Y-123446250D01*
X144534144Y-123439798D01*
X144390095Y-123438015D01*
X144256904Y-123435722D01*
X144138315Y-123433033D01*
X144038077Y-123430061D01*
X143959934Y-123426920D01*
X143907634Y-123423722D01*
X143884923Y-123420581D01*
X143884315Y-123420147D01*
X143884822Y-123398351D01*
X143894233Y-123354334D01*
X143909303Y-123301614D01*
X143931701Y-123229268D01*
X143957562Y-123143740D01*
X143979604Y-123069279D01*
X143999458Y-123002180D01*
X144017493Y-122942847D01*
X144030156Y-122902949D01*
X144031172Y-122899946D01*
X144042011Y-122866555D01*
X144059915Y-122809549D01*
X144082138Y-122737729D01*
X144099872Y-122679813D01*
X144141239Y-122544554D01*
X144174229Y-122438306D01*
X144200169Y-122357635D01*
X144220385Y-122299104D01*
X144236204Y-122259279D01*
X144248952Y-122234723D01*
X144259956Y-122222002D01*
X144270541Y-122217680D01*
X144278259Y-122217795D01*
X144307100Y-122221465D01*
X144361597Y-122228736D01*
X144433864Y-122238544D01*
X144513678Y-122249506D01*
X144628066Y-122265512D01*
X144714418Y-122277144D01*
X144778351Y-122283799D01*
X144825487Y-122284874D01*
X144861444Y-122279765D01*
X144891842Y-122267868D01*
X144922301Y-122248581D01*
X144958438Y-122221300D01*
X144988228Y-122198548D01*
X145043296Y-122155700D01*
X145086253Y-122119611D01*
X145111072Y-122095482D01*
X145114812Y-122089300D01*
X145105156Y-122070759D01*
X145079092Y-122031774D01*
X145040971Y-121978655D01*
X145008979Y-121935830D01*
X144961605Y-121872993D01*
X144919620Y-121816591D01*
X144888799Y-121774417D01*
X144877745Y-121758709D01*
X144852659Y-121724278D01*
X144815881Y-121676794D01*
X144791084Y-121645882D01*
X144741558Y-121582574D01*
X144713142Y-121538283D01*
X144703616Y-121507480D01*
X144710760Y-121484631D01*
X144721657Y-121472853D01*
X144765475Y-121436392D01*
X144821795Y-121393074D01*
X144884277Y-121347329D01*
X144946586Y-121303585D01*
X145002384Y-121266272D01*
X145045333Y-121239818D01*
X145069098Y-121228652D01*
X145071053Y-121228662D01*
X145086559Y-121243494D01*
X145118853Y-121281202D01*
X145164478Y-121337514D01*
X145219976Y-121408156D01*
X145281892Y-121488854D01*
X145287186Y-121495837D01*
X145349931Y-121577875D01*
X145406931Y-121650905D01*
X145454616Y-121710467D01*
X145489411Y-121752105D01*
X145507745Y-121771358D01*
X145508283Y-121771730D01*
X145530705Y-121771055D01*
X145571546Y-121750355D01*
X145633216Y-121708266D01*
X145672848Y-121678597D01*
X145741520Y-121626238D01*
X145809137Y-121574872D01*
X145865533Y-121532212D01*
X145887785Y-121515481D01*
X145935889Y-121475922D01*
X145957037Y-121445721D01*
X145953659Y-121417403D01*
X145930011Y-121385504D01*
X145903013Y-121353304D01*
X145862972Y-121302764D01*
X145813629Y-121238896D01*
X145758727Y-121166710D01*
X145702009Y-121091218D01*
X145647218Y-121017429D01*
X145598096Y-120950355D01*
X145558386Y-120895008D01*
X145531831Y-120856397D01*
X145522174Y-120839533D01*
X145522176Y-120839485D01*
X145535160Y-120822821D01*
X145568155Y-120792832D01*
X145611076Y-120758309D01*
X145670881Y-120712489D01*
X145741781Y-120658102D01*
X145805700Y-120609016D01*
X145857554Y-120571198D01*
X145899845Y-120544085D01*
X145925106Y-120532361D01*
X145927895Y-120532386D01*
X145943534Y-120547230D01*
X145974985Y-120583859D01*
X146017813Y-120636908D01*
X146067588Y-120701011D01*
X146072211Y-120707079D01*
X146133306Y-120787394D01*
X146198051Y-120872506D01*
X146257729Y-120950956D01*
X146294773Y-120999654D01*
X146388525Y-121122895D01*
X146436623Y-121092787D01*
X146486025Y-121059874D01*
X146547958Y-121015684D01*
X146617154Y-120964329D01*
X146688344Y-120909924D01*
X146756258Y-120856583D01*
X146815628Y-120808421D01*
X146861184Y-120769550D01*
X146887656Y-120744086D01*
X146892190Y-120737088D01*
X146882535Y-120717885D01*
X146855218Y-120676227D01*
X146813295Y-120616448D01*
X146759822Y-120542880D01*
X146697855Y-120459859D01*
X146681145Y-120437807D01*
X146617566Y-120353473D01*
X146561626Y-120277966D01*
X146516380Y-120215514D01*
X146484878Y-120170347D01*
X146470174Y-120146693D01*
X146469478Y-120144583D01*
X146482165Y-120129714D01*
X146515623Y-120100580D01*
X146562949Y-120062435D01*
X146617242Y-120020535D01*
X146671598Y-119980136D01*
X146719116Y-119946494D01*
X146752891Y-119924864D01*
X146764854Y-119919679D01*
X146782404Y-119931979D01*
G37*
X146782404Y-119931979D02*
X146812891Y-119963506D01*
X146849189Y-120006204D01*
X146884172Y-120052015D01*
X146892812Y-120064377D01*
X146914520Y-120094714D01*
X146949715Y-120142261D01*
X146994206Y-120201521D01*
X147043799Y-120267000D01*
X147094302Y-120333203D01*
X147141522Y-120394636D01*
X147181267Y-120445802D01*
X147209343Y-120481209D01*
X147221558Y-120495359D01*
X147221699Y-120495412D01*
X147236306Y-120486011D01*
X147271769Y-120460796D01*
X147321833Y-120424253D01*
X147351540Y-120402279D01*
X147409496Y-120361209D01*
X147459385Y-120329460D01*
X147493678Y-120311666D01*
X147502362Y-120309441D01*
X147532656Y-120312646D01*
X147592957Y-120321579D01*
X147679988Y-120335714D01*
X147790473Y-120354522D01*
X147881080Y-120370375D01*
X147946482Y-120381928D01*
X147935721Y-120485237D01*
X147927179Y-120558374D01*
X147915825Y-120644313D01*
X147906011Y-120711840D01*
X147887062Y-120835135D01*
X147763199Y-120931974D01*
X147709867Y-120976236D01*
X147669621Y-121014583D01*
X147648081Y-121041398D01*
X147646150Y-121048954D01*
X147658075Y-121067984D01*
X147687459Y-121109540D01*
X147731127Y-121169292D01*
X147785906Y-121242909D01*
X147848622Y-121326060D01*
X147865554Y-121348335D01*
X147929407Y-121433264D01*
X147985554Y-121509968D01*
X148030934Y-121574094D01*
X148062482Y-121621292D01*
X148077138Y-121647210D01*
X148077803Y-121649927D01*
X148064770Y-121668604D01*
X148029777Y-121701721D01*
X147978539Y-121744194D01*
X147931114Y-121780443D01*
X147864235Y-121828718D01*
X147818773Y-121858119D01*
X147789863Y-121871132D01*
X147772642Y-121870245D01*
X147766355Y-121864686D01*
X147750572Y-121843889D01*
X147718070Y-121800857D01*
X147672491Y-121740419D01*
X147617477Y-121667401D01*
X147563459Y-121595655D01*
X147501868Y-121514221D01*
X147445142Y-121439954D01*
X147397278Y-121378029D01*
X147362273Y-121333625D01*
X147345552Y-121313451D01*
X147312131Y-121276357D01*
X147077488Y-121455148D01*
X146999687Y-121514854D01*
X146930749Y-121568559D01*
X146875454Y-121612474D01*
X146838582Y-121642813D01*
X146825555Y-121654772D01*
X146825006Y-121671777D01*
X146840630Y-121705000D01*
X146874038Y-121757025D01*
X146926837Y-121830440D01*
X146973305Y-121892148D01*
X147031326Y-121968511D01*
X147083605Y-122037754D01*
X147125993Y-122094348D01*
X147154339Y-122132763D01*
X147162677Y-122144485D01*
X147191634Y-122182750D01*
X147227093Y-122224494D01*
X147227102Y-122224504D01*
X147267194Y-122268729D01*
X147063404Y-122423471D01*
X146991541Y-122477378D01*
X146928916Y-122523112D01*
X146880559Y-122557096D01*
X146851501Y-122575751D01*
X146845807Y-122578213D01*
X146831959Y-122565293D01*
X146801047Y-122529166D01*
X146756246Y-122473779D01*
X146700727Y-122403080D01*
X146637666Y-122321018D01*
X146614403Y-122290346D01*
X146549079Y-122205140D01*
X146489674Y-122129947D01*
X146439463Y-122068727D01*
X146401724Y-122025443D01*
X146379731Y-122004058D01*
X146376401Y-122002479D01*
X146354452Y-122012303D01*
X146313651Y-122038486D01*
X146261482Y-122076096D01*
X146241493Y-122091379D01*
X146184032Y-122135651D01*
X146132769Y-122174548D01*
X146096676Y-122201277D01*
X146090477Y-122205679D01*
X146016816Y-122259111D01*
X145970080Y-122298567D01*
X145947574Y-122326489D01*
X145944545Y-122337681D01*
X145954320Y-122359931D01*
X145980920Y-122402639D01*
X146020261Y-122459624D01*
X146067312Y-122523457D01*
X146156875Y-122641594D01*
X146227669Y-122735323D01*
X146281522Y-122807120D01*
X146320260Y-122859461D01*
X146345713Y-122894823D01*
X146359708Y-122915680D01*
X146364072Y-122924510D01*
X146363855Y-122925141D01*
X146349519Y-122935954D01*
X146313341Y-122963462D01*
X146260394Y-123003802D01*
X146195750Y-123053113D01*
X146178262Y-123066462D01*
X146110680Y-123117266D01*
X146052463Y-123159558D01*
X146008972Y-123189549D01*
X145985567Y-123203456D01*
X145983528Y-123203979D01*
X145969724Y-123190804D01*
X145938988Y-123154453D01*
X145894543Y-123098967D01*
X145839611Y-123028388D01*
X145777415Y-122946757D01*
X145760721Y-122924579D01*
X145696714Y-122840695D01*
X145638476Y-122766926D01*
X145589363Y-122707319D01*
X145552732Y-122665922D01*
X145531940Y-122646780D01*
X145529619Y-122645946D01*
X145507185Y-122655840D01*
X145465865Y-122682281D01*
X145413016Y-122720408D01*
X145388844Y-122738976D01*
X145337479Y-122779654D01*
X145301986Y-122812087D01*
X145278376Y-122844193D01*
X145262659Y-122883889D01*
X145250845Y-122939094D01*
X145238945Y-123017726D01*
X145235217Y-123043879D01*
X145224005Y-123121482D01*
X145210535Y-123213345D01*
X145197625Y-123300244D01*
X145197012Y-123304331D01*
X145175723Y-123446250D01*
X144534144Y-123439798D01*
X144390095Y-123438015D01*
X144256904Y-123435722D01*
X144138315Y-123433033D01*
X144038077Y-123430061D01*
X143959934Y-123426920D01*
X143907634Y-123423722D01*
X143884923Y-123420581D01*
X143884315Y-123420147D01*
X143884822Y-123398351D01*
X143894233Y-123354334D01*
X143909303Y-123301614D01*
X143931701Y-123229268D01*
X143957562Y-123143740D01*
X143979604Y-123069279D01*
X143999458Y-123002180D01*
X144017493Y-122942847D01*
X144030156Y-122902949D01*
X144031172Y-122899946D01*
X144042011Y-122866555D01*
X144059915Y-122809549D01*
X144082138Y-122737729D01*
X144099872Y-122679813D01*
X144141239Y-122544554D01*
X144174229Y-122438306D01*
X144200169Y-122357635D01*
X144220385Y-122299104D01*
X144236204Y-122259279D01*
X144248952Y-122234723D01*
X144259956Y-122222002D01*
X144270541Y-122217680D01*
X144278259Y-122217795D01*
X144307100Y-122221465D01*
X144361597Y-122228736D01*
X144433864Y-122238544D01*
X144513678Y-122249506D01*
X144628066Y-122265512D01*
X144714418Y-122277144D01*
X144778351Y-122283799D01*
X144825487Y-122284874D01*
X144861444Y-122279765D01*
X144891842Y-122267868D01*
X144922301Y-122248581D01*
X144958438Y-122221300D01*
X144988228Y-122198548D01*
X145043296Y-122155700D01*
X145086253Y-122119611D01*
X145111072Y-122095482D01*
X145114812Y-122089300D01*
X145105156Y-122070759D01*
X145079092Y-122031774D01*
X145040971Y-121978655D01*
X145008979Y-121935830D01*
X144961605Y-121872993D01*
X144919620Y-121816591D01*
X144888799Y-121774417D01*
X144877745Y-121758709D01*
X144852659Y-121724278D01*
X144815881Y-121676794D01*
X144791084Y-121645882D01*
X144741558Y-121582574D01*
X144713142Y-121538283D01*
X144703616Y-121507480D01*
X144710760Y-121484631D01*
X144721657Y-121472853D01*
X144765475Y-121436392D01*
X144821795Y-121393074D01*
X144884277Y-121347329D01*
X144946586Y-121303585D01*
X145002384Y-121266272D01*
X145045333Y-121239818D01*
X145069098Y-121228652D01*
X145071053Y-121228662D01*
X145086559Y-121243494D01*
X145118853Y-121281202D01*
X145164478Y-121337514D01*
X145219976Y-121408156D01*
X145281892Y-121488854D01*
X145287186Y-121495837D01*
X145349931Y-121577875D01*
X145406931Y-121650905D01*
X145454616Y-121710467D01*
X145489411Y-121752105D01*
X145507745Y-121771358D01*
X145508283Y-121771730D01*
X145530705Y-121771055D01*
X145571546Y-121750355D01*
X145633216Y-121708266D01*
X145672848Y-121678597D01*
X145741520Y-121626238D01*
X145809137Y-121574872D01*
X145865533Y-121532212D01*
X145887785Y-121515481D01*
X145935889Y-121475922D01*
X145957037Y-121445721D01*
X145953659Y-121417403D01*
X145930011Y-121385504D01*
X145903013Y-121353304D01*
X145862972Y-121302764D01*
X145813629Y-121238896D01*
X145758727Y-121166710D01*
X145702009Y-121091218D01*
X145647218Y-121017429D01*
X145598096Y-120950355D01*
X145558386Y-120895008D01*
X145531831Y-120856397D01*
X145522174Y-120839533D01*
X145522176Y-120839485D01*
X145535160Y-120822821D01*
X145568155Y-120792832D01*
X145611076Y-120758309D01*
X145670881Y-120712489D01*
X145741781Y-120658102D01*
X145805700Y-120609016D01*
X145857554Y-120571198D01*
X145899845Y-120544085D01*
X145925106Y-120532361D01*
X145927895Y-120532386D01*
X145943534Y-120547230D01*
X145974985Y-120583859D01*
X146017813Y-120636908D01*
X146067588Y-120701011D01*
X146072211Y-120707079D01*
X146133306Y-120787394D01*
X146198051Y-120872506D01*
X146257729Y-120950956D01*
X146294773Y-120999654D01*
X146388525Y-121122895D01*
X146436623Y-121092787D01*
X146486025Y-121059874D01*
X146547958Y-121015684D01*
X146617154Y-120964329D01*
X146688344Y-120909924D01*
X146756258Y-120856583D01*
X146815628Y-120808421D01*
X146861184Y-120769550D01*
X146887656Y-120744086D01*
X146892190Y-120737088D01*
X146882535Y-120717885D01*
X146855218Y-120676227D01*
X146813295Y-120616448D01*
X146759822Y-120542880D01*
X146697855Y-120459859D01*
X146681145Y-120437807D01*
X146617566Y-120353473D01*
X146561626Y-120277966D01*
X146516380Y-120215514D01*
X146484878Y-120170347D01*
X146470174Y-120146693D01*
X146469478Y-120144583D01*
X146482165Y-120129714D01*
X146515623Y-120100580D01*
X146562949Y-120062435D01*
X146617242Y-120020535D01*
X146671598Y-119980136D01*
X146719116Y-119946494D01*
X146752891Y-119924864D01*
X146764854Y-119919679D01*
X146782404Y-119931979D01*
%TD*%
D11*
%TO.C,D11*%
X174122504Y-90155000D03*
X174122504Y-91905000D03*
X177622504Y-91905000D03*
X177622504Y-90155000D03*
%TD*%
D12*
%TO.C,FID2*%
X180000000Y-99500000D03*
%TD*%
D11*
%TO.C,D7*%
X167350000Y-109375000D03*
X167350000Y-107625000D03*
X163850000Y-107625000D03*
X163850000Y-109375000D03*
%TD*%
%TO.C,D3*%
X153322504Y-90155000D03*
X153322504Y-91905000D03*
X156822504Y-91905000D03*
X156822504Y-90155000D03*
%TD*%
%TO.C,D5*%
X156950000Y-109375000D03*
X156950000Y-107625000D03*
X153450000Y-107625000D03*
X153450000Y-109375000D03*
%TD*%
%TO.C,D14*%
X163722504Y-90155000D03*
X163722504Y-91905000D03*
X167222504Y-91905000D03*
X167222504Y-90155000D03*
%TD*%
%TO.C,D10*%
X122122504Y-90155000D03*
X122122504Y-91905000D03*
X125622504Y-91905000D03*
X125622504Y-90155000D03*
%TD*%
D13*
%TO.C,SW1*%
X138400000Y-124000000D03*
X131600000Y-124000000D03*
X138400000Y-120000000D03*
X131600000Y-120000000D03*
%TD*%
D11*
%TO.C,D4*%
X136150000Y-109375000D03*
X136150000Y-107625000D03*
X132650000Y-107625000D03*
X132650000Y-109375000D03*
%TD*%
D12*
%TO.C,FID1*%
X120000000Y-99500000D03*
%TD*%
D13*
%TO.C,SW2*%
X161600000Y-124000000D03*
X168400000Y-124000000D03*
X168400000Y-120000000D03*
X161600000Y-120000000D03*
%TD*%
D11*
%TO.C,D6*%
X142922504Y-90155000D03*
X142922504Y-91905000D03*
X146422504Y-91905000D03*
X146422504Y-90155000D03*
%TD*%
D14*
%TO.C,D15*%
X161835629Y-74015846D03*
X161014054Y-75561004D03*
X164104371Y-77204154D03*
X164925946Y-75658996D03*
%TD*%
D11*
%TO.C,D2*%
X146550000Y-109375000D03*
X146550000Y-107625000D03*
X143050000Y-107625000D03*
X143050000Y-109375000D03*
%TD*%
D15*
%TO.C,U4*%
X150000000Y-67000000D03*
%TD*%
D16*
%TO.C,J1*%
X148730000Y-72378010D03*
X151270000Y-72378010D03*
%TD*%
D11*
%TO.C,D9*%
X177750000Y-109375000D03*
X177750000Y-107625000D03*
X174250000Y-107625000D03*
X174250000Y-109375000D03*
%TD*%
%TO.C,D8*%
X132522504Y-90155000D03*
X132522504Y-91905000D03*
X136022504Y-91905000D03*
X136022504Y-90155000D03*
%TD*%
%TO.C,D1*%
X125750000Y-109375000D03*
X125750000Y-107625000D03*
X122250000Y-107625000D03*
X122250000Y-109375000D03*
%TD*%
D17*
%TO.C,D12*%
X135074054Y-75658996D03*
X135895629Y-77204154D03*
X138985946Y-75561004D03*
X138164371Y-74015846D03*
%TD*%
D18*
%TO.C,J5*%
X173920000Y-113810000D03*
%TD*%
D19*
%TO.C,J6*%
X128840000Y-82240000D03*
%TD*%
D20*
%TO.C,J8*%
X126080000Y-86190000D03*
%TD*%
D21*
%TO.C,J2*%
X173920000Y-86190000D03*
%TD*%
D22*
%TO.C,J13*%
X128840000Y-117760000D03*
%TD*%
D21*
%TO.C,J10*%
X126080000Y-113810000D03*
%TD*%
D23*
%TO.C,J4*%
X171160000Y-117760000D03*
%TD*%
D22*
%TO.C,J3*%
X171160000Y-82240000D03*
%TD*%
M02*
