%TF.GenerationSoftware,KiCad,Pcbnew,(6.0.7-1)-1*%
%TF.CreationDate,2022-12-12T20:47:58-08:00*%
%TF.ProjectId,ChristmasCountdown2022,43687269-7374-46d6-9173-436f756e7464,rev?*%
%TF.SameCoordinates,Original*%
%TF.FileFunction,Paste,Bot*%
%TF.FilePolarity,Positive*%
%FSLAX46Y46*%
G04 Gerber Fmt 4.6, Leading zero omitted, Abs format (unit mm)*
G04 Created by KiCad (PCBNEW (6.0.7-1)-1) date 2022-12-12 20:47:58*
%MOMM*%
%LPD*%
G01*
G04 APERTURE LIST*
G04 Aperture macros list*
%AMRoundRect*
0 Rectangle with rounded corners*
0 $1 Rounding radius*
0 $2 $3 $4 $5 $6 $7 $8 $9 X,Y pos of 4 corners*
0 Add a 4 corners polygon primitive as box body*
4,1,4,$2,$3,$4,$5,$6,$7,$8,$9,$2,$3,0*
0 Add four circle primitives for the rounded corners*
1,1,$1+$1,$2,$3*
1,1,$1+$1,$4,$5*
1,1,$1+$1,$6,$7*
1,1,$1+$1,$8,$9*
0 Add four rect primitives between the rounded corners*
20,1,$1+$1,$2,$3,$4,$5,0*
20,1,$1+$1,$4,$5,$6,$7,0*
20,1,$1+$1,$6,$7,$8,$9,0*
20,1,$1+$1,$8,$9,$2,$3,0*%
G04 Aperture macros list end*
%ADD10C,0.010000*%
%ADD11RoundRect,0.250000X0.262500X0.450000X-0.262500X0.450000X-0.262500X-0.450000X0.262500X-0.450000X0*%
%ADD12RoundRect,0.250000X0.475000X-0.250000X0.475000X0.250000X-0.475000X0.250000X-0.475000X-0.250000X0*%
%ADD13RoundRect,0.250000X0.250000X0.475000X-0.250000X0.475000X-0.250000X-0.475000X0.250000X-0.475000X0*%
%ADD14RoundRect,0.250000X-0.450000X0.262500X-0.450000X-0.262500X0.450000X-0.262500X0.450000X0.262500X0*%
%ADD15RoundRect,0.150000X-0.587500X-0.150000X0.587500X-0.150000X0.587500X0.150000X-0.587500X0.150000X0*%
%ADD16RoundRect,0.250000X-0.250000X-0.475000X0.250000X-0.475000X0.250000X0.475000X-0.250000X0.475000X0*%
%ADD17RoundRect,0.250000X-0.475000X0.250000X-0.475000X-0.250000X0.475000X-0.250000X0.475000X0.250000X0*%
%ADD18R,0.800000X0.400000*%
%ADD19R,0.400000X0.800000*%
%ADD20R,1.450000X1.450000*%
%ADD21R,0.700000X0.700000*%
%ADD22R,3.403600X1.843799*%
%ADD23R,0.508000X0.504800*%
%ADD24R,0.921499X0.431800*%
%ADD25R,0.800000X1.500000*%
%ADD26R,1.000000X0.900000*%
%ADD27RoundRect,0.250000X-0.262500X-0.450000X0.262500X-0.450000X0.262500X0.450000X-0.262500X0.450000X0*%
%ADD28R,5.100000X2.500000*%
%ADD29RoundRect,0.243750X-0.243750X-0.456250X0.243750X-0.456250X0.243750X0.456250X-0.243750X0.456250X0*%
%ADD30R,0.711200X0.254000*%
%ADD31R,1.295400X2.200000*%
G04 APERTURE END LIST*
%TO.C,U2*%
G36*
X148750000Y-124460000D02*
G01*
X147900000Y-124460000D01*
X147300000Y-123860000D01*
X147300000Y-123010000D01*
X148750000Y-123010000D01*
X148750000Y-124460000D01*
G37*
D10*
X148750000Y-124460000D02*
X147900000Y-124460000D01*
X147300000Y-123860000D01*
X147300000Y-123010000D01*
X148750000Y-123010000D01*
X148750000Y-124460000D01*
%TD*%
D11*
%TO.C,R8*%
X167815900Y-111582200D03*
X165990900Y-111582200D03*
%TD*%
D12*
%TO.C,C9*%
X163675000Y-91950000D03*
X163675000Y-90050000D03*
%TD*%
D13*
%TO.C,C10*%
X176464000Y-110490000D03*
X174564000Y-110490000D03*
%TD*%
D12*
%TO.C,C11*%
X173675000Y-91950000D03*
X173675000Y-90050000D03*
%TD*%
D14*
%TO.C,R7*%
X146675000Y-111787500D03*
X146675000Y-113612500D03*
%TD*%
D15*
%TO.C,Q2*%
X151437500Y-101000000D03*
X151437500Y-99100000D03*
X153312500Y-100050000D03*
%TD*%
D16*
%TO.C,C17*%
X161110000Y-104350000D03*
X163010000Y-104350000D03*
%TD*%
D12*
%TO.C,C25*%
X148640800Y-106817200D03*
X148640800Y-104917200D03*
%TD*%
D17*
%TO.C,C2*%
X142425000Y-107300000D03*
X142425000Y-109200000D03*
%TD*%
D11*
%TO.C,R1*%
X157087500Y-80441800D03*
X155262500Y-80441800D03*
%TD*%
D12*
%TO.C,C12*%
X125675000Y-91950000D03*
X125675000Y-90050000D03*
%TD*%
D18*
%TO.C,U2*%
X144100000Y-125760000D03*
X144100000Y-124960000D03*
X144100000Y-124160000D03*
X144100000Y-123360000D03*
X144100000Y-122560000D03*
X144100000Y-121760000D03*
X144100000Y-120960000D03*
X144100000Y-120160000D03*
X144100000Y-119360000D03*
X144100000Y-118560000D03*
X144100000Y-117760000D03*
D19*
X145200000Y-116860000D03*
X146000000Y-116860000D03*
X146800000Y-116860000D03*
X147600000Y-116860000D03*
X148400000Y-116860000D03*
X149200000Y-116860000D03*
X150000000Y-116860000D03*
X150800000Y-116860000D03*
X151600000Y-116860000D03*
X152400000Y-116860000D03*
X153200000Y-116860000D03*
X154000000Y-116860000D03*
X154800000Y-116860000D03*
D18*
X155900000Y-117760000D03*
X155900000Y-118560000D03*
X155900000Y-119360000D03*
X155900000Y-120160000D03*
X155900000Y-120960000D03*
X155900000Y-121760000D03*
X155900000Y-122560000D03*
X155900000Y-123360000D03*
X155900000Y-124160000D03*
X155900000Y-124960000D03*
X155900000Y-125760000D03*
D19*
X154800000Y-126660000D03*
X154000000Y-126660000D03*
X153200000Y-126660000D03*
X152400000Y-126660000D03*
X151600000Y-126660000D03*
X150800000Y-126660000D03*
X150000000Y-126660000D03*
X149200000Y-126660000D03*
X148400000Y-126660000D03*
X147600000Y-126660000D03*
X146800000Y-126660000D03*
X146000000Y-126660000D03*
X145200000Y-126660000D03*
D20*
X150000000Y-123735000D03*
X151975000Y-123735000D03*
X151975000Y-121760000D03*
X151975000Y-119785000D03*
X150000000Y-119785000D03*
X148025000Y-119785000D03*
X148025000Y-121760000D03*
X150000000Y-121760000D03*
D21*
X155950000Y-126710000D03*
X155950000Y-116810000D03*
X144050000Y-116810000D03*
X144050000Y-126710000D03*
%TD*%
D22*
%TO.C,X1*%
X121194000Y-103825499D03*
X121194000Y-96174501D03*
%TD*%
D14*
%TO.C,R4*%
X155875000Y-111787500D03*
X155875000Y-113612500D03*
%TD*%
D12*
%TO.C,C23*%
X141732000Y-125410000D03*
X141732000Y-123510000D03*
%TD*%
D11*
%TO.C,R10*%
X160322900Y-121132600D03*
X158497900Y-121132600D03*
%TD*%
D23*
%TO.C,MOSFET1*%
X145960001Y-78262200D03*
X144059999Y-78262200D03*
X145010000Y-75877800D03*
%TD*%
D24*
%TO.C,U1*%
X151888749Y-78050001D03*
X151888749Y-77100000D03*
X151888749Y-76149999D03*
X154461251Y-76149999D03*
X154461251Y-78050001D03*
%TD*%
D25*
%TO.C,Y1*%
X151970000Y-106430000D03*
X150470000Y-106430000D03*
%TD*%
D14*
%TO.C,R9*%
X139573000Y-117451500D03*
X139573000Y-119276500D03*
%TD*%
D26*
%TO.C,S1*%
X161200000Y-97950000D03*
X161200000Y-102050000D03*
X162800000Y-97950000D03*
X162800000Y-102050000D03*
%TD*%
D27*
%TO.C,C20*%
X154262500Y-104350000D03*
X156087500Y-104350000D03*
%TD*%
D17*
%TO.C,C14*%
X156875000Y-76250000D03*
X156875000Y-78150000D03*
%TD*%
D28*
%TO.C,BT1*%
X177425000Y-107600000D03*
X177425000Y-92400000D03*
%TD*%
D12*
%TO.C,C3*%
X142925000Y-91950000D03*
X142925000Y-90050000D03*
%TD*%
%TO.C,C24*%
X139700000Y-125410000D03*
X139700000Y-123510000D03*
%TD*%
D11*
%TO.C,R6*%
X149287500Y-97350000D03*
X147462500Y-97350000D03*
%TD*%
D17*
%TO.C,C5*%
X157175000Y-107550000D03*
X157175000Y-109450000D03*
%TD*%
D27*
%TO.C,R3*%
X148587500Y-112000000D03*
X150412500Y-112000000D03*
%TD*%
D12*
%TO.C,C13*%
X138925000Y-77450000D03*
X138925000Y-75550000D03*
%TD*%
%TO.C,C22*%
X141732000Y-119314000D03*
X141732000Y-117414000D03*
%TD*%
D17*
%TO.C,C8*%
X168910000Y-107760000D03*
X168910000Y-109660000D03*
%TD*%
D16*
%TO.C,C21*%
X168025000Y-104550000D03*
X169925000Y-104550000D03*
%TD*%
D12*
%TO.C,C15*%
X164925000Y-77950000D03*
X164925000Y-76050000D03*
%TD*%
D27*
%TO.C,R11*%
X139803500Y-121335800D03*
X141628500Y-121335800D03*
%TD*%
D12*
%TO.C,C7*%
X149875000Y-78150000D03*
X149875000Y-76250000D03*
%TD*%
D17*
%TO.C,C4*%
X132675000Y-107550000D03*
X132675000Y-109450000D03*
%TD*%
%TO.C,C1*%
X122175000Y-107550000D03*
X122175000Y-109450000D03*
%TD*%
D29*
%TO.C,D13*%
X147728700Y-80441800D03*
X149603700Y-80441800D03*
%TD*%
D26*
%TO.C,S2*%
X137200000Y-97950000D03*
X137200000Y-102050000D03*
X138800000Y-97950000D03*
X138800000Y-102050000D03*
%TD*%
D16*
%TO.C,C18*%
X137226000Y-105156000D03*
X139126000Y-105156000D03*
%TD*%
D12*
%TO.C,C16*%
X132425000Y-91950000D03*
X132425000Y-90050000D03*
%TD*%
D11*
%TO.C,C19*%
X152587500Y-104350000D03*
X150762500Y-104350000D03*
%TD*%
%TO.C,R2*%
X154075000Y-112000000D03*
X152250000Y-112000000D03*
%TD*%
%TO.C,R5*%
X153087500Y-97350000D03*
X151262500Y-97350000D03*
%TD*%
D15*
%TO.C,Q1*%
X147237500Y-101000000D03*
X147237500Y-99100000D03*
X149112500Y-100050000D03*
%TD*%
D30*
%TO.C,U3*%
X152570400Y-107999748D03*
X152570400Y-108499874D03*
X152570400Y-109000000D03*
X152570400Y-109500126D03*
X152570400Y-110000252D03*
X149979600Y-110000252D03*
X149979600Y-109500126D03*
X149979600Y-109000000D03*
X149979600Y-108499874D03*
X149979600Y-107999748D03*
D31*
X151275000Y-109000000D03*
%TD*%
D12*
%TO.C,C6*%
X153425000Y-91950000D03*
X153425000Y-90050000D03*
%TD*%
M02*
